<?xml version="1.0" encoding="utf-8"?>
<!-- Generator: Adobe Illustrator 17.0.0, SVG Export Plug-In . SVG Version: 6.00 Build 0)  -->
<!DOCTYPE svg PUBLIC "-//W3C//DTD SVG 1.1//EN" "http://www.w3.org/Graphics/SVG/1.1/DTD/svg11.dtd">
<svg version="1.1"
	 id="svg2203" xmlns:sodipodi="http://sodipodi.sourceforge.net/DTD/sodipodi-0.dtd" xmlns:inkscape="http://www.inkscape.org/namespaces/inkscape" xmlns:dc="http://purl.org/dc/elements/1.1/" xmlns:cc="http://web.resource.org/cc/" xmlns:rdf="http://www.w3.org/1999/02/22-rdf-syntax-ns#" xmlns:svg="http://www.w3.org/2000/svg" inkscape:output_extension="org.inkscape.output.svg.inkscape" inkscape:version="0.45.1" sodipodi:docbase="D:\SVG\闂傚倸鍊搁崐鎼佸磹閹间礁纾归柟闂寸绾惧綊鏌熼梻瀵哥痪鎯х秺閺岀喖姊荤€靛摜鐥幆褏绉洪柡宀€鍠栧鑽も偓闈涙憸閻ュ礈瑜庨崵鈧梺璇插嚱缁叉儳鐣烽幎鑺モ拺缂備焦锕㈤弻鏇㈠幢濡櫣鐟ㄩ梻浣瑰缁诲倿骞婂鍡欑彾闁哄洨鍠嶇换鍡涙煏閸繃鎼愰崯鎼佹⒑缁嬪潡宕戦妶澶婄畺鐟滄棃骞冮埡鍛殤閻庢碍纰嶇换娑㈠级閹寸偟绡€闁汇垽娼ф禒婊勪繆閻熲晛鐣峰┑瀣嵆闁靛繒濮烽梻浣告啞缁嬫垿鎮洪妸鈺佺厱闁硅揪闄勯埛鎺楁煕閸犳捇濡撮幒鏃傜＜闁绘ɑ褰冮弳閬嶆煃鐟欏嫬鐏寸€靛妽濞煎繘鍩￠崘鍔归梻浣告贡閸庛倝鏌涢妶鍛殻闁哄苯绉瑰畷宕熷▓鍫曟⒑閹稿海鈯曠紒璇插暟閹广垹鈽夊▎鎰Ф闂佸憡鎸嗛崘纾藉ù锝囧劋閸ｄ即鎮楃憴鍕樈婵炴彃浜楀┑鐐叉閹稿鎮￠弴鐔虹闁瑰鍎戦崗鏌￠埀绻濆鍘辨繝鐢靛Т閸熸叏瀹ュ鐓" sodipodi:docname="闂傚倸鍊搁崐鎼佸磹閹间礁纾归柟闂寸绾惧綊鏌熼梻瀵哥痪鎯х秺閺岀喖姊荤€靛摜鐥幆褎璐￠柍褎鍤€閻庢艾闂痪鎯ф禍褰掓煙閻戞ê鐏╅柛濠勫仱濮婃椽宕崟娈梺缁橀敃鐣烽幋锕€绠涢柣妤€鐗忛崢鍗炩攽閻愬弶缂佺粯锚閻ｉ攱瀵奸弶鎴犵杸缂佺偓宕樺Λ鍕箒闂佹寧绻傚Λ妤呮倶婵犲洦鐓曟慨妯哄箞闂佽鍑界徊濂稿箣閻戣姤鈷戦柣鐔稿閻ｆ煕閵娿儳绉洪柛鈺冨仱楠炲鎮╂禍楣冩煥濠靛棛绠抽幖鏉戯工閳规垿鎮╅崹姣勬繝鍨唉闁轰礁鍟存俊鑸靛緞婵犲嫮鏋冮梻浣芥竟鍡樻櫠濡ゅ懎鐤剧紒缁樼箖缁绘繈宕掑鐤侀梻浣姐€€閸嬫挸霉閻樻煡鎮￠崘鐓冮弶鐐村闂佸搫妫庨崹濠氭儉瀹曟垿骞橀崜浣猴紳闂佺鏈懝楣冨焵閸忔﹢骞婂Δ鍛殝闁搞劌浼庨梻鍌氬€搁悧濠勭矙閹捐姹查柛鈩冪懅绾惧ジ鎮楅敐鍕闂佺粯鎸堕崐妤冩閹烘鍋愰柤澶广劑姊洪崫鍕効缂傚秳绶氶悰宕堕埡浣虹瓘闁荤姴娲︾粊鎾绩閼恒儳绠鹃柛娆忔晶鐢告煕閳哄啫浠辨鐐查弫鍌炴嚍閵夛妇褰ㄩ梻鍌欑閹测€趁洪弽绠洪悗锝囩槇缂佸墽澧楄彜闁稿鎹囬獮搴ㄦ嚍閵壯冨箥闂備胶闁圭懓娲悰寮介妸锔剧Ф闂佸憡鎸嗛崟杩橀梻鍌欒兌缁箰婵犳艾绠查柛銉ㄦ憰闂佹寧绻傞柛瀣姍閺屾稑鈻庤箛鏇犵幓婵炴垯鍨洪埛鎴犵磼鐎ｅ仴妤犵偞鍔曠€光偓閳х闁秵鈷掑ù锝呮啞閸熺偤鏌涢弮鈧悧鏇炲祫濠碉攻濡炰粙寮婚崨瀛樺€烽柟缁樺浮閺屾稑螣閸忓吋姣堝┑锕ュ浠嬪箠濠靛绾ч柛銊ュ姃濠" sodipodi:version="0.32"
	 xmlns="http://www.w3.org/2000/svg" xmlns:xlink="http://www.w3.org/1999/xlink" x="0px" y="0px" width="30px" height="30px"
	 viewBox="0 0 30 30" enable-background="new 0 0 30 30" xml:space="preserve">
<sodipodi:namedview  id="base" pagecolor="#ffffff" inkscape:zoom="0.74999999" inkscape:cx="126.79097" gridtolerance="10000" showguides="true" bordercolor="#666666" borderopacity="1.0" guidetolerance="10" objecttolerance="10" inkscape:cy="646.08493" inkscape:pageshadow="2" inkscape:guide-bbox="true" inkscape:pageopacity="0.0" inkscape:document-units="px" inkscape:current-layer="layer1" inkscape:window-width="1280" inkscape:window-x="-4" inkscape:window-y="-4" inkscape:window-height="968">
	<sodipodi:guide  position="1116" orientation="vertical" id="guide22942"></sodipodi:guide>
	<sodipodi:guide  position="1147" orientation="vertical" id="guide22944"></sodipodi:guide>
</sodipodi:namedview>
<g>
	<path id="path14" fill="#787878" d="M3.866,15.002c0,6.138,4.999,11.131,11.131,11.131c6.14,0,11.137-4.994,11.137-11.131
		c0-6.139-4.999-11.135-11.137-11.135C8.863,3.867,3.866,8.864,3.866,15.002z"/>
	<path id="path14_1_" fill="#FFFFFF" d="M5.908,15c0,5.015,4.08,9.092,9.097,9.092c5.014,0,9.087-4.078,9.087-9.092
		s-4.073-9.092-9.087-9.092C9.987,5.908,5.908,9.987,5.908,15z"/>
	<path fill="#787878" d="M18.302,15.162c0-1.458,0.241-2.559,0.729-3.308c0.479-0.748,1.184-1.122,2.101-1.122
		c1.748,0,2.622,1.411,2.622,4.231c0,1.395-0.246,2.458-0.738,3.194c-0.491,0.737-1.182,1.107-2.066,1.107
		c-0.843,0-1.486-0.354-1.946-1.053C18.531,17.516,18.302,16.499,18.302,15.162z"/>
	<path fill="#FFFFFF" d="M19.368,15.115c0,2.193,0.556,3.289,1.668,3.289c1.095,0,1.642-1.113,1.642-3.342
		c0-2.308-0.536-3.46-1.604-3.46C19.934,11.601,19.368,12.773,19.368,15.115z"/>
	<path fill="#787878" d="M12.209,15.162c0-1.458,0.241-2.559,0.727-3.308c0.481-0.748,1.188-1.122,2.104-1.122
		c1.748,0,2.622,1.411,2.622,4.231c0,1.395-0.246,2.458-0.738,3.194c-0.491,0.737-1.182,1.107-2.07,1.107
		c-0.839,0-1.482-0.354-1.942-1.053C12.439,17.516,12.209,16.499,12.209,15.162z"/>
	<path fill="#FFFFFF" d="M13.276,15.115c0,2.193,0.56,3.289,1.672,3.289c1.095,0,1.642-1.113,1.642-3.342
		c0-2.308-0.536-3.46-1.607-3.46C13.841,11.601,13.276,12.773,13.276,15.115z"/>
	<g>
		<path fill="#787878" d="M11.421,19.23h-5.06v-0.914l2.417-2.412c0.666-0.666,1.108-1.193,1.337-1.582
			c0.226-0.389,0.338-0.791,0.338-1.206c0-0.473-0.132-0.835-0.397-1.088C9.791,11.776,9.41,11.65,8.91,11.65
			c-0.741,0-1.448,0.313-2.122,0.945v-1.069c0.651-0.505,1.418-0.757,2.288-0.757c0.749,0,1.339,0.202,1.771,0.605
			c0.437,0.405,0.65,0.949,0.65,1.633c0,0.518-0.143,1.021-0.417,1.52c-0.277,0.496-0.807,1.127-1.576,1.893l-1.896,1.854v0.021
			h3.813V19.23L11.421,19.23z"/>
	</g>
	<g>
		
			<line fill="none" stroke="#787878" stroke-width="0.5" stroke-linecap="round" stroke-linejoin="round" x1="6.253" y1="19.638" x2="19.547" y2="6.302"/>
		
			<line fill="none" stroke="#787878" stroke-width="0.5" stroke-linecap="round" stroke-linejoin="round" x1="7.176" y1="20.758" x2="20.471" y2="7.423"/>
		
			<line fill="none" stroke="#787878" stroke-width="0.5" stroke-linecap="round" stroke-linejoin="round" x1="8.19" y1="21.69" x2="21.486" y2="8.354"/>
		
			<line fill="none" stroke="#787878" stroke-width="0.5" stroke-linecap="round" stroke-linejoin="round" x1="9.203" y1="22.729" x2="22.498" y2="9.394"/>
		
			<line fill="none" stroke="#787878" stroke-width="0.5" stroke-linecap="round" stroke-linejoin="round" x1="10.328" y1="23.417" x2="23.623" y2="10.081"/>
	</g>
</g>
</svg>
