<?xml version="1.0" encoding="utf-8"?>
<!-- Generator: Adobe Illustrator 17.0.0, SVG Export Plug-In . SVG Version: 6.00 Build 0)  -->
<!DOCTYPE svg PUBLIC "-//W3C//DTD SVG 1.1//EN" "http://www.w3.org/Graphics/SVG/1.1/DTD/svg11.dtd">
<svg version="1.1"
	 id="svg2203" xmlns:sodipodi="http://sodipodi.sourceforge.net/DTD/sodipodi-0.dtd" xmlns:inkscape="http://www.inkscape.org/namespaces/inkscape" xmlns:dc="http://purl.org/dc/elements/1.1/" xmlns:cc="http://web.resource.org/cc/" xmlns:rdf="http://www.w3.org/1999/02/22-rdf-syntax-ns#" xmlns:svg="http://www.w3.org/2000/svg" inkscape:output_extension="org.inkscape.output.svg.inkscape" inkscape:version="0.45.1" sodipodi:docbase="D:\SVG\闂傚倸鍊搁崐鎼佸磹閹间礁纾归柟闂寸绾惧綊鏌熼梻瀵哥痪鍓ф嚀閻庯絾宕抽梺缁橀柕鍡樺笒闁挎繂鎳嶆竟鏇熶繆閵堝洤啸闁稿鍋ら幃褔鎮╅懠瀚氭繛鏉戞繝鐢靛仜濡瑩宕濋弴銏犵闁告稑鐡ㄩ埛鎴︽⒒閸喓銆掔紒鐘插暱閳规垿寮ㄦ潏鈺冪焿闁圭儤閸ゅ啴鏌嶉崫鍕殶闁挎稒绻冪换娑欐綇閸撗冪紓浣烘噰鐎规毝娲偂濞嗘挻鐓曟繛鎴烇公閺€濠氭煕婵犲啫濮嶉柡" sodipodi:docname="闂傚倸鍊搁崐鎼佸磹閹间礁纾归柟闂寸绾惧湱鈧懓瀚崳纾嬨亹閹烘垹鍊為梺鍝勫暙閻楀﹪宕戦幇鐗堢厱婵炲棗绻樺畷浼村箛绾捐棄霉閿濆棗鐏婇柛姘厱閻庯絼鎴烽梺鐟扮畭閸ㄥ綊鍩為幋鐘亾閿濆繒搴婂┑鐘垫暩婵挳鏁冮妶澶婄疇闁规壆澧楅弲绻濇繝鍌氭殜闁衡偓娴犲鐓冮柍杞扮閺嗐垻鐥崑鎾剁磽閸屾艾鈧兘鎳楅懜鍨弿闂傚牊绋撻弳鍡欑磼鐎ｄ虎閻撱倗绱掗悩鑼Ш闁哄矉缍侀獮鍥╁緤鐠囨祴鏀芥繛鍙夌墵閸╃偤骞嬮敂鑺ユ珫闂佸憡娲栭幗瀣節绾版ǚ鍋撻幎鑺ョ厵闁稿鎹囬獮鏍ㄦ綇閸撗勫仹闂佺粯鎸婚幑鍥蓟閿濆鍋愰柛娆忕粣娑㈡⒑缁嬪潡骞愬宀€浜遍梻浣告啞閸旀牕危濮婃椽鏌呴悙鎻掗柛妯兼暬濮婃椽鎳濋弶鍨優濠" sodipodi:version="0.32"
	 xmlns="http://www.w3.org/2000/svg" xmlns:xlink="http://www.w3.org/1999/xlink" x="0px" y="0px" width="30px" height="30px"
	 viewBox="0 0 30 30" enable-background="new 0 0 30 30" xml:space="preserve">
<sodipodi:namedview  id="base" pagecolor="#ffffff" inkscape:zoom="0.74999999" inkscape:cx="126.79097" gridtolerance="10000" showguides="true" bordercolor="#666666" borderopacity="1.0" guidetolerance="10" objecttolerance="10" inkscape:cy="646.08493" inkscape:pageshadow="2" inkscape:guide-bbox="true" inkscape:pageopacity="0.0" inkscape:document-units="px" inkscape:current-layer="layer1" inkscape:window-width="1280" inkscape:window-x="-4" inkscape:window-y="-4" inkscape:window-height="968">
	<sodipodi:guide  position="1116" orientation="vertical" id="guide22942"></sodipodi:guide>
	<sodipodi:guide  position="1147" orientation="vertical" id="guide22944"></sodipodi:guide>
</sodipodi:namedview>
<g>
	<path id="path14" fill="#0000FF" d="M3.866,15.002c0,6.136,4.999,11.131,11.131,11.131c6.14,0,11.137-4.996,11.137-11.131
		c0-6.139-4.999-11.135-11.137-11.135C8.863,3.867,3.866,8.864,3.866,15.002z"/>
	<path id="path14_1_" fill="#FFFFFF" d="M5.908,15c0,5.013,4.08,9.092,9.097,9.092c5.014,0,9.087-4.08,9.087-9.092
		c0-5.014-4.073-9.092-9.087-9.092C9.987,5.908,5.908,9.987,5.908,15z"/>
	<path fill="#0000FF" d="M11.407,19.054H6.674v-0.899h1.85v-6.271l-1.896,0.549v-0.959l2.938-0.854v7.532h1.846L11.407,19.054
		L11.407,19.054z"/>
	<g>
		<path fill="#0000FF" d="M17.989,14.93c0-1.458,0.239-2.559,0.727-3.308c0.481-0.748,1.184-1.122,2.101-1.122
			c1.748,0,2.622,1.411,2.622,4.233c0,1.393-0.246,2.458-0.736,3.193c-0.491,0.737-1.184,1.107-2.07,1.107
			c-0.839,0-1.486-0.354-1.946-1.051C18.219,17.284,17.989,16.267,17.989,14.93z"/>
		<path fill="#FFFFFF" d="M19.056,14.883c0,2.193,0.558,3.289,1.668,3.289c1.097,0,1.644-1.113,1.644-3.342
			c0-2.306-0.536-3.46-1.607-3.46C19.621,11.369,19.056,12.541,19.056,14.883z"/>
	</g>
	<g>
		<path fill="#0000FF" d="M17.171,18.962h-5.06v-0.913l2.417-2.412c0.666-0.666,1.11-1.191,1.337-1.582
			c0.226-0.389,0.338-0.791,0.338-1.206c0-0.473-0.132-0.835-0.397-1.088c-0.265-0.252-0.646-0.378-1.147-0.378
			c-0.741,0-1.448,0.315-2.122,0.945v-1.069c0.653-0.505,1.418-0.757,2.288-0.757c0.749,0,1.339,0.202,1.771,0.607
			c0.432,0.405,0.649,0.949,0.649,1.633c0,0.516-0.141,1.021-0.416,1.518c-0.278,0.496-0.805,1.127-1.577,1.895l-1.896,1.853v0.021
			h3.813v0.935L17.171,18.962L17.171,18.962z"/>
	</g>
</g>
</svg>
