<?xml version="1.0" encoding="utf-8"?>
<!-- Generator: Adobe Illustrator 17.0.0, SVG Export Plug-In . SVG Version: 6.00 Build 0)  -->
<!DOCTYPE svg PUBLIC "-//W3C//DTD SVG 1.1//EN" "http://www.w3.org/Graphics/SVG/1.1/DTD/svg11.dtd">
<svg version="1.1"
	 id="svg2203" xmlns:sodipodi="http://sodipodi.sourceforge.net/DTD/sodipodi-0.dtd" xmlns:inkscape="http://www.inkscape.org/namespaces/inkscape" xmlns:dc="http://purl.org/dc/elements/1.1/" xmlns:cc="http://web.resource.org/cc/" xmlns:rdf="http://www.w3.org/1999/02/22-rdf-syntax-ns#" xmlns:svg="http://www.w3.org/2000/svg" inkscape:output_extension="org.inkscape.output.svg.inkscape" inkscape:version="0.45.1" sodipodi:docbase="D:\SVG\闂傚倸鍊搁崐鎼佸磹閹间礁纾归柟闂寸绾剧懓鐎ｆ崳闁绘閵嗘帒閿濆懍澹曟俊銈囧Х閸嬬偤鎮ч悩鑼嫚濞村濠电偛妫欓崝鏇㈠礉閸涘瓨鈷戦梻鍫熺〒缁犲啿鈹戦弨杈╃矉閹烘鍤冮柍鍝勫暟閿涙繃绻涙潏鍓у缂佺懇瀹暶洪悡娆撴煕濞戞﹫鏀婚柛濠冨姍閺" sodipodi:docname="闂傚倸鍊搁崐鎼佸磹閹间礁纾圭€瑰嫭鍣磋ぐ鎺戠倞闁哄啫鐗婇崑鎰版煕濞嗗繘宕伴幇纾藉ù锝嗗灊閸氭煕鐎ｄ户闁瑰箍鍨归埞鎴犫偓锝忕床婵犵數濮撮敃銈夊箠閹扮増鏅繝濠傚暊閺€浠嬫煃閳轰礁鏆㈢痪鍋撶紓鍌氬€烽懗鑸垫叏闂堟稓鏆嗙紒瀣仢鐓ょ紒鐘茬秺閺岋綁骞囩徊璇测攽濞叉牠鍩為幋锔芥櫖闁告洖鎽嬫繝纰樷偓鎶芥煙閸嬫捇骞栨潏鍓ф偧闁绘挻鎹囬弻锝夋偐閸欏绐涢梺绋块幐姝岀亱闂佸憡鍔栧Σ姊洪柅鐐插閸樼敻姊洪懝鏉垮惞婵" sodipodi:version="0.32"
	 xmlns="http://www.w3.org/2000/svg" xmlns:xlink="http://www.w3.org/1999/xlink" x="0px" y="0px" width="30px" height="30px"
	 viewBox="0 0 30 30" enable-background="new 0 0 30 30" xml:space="preserve">
<sodipodi:namedview  id="base" pagecolor="#ffffff" inkscape:zoom="0.74999999" inkscape:cx="126.79097" gridtolerance="10000" showguides="true" bordercolor="#666666" borderopacity="1.0" guidetolerance="10" objecttolerance="10" inkscape:cy="646.08493" inkscape:pageshadow="2" inkscape:guide-bbox="true" inkscape:pageopacity="0.0" inkscape:document-units="px" inkscape:current-layer="layer1" inkscape:window-width="1280" inkscape:window-x="-4" inkscape:window-y="-4" inkscape:window-height="968">
	<sodipodi:guide  position="1116" orientation="vertical" id="guide22942"></sodipodi:guide>
	<sodipodi:guide  position="1147" orientation="vertical" id="guide22944"></sodipodi:guide>
</sodipodi:namedview>
<g>
	<path id="path14" fill="#FF0000" d="M3.866,15.002c0,6.136,4.999,11.131,11.131,11.131c6.14,0,11.137-4.996,11.137-11.131
		c0-6.139-4.999-11.135-11.137-11.135C8.863,3.867,3.866,8.864,3.866,15.002z"/>
	<path id="path14_1_" fill="#FFFFFF" d="M5.908,15c0,5.013,4.08,9.092,9.097,9.092c5.014,0,9.087-4.08,9.087-9.092
		c0-5.014-4.073-9.092-9.087-9.092C9.987,5.908,5.908,9.987,5.908,15z"/>
	<g>
		<g>
			<path d="M17.157,18.914h-4.733v-0.901h1.85v-6.269l-1.896,0.549v-0.959l2.938-0.854v7.532h1.845L17.157,18.914L17.157,18.914z"/>
		</g>
		<path d="M11.407,19.054H6.674v-0.901h1.85v-6.269l-1.896,0.549v-0.959l2.938-0.854v7.532h1.845L11.407,19.054L11.407,19.054z"/>
	</g>
	<g>
		<path d="M17.302,14.93c0-1.458,0.241-2.559,0.728-3.308c0.48-0.748,1.184-1.122,2.101-1.122c1.748,0,2.622,1.411,2.622,4.233
			c0,1.393-0.246,2.458-0.738,3.195c-0.491,0.737-1.182,1.107-2.069,1.107c-0.84,0-1.486-0.352-1.946-1.051
			C17.531,17.284,17.302,16.267,17.302,14.93z"/>
		<path fill="#FFFFFF" d="M18.368,14.883c0,2.193,0.556,3.289,1.668,3.289c1.095,0,1.642-1.113,1.642-3.342
			c0-2.306-0.536-3.46-1.606-3.46C18.934,11.369,18.368,12.541,18.368,14.883z"/>
	</g>
</g>
</svg>
