<?xml version="1.0" encoding="utf-8"?>
<!-- Generator: Adobe Illustrator 21.0.0, SVG Export Plug-In . SVG Version: 6.00 Build 0)  -->
<svg version="1.1" id="Layer_1" xmlns="http://www.w3.org/2000/svg" xmlns:xlink="http://www.w3.org/1999/xlink" x="0px" y="0px"
	 width="30px" height="30px" viewBox="0 0 30 30" enable-background="new 0 0 30 30" xml:space="preserve">
<g id="XMLID_3029_">
	<g id="XMLID_3033_">
		<path id="XMLID_3036_" fill="#FFFFFF" d="M14.8,29.211c-8,0-14.5-6.5-14.5-14.5s6.5-14.5,14.5-14.5s14.5,6.5,14.5,14.5
			S22.8,29.211,14.8,29.211z"/>
		<g id="XMLID_3034_">
			<path id="XMLID_3035_" fill="#305FA0" d="M15,0.911c7.7,0,14,6.3,14,14s-6.3,14-14,14s-14-6.3-14-14S7.2,0.911,15,0.911
				 M15-0.089c-8.3,0-15,6.7-15,15s6.7,15,15,15s15-6.7,15-15S23.2-0.089,15-0.089L15-0.089z"/>
		</g>
	</g>
	
		<text id="XMLID_3032_" transform="matrix(1 0 0 1 14.7411 26.4247)" fill="#305FA0" font-family="'MicrosoftYaHei-Bold'" font-size="14px">T</text>
	
		<text id="XMLID_3031_" transform="matrix(1 0 0 1 5.548 13.058)" fill="#305FA0" font-family="'MicrosoftYaHei-Bold'" font-size="12px">U</text>
	
		<rect id="XMLID_3030_" x="-0.359" y="13.388" transform="matrix(0.7071 -0.7071 0.7071 0.7071 -5.9227 13.8778)" fill="#305FA0" width="28.3" height="1.4"/>
</g>
</svg>
