<?xml version="1.0" encoding="utf-8"?>
<!-- Generator: Adobe Illustrator 21.1.0, SVG Export Plug-In . SVG Version: 6.00 Build 0)  -->
<svg version="1.1" id="Layer_1" xmlns="http://www.w3.org/2000/svg" xmlns:xlink="http://www.w3.org/1999/xlink" x="0px" y="0px"
	 width="9px" height="9px" viewBox="0 0 9 9" enable-background="new 0 0 9 9" xml:space="preserve">
<circle fill="#FFFFFF" cx="4.5" cy="4.5" r="4.5"/>
<path fill="#FF0000" d="M3.82,7.433h1.261V8.75H3.82V7.433z M6.339,0.876C5.869,0.461,5.273,0.25,4.569,0.25
	c-0.347,0-0.682,0.055-0.995,0.163c-0.315,0.109-0.604,0.28-0.86,0.509c-0.258,0.23-0.448,0.496-0.565,0.789
	C2.032,2.002,1.966,2.429,1.95,2.98L1.948,3.063h1.161V2.982c0-1.15,0.467-1.709,1.426-1.709c0.42,0,0.743,0.119,0.96,0.354
	c0.222,0.24,0.33,0.507,0.33,0.818c0,0.312-0.047,0.548-0.141,0.7C5.586,3.304,5.359,3.568,5.01,3.929
	c-0.356,0.367-0.606,0.65-0.744,0.842C4.125,4.967,4.017,5.198,3.947,5.46L3.934,5.508C3.873,5.733,3.843,5.847,3.843,6.252v0.081
	h1.16L5.001,6.251C4.995,5.939,5.015,5.874,5.063,5.715c0.006-0.02,0.013-0.041,0.019-0.064C5.143,5.447,5.234,5.27,5.352,5.123
	c0.122-0.152,0.375-0.412,0.752-0.774c0.392-0.377,0.642-0.684,0.765-0.941C6.99,3.153,7.052,2.864,7.052,2.552
	C7.052,1.858,6.812,1.295,6.339,0.876L6.339,0.876z"/>
</svg>
