<?xml version="1.0" encoding="utf-8"?>
<!-- Generator: Adobe Illustrator 21.1.0, SVG Export Plug-In . SVG Version: 6.00 Build 0)  -->
<svg version="1.1" id="Layer_1" xmlns="http://www.w3.org/2000/svg" xmlns:xlink="http://www.w3.org/1999/xlink" x="0px" y="0px"
	 width="9px" height="9px" viewBox="0 0 9 9" enable-background="new 0 0 9 9" xml:space="preserve">
<circle fill="#FFFFFF" cx="4.5" cy="4.5" r="4.5"/>
<path fill="#00FF00" d="M3.396,7.366c0.701-0.98,1.427-1.85,1.966-2.462c0.318-0.362,0.617-0.69,0.903-0.986
	C6.525,3.65,6.781,3.405,7.028,3.174C7.449,2.78,7.941,2.344,8.25,2.157L7.855,1.634c-0.573,0.358-1.124,0.741-1.55,1.035
	C6.057,2.84,5.827,3.005,5.61,3.162C5.395,3.317,5.173,3.488,4.939,3.667C4.533,3.978,4.012,4.396,3.506,4.828L2.238,3.63
	L0.75,4.803L3.396,7.366z"/>
</svg>
