<?xml version="1.0" encoding="utf-8"?>
<!-- Generator: Adobe Illustrator 17.0.0, SVG Export Plug-In . SVG Version: 6.00 Build 0)  -->
<!DOCTYPE svg PUBLIC "-//W3C//DTD SVG 1.1//EN" "http://www.w3.org/Graphics/SVG/1.1/DTD/svg11.dtd">
<svg version="1.1" id="图层_1" xmlns="http://www.w3.org/2000/svg" xmlns:xlink="http://www.w3.org/1999/xlink" x="0px" y="0px"
	 width="30px" height="30px" viewBox="0 0 30 30" enable-background="new 0 0 30 30" xml:space="preserve">
<path fill="#234D98" d="M14.726,9.629h-1.557l2.385-2.882l2.319,2.919h-1.625c0,0-0.331,2.816,3.02,6.778
	c0,0,2.651-2.484,2.783-6.713h-1.494l2.319-2.918l2.352,2.852h-1.591c0,0-0.376,5.147-3.38,7.994l0.028,5.648h-2.047v-5.621
	C18.24,17.685,15.09,14.347,14.726,9.629z"/>
<g>
	<path fill="#231815" d="M5.697,13.614L4.87,14.297c0.246,0.3,0.389,0.682,0.389,1.075s-0.138,0.777-0.389,1.075l0.826,0.682
		c0.41-0.491,0.634-1.118,0.634-1.757C6.331,14.732,6.105,14.108,5.697,13.614z"/>
	<path fill="#231815" d="M8.442,10.819l-0.786,0.733c0.972,1.041,1.509,2.399,1.509,3.824c0,1.446-0.547,2.814-1.548,3.861
		l0.778,0.739c1.184-1.247,1.836-2.88,1.836-4.603C10.237,13.676,9.599,12.059,8.442,10.819z"/>
	<path fill="#231815" d="M11.222,8.071l-0.778,0.737c1.696,1.777,2.63,4.109,2.63,6.565c0,2.466-0.942,4.804-2.647,6.579
		l0.773,0.741c1.9-1.98,2.944-4.581,2.944-7.325C14.142,12.641,13.104,10.048,11.222,8.071z"/>
</g>
</svg>
