<?xml version="1.0" encoding="utf-8"?>
<!-- Generator: Adobe Illustrator 21.0.0, SVG Export Plug-In . SVG Version: 6.00 Build 0)  -->
<svg version="1.1" id="图层_1" xmlns="http://www.w3.org/2000/svg" xmlns:xlink="http://www.w3.org/1999/xlink" x="0px" y="0px"
	 width="16px" height="16px" viewBox="0 0 16 16" style="enable-background:new 0 0 16 16;" xml:space="preserve">
<style type="text/css">
	.st0{fill:#5896FF;}
</style>
<path class="st0" d="M5,8.8C5,8.8,5,8.8,5,8.8l-0.8,3c0,0.2,0,0.4,0.1,0.5c0.1,0.1,0.2,0.1,0.4,0.1c0,0,0.1,0,0.1,0l2.9-0.8
	c0,0,0,0,0,0c0,0,0.1,0,0.1,0l7.8-7.8C15.9,3.6,16,3.3,16,2.9c0-0.4-0.2-0.8-0.5-1.1l-0.7-0.7c-0.3-0.3-0.7-0.5-1.1-0.5
	c-0.3,0-0.7,0.1-0.9,0.4L5,8.8C5,8.8,5,8.8,5,8.8 M14.9,3l-0.8,0.8l-1.3-1.3l0.8-0.8c0.1-0.1,0.4-0.1,0.5,0l0.7,0.7
	c0.1,0.1,0.1,0.2,0.1,0.3C14.9,2.9,14.9,3,14.9,3 M6.4,8.9L12,3.3l1.3,1.3l-5.6,5.6L6.4,8.9L6.4,8.9L6.4,8.9z M5.3,11.2l0.4-1.5
	l1.1,1.1L5.3,11.2L5.3,11.2L5.3,11.2z M15.4,6.1c-0.3,0-0.5,0.2-0.5,0.5v7.3c0,0.4-0.3,0.7-0.7,0.7H1.8c-0.4,0-0.7-0.3-0.7-0.7V2.1
	c0-0.4,0.3-0.7,0.7-0.7h7.9c0.3,0,0.5-0.2,0.5-0.5c0-0.3-0.2-0.5-0.5-0.5l-8,0C0.8,0.3,0,1.1,0,2v12c0,0.9,0.8,1.7,1.7,1.7h12.5
	c0.9,0,1.7-0.8,1.7-1.7l0-7.3C15.9,6.4,15.6,6.1,15.4,6.1"/>
</svg>
