<?xml version="1.0" encoding="utf-8"?>
<!-- Generator: Adobe Illustrator 21.0.0, SVG Export Plug-In . SVG Version: 6.00 Build 0)  -->
<svg version="1.1" id="图层_1" xmlns="http://www.w3.org/2000/svg" xmlns:xlink="http://www.w3.org/1999/xlink" x="0px" y="0px"
	 width="16px" height="16px" viewBox="0 0 16 16" style="enable-background:new 0 0 16 16;" xml:space="preserve">
<style type="text/css">
	.st0{fill:#5896FF;}
</style>
<path class="st0" d="M13,1H3C1.9,1,1,1.9,1,3v10c0,1.1,0.9,2,2,2h10c1.1,0,2-0.9,2-2V3C15,1.9,14.1,1,13,1z M11,2V6H5V2H11z M14,13
	c0,0.6-0.4,1-1,1l0,0H3c-0.3,0-0.5-0.1-0.7-0.3C2.1,13.5,2,13.3,2,13V3c0-0.6,0.4-1,1-1h1v4c0,0.6,0.4,1,1,1c0,0,0,0,0,0h6
	c0.6,0,1-0.4,1-1c0,0,0,0,0,0V2h1c0.6,0,1,0.4,1,1c0,0,0,0,0,0C14,3,14,13,14,13z"/>
<path class="st0" d="M9,5c0.3,0,0.5-0.2,0.5-0.5c0,0,0,0,0,0v-1C9.5,3.2,9.3,3,9,3S8.5,3.2,8.5,3.5v1C8.5,4.8,8.7,5,9,5z"/>
</svg>
