<?xml version="1.0" encoding="utf-8"?>
<!-- Generator: Adobe Illustrator 17.0.0, SVG Export Plug-In . SVG Version: 6.00 Build 0)  -->
<!DOCTYPE svg PUBLIC "-//W3C//DTD SVG 1.1//EN" "http://www.w3.org/Graphics/SVG/1.1/DTD/svg11.dtd">
<svg version="1.1"
	 id="svg2203" xmlns:dc="http://purl.org/dc/elements/1.1/" xmlns:svg="http://www.w3.org/2000/svg" xmlns:rdf="http://www.w3.org/1999/02/22-rdf-syntax-ns#" xmlns:cc="http://web.resource.org/cc/" xmlns:sodipodi="http://sodipodi.sourceforge.net/DTD/sodipodi-0.dtd" xmlns:inkscape="http://www.inkscape.org/namespaces/inkscape" inkscape:version="0.45.1" sodipodi:docbase="D:\SVG\闁哄鍎戠紓姘┍" sodipodi:docname="閻庡綊娼绘俊鍥洪崸妤€鐭梥vg" sodipodi:version="0.32" inkscape:output_extension="org.inkscape.output.svg.inkscape"
	 xmlns="http://www.w3.org/2000/svg" xmlns:xlink="http://www.w3.org/1999/xlink" x="0px" y="0px" width="22px" height="22px"
	 viewBox="361.047 515.182 22 22" enable-background="new 361.047 515.182 22 22" xml:space="preserve">
<sodipodi:namedview  pagecolor="#ffffff" inkscape:cx="126.79097" inkscape:zoom="0.74999999" inkscape:cy="646.08493" gridtolerance="10000" id="base" objecttolerance="10" showguides="true" borderopacity="1.0" bordercolor="#666666" guidetolerance="10" inkscape:guide-bbox="true" inkscape:pageopacity="0.0" inkscape:pageshadow="2" inkscape:document-units="px" inkscape:current-layer="layer1" inkscape:window-height="968" inkscape:window-width="1280" inkscape:window-x="-4" inkscape:window-y="-4">
	<sodipodi:guide  position="1116" orientation="vertical" id="guide22942"></sodipodi:guide>
	<sodipodi:guide  position="1147" orientation="vertical" id="guide22944"></sodipodi:guide>
</sodipodi:namedview>
<g>
	<path id="path14_4_" fill="#FEFEFE" stroke="#FF7F00" stroke-width="2" stroke-linecap="round" stroke-linejoin="round" d="
		M362.247,526.182c0,5.403,4.396,9.799,9.801,9.799c5.403,0,9.799-4.396,9.799-9.799c0-5.404-4.396-9.8-9.799-9.8
		C366.644,516.382,362.247,520.777,362.247,526.182z"/>
	
		<line id="line20_4_" fill="none" stroke="#FF7F00" stroke-width="2" stroke-linecap="round" stroke-linejoin="round" x1="365.02" y1="519.543" x2="378.314" y2="532.498"/>
</g>
<g id="g3443" transform="matrix(0.955175,0,0,0.955175,229.24359,6.9075621)">
	<path id="path2200" sodipodi:nodetypes="ccccc" stroke="#000000" stroke-width="0.25" d="M148.739,550.459l0.018-9.513l1.525-0.09
		l-0.01,9.608L148.739,550.459z"/>
	<path id="path2214" sodipodi:nodetypes="cscccccccccszc" stroke="#000000" stroke-width="0.25" d="M149.516,540.816
		c-0.096-0.275-1.007-1.023-1.709-1.348c-0.7-0.326-1.936-0.291-1.936-0.291l-2.017,0.008l1.915-2.323l-1.729-0.041l-2.414,3.021
		l2.411,3.094l1.841-0.047l-2.099-2.468l2.227-0.01c0,0,1.087-0.005,1.842,0.527c0.757,0.532,0.948,1.598,0.952,1.857
		C148.806,543.312,149.708,541.365,149.516,540.816z"/>
	<path id="path2249" sodipodi:nodetypes="cscccccccccszc" stroke="#000000" stroke-width="0.25" d="M149.493,540.816
		c0.096-0.275,1.006-1.023,1.707-1.348c0.701-0.326,1.938-0.291,1.938-0.291l2.016,0.008l-1.916-2.323l1.73-0.041l2.415,3.021
		l-2.411,3.094l-1.842-0.047l2.098-2.468l-2.226-0.01c0,0-1.087-0.005-1.843,0.527c-0.755,0.532-0.947,1.598-0.951,1.857
		C150.202,543.312,149.301,541.365,149.493,540.816z"/>
</g>
</svg>
