<?xml version="1.0" encoding="utf-8"?>
<!-- Generator: Adobe Illustrator 17.0.0, SVG Export Plug-In . SVG Version: 6.00 Build 0)  -->
<!DOCTYPE svg PUBLIC "-//W3C//DTD SVG 1.1//EN" "http://www.w3.org/Graphics/SVG/1.1/DTD/svg11.dtd">
<svg version="1.1"
	 id="svg2203" xmlns:dc="http://purl.org/dc/elements/1.1/" xmlns:svg="http://www.w3.org/2000/svg" xmlns:rdf="http://www.w3.org/1999/02/22-rdf-syntax-ns#" xmlns:cc="http://web.resource.org/cc/" xmlns:sodipodi="http://sodipodi.sourceforge.net/DTD/sodipodi-0.dtd" xmlns:inkscape="http://www.inkscape.org/namespaces/inkscape" inkscape:version="0.45.1" sodipodi:docbase="D:\SVG\闂佸搫閸庢垹绱撳鈹" sodipodi:docname="闁诲骸缍婂缁樹繆閸ユ椽宕稿Δ鈧惌姊g" sodipodi:version="0.32" inkscape:output_extension="org.inkscape.output.svg.inkscape"
	 xmlns="http://www.w3.org/2000/svg" xmlns:xlink="http://www.w3.org/1999/xlink" x="0px" y="0px" width="22px" height="22px"
	 viewBox="361.047 515.182 22 22" enable-background="new 361.047 515.182 22 22" xml:space="preserve">
<sodipodi:namedview  pagecolor="#ffffff" inkscape:cx="126.79097" inkscape:zoom="0.74999999" inkscape:cy="646.08493" gridtolerance="10000" id="base" objecttolerance="10" showguides="true" borderopacity="1.0" bordercolor="#666666" guidetolerance="10" inkscape:guide-bbox="true" inkscape:pageopacity="0.0" inkscape:pageshadow="2" inkscape:document-units="px" inkscape:current-layer="layer1" inkscape:window-height="968" inkscape:window-width="1280" inkscape:window-x="-4" inkscape:window-y="-4">
	<sodipodi:guide  position="1116" orientation="vertical" id="guide22942"></sodipodi:guide>
	<sodipodi:guide  position="1147" orientation="vertical" id="guide22944"></sodipodi:guide>
</sodipodi:namedview>
<g>
	<path id="path14_7_" fill="#FEFEFE" stroke="#1056D9" stroke-width="2" stroke-linecap="round" stroke-linejoin="round" d="
		M362.247,526.182c0,5.403,4.396,9.799,9.8,9.799c5.403,0,9.799-4.396,9.799-9.799c0-5.404-4.396-9.8-9.799-9.8
		C366.643,516.382,362.247,520.777,362.247,526.182z"/>
	
		<line id="line20_6_" fill="none" stroke="#1056D9" stroke-width="2" stroke-linecap="round" stroke-linejoin="round" x1="365.02" y1="519.543" x2="378.314" y2="532.498"/>
</g>
<g>
	<path id="path22940_3_" sodipodi:nodetypes="cscccccccccszc" stroke="#000000" stroke-width="0.25" d="M369.118,530.234
		c0.004-0.287,0.237-1.514,1.071-2.103c0.833-0.588,1.829-0.539,1.829-0.539l4.094,0.012l-2.314,2.734l2.031,0.052l2.659-3.429
		l-2.663-3.349l-1.908,0.046l2.113,2.575l-4.221-0.009c0,0-0.802,0.029-1.576,0.39c-0.773,0.361-1.082,0.761-1.188,1.065
		C368.834,528.289,369.109,530.809,369.118,530.234z"/>
	<path id="path3387_2_" sodipodi:nodetypes="cccccccccc" stroke="#000000" stroke-width="0.25" d="M369.57,534.074l0.009-13.397
		l2.722,2.324l0.053-2.04l-3.414-2.671l-3.334,2.675l0.045,1.916l2.564-2.123l-0.018,13.312L369.57,534.074z"/>
</g>
</svg>
