<?xml version="1.0" encoding="utf-8"?>
<!-- Generator: Adobe Illustrator 17.0.0, SVG Export Plug-In . SVG Version: 6.00 Build 0)  -->
<!DOCTYPE svg PUBLIC "-//W3C//DTD SVG 1.1//EN" "http://www.w3.org/Graphics/SVG/1.1/DTD/svg11.dtd">
<svg version="1.1"
	 id="svg2203" xmlns:dc="http://purl.org/dc/elements/1.1/" xmlns:svg="http://www.w3.org/2000/svg" xmlns:rdf="http://www.w3.org/1999/02/22-rdf-syntax-ns#" xmlns:cc="http://web.resource.org/cc/" xmlns:sodipodi="http://sodipodi.sourceforge.net/DTD/sodipodi-0.dtd" xmlns:inkscape="http://www.inkscape.org/namespaces/inkscape" inkscape:version="0.45.1" sodipodi:docbase="D:\SVG\闂佸搫閸庢垹绱撳鈹" sodipodi:docname="闁诲骸缍婂缁樹繆閸ユ椽宕稿Δ鈧惌姊g" sodipodi:version="0.32" inkscape:output_extension="org.inkscape.output.svg.inkscape"
	 xmlns="http://www.w3.org/2000/svg" xmlns:xlink="http://www.w3.org/1999/xlink" x="0px" y="0px" width="22px" height="22px"
	 viewBox="361.047 515.182 22 22" enable-background="new 361.047 515.182 22 22" xml:space="preserve">
<sodipodi:namedview  pagecolor="#ffffff" inkscape:cx="126.79097" inkscape:zoom="0.74999999" inkscape:cy="646.08493" gridtolerance="10000" id="base" objecttolerance="10" showguides="true" borderopacity="1.0" bordercolor="#666666" guidetolerance="10" inkscape:guide-bbox="true" inkscape:pageopacity="0.0" inkscape:pageshadow="2" inkscape:document-units="px" inkscape:current-layer="layer1" inkscape:window-height="968" inkscape:window-width="1280" inkscape:window-x="-4" inkscape:window-y="-4">
	<sodipodi:guide  position="1116" orientation="vertical" id="guide22942"></sodipodi:guide>
	<sodipodi:guide  position="1147" orientation="vertical" id="guide22944"></sodipodi:guide>
</sodipodi:namedview>
<g>
	<path id="path14_1_" fill="#FEFEFE" stroke="#66CD00" stroke-width="2" stroke-linecap="round" stroke-linejoin="round" d="
		M362.247,526.182c0,5.403,4.396,9.799,9.8,9.799s9.799-4.396,9.799-9.799c0-5.404-4.395-9.8-9.799-9.8
		C366.643,516.382,362.247,520.777,362.247,526.182z"/>
	
		<line id="line20_1_" fill="none" stroke="#66CD00" stroke-width="2" stroke-linecap="round" stroke-linejoin="round" x1="365.02" y1="519.543" x2="378.314" y2="532.498"/>
</g>
<path id="path2273" sodipodi:nodetypes="ccccccccccccccc" d="M366.723,533.348l-0.025-6.633c0.019-2.982-0.222-4.612,2.97-4.759
	l4.46,0.021l-2.534-2.915l2.608-0.055l3.195,3.999l-3.19,4.094l-2.756-0.062l2.775-3.104l-4.12-0.005
	c-1.706,0.018-1.451,1.126-1.459,2.156l-0.03,3.223l-0.002,4.048L366.723,533.348z"/>
</svg>
