<?xml version="1.0" encoding="utf-8"?>
<!-- Generator: Adobe Illustrator 17.0.0, SVG Export Plug-In . SVG Version: 6.00 Build 0)  -->
<!DOCTYPE svg PUBLIC "-//W3C//DTD SVG 1.1//EN" "http://www.w3.org/Graphics/SVG/1.1/DTD/svg11.dtd">
<svg version="1.1"
	 id="svg2203" xmlns:dc="http://purl.org/dc/elements/1.1/" xmlns:svg="http://www.w3.org/2000/svg" xmlns:rdf="http://www.w3.org/1999/02/22-rdf-syntax-ns#" xmlns:cc="http://web.resource.org/cc/" xmlns:sodipodi="http://sodipodi.sourceforge.net/DTD/sodipodi-0.dtd" xmlns:inkscape="http://www.inkscape.org/namespaces/inkscape" inkscape:version="0.45.1" sodipodi:docbase="D:\SVG\闂備礁鎼柛搴㈠灩缁辨挸閳" sodipodi:docname="闂佽楠哥紞濠傜紒妯圭箚闁搞儲妞藉畷绋课旈埀鎯屽g" sodipodi:version="0.32" inkscape:output_extension="org.inkscape.output.svg.inkscape"
	 xmlns="http://www.w3.org/2000/svg" xmlns:xlink="http://www.w3.org/1999/xlink" x="0px" y="0px" width="22px" height="22px"
	 viewBox="361.047 515.182 22 22" enable-background="new 361.047 515.182 22 22" xml:space="preserve">
<sodipodi:namedview  pagecolor="#ffffff" inkscape:cx="126.79097" inkscape:zoom="0.74999999" inkscape:cy="646.08493" gridtolerance="10000" id="base" objecttolerance="10" showguides="true" borderopacity="1.0" bordercolor="#666666" guidetolerance="10" inkscape:guide-bbox="true" inkscape:pageopacity="0.0" inkscape:pageshadow="2" inkscape:document-units="px" inkscape:current-layer="layer1" inkscape:window-height="968" inkscape:window-width="1280" inkscape:window-x="-4" inkscape:window-y="-4">
	<sodipodi:guide  position="1116" orientation="vertical" id="guide22942"></sodipodi:guide>
	<sodipodi:guide  position="1147" orientation="vertical" id="guide22944"></sodipodi:guide>
</sodipodi:namedview>
<g>
	<path id="path14" fill="#FEFEFE" stroke="#66CD00" stroke-width="2" stroke-linecap="round" stroke-linejoin="round" d="
		M362.247,526.182c0,5.403,4.396,9.799,9.8,9.799s9.799-4.396,9.799-9.799c0-5.404-4.395-9.8-9.799-9.8
		C366.643,516.382,362.247,520.778,362.247,526.182z"/>
	
		<line id="line20" fill="none" stroke="#66CD00" stroke-width="2" stroke-linecap="round" stroke-linejoin="round" x1="365.02" y1="519.544" x2="378.314" y2="532.499"/>
</g>
<g>
	<path d="M370.775,528.984c-0.135-0.4-0.203-0.827-0.203-1.281c0-0.357,0.081-0.717,0.244-1.083
		c0.161-0.366,0.575-0.869,1.241-1.512c0.68-0.643,1.098-1.127,1.252-1.452c0.154-0.324,0.231-0.632,0.231-0.924
		c0-0.519-0.184-0.928-0.552-1.229c-0.367-0.3-0.834-0.449-1.403-0.449c-0.989,0-1.854,0.39-2.595,1.167v-1.662
		c0.903-0.562,1.841-0.843,2.814-0.843c0.995,0,1.793,0.251,2.396,0.753c0.603,0.503,0.905,1.189,0.905,2.06
		c0,0.416-0.09,0.839-0.269,1.269c-0.178,0.429-0.643,1-1.395,1.714c-0.568,0.535-0.949,0.954-1.144,1.257
		c-0.195,0.302-0.292,0.63-0.292,0.98c0,0.395,0.094,0.806,0.283,1.232h-1.516v0.003L370.775,528.984L370.775,528.984z"/>
	<path d="M370.57,531.635c0-0.281,0.104-0.522,0.308-0.726c0.207-0.203,0.452-0.303,0.738-0.303s0.533,0.102,0.738,0.303
		c0.207,0.204,0.308,0.445,0.308,0.726c0,0.27-0.102,0.507-0.304,0.709c-0.203,0.203-0.437,0.303-0.702,0.303
		c-0.324,0-0.587-0.103-0.786-0.308C370.673,532.135,370.57,531.901,370.57,531.635z"/>
</g>
</svg>
