<?xml version="1.0" encoding="utf-8"?>
<!-- Generator: Adobe Illustrator 17.0.0, SVG Export Plug-In . SVG Version: 6.00 Build 0)  -->
<!DOCTYPE svg PUBLIC "-//W3C//DTD SVG 1.1//EN" "http://www.w3.org/Graphics/SVG/1.1/DTD/svg11.dtd">
<svg version="1.1"
	 id="svg2203" xmlns:dc="http://purl.org/dc/elements/1.1/" xmlns:svg="http://www.w3.org/2000/svg" xmlns:rdf="http://www.w3.org/1999/02/22-rdf-syntax-ns#" xmlns:cc="http://web.resource.org/cc/" xmlns:sodipodi="http://sodipodi.sourceforge.net/DTD/sodipodi-0.dtd" xmlns:inkscape="http://www.inkscape.org/namespaces/inkscape" inkscape:version="0.45.1" sodipodi:docbase="D:\SVG\闂佸搫閸庢垹绱撳鈹" sodipodi:docname="闁诲骸缍婂缁樹繆閸ユ椽宕稿Δ鈧惌姊g" sodipodi:version="0.32" inkscape:output_extension="org.inkscape.output.svg.inkscape"
	 xmlns="http://www.w3.org/2000/svg" xmlns:xlink="http://www.w3.org/1999/xlink" x="0px" y="0px" width="22px" height="22px"
	 viewBox="361.047 515.182 22 22" enable-background="new 361.047 515.182 22 22" xml:space="preserve">
<sodipodi:namedview  pagecolor="#ffffff" inkscape:cx="126.79097" inkscape:zoom="0.74999999" inkscape:cy="646.08493" gridtolerance="10000" id="base" objecttolerance="10" showguides="true" borderopacity="1.0" bordercolor="#666666" guidetolerance="10" inkscape:guide-bbox="true" inkscape:pageopacity="0.0" inkscape:pageshadow="2" inkscape:document-units="px" inkscape:current-layer="layer1" inkscape:window-height="968" inkscape:window-width="1280" inkscape:window-x="-4" inkscape:window-y="-4">
	<sodipodi:guide  position="1116" orientation="vertical" id="guide22942"></sodipodi:guide>
	<sodipodi:guide  position="1147" orientation="vertical" id="guide22944"></sodipodi:guide>
</sodipodi:namedview>
<g>
	<path id="path14_6_" fill="#FEFEFE" stroke="#66CD00" stroke-width="2" stroke-linecap="round" stroke-linejoin="round" d="
		M362.247,526.182c0,5.403,4.396,9.799,9.8,9.799c5.403,0,9.799-4.396,9.799-9.799c0-5.404-4.396-9.8-9.799-9.8
		C366.643,516.382,362.247,520.777,362.247,526.182z"/>
	
		<line id="line20_5_" fill="none" stroke="#66CD00" stroke-width="2" stroke-linecap="round" stroke-linejoin="round" x1="365.02" y1="519.543" x2="378.314" y2="532.498"/>
</g>
<g>
	<path id="path22940_2_" sodipodi:nodetypes="cscccccccccszc" stroke="#000000" stroke-width="0.25" d="M375.048,527.68
		c-0.105-0.304-0.414-0.704-1.188-1.065s-1.576-0.39-1.576-0.39l-4.221,0.009l2.113-2.575l-1.908-0.046l-2.663,3.349l2.659,3.429
		l2.031-0.052l-2.314-2.734l4.094-0.012c0,0,0.996-0.05,1.829,0.539c0.834,0.589,1.067,1.816,1.071,2.103
		C374.986,530.809,375.26,528.289,375.048,527.68z"/>
	<path id="path3387_1_" sodipodi:nodetypes="cccccccccc" stroke="#000000" stroke-width="0.25" d="M375.898,534.07l-0.018-13.312
		l2.564,2.123l0.045-1.916l-3.334-2.675l-3.414,2.671l0.053,2.04l2.722-2.324l0.009,13.397L375.898,534.07z"/>
</g>
</svg>
