<?xml version="1.0" encoding="utf-8"?>
<!-- Generator: Adobe Illustrator 17.0.0, SVG Export Plug-In . SVG Version: 6.00 Build 0)  -->
<!DOCTYPE svg PUBLIC "-//W3C//DTD SVG 1.1//EN" "http://www.w3.org/Graphics/SVG/1.1/DTD/svg11.dtd">
<svg version="1.1"
	 id="svg2203" xmlns:dc="http://purl.org/dc/elements/1.1/" xmlns:svg="http://www.w3.org/2000/svg" xmlns:rdf="http://www.w3.org/1999/02/22-rdf-syntax-ns#" xmlns:cc="http://web.resource.org/cc/" xmlns:sodipodi="http://sodipodi.sourceforge.net/DTD/sodipodi-0.dtd" xmlns:inkscape="http://www.inkscape.org/namespaces/inkscape" inkscape:version="0.45.1" sodipodi:docbase="D:\SVG\闂佸搫閸庢垹绱撳鈹" sodipodi:docname="闁诲骸缍婂缁樹繆閸ユ椽宕稿Δ鈧惌姊g" sodipodi:version="0.32" inkscape:output_extension="org.inkscape.output.svg.inkscape"
	 xmlns="http://www.w3.org/2000/svg" xmlns:xlink="http://www.w3.org/1999/xlink" x="0px" y="0px" width="22px" height="22px"
	 viewBox="361.047 515.182 22 22" enable-background="new 361.047 515.182 22 22" xml:space="preserve">
<sodipodi:namedview  pagecolor="#ffffff" inkscape:cx="126.79097" inkscape:zoom="0.74999999" inkscape:cy="646.08493" gridtolerance="10000" id="base" objecttolerance="10" showguides="true" borderopacity="1.0" bordercolor="#666666" guidetolerance="10" inkscape:guide-bbox="true" inkscape:pageopacity="0.0" inkscape:pageshadow="2" inkscape:document-units="px" inkscape:current-layer="layer1" inkscape:window-height="968" inkscape:window-width="1280" inkscape:window-x="-4" inkscape:window-y="-4">
	<sodipodi:guide  position="1116" orientation="vertical" id="guide22942"></sodipodi:guide>
	<sodipodi:guide  position="1147" orientation="vertical" id="guide22944"></sodipodi:guide>
</sodipodi:namedview>
<g>
	<path id="path14" fill="#FEFEFE" stroke="#D91C0F" stroke-width="2" stroke-linecap="round" stroke-linejoin="round" d="
		M362.247,526.182c0,5.403,4.396,9.799,9.8,9.799s9.799-4.396,9.799-9.799c0-5.404-4.395-9.8-9.799-9.8
		C366.643,516.382,362.247,520.778,362.247,526.182z"/>
	
		<line id="line20" fill="none" stroke="#D91C0F" stroke-width="2" stroke-linecap="round" stroke-linejoin="round" x1="365.02" y1="519.544" x2="378.314" y2="532.499"/>
</g>
<path id="path22940" sodipodi:nodetypes="cccccccccccccc" stroke="#000000" stroke-width="0.5" d="M376.461,521.992
	c-0.002-3.516-6.493-3.417-6.533,0.071l0.016,8.635l-2.27-1.871l-0.041,1.689l2.952,2.358l3.022-2.354l-0.047-1.798l-2.41,1.92
	l0.01-8.335c0.069-2.459,3.957-2.197,4.025-0.057l-0.022,10.707l1.287,0.006L376.461,521.992z"/>
</svg>
