<?xml version="1.0" encoding="utf-8"?>
<!-- Generator: Adobe Illustrator 21.0.0, SVG Export Plug-In . SVG Version: 6.00 Build 0)  -->
<svg version="1.1" id="Layer_1" xmlns="http://www.w3.org/2000/svg" xmlns:xlink="http://www.w3.org/1999/xlink" x="0px" y="0px"
	 width="30px" height="30px" viewBox="0 0 30 30" enable-background="new 0 0 30 30" xml:space="preserve">
<g>
	<g id="XMLID_2341_">
		<path id="XMLID_2346_" fill="#FFFFFF" d="M15,29.5C7,29.5,0.5,23,0.5,15S7,0.5,15,0.5S29.5,7,29.5,15S23,29.5,15,29.5z"/>
		<g id="XMLID_2342_">
			<path id="XMLID_2343_" fill="#305FA0" d="M15,1c7.7,0,14,6.3,14,14s-6.3,14-14,14S1,22.7,1,15S7.3,1,15,1 M15,0C6.7,0,0,6.7,0,15
				s6.7,15,15,15s15-6.7,15-15S23.3,0,15,0L15,0z"/>
		</g>
	</g>
	<path id="XMLID_2307_" d="M15.1,14.8"/>
	<g id="XMLID_2253_">
		<polygon id="XMLID_2289_" fill="#305FA0" points="13.8,24.3 16.1,24.3 16.1,7.6 18.8,9.5 18.8,6.8 15,2.4 11.3,6.6 11.3,9.5 
			13.8,7.6 		"/>
		<polygon id="XMLID_2288_" fill="#305FA0" points="16.1,15.7 13.8,15.7 13.8,22.3 11,20.4 11,23.2 14.8,27.6 18.6,23.4 18.6,20.4 
			16.1,22.4 		"/>
	</g>
	<rect x="6.5" y="4.8" fill="#305FA0" width="1" height="4.7"/>
	<rect x="6.5" y="12.6" fill="#305FA0" width="1" height="4.7"/>
	<rect x="6.5" y="20.5" fill="#305FA0" width="1" height="4.7"/>
	<rect x="8.5" y="4.8" fill="#305FA0" width="1" height="4.7"/>
	<rect x="8.5" y="12.6" fill="#305FA0" width="1" height="4.7"/>
	<rect x="8.5" y="20.5" fill="#305FA0" width="1" height="4.7"/>
	<rect x="20.9" y="4.8" fill="#305FA0" width="1" height="4.7"/>
	<rect x="20.9" y="12.6" fill="#305FA0" width="1" height="4.7"/>
	<rect x="20.9" y="20.5" fill="#305FA0" width="1" height="4.7"/>
	<rect x="22.9" y="4.8" fill="#305FA0" width="1" height="4.7"/>
	<rect x="22.9" y="12.6" fill="#305FA0" width="1" height="4.7"/>
	<rect x="22.9" y="20.5" fill="#305FA0" width="1" height="4.7"/>
</g>
</svg>
