<?xml version="1.0" encoding="utf-8"?>
<!-- Generator: Adobe Illustrator 21.0.0, SVG Export Plug-In . SVG Version: 6.00 Build 0)  -->
<svg version="1.1" id="Layer_1" xmlns="http://www.w3.org/2000/svg" xmlns:xlink="http://www.w3.org/1999/xlink" x="0px" y="0px"
	 width="30px" height="30px" viewBox="0 0 30 30" enable-background="new 0 0 30 30" xml:space="preserve">
<g id="XMLID_2315_">
	<path id="XMLID_2329_" fill="#FFFFFF" d="M15,29.5C7,29.5,0.5,23,0.5,15S7,0.5,15,0.5S29.5,7,29.5,15S23,29.5,15,29.5z"/>
	<g id="XMLID_2316_">
		<path id="XMLID_2320_" fill="#305FA0" d="M15,1c7.7,0,14,6.3,14,14s-6.3,14-14,14S1,22.7,1,15S7.3,1,15,1 M15,0C6.7,0,0,6.7,0,15
			s6.7,15,15,15s15-6.7,15-15S23.3,0,15,0L15,0z"/>
	</g>
</g>
<g enable-background="new    ">
	<path fill="#305FA0" d="M5.4,16.4v3.8H4.1V10H7c1.1,0,2,0.3,2.6,0.8s0.9,1.3,0.9,2.3s-0.4,1.8-1.1,2.4s-1.6,0.9-2.7,0.9L5.4,16.4
		L5.4,16.4z M5.4,11.1v4.1h1.2c0.8,0,1.4-0.2,1.8-0.5C8.8,14.3,9,13.8,9,13.1c0-1.3-0.8-2-2.3-2H5.4z"/>
</g>
<path id="XMLID_2313_" fill="none" stroke="#305FA0" stroke-linejoin="round" stroke-miterlimit="10" d="M25.3,21.4l-0.1-9.8
	c-6.6-6.6-12.1,0-12.1,0v9.5H3.6"/>
<polyline id="XMLID_2311_" fill="#305FA0" points="15.5,20.8 15.5,13.3 22.6,13.3 23,13.3 23,21.6 "/>
<line id="XMLID_2309_" fill="none" stroke="#305FA0" stroke-miterlimit="10" x1="13" y1="21.1" x2="25.8" y2="21.1"/>
<g enable-background="new    ">
	<path fill="none" stroke="#305FA0" stroke-miterlimit="10" d="M5.4,16.6v3.8H4.1V10.1H7c1.1,0,2,0.3,2.6,0.8s0.9,1.3,0.9,2.3
		s-0.4,1.8-1.1,2.4s-1.6,0.9-2.7,0.9L5.4,16.6L5.4,16.6L5.4,16.6z M5.4,11.3v4.1h1.2c0.8,0,1.4-0.2,1.8-0.5C8.8,14.5,9,14,9,13.3
		c0-1.3-0.8-2-2.3-2H5.4z"/>
</g>
</svg>
