<?xml version="1.0" encoding="utf-8"?>
<!-- Generator: Adobe Illustrator 21.0.0, SVG Export Plug-In . SVG Version: 6.00 Build 0)  -->
<svg version="1.1" id="Layer_1" xmlns="http://www.w3.org/2000/svg" xmlns:xlink="http://www.w3.org/1999/xlink" x="0px" y="0px"
	 width="30px" height="30px" viewBox="0 0 30 30" enable-background="new 0 0 30 30" xml:space="preserve">
<g id="XMLID_2379_">
	<g id="XMLID_2386_">
		<path id="XMLID_2391_" fill="#FFFFFF" d="M15,29.3c-8,0-14.5-6.5-14.5-14.5S7,0.3,15,0.3s14.5,6.5,14.5,14.5S23,29.3,15,29.3z"/>
		<g id="XMLID_2387_">
			<path id="XMLID_2388_" fill="#305FA0" d="M15,1c7.7,0,14,6.3,14,14s-6.3,14-14,14S1,22.7,1,15S7.2,1,15,1 M15,0C6.7,0,0,6.7,0,15
				s6.7,15,15,15s15-6.7,15-15S23.2,0,15,0L15,0z"/>
		</g>
	</g>
	<polygon id="XMLID_2385_" fill="#FFFFFF" points="18.6,14.6 18.6,10.5 13.1,10.5 13.1,14.6 	"/>
	<g id="XMLID_2381_">
		<polygon id="XMLID_2384_" fill="#305FA0" points="18.6,4.6 22.6,4.6 22.6,14.6 24.7,14.6 24.7,18.4 13.1,18.4 13.1,26.3 9.2,26.3 
			9.2,18.4 2.9,18.4 2.9,14.6 9.2,14.6 9.2,4.6 13.1,4.6 13.1,6.7 18.6,6.7 		"/>
		<path id="XMLID_2383_" fill="#FFFFFF" d="M12.6,7.8h7c1.2,0,2,0.8,2,1.8v2.5v3.4c0,0.7-0.9,1.6-1.8,1.6h-8v9.1h-1.3v-9.1H6v1
			l-2.9-1.7L6,14.7v1h4.5V9.8C10.5,9,11.5,7.8,12.6,7.8L12.6,7.8z"/>
		<path id="XMLID_2382_" fill="#305FA0" d="M11.6,10.5v5.4h7.8c0.3,0,0.7-0.4,0.7-0.7v-5c0-0.5-0.6-1-1.1-1h-6.1
			C12.4,9.2,11.6,9.9,11.6,10.5L11.6,10.5z"/>
	</g>
	<path id="XMLID_2380_" fill="#FFFFFF" d="M13.1,11.3v3.2h5.3c0.2,0,0.4-0.2,0.4-0.4v-3c0-0.3-0.4-0.7-0.7-0.7h-4.2
		C13.5,10.5,13.1,10.9,13.1,11.3L13.1,11.3z"/>
</g>
</svg>
