<?xml version="1.0" encoding="utf-8"?>
<!-- Generator: Adobe Illustrator 17.0.0, SVG Export Plug-In . SVG Version: 6.00 Build 0)  -->
<!DOCTYPE svg PUBLIC "-//W3C//DTD SVG 1.1//EN" "http://www.w3.org/Graphics/SVG/1.1/DTD/svg11.dtd">
<svg version="1.1"
	 id="svg2203" xmlns:sodipodi="http://sodipodi.sourceforge.net/DTD/sodipodi-0.dtd" xmlns:cc="http://web.resource.org/cc/" xmlns:dc="http://purl.org/dc/elements/1.1/" xmlns:inkscape="http://www.inkscape.org/namespaces/inkscape" xmlns:rdf="http://www.w3.org/1999/02/22-rdf-syntax-ns#" xmlns:svg="http://www.w3.org/2000/svg" sodipodi:version="0.32" sodipodi:docname="閻庡綊娼绘俊鍥洪崸妤€鐭梥vg" sodipodi:docbase="D:\SVG\闁哄鍎戠紓姘┍" inkscape:version="0.45.1" inkscape:output_extension="org.inkscape.output.svg.inkscape"
	 xmlns="http://www.w3.org/2000/svg" xmlns:xlink="http://www.w3.org/1999/xlink" x="0px" y="0px" width="30px" height="30px"
	 viewBox="0 0 30 30" enable-background="new 0 0 30 30" xml:space="preserve">
<sodipodi:namedview  inkscape:cy="646.08493" showguides="true" inkscape:cx="126.79097" guidetolerance="10" objecttolerance="10" borderopacity="1.0" id="base" pagecolor="#ffffff" inkscape:zoom="0.74999999" bordercolor="#666666" gridtolerance="10000" inkscape:window-y="-4" inkscape:window-x="-4" inkscape:window-height="968" inkscape:window-width="1280" inkscape:current-layer="layer1" inkscape:document-units="px" inkscape:pageshadow="2" inkscape:pageopacity="0.0" inkscape:guide-bbox="true">
	<sodipodi:guide  orientation="vertical" position="1116" id="guide22942"></sodipodi:guide>
	<sodipodi:guide  orientation="vertical" position="1147" id="guide22944"></sodipodi:guide>
</sodipodi:namedview>
<g>
	<path id="path2200_12_" sodipodi:nodetypes="ccccc" fill="#00C800" d="M19.429,29.262l0.032-18.901l2.048-0.838l-0.034,19.755
		L19.429,29.262z"/>
	<path id="path2214_18_" sodipodi:nodetypes="cccccccccc" fill="#00C800" d="M21.51,9.521l-9.535-5.817l4.597-1.476l-2.297-1.506
		L8.792,2.745l0.684,5.724l2.223,1.305l-0.601-4.448l10.101,6.226L21.51,9.521z"/>
	<path id="path2249_6_" sodipodi:nodetypes="cscccccccccszc" fill="#00C800" d="M19.425,19.516c0.022-0.417-0.233-1.863-1.36-2.654
		c-1.126-0.792-3.046-0.656-3.046-0.656L11.7,16.221l3.128,3.677l-2.742,0.07L8.49,15.357l3.6-4.504l2.578,0.062l-2.855,3.463
		l3.007-0.012c0,0,1.842-0.052,2.89,0.434c1.045,0.485,2.401,1.6,2.545,2.009C20.536,17.626,19.401,19.915,19.425,19.516z"/>
</g>
</svg>
