<?xml version="1.0" encoding="utf-8"?>
<!-- Generator: Adobe Illustrator 17.0.0, SVG Export Plug-In . SVG Version: 6.00 Build 0)  -->
<!DOCTYPE svg PUBLIC "-//W3C//DTD SVG 1.1//EN" "http://www.w3.org/Graphics/SVG/1.1/DTD/svg11.dtd">
<svg version="1.1"
	 id="svg2203" xmlns:sodipodi="http://sodipodi.sourceforge.net/DTD/sodipodi-0.dtd" xmlns:cc="http://web.resource.org/cc/" xmlns:dc="http://purl.org/dc/elements/1.1/" xmlns:inkscape="http://www.inkscape.org/namespaces/inkscape" xmlns:rdf="http://www.w3.org/1999/02/22-rdf-syntax-ns#" xmlns:svg="http://www.w3.org/2000/svg" sodipodi:version="0.32" sodipodi:docname="闁诲骸缍婂缁樹繆閸ユ椽宕稿Δ鈧惌姊g" sodipodi:docbase="D:\SVG\闂佸搫閸庢垹绱撳鈹" inkscape:version="0.45.1" inkscape:output_extension="org.inkscape.output.svg.inkscape"
	 xmlns="http://www.w3.org/2000/svg" xmlns:xlink="http://www.w3.org/1999/xlink" x="0px" y="0px" width="30px" height="30px"
	 viewBox="0 0 30 30" enable-background="new 0 0 30 30" xml:space="preserve">
<sodipodi:namedview  inkscape:cy="646.08493" showguides="true" inkscape:cx="126.79097" guidetolerance="10" objecttolerance="10" borderopacity="1.0" id="base" pagecolor="#ffffff" inkscape:zoom="0.74999999" bordercolor="#666666" gridtolerance="10000" inkscape:window-y="-4" inkscape:window-x="-4" inkscape:window-height="968" inkscape:window-width="1280" inkscape:current-layer="layer1" inkscape:document-units="px" inkscape:pageshadow="2" inkscape:pageopacity="0.0" inkscape:guide-bbox="true">
	<sodipodi:guide  orientation="vertical" position="1116" id="guide22942"></sodipodi:guide>
	<sodipodi:guide  orientation="vertical" position="1147" id="guide22944"></sodipodi:guide>
</sodipodi:namedview>
<g>
	<path id="path2214_37_" sodipodi:nodetypes="cccccccccc" fill="#0000FF" d="M16.467,29.168l0.016-25.164l3.677,3.127l0.069-2.744
		l-4.61-3.594l-4.504,3.599l0.063,2.577l3.463-2.855l-0.013,25.094L16.467,29.168z"/>
	<path id="path2214_36_" sodipodi:nodetypes="cccccccccc" fill="#0000FF" d="M16.347,14.333L5.805,7.817l4.596-1.476L8.105,4.835
		L2.621,6.858l0.685,5.724l2.222,1.305L4.927,9.439L15.75,16.12L16.347,14.333z"/>
	<path id="path2249_15_" sodipodi:nodetypes="cscccccccccszc" fill="#0000FF" d="M15.615,14.256c0.144-0.409,1.5-1.524,2.545-2.009
		c1.048-0.486,2.89-0.434,2.89-0.434l3.007,0.012l-2.855-3.463L23.779,8.3l3.6,4.504l-3.597,4.612l-2.742-0.07l3.128-3.677
		l-3.319-0.015c0,0-1.92-0.136-3.047,0.656c-1.127,0.791-1.383,2.237-1.359,2.654C16.465,17.361,15.331,15.072,15.615,14.256z"/>
</g>
</svg>
