<?xml version="1.0" encoding="utf-8"?>
<!-- Generator: Adobe Illustrator 17.0.0, SVG Export Plug-In . SVG Version: 6.00 Build 0)  -->
<!DOCTYPE svg PUBLIC "-//W3C//DTD SVG 1.1//EN" "http://www.w3.org/Graphics/SVG/1.1/DTD/svg11.dtd">
<svg version="1.1"
	 id="svg2203" xmlns:sodipodi="http://sodipodi.sourceforge.net/DTD/sodipodi-0.dtd" xmlns:cc="http://web.resource.org/cc/" xmlns:dc="http://purl.org/dc/elements/1.1/" xmlns:inkscape="http://www.inkscape.org/namespaces/inkscape" xmlns:rdf="http://www.w3.org/1999/02/22-rdf-syntax-ns#" xmlns:svg="http://www.w3.org/2000/svg" sodipodi:version="0.32" sodipodi:docname="闁诲骸缍婂缁樹繆閸ユ椽宕稿Δ鈧惌姊g" sodipodi:docbase="D:\SVG\闂佸搫閸庢垹绱撳鈹" inkscape:version="0.45.1" inkscape:output_extension="org.inkscape.output.svg.inkscape"
	 xmlns="http://www.w3.org/2000/svg" xmlns:xlink="http://www.w3.org/1999/xlink" x="0px" y="0px" width="30px" height="30px"
	 viewBox="0 0 30 30" enable-background="new 0 0 30 30" xml:space="preserve">
<sodipodi:namedview  inkscape:cy="646.08493" showguides="true" inkscape:cx="126.79097" guidetolerance="10" objecttolerance="10" borderopacity="1.0" id="base" pagecolor="#ffffff" inkscape:zoom="0.74999999" bordercolor="#666666" gridtolerance="10000" inkscape:window-y="-4" inkscape:window-x="-4" inkscape:window-height="968" inkscape:window-width="1280" inkscape:current-layer="layer1" inkscape:document-units="px" inkscape:pageshadow="2" inkscape:pageopacity="0.0" inkscape:guide-bbox="true">
	<sodipodi:guide  orientation="vertical" position="1116" id="guide22942"></sodipodi:guide>
	<sodipodi:guide  orientation="vertical" position="1147" id="guide22944"></sodipodi:guide>
</sodipodi:namedview>
<g>
	<path id="path2214_39_" sodipodi:nodetypes="cccccccccc" fill="#0000FF" d="M11.796,29.208L11.784,4.113l3.463,2.855l0.063-2.577
		l-4.504-3.599L6.197,4.387l0.068,2.744l3.678-3.127l0.015,25.164L11.796,29.208z"/>
	<path id="path2249_16_" sodipodi:nodetypes="cscccccccccszc" fill="#0000FF" d="M10.754,20.131c0.145-0.409,1.5-1.524,2.545-2.009
		c1.048-0.486,2.891-0.434,2.891-0.434l3.006,0.012l-2.855-3.463l2.578-0.062l3.6,4.504l-3.596,4.611l-2.742-0.07l3.128-3.677
		l-3.319-0.015c0,0-1.92-0.136-3.046,0.656c-1.127,0.791-1.384,2.237-1.36,2.654C11.604,23.236,10.469,20.946,10.754,20.131z"/>
	<path id="path2214_38_" sodipodi:nodetypes="cccccccccc" fill="#0000FF" d="M10.674,16.121L21.497,9.44l-0.6,4.448l2.222-1.305
		l0.684-5.724L18.32,4.835l-2.296,1.506l4.596,1.476l-10.542,6.516L10.674,16.121z"/>
</g>
</svg>
