<?xml version="1.0" encoding="utf-8"?>
<!-- Generator: Adobe Illustrator 17.0.0, SVG Export Plug-In . SVG Version: 6.00 Build 0)  -->
<!DOCTYPE svg PUBLIC "-//W3C//DTD SVG 1.1//EN" "http://www.w3.org/Graphics/SVG/1.1/DTD/svg11.dtd">
<svg version="1.1"
	 id="svg2203" xmlns:sodipodi="http://sodipodi.sourceforge.net/DTD/sodipodi-0.dtd" xmlns:cc="http://web.resource.org/cc/" xmlns:dc="http://purl.org/dc/elements/1.1/" xmlns:inkscape="http://www.inkscape.org/namespaces/inkscape" xmlns:rdf="http://www.w3.org/1999/02/22-rdf-syntax-ns#" xmlns:svg="http://www.w3.org/2000/svg" sodipodi:version="0.32" sodipodi:docname="閻庡綊娼绘俊鍥洪崸妤€鐭梥vg" sodipodi:docbase="D:\SVG\闁哄鍎戠紓姘┍" inkscape:version="0.45.1" inkscape:output_extension="org.inkscape.output.svg.inkscape"
	 xmlns="http://www.w3.org/2000/svg" xmlns:xlink="http://www.w3.org/1999/xlink" x="0px" y="0px" width="30px" height="30px"
	 viewBox="0 0 30 30" enable-background="new 0 0 30 30" xml:space="preserve">
<sodipodi:namedview  inkscape:cy="646.08493" showguides="true" inkscape:cx="126.79097" guidetolerance="10" objecttolerance="10" borderopacity="1.0" id="base" pagecolor="#ffffff" inkscape:zoom="0.74999999" bordercolor="#666666" gridtolerance="10000" inkscape:window-y="-4" inkscape:window-x="-4" inkscape:window-height="968" inkscape:window-width="1280" inkscape:current-layer="layer1" inkscape:document-units="px" inkscape:pageshadow="2" inkscape:pageopacity="0.0" inkscape:guide-bbox="true">
	<sodipodi:guide  orientation="vertical" position="1116" id="guide22942"></sodipodi:guide>
	<sodipodi:guide  orientation="vertical" position="1147" id="guide22944"></sodipodi:guide>
</sodipodi:namedview>
<g>
	<path id="path2200_3_" sodipodi:nodetypes="ccccc" fill="#0000FF" d="M19.217,29.181l0.029-20.904l2.058-0.137l-0.015,21.047
		L19.217,29.181z"/>
	<path id="path2214_4_" sodipodi:nodetypes="ccccccccccszcc" fill="#0000FF" d="M18.055,4.814c-1.112-0.362-2.929-0.438-2.929-0.438
		l-3.048,0.011l2.896-3.511l-2.613-0.063L8.713,5.38l3.644,4.675l2.783-0.07l-3.17-3.729l3.364-0.016c0,0,1.644-0.006,2.785,0.796
		c1.143,0.803,1.186,2.416,1.189,2.807c0.006,0.391,2.328-1.143,1.947-1.835C20.593,6.434,19.645,5.329,18.055,4.814z"/>
	<path id="path22940_10_" sodipodi:nodetypes="cccccccccccc" fill="#0000FF" d="M21.229,18.072
		c-0.269-5.411-9.046-5.419-8.943,0.118l0.024,8.033l-3.545-3.127L8.696,25.18l4.688,3.941l4.474-3.915l0.006-2.288l-3.532,3.209
		l0.017-7.532c0.084-3.632,4.813-3.499,5-0.095L21.229,18.072z"/>
</g>
</svg>
