<?xml version="1.0" encoding="utf-8"?>
<!-- Generator: Adobe Illustrator 17.0.0, SVG Export Plug-In . SVG Version: 6.00 Build 0)  -->
<!DOCTYPE svg PUBLIC "-//W3C//DTD SVG 1.1//EN" "http://www.w3.org/Graphics/SVG/1.1/DTD/svg11.dtd">
<svg version="1.1"
	 id="svg2203" xmlns:sodipodi="http://sodipodi.sourceforge.net/DTD/sodipodi-0.dtd" xmlns:cc="http://web.resource.org/cc/" xmlns:dc="http://purl.org/dc/elements/1.1/" xmlns:inkscape="http://www.inkscape.org/namespaces/inkscape" xmlns:rdf="http://www.w3.org/1999/02/22-rdf-syntax-ns#" xmlns:svg="http://www.w3.org/2000/svg" sodipodi:version="0.32" sodipodi:docname="閻庡綊娼绘俊鍥洪崸妤€鐭梥vg" sodipodi:docbase="D:\SVG\闁哄鍎戠紓姘┍" inkscape:version="0.45.1" inkscape:output_extension="org.inkscape.output.svg.inkscape"
	 xmlns="http://www.w3.org/2000/svg" xmlns:xlink="http://www.w3.org/1999/xlink" x="0px" y="0px" width="30px" height="30px"
	 viewBox="0 0 30 30" enable-background="new 0 0 30 30" xml:space="preserve">
<sodipodi:namedview  inkscape:cy="646.08493" showguides="true" inkscape:cx="126.79097" guidetolerance="10" objecttolerance="10" borderopacity="1.0" id="base" pagecolor="#ffffff" inkscape:zoom="0.74999999" bordercolor="#666666" gridtolerance="10000" inkscape:window-y="-4" inkscape:window-x="-4" inkscape:window-height="968" inkscape:window-width="1280" inkscape:current-layer="layer1" inkscape:document-units="px" inkscape:pageshadow="2" inkscape:pageopacity="0.0" inkscape:guide-bbox="true">
	<sodipodi:guide  orientation="vertical" position="1116" id="guide22942"></sodipodi:guide>
	<sodipodi:guide  orientation="vertical" position="1147" id="guide22944"></sodipodi:guide>
</sodipodi:namedview>
<g>
	<path id="path2214_1_" sodipodi:nodetypes="cscccccccccszs" fill="#0000FF" d="M18.059,12.145c-0.144-0.41-1.26-1.283-2.307-1.77
		c-1.047-0.486-3.257-0.433-3.257-0.433L9.484,9.953l2.859-3.468L9.762,6.422l-3.604,4.51l3.6,4.618l2.748-0.07l-3.132-3.683
		l3.324-0.015c0,0,1.865-0.25,2.993,0.542c1.128,0.793,2.386,2.143,2.392,2.53C18.095,15.629,18.346,12.965,18.059,12.145z"/>
	<path id="path22940_1_" sodipodi:nodetypes="cccccccccccc" fill="#0000FF" d="M19.74,20.555c-0.268-5.344-9.907-5.352-9.808,0.117
		l0.026,5.502l-3.503-3.088l-0.066,2.058l4.627,3.893l4.42-3.867l0.006-2.258l-3.491,3.168l0.017-5.007
		c0.083-3.586,5.726-3.455,5.911-0.094L19.74,20.555z"/>
	<path id="path2263_1_" sodipodi:nodetypes="cccccccccc" fill="#0000FF" d="M19.95,29.096L19.924,4.649l3.851,3.124l0.068-2.867
		l-5.007-4.002l-5.126,3.998l0.078,3.051l4.088-3.478l0.014,24.621L19.95,29.096L19.95,29.096z"/>
</g>
</svg>
