<?xml version="1.0" encoding="utf-8"?>
<!-- Generator: Adobe Illustrator 17.0.0, SVG Export Plug-In . SVG Version: 6.00 Build 0)  -->
<!DOCTYPE svg PUBLIC "-//W3C//DTD SVG 1.1//EN" "http://www.w3.org/Graphics/SVG/1.1/DTD/svg11.dtd">
<svg version="1.1"
	 id="svg2203" xmlns:sodipodi="http://sodipodi.sourceforge.net/DTD/sodipodi-0.dtd" xmlns:cc="http://web.resource.org/cc/" xmlns:dc="http://purl.org/dc/elements/1.1/" xmlns:inkscape="http://www.inkscape.org/namespaces/inkscape" xmlns:rdf="http://www.w3.org/1999/02/22-rdf-syntax-ns#" xmlns:svg="http://www.w3.org/2000/svg" sodipodi:version="0.32" sodipodi:docname="闁诲骸缍婂缁樹繆閸ユ椽宕稿Δ鈧惌姊g" sodipodi:docbase="D:\SVG\闂佸搫閸庢垹绱撳鈹" inkscape:version="0.45.1" inkscape:output_extension="org.inkscape.output.svg.inkscape"
	 xmlns="http://www.w3.org/2000/svg" xmlns:xlink="http://www.w3.org/1999/xlink" x="0px" y="0px" width="30px" height="30px"
	 viewBox="0 0 30 30" enable-background="new 0 0 30 30" xml:space="preserve">
<sodipodi:namedview  inkscape:cy="646.08493" showguides="true" inkscape:cx="126.79097" guidetolerance="10" objecttolerance="10" borderopacity="1.0" id="base" pagecolor="#ffffff" inkscape:zoom="0.74999999" bordercolor="#666666" gridtolerance="10000" inkscape:window-y="-4" inkscape:window-x="-4" inkscape:window-height="968" inkscape:window-width="1280" inkscape:current-layer="layer1" inkscape:document-units="px" inkscape:pageshadow="2" inkscape:pageopacity="0.0" inkscape:guide-bbox="true">
	<sodipodi:guide  orientation="vertical" position="1116" id="guide22942"></sodipodi:guide>
	<sodipodi:guide  orientation="vertical" position="1147" id="guide22944"></sodipodi:guide>
</sodipodi:namedview>
<g>
	<path id="path2214_29_" sodipodi:nodetypes="cccccccccc" fill="#0000FF" d="M15.37,29.208L15.358,4.113l3.463,2.855l0.063-2.577
		L14.38,0.792L9.771,4.387l0.068,2.744l3.678-3.127l0.015,25.164L15.37,29.208z"/>
	<path id="path2214_28_" sodipodi:nodetypes="cccccccccc" fill="#0000FF" d="M14.249,16.121L25.072,9.44l-0.6,4.448l2.222-1.305
		l0.684-5.724l-5.483-2.023l-2.296,1.506l4.596,1.476l-10.542,6.516L14.249,16.121z"/>
	<path id="path2249_14_" sodipodi:nodetypes="cscccccccccszc" fill="#0000FF" d="M13.558,16.964c0.021-0.417-0.233-1.863-1.36-2.654
		c-1.126-0.792-3.046-0.656-3.046-0.656l-3.32,0.015l3.128,3.677l-2.742,0.07l-3.596-4.611l3.601-4.504L8.8,8.363l-2.854,3.463
		l3.006-0.012c0,0,1.842-0.052,2.89,0.434c1.045,0.485,2.401,1.6,2.545,2.009C14.668,15.071,13.533,17.361,13.558,16.964z"/>
</g>
</svg>
