<?xml version="1.0" encoding="utf-8"?>
<!-- Generator: Adobe Illustrator 17.0.0, SVG Export Plug-In . SVG Version: 6.00 Build 0)  -->
<!DOCTYPE svg PUBLIC "-//W3C//DTD SVG 1.1//EN" "http://www.w3.org/Graphics/SVG/1.1/DTD/svg11.dtd">
<svg version="1.1"
	 id="svg2203" xmlns:sodipodi="http://sodipodi.sourceforge.net/DTD/sodipodi-0.dtd" xmlns:cc="http://web.resource.org/cc/" xmlns:dc="http://purl.org/dc/elements/1.1/" xmlns:inkscape="http://www.inkscape.org/namespaces/inkscape" xmlns:rdf="http://www.w3.org/1999/02/22-rdf-syntax-ns#" xmlns:svg="http://www.w3.org/2000/svg" sodipodi:version="0.32" sodipodi:docname="閻庡綊娼绘俊鍥洪崸妤€鐭梥vg" sodipodi:docbase="D:\SVG\闁哄鍎戠紓姘┍" inkscape:version="0.45.1" inkscape:output_extension="org.inkscape.output.svg.inkscape"
	 xmlns="http://www.w3.org/2000/svg" xmlns:xlink="http://www.w3.org/1999/xlink" x="0px" y="0px" width="30px" height="30px"
	 viewBox="0 0 30 30" enable-background="new 0 0 30 30" xml:space="preserve">
<sodipodi:namedview  inkscape:cy="646.08493" showguides="true" inkscape:cx="126.79097" guidetolerance="10" objecttolerance="10" borderopacity="1.0" id="base" pagecolor="#ffffff" inkscape:zoom="0.74999999" bordercolor="#666666" gridtolerance="10000" inkscape:window-y="-4" inkscape:window-x="-4" inkscape:window-height="968" inkscape:window-width="1280" inkscape:current-layer="layer1" inkscape:document-units="px" inkscape:pageshadow="2" inkscape:pageopacity="0.0" inkscape:guide-bbox="true">
	<sodipodi:guide  orientation="vertical" position="1116" id="guide22942"></sodipodi:guide>
	<sodipodi:guide  orientation="vertical" position="1147" id="guide22944"></sodipodi:guide>
</sodipodi:namedview>
<g>
	<path id="path2214_7_" sodipodi:nodetypes="cccccccccc" fill="#FFB400" d="M19.399,29.168l0.015-25.164l3.677,3.127l0.069-2.744
		l-4.61-3.594l-4.504,3.599l0.063,2.577l3.463-2.855L17.56,29.208L19.399,29.168z"/>
	<path id="path2249_3_" sodipodi:nodetypes="cscccccccccszc" fill="#FFB400" d="M17.776,17.839c0.021-0.417-0.233-1.863-1.36-2.654
		c-1.126-0.792-3.046-0.656-3.046-0.656l-3.32,0.015l3.128,3.677l-2.741,0.07L6.84,13.68l3.601-4.504l2.578,0.062l-2.855,3.463
		l3.006-0.012c0,0,1.843-0.052,2.891,0.434c1.045,0.485,2.4,1.6,2.545,2.009C18.885,15.948,17.751,18.237,17.776,17.839z"/>
</g>
</svg>
