<?xml version="1.0" encoding="utf-8"?>
<!-- Generator: Adobe Illustrator 17.0.0, SVG Export Plug-In . SVG Version: 6.00 Build 0)  -->
<!DOCTYPE svg PUBLIC "-//W3C//DTD SVG 1.1//EN" "http://www.w3.org/Graphics/SVG/1.1/DTD/svg11.dtd">
<svg version="1.1"
	 id="svg2203" xmlns:sodipodi="http://sodipodi.sourceforge.net/DTD/sodipodi-0.dtd" xmlns:cc="http://web.resource.org/cc/" xmlns:dc="http://purl.org/dc/elements/1.1/" xmlns:inkscape="http://www.inkscape.org/namespaces/inkscape" xmlns:rdf="http://www.w3.org/1999/02/22-rdf-syntax-ns#" xmlns:svg="http://www.w3.org/2000/svg" sodipodi:version="0.32" sodipodi:docname="閻庡綊娼绘俊鍥洪崸妤€鐭梥vg" sodipodi:docbase="D:\SVG\闁哄鍎戠紓姘┍" inkscape:version="0.45.1" inkscape:output_extension="org.inkscape.output.svg.inkscape"
	 xmlns="http://www.w3.org/2000/svg" xmlns:xlink="http://www.w3.org/1999/xlink" x="0px" y="0px" width="30px" height="30px"
	 viewBox="0 0 30 30" enable-background="new 0 0 30 30" xml:space="preserve">
<sodipodi:namedview  inkscape:cy="646.08493" showguides="true" inkscape:cx="126.79097" guidetolerance="10" objecttolerance="10" borderopacity="1.0" id="base" pagecolor="#ffffff" inkscape:zoom="0.74999999" bordercolor="#666666" gridtolerance="10000" inkscape:window-y="-4" inkscape:window-x="-4" inkscape:window-height="968" inkscape:window-width="1280" inkscape:current-layer="layer1" inkscape:document-units="px" inkscape:pageshadow="2" inkscape:pageopacity="0.0" inkscape:guide-bbox="true">
	<sodipodi:guide  orientation="vertical" position="1116" id="guide22942"></sodipodi:guide>
	<sodipodi:guide  orientation="vertical" position="1147" id="guide22944"></sodipodi:guide>
</sodipodi:namedview>
<g>
	<path id="path2200_13_" sodipodi:nodetypes="ccccc" fill="#0000FF" d="M14.116,29.278L14.083,9.523l2.048,0.838l0.032,18.901
		L14.116,29.278z"/>
	<path id="path2214_19_" sodipodi:nodetypes="cccccccccc" fill="#0000FF" d="M14.393,11.553l10.101-6.226l-0.601,4.448l2.223-1.305
		L26.8,2.746l-5.483-2.023L19.02,2.228l4.597,1.476l-9.535,5.817L14.393,11.553z"/>
	<path id="path2249_7_" sodipodi:nodetypes="cscccccccccszc" fill="#0000FF" d="M14.135,19.578c0.023-0.417-0.232-1.863-1.359-2.654
		c-1.127-0.792-3.047-0.656-3.047-0.656L6.41,16.283l3.128,3.677l-2.742,0.07L3.2,15.419l3.6-4.504l2.578,0.062L6.523,14.44
		l3.007-0.012c0,0,1.842-0.052,2.89,0.434c1.045,0.485,2.401,1.6,2.545,2.009C15.248,17.688,14.112,19.976,14.135,19.578z"/>
</g>
</svg>
