<?xml version="1.0" encoding="utf-8"?>
<!-- Generator: Adobe Illustrator 17.0.0, SVG Export Plug-In . SVG Version: 6.00 Build 0)  -->
<!DOCTYPE svg PUBLIC "-//W3C//DTD SVG 1.1//EN" "http://www.w3.org/Graphics/SVG/1.1/DTD/svg11.dtd">
<svg version="1.1"
	 id="svg2203" xmlns:sodipodi="http://sodipodi.sourceforge.net/DTD/sodipodi-0.dtd" xmlns:cc="http://web.resource.org/cc/" xmlns:dc="http://purl.org/dc/elements/1.1/" xmlns:inkscape="http://www.inkscape.org/namespaces/inkscape" xmlns:rdf="http://www.w3.org/1999/02/22-rdf-syntax-ns#" xmlns:svg="http://www.w3.org/2000/svg" sodipodi:version="0.32" sodipodi:docname="闁诲骸缍婂缁樹繆閸ユ椽宕稿Δ鈧惌姊g" sodipodi:docbase="D:\SVG\闂佸搫閸庢垹绱撳鈹" inkscape:version="0.45.1" inkscape:output_extension="org.inkscape.output.svg.inkscape"
	 xmlns="http://www.w3.org/2000/svg" xmlns:xlink="http://www.w3.org/1999/xlink" x="0px" y="0px" width="30px" height="30px"
	 viewBox="0 0 30 30" enable-background="new 0 0 30 30" xml:space="preserve">
<sodipodi:namedview  inkscape:cy="646.08493" showguides="true" inkscape:cx="126.79097" guidetolerance="10" objecttolerance="10" borderopacity="1.0" id="base" pagecolor="#ffffff" inkscape:zoom="0.74999999" bordercolor="#666666" gridtolerance="10000" inkscape:window-y="-4" inkscape:window-x="-4" inkscape:window-height="968" inkscape:window-width="1280" inkscape:current-layer="layer1" inkscape:document-units="px" inkscape:pageshadow="2" inkscape:pageopacity="0.0" inkscape:guide-bbox="true">
	<sodipodi:guide  orientation="vertical" position="1116" id="guide22942"></sodipodi:guide>
	<sodipodi:guide  orientation="vertical" position="1147" id="guide22944"></sodipodi:guide>
</sodipodi:namedview>
<g>
	<path id="path2214_13_" sodipodi:nodetypes="cccccccccc" fill="#FFB400" d="M20.042,29.168l0.015-25.164l3.678,3.127l0.068-2.744
		l-4.609-3.594L14.69,4.391l0.063,2.577l3.463-2.855l-0.012,25.094L20.042,29.168z"/>
	<path id="path2249_5_" sodipodi:nodetypes="cscccccccccszc" fill="#FFB400" d="M18.42,22.839c0.022-0.417-0.233-1.863-1.36-2.654
		c-1.126-0.792-3.046-0.656-3.046-0.656l-3.319,0.015l3.128,3.677l-2.742,0.07L7.485,18.68l3.6-4.504l2.578,0.062l-2.855,3.463
		l3.007-0.012c0,0,1.842-0.052,2.89,0.434c1.045,0.485,2.4,1.6,2.545,2.009C19.529,20.947,18.396,23.236,18.42,22.839z"/>
	<path id="path2214_12_" sodipodi:nodetypes="cccccccccc" fill="#FFB400" d="M19.922,14.333L9.38,7.817l4.596-1.476L11.68,4.835
		L6.197,6.858l0.684,5.724l2.222,1.305l-0.6-4.448l10.823,6.681L19.922,14.333z"/>
</g>
</svg>
