<?xml version="1.0" encoding="utf-8"?>
<!-- Generator: Adobe Illustrator 17.0.0, SVG Export Plug-In . SVG Version: 6.00 Build 0)  -->
<!DOCTYPE svg PUBLIC "-//W3C//DTD SVG 1.1//EN" "http://www.w3.org/Graphics/SVG/1.1/DTD/svg11.dtd">
<svg version="1.1"
	 id="svg2203" xmlns:sodipodi="http://sodipodi.sourceforge.net/DTD/sodipodi-0.dtd" xmlns:cc="http://web.resource.org/cc/" xmlns:dc="http://purl.org/dc/elements/1.1/" xmlns:inkscape="http://www.inkscape.org/namespaces/inkscape" xmlns:rdf="http://www.w3.org/1999/02/22-rdf-syntax-ns#" xmlns:svg="http://www.w3.org/2000/svg" sodipodi:version="0.32" sodipodi:docname="閻庡綊娼绘俊鍥洪崸妤€鐭梥vg" sodipodi:docbase="D:\SVG\闁哄鍎戠紓姘┍" inkscape:version="0.45.1" inkscape:output_extension="org.inkscape.output.svg.inkscape"
	 xmlns="http://www.w3.org/2000/svg" xmlns:xlink="http://www.w3.org/1999/xlink" x="0px" y="0px" width="30px" height="30px"
	 viewBox="0 0 30 30" enable-background="new 0 0 30 30" xml:space="preserve">
<sodipodi:namedview  inkscape:cy="646.08493" showguides="true" inkscape:cx="126.79097" guidetolerance="10" objecttolerance="10" borderopacity="1.0" id="base" pagecolor="#ffffff" inkscape:zoom="0.74999999" bordercolor="#666666" gridtolerance="10000" inkscape:window-y="-4" inkscape:window-x="-4" inkscape:window-height="968" inkscape:window-width="1280" inkscape:current-layer="layer1" inkscape:document-units="px" inkscape:pageshadow="2" inkscape:pageopacity="0.0" inkscape:guide-bbox="true">
	<sodipodi:guide  orientation="vertical" position="1116" id="guide22942"></sodipodi:guide>
	<sodipodi:guide  orientation="vertical" position="1147" id="guide22944"></sodipodi:guide>
</sodipodi:namedview>
<g>
	<path id="path2200_2_" sodipodi:nodetypes="ccccc" fill="#FFB400" d="M13.938,29.033l0.027-20.687l2.037-0.136L15.986,29.04
		L13.938,29.033z"/>
	<path id="path2214_2_" sodipodi:nodetypes="ccccccccccszcc" fill="#FFB400" d="M17.223,4.92c1.102-0.358,2.897-0.435,2.897-0.435
		l3.018,0.012l-2.864-3.475l2.587-0.062l3.61,4.52l-3.604,4.626l-2.754-0.069l3.138-3.69l-3.33-0.016c0,0-1.625-0.007-2.756,0.788
		c-1.13,0.794-1.173,2.39-1.179,2.777c-0.005,0.388-2.306-1.129-1.929-1.815C14.711,6.524,15.646,5.428,17.223,4.92z"/>
	<path id="path22940_7_" sodipodi:nodetypes="cccccccccccc" fill="#FFB400" d="M15.931,18.041c-0.267-5.354-8.95-5.363-8.852,0.117
		l0.026,7.949l-3.511-3.094l-0.065,2.063l4.637,3.899l4.428-3.874l0.006-2.264l-3.496,3.175l0.018-7.454
		c0.083-3.594,4.761-3.461,4.948-0.094L15.931,18.041z"/>
</g>
</svg>
