<?xml version="1.0" encoding="utf-8"?>
<!-- Generator: Adobe Illustrator 17.0.0, SVG Export Plug-In . SVG Version: 6.00 Build 0)  -->
<!DOCTYPE svg PUBLIC "-//W3C//DTD SVG 1.1//EN" "http://www.w3.org/Graphics/SVG/1.1/DTD/svg11.dtd">
<svg version="1.1"
	 id="svg2203" xmlns:sodipodi="http://sodipodi.sourceforge.net/DTD/sodipodi-0.dtd" xmlns:cc="http://web.resource.org/cc/" xmlns:dc="http://purl.org/dc/elements/1.1/" xmlns:inkscape="http://www.inkscape.org/namespaces/inkscape" xmlns:rdf="http://www.w3.org/1999/02/22-rdf-syntax-ns#" xmlns:svg="http://www.w3.org/2000/svg" sodipodi:version="0.32" sodipodi:docname="闁诲骸缍婂缁樹繆閸ユ椽宕稿Δ鈧惌姊g" sodipodi:docbase="D:\SVG\闂佸搫閸庢垹绱撳鈹" inkscape:version="0.45.1" inkscape:output_extension="org.inkscape.output.svg.inkscape"
	 xmlns="http://www.w3.org/2000/svg" xmlns:xlink="http://www.w3.org/1999/xlink" x="0px" y="0px" width="30px" height="30px"
	 viewBox="0 0 30 30" enable-background="new 0 0 30 30" xml:space="preserve">
<sodipodi:namedview  inkscape:cy="646.08493" showguides="true" inkscape:cx="126.79097" guidetolerance="10" objecttolerance="10" borderopacity="1.0" id="base" pagecolor="#ffffff" inkscape:zoom="0.74999999" bordercolor="#666666" gridtolerance="10000" inkscape:window-y="-4" inkscape:window-x="-4" inkscape:window-height="968" inkscape:window-width="1280" inkscape:current-layer="layer1" inkscape:document-units="px" inkscape:pageshadow="2" inkscape:pageopacity="0.0" inkscape:guide-bbox="true">
	<sodipodi:guide  orientation="vertical" position="1116" id="guide22942"></sodipodi:guide>
	<sodipodi:guide  orientation="vertical" position="1147" id="guide22944"></sodipodi:guide>
</sodipodi:namedview>
<g>
	<path id="path2200_14_" sodipodi:nodetypes="ccccc" fill="#00C800" d="M19.278,29.261L19.31,10.36l2.048-0.838l-0.034,19.755
		L19.278,29.261z"/>
	<path id="path2214_20_" sodipodi:nodetypes="cccccccccc" fill="#00C800" d="M21.359,9.52l-9.535-5.817l4.597-1.476l-2.297-1.506
		L8.641,2.744l0.684,5.724l2.223,1.305l-0.601-4.448l10.101,6.226L21.359,9.52z"/>
	<path id="path22940_14_" sodipodi:nodetypes="cccccccccccc" fill="#00C800" d="M21.163,18.345c-0.267-5.354-8.95-5.363-8.852,0.117
		l0.026,7.949l-3.511-3.094L8.761,25.38l4.637,3.899l4.428-3.874l0.006-2.264l-3.496,3.175l0.018-7.454
		c0.083-3.594,4.761-3.461,4.948-0.094L21.163,18.345z"/>
</g>
</svg>
