<?xml version="1.0" encoding="utf-8"?>
<!-- Generator: Adobe Illustrator 17.0.0, SVG Export Plug-In . SVG Version: 6.00 Build 0)  -->
<!DOCTYPE svg PUBLIC "-//W3C//DTD SVG 1.1//EN" "http://www.w3.org/Graphics/SVG/1.1/DTD/svg11.dtd">
<svg version="1.1"
	 id="svg2203" xmlns:sodipodi="http://sodipodi.sourceforge.net/DTD/sodipodi-0.dtd" xmlns:cc="http://web.resource.org/cc/" xmlns:dc="http://purl.org/dc/elements/1.1/" xmlns:inkscape="http://www.inkscape.org/namespaces/inkscape" xmlns:rdf="http://www.w3.org/1999/02/22-rdf-syntax-ns#" xmlns:svg="http://www.w3.org/2000/svg" sodipodi:version="0.32" sodipodi:docname="閻庡綊娼绘俊鍥洪崸妤€鐭梥vg" sodipodi:docbase="D:\SVG\闁哄鍎戠紓姘┍" inkscape:version="0.45.1" inkscape:output_extension="org.inkscape.output.svg.inkscape"
	 xmlns="http://www.w3.org/2000/svg" xmlns:xlink="http://www.w3.org/1999/xlink" x="0px" y="0px" width="30px" height="30px"
	 viewBox="0 0 30 30" enable-background="new 0 0 30 30" xml:space="preserve">
<sodipodi:namedview  inkscape:cy="646.08493" showguides="true" inkscape:cx="126.79097" guidetolerance="10" objecttolerance="10" borderopacity="1.0" id="base" pagecolor="#ffffff" inkscape:zoom="0.74999999" bordercolor="#666666" gridtolerance="10000" inkscape:window-y="-4" inkscape:window-x="-4" inkscape:window-height="968" inkscape:window-width="1280" inkscape:current-layer="layer1" inkscape:document-units="px" inkscape:pageshadow="2" inkscape:pageopacity="0.0" inkscape:guide-bbox="true">
	<sodipodi:guide  orientation="vertical" position="1116" id="guide22942"></sodipodi:guide>
	<sodipodi:guide  orientation="vertical" position="1147" id="guide22944"></sodipodi:guide>
</sodipodi:namedview>
<g>
	<path id="path2214_3_" sodipodi:nodetypes="cccccccccc" fill="#FFB400" d="M15.909,29.208L15.895,4.113l3.465,2.855l0.062-2.577
		l-4.504-3.599l-4.61,3.594l0.069,2.744l3.677-3.127l0.017,25.164L15.909,29.208z"/>
	<path id="path2249" sodipodi:nodetypes="cscccccccccszc" fill="#FFB400" d="M14.867,15.131c0.144-0.409,1.5-1.524,2.546-2.009
		c1.046-0.486,2.888-0.434,2.888-0.434l3.006,0.012l-2.854-3.463l2.578-0.062l3.599,4.504l-3.594,4.611l-2.744-0.07l3.127-3.677
		L20.1,14.528c0,0-1.92-0.136-3.046,0.656c-1.127,0.791-1.384,2.237-1.358,2.654C15.716,18.237,14.581,15.948,14.867,15.131z"/>
	<path id="path22940_9_" sodipodi:nodetypes="cccccccccccc" fill="#FFB400" d="M15.728,16.487c-0.266-5.336-8.919-5.345-8.819,0.116
		l0.025,7.921l-3.497-3.083L3.37,23.496l4.621,3.887l4.413-3.86l0.005-2.255l-3.485,3.164l0.019-7.427
		c0.083-3.582,4.986-3.45,5.174-0.094L15.728,16.487z"/>
</g>
</svg>
