<?xml version="1.0" encoding="utf-8"?>
<!-- Generator: Adobe Illustrator 17.0.0, SVG Export Plug-In . SVG Version: 6.00 Build 0)  -->
<!DOCTYPE svg PUBLIC "-//W3C//DTD SVG 1.1//EN" "http://www.w3.org/Graphics/SVG/1.1/DTD/svg11.dtd">
<svg version="1.1"
	 id="svg2203" xmlns:sodipodi="http://sodipodi.sourceforge.net/DTD/sodipodi-0.dtd" xmlns:cc="http://web.resource.org/cc/" xmlns:dc="http://purl.org/dc/elements/1.1/" xmlns:inkscape="http://www.inkscape.org/namespaces/inkscape" xmlns:rdf="http://www.w3.org/1999/02/22-rdf-syntax-ns#" xmlns:svg="http://www.w3.org/2000/svg" sodipodi:version="0.32" sodipodi:docname="閻庡綊娼绘俊鍥洪崸妤€鐭梥vg" sodipodi:docbase="D:\SVG\闁哄鍎戠紓姘┍" inkscape:version="0.45.1" inkscape:output_extension="org.inkscape.output.svg.inkscape"
	 xmlns="http://www.w3.org/2000/svg" xmlns:xlink="http://www.w3.org/1999/xlink" x="0px" y="0px" width="30px" height="30px"
	 viewBox="0 0 30 30" enable-background="new 0 0 30 30" xml:space="preserve">
<sodipodi:namedview  inkscape:cy="646.08493" showguides="true" inkscape:cx="126.79097" guidetolerance="10" objecttolerance="10" borderopacity="1.0" id="base" pagecolor="#ffffff" inkscape:zoom="0.74999999" bordercolor="#666666" gridtolerance="10000" inkscape:window-y="-4" inkscape:window-x="-4" inkscape:window-height="968" inkscape:window-width="1280" inkscape:current-layer="layer1" inkscape:document-units="px" inkscape:pageshadow="2" inkscape:pageopacity="0.0" inkscape:guide-bbox="true">
	<sodipodi:guide  orientation="vertical" position="1116" id="guide22942"></sodipodi:guide>
	<sodipodi:guide  orientation="vertical" position="1147" id="guide22944"></sodipodi:guide>
</sodipodi:namedview>
<g>
	<path id="path2214" sodipodi:nodetypes="cscccccccccszs" fill="#FFB400" d="M14.653,16.041c-0.143-0.41-1.258-1.282-2.305-1.768
		c-1.046-0.486-3.254-0.433-3.254-0.433l-3.01,0.012l2.858-3.465l-2.58-0.062l-3.601,4.506l3.596,4.613l2.746-0.069l-3.129-3.679
		l3.32-0.016c0,0,1.864-0.25,2.991,0.542s2.384,2.141,2.391,2.527C14.689,19.521,14.94,16.859,14.653,16.041z"/>
	<path id="path2263" sodipodi:nodetypes="cccccccccc" fill="#FFB400" d="M16.058,29.084L16.032,4.659l3.847,3.12l0.069-2.864
		l-5.002-3.999L9.824,4.91l0.078,3.049l4.084-3.475L14,29.084L16.058,29.084L16.058,29.084z"/>
	<path id="path2198" sodipodi:nodetypes="cscccccccccszs" fill="#FFB400" d="M15.348,16.041c0.144-0.41,1.258-1.282,2.305-1.768
		c1.046-0.486,3.253-0.433,3.253-0.433l3.009,0.012l-2.857-3.465l2.579-0.062l3.602,4.506l-3.596,4.613l-2.746-0.069l3.129-3.679
		l-3.321-0.016c0,0-1.862-0.25-2.991,0.542c-1.127,0.792-2.384,2.141-2.39,2.527C15.312,19.521,15.061,16.859,15.348,16.041z"/>
</g>
</svg>
