<?xml version="1.0" encoding="utf-8"?>
<!-- Generator: Adobe Illustrator 17.0.0, SVG Export Plug-In . SVG Version: 6.00 Build 0)  -->
<!DOCTYPE svg PUBLIC "-//W3C//DTD SVG 1.1//EN" "http://www.w3.org/Graphics/SVG/1.1/DTD/svg11.dtd">
<svg version="1.1"
	 id="svg2203" xmlns:sodipodi="http://sodipodi.sourceforge.net/DTD/sodipodi-0.dtd" xmlns:cc="http://web.resource.org/cc/" xmlns:dc="http://purl.org/dc/elements/1.1/" xmlns:inkscape="http://www.inkscape.org/namespaces/inkscape" xmlns:rdf="http://www.w3.org/1999/02/22-rdf-syntax-ns#" xmlns:svg="http://www.w3.org/2000/svg" sodipodi:version="0.32" sodipodi:docname="閻庡綊娼绘俊鍥洪崸妤€鐭梥vg" sodipodi:docbase="D:\SVG\闁哄鍎戠紓姘┍" inkscape:version="0.45.1" inkscape:output_extension="org.inkscape.output.svg.inkscape"
	 xmlns="http://www.w3.org/2000/svg" xmlns:xlink="http://www.w3.org/1999/xlink" x="0px" y="0px" width="30px" height="30px"
	 viewBox="0 0 30 30" enable-background="new 0 0 30 30" xml:space="preserve">
<sodipodi:namedview  inkscape:cy="646.08493" showguides="true" inkscape:cx="126.79097" guidetolerance="10" objecttolerance="10" borderopacity="1.0" id="base" pagecolor="#ffffff" inkscape:zoom="0.74999999" bordercolor="#666666" gridtolerance="10000" inkscape:window-y="-4" inkscape:window-x="-4" inkscape:window-height="968" inkscape:window-width="1280" inkscape:current-layer="layer1" inkscape:document-units="px" inkscape:pageshadow="2" inkscape:pageopacity="0.0" inkscape:guide-bbox="true">
	<sodipodi:guide  orientation="vertical" position="1116" id="guide22942"></sodipodi:guide>
	<sodipodi:guide  orientation="vertical" position="1147" id="guide22944"></sodipodi:guide>
</sodipodi:namedview>
<g>
	<path id="path2200_4_" sodipodi:nodetypes="ccccc" fill="#FFB400" d="M13.82,29.099l0.028-21.84l2.354-0.14l-0.018,21.987
		L13.82,29.099z"/>
	<path id="path2214_5_" sodipodi:nodetypes="cscccccccccszc" fill="#FFB400" d="M15.017,7.058c-0.147-0.424-1.554-1.578-2.636-2.08
		S9.392,4.53,9.392,4.53L6.283,4.542l2.955-3.584L6.57,0.894L2.842,5.556l3.721,4.773l2.842-0.072L6.168,6.451l3.436-0.017
		c0,0,1.678-0.006,2.844,0.813c1.166,0.82,1.46,2.466,1.467,2.865C13.923,10.91,15.313,7.904,15.017,7.058z"/>
	<path id="path2249_1_" sodipodi:nodetypes="cscccccccccszc" fill="#FFB400" d="M14.984,7.058c0.146-0.424,1.553-1.578,2.635-2.08
		s2.989-0.448,2.989-0.448l3.11,0.012l-2.956-3.584l2.668-0.064l3.728,4.662l-3.722,4.773l-2.841-0.071l3.237-3.806l-3.437-0.018
		c0,0-1.676-0.006-2.842,0.813c-1.166,0.82-1.461,2.466-1.467,2.865C16.076,10.91,14.686,7.904,14.984,7.058z"/>
	<path id="path22940_11_" sodipodi:nodetypes="cccccccccccc" fill="#FFB400" d="M15.875,17.759c-0.275-5.523-9.235-5.532-9.131,0.12
		l0.024,8.2l-3.617-3.192l-0.069,2.127l4.782,4.023l4.565-3.996l0.006-2.334L8.83,25.982l0.018-7.688
		c0.085-3.707,4.911-3.57,5.104-0.097L15.875,17.759z"/>
</g>
</svg>
