<?xml version="1.0" encoding="utf-8"?>
<!-- Generator: Adobe Illustrator 21.0.0, SVG Export Plug-In . SVG Version: 6.00 Build 0)  -->
<svg version="1.1" id="Layer_1" xmlns="http://www.w3.org/2000/svg" xmlns:xlink="http://www.w3.org/1999/xlink" x="0px" y="0px"
	 width="30px" height="30px" viewBox="0 0 30 30" enable-background="new 0 0 30 30" xml:space="preserve">
<g id="XMLID_3938_">
	<path id="XMLID_3949_" fill="#FFFFFF" d="M15,29.5C7,29.5,0.5,23,0.5,15S7,0.5,15,0.5S29.5,7,29.5,15S23,29.5,15,29.5z"/>
	<g id="XMLID_3947_">
		<path id="XMLID_3948_" fill="#305FA0" d="M15,1c7.7,0,14,6.3,14,14s-6.3,14-14,14S1,22.7,1,15S7.3,1,15,1 M15,0C6.7,0,0,6.7,0,15
			s6.7,15,15,15s15-6.7,15-15S23.3,0,15,0L15,0z"/>
	</g>
	<g id="XMLID_3939_">
		<g id="XMLID_3943_">
			<g id="XMLID_3945_">
				<g enable-background="new    ">
					<path fill="#305FA0" d="M9.2,10.5H7.9L7.5,9.2h-2l-0.4,1.3H3.8l2-5.6h1.4L9.2,10.5z M7.2,8.3L6.6,6.4c0-0.1-0.1-0.3-0.1-0.5
						l0,0c0,0.2,0,0.3-0.1,0.5l-0.6,2h1.4V8.3z"/>
					<path fill="#305FA0" d="M9.9,10.5V4.9h1.9c2,0,3,0.9,3,2.7c0,0.9-0.3,1.6-0.8,2.1c-0.6,0.5-1.3,0.8-2.2,0.8H9.9z M11.1,5.8v3.6
						h0.6c0.6,0,1-0.2,1.3-0.5s0.5-0.8,0.5-1.4s-0.2-1-0.5-1.3s-0.8-0.5-1.3-0.5h-0.6V5.8z"/>
					<path fill="#305FA0" d="M20.5,10.5h-1.3l-0.4-1.3h-2l-0.4,1.3h-1.3l2-5.6h1.4L20.5,10.5z M18.5,8.3l-0.6-1.9
						c0-0.1-0.1-0.3-0.1-0.5l0,0c0,0.2,0,0.3-0.1,0.5l-0.6,2h1.4V8.3z"/>
					<path fill="#305FA0" d="M20.9,9.1c0.5,0.4,1,0.6,1.5,0.6c0.3,0,0.6-0.1,0.7-0.2c0.2-0.1,0.2-0.3,0.2-0.4c0-0.2-0.1-0.3-0.2-0.4
						c-0.1-0.1-0.5-0.3-1-0.5c-0.9-0.4-1.3-0.9-1.3-1.6c0-0.5,0.2-0.9,0.6-1.2C21.8,5.1,22.3,5,23,5c0.5,0,1,0.1,1.4,0.2v1.1
						C24,6,23.6,5.9,23.1,5.9c-0.3,0-0.5,0.1-0.7,0.2s-0.3,0.3-0.3,0.4s0.1,0.3,0.2,0.4c0.1,0.1,0.4,0.3,0.9,0.5
						c0.6,0.2,0.9,0.5,1.1,0.8c0.2,0.3,0.3,0.6,0.3,0.9c0,0.5-0.2,0.9-0.6,1.2c-0.4,0.3-0.9,0.4-1.6,0.4c-0.6,0-1.2-0.1-1.6-0.3V9.1
						H20.9z"/>
				</g>
			</g>
			<path id="XMLID_3944_" fill="#305FA0" d="M13.8,11.3c-0.3,0-0.5,0.3-0.5,0.5v1h-2.2c-1,0-1.7,0.5-2,1.2c-0.2,0.5-1.7,3.5-1.7,3.5
				c-0.8,0.2-1.5,1-1.5,1.8v4.3h1.5c0,0,0,1.2,0,1.5c0,0.7,0.5,1.2,1.3,1.2c0.7,0,1.3-0.5,1.3-1.2v-1.5h9.7v1.5
				c0,0.7,0.7,1.2,1.3,1.2c0.7,0,1.3-0.5,1.3-1.2c0-0.3,0-1.5,0-1.5H24v-4.3c0-0.8-0.7-1.7-1.5-1.8c0,0-1.3-3-1.7-3.5
				c-0.3-0.7-0.8-1.2-2-1.2h-2.2v-1c0-0.2-0.3-0.5-0.5-0.5H13.8z"/>
		</g>
		<path id="XMLID_3942_" fill="#FFFFFF" d="M8,20.6c0-0.6,0.5-1.1,1.3-1.1c0.6,0,1.3,0.5,1.3,1.1s-0.5,1.1-1.3,1.1S8,21.3,8,20.6"/>
		<path id="XMLID_3941_" fill="#FFFFFF" d="M19.9,20.6c0-0.6,0.5-1.1,1.3-1.1c0.6,0,1.3,0.5,1.3,1.1s-0.5,1.1-1.3,1.1
			C20.5,21.7,19.9,21.3,19.9,20.6"/>
		<path id="XMLID_3940_" fill="#FFFFFF" d="M18.9,14.8c0.5,0,0.6,0.2,0.8,0.6c0.2,0.5,1.1,2.6,1.1,2.6H9.2c0,0,1-2.3,1.1-2.6
			c0.2-0.5,0.5-0.6,0.8-0.6H18.9z"/>
	</g>
</g>
</svg>
