<?xml version="1.0" encoding="utf-8"?>
<!-- Generator: Adobe Illustrator 21.0.0, SVG Export Plug-In . SVG Version: 6.00 Build 0)  -->
<svg version="1.1" id="Layer_1" xmlns="http://www.w3.org/2000/svg" xmlns:xlink="http://www.w3.org/1999/xlink" x="0px" y="0px"
	 width="30px" height="30px" viewBox="0 0 30 30" enable-background="new 0 0 30 30" xml:space="preserve">
<g>
	<g id="XMLID_1704_">
		<path fill="#FFFFFF" d="M15.042,29.467c-4.211,0-8.212-1.811-10.978-4.967c-2.761-3.15-3.975-7.194-3.419-11.384
			c0.77-6.348,6.014-11.59,12.472-12.47c0.607-0.074,1.229-0.113,1.84-0.113c4.212,0,8.214,1.811,10.979,4.967
			c2.761,3.151,3.975,7.194,3.418,11.385c-0.771,6.457-6.012,11.698-12.463,12.469C16.275,29.429,15.654,29.467,15.042,29.467z"/>
		<path fill="#DB915A" d="M14.958,1.033L14.958,1.033c4.067,0,7.931,1.748,10.601,4.796c2.665,3.041,3.836,6.944,3.298,11.002
			c-0.743,6.225-5.801,11.282-12.029,12.026c-0.594,0.073-1.195,0.11-1.786,0.11c-4.067,0-7.931-1.748-10.602-4.796
			C1.776,21.13,0.605,17.227,1.143,13.17C1.884,7.05,6.949,1.991,13.172,1.143C13.765,1.07,14.366,1.033,14.958,1.033 M14.957,0.033
			c-0.628,0-1.264,0.038-1.907,0.117c-6.6,0.9-12.1,6.3-12.9,12.9c-1.215,9.157,5.952,16.917,14.893,16.917
			c0.628,0,1.264-0.038,1.907-0.117c6.7-0.8,12.1-6.2,12.9-12.9C31.065,7.793,23.898,0.033,14.957,0.033L14.957,0.033z"/>
	</g>
	<g id="XMLID_540_">
		<g>
			<g id="XMLID_1840_">
				<g enable-background="new    ">
					<path fill="#E47200" d="M6.75,19.45v-2.1c0.7,0,1.8-0.1,3.1-0.1v-1.6h-2.9v-2c0.4-1.3,0.8-2.6,1.1-3.8h-1.2v-1.9h1.6
						c0.1-0.7,0.3-1.4,0.4-2.1l2,0.2l-0.4,1.9h2.7v1.9h-3.1c-0.3,1.3-0.7,2.6-1,3.8h0.9v-2.8h2v2.8h1.3v2h-1.3v1.5l1.3-0.1
						c0,0.7,0,1.4,0,2l-1.3,0.1v3.2h-2v-3.1L6.75,19.45z M13.45,8.05h3.7v-2h2.1v2h1.6c-0.3-0.5-0.6-0.9-1-1.3l1.5-0.9
						c0.5,0.6,1,1.1,1.3,1.6l-1.1,0.6h1.5v1.8h-4v1.2h3.5v9.1c0,0.5-0.1,1-0.3,1.3c-0.2,0.3-0.5,0.5-0.8,0.6c-0.4,0.1-1,0.1-2,0.1
						c-0.1-0.4-0.2-1-0.3-1.7c0.3,0,0.5,0,0.8,0c0.4,0,0.7-0.2,0.7-0.7v-1.1h-1.5v3.4h-2.1v-3.4h-1.5v3.6h-2v-11.3h3.5v-1.1h-3.7
						v-1.8H13.45z M15.65,14.25h1.5v-1.5h-1.5V14.25z M15.65,17.15h1.5v-1.4h-1.5V17.15z M20.65,12.75h-1.5v1.5h1.5V12.75z
						 M19.25,17.15h1.5v-1.4h-1.5V17.15z"/>
				</g>
			</g>
		</g>
	</g>
</g>
</svg>
