<?xml version="1.0" encoding="utf-8"?>
<!-- Generator: Adobe Illustrator 21.0.0, SVG Export Plug-In . SVG Version: 6.00 Build 0)  -->
<svg version="1.1" id="Layer_1" xmlns="http://www.w3.org/2000/svg" xmlns:xlink="http://www.w3.org/1999/xlink" x="0px" y="0px"
	 width="30px" height="30px" viewBox="0 0 30 30" enable-background="new 0 0 30 30" xml:space="preserve">
<path id="XMLID_1046_" fill="#FFFFFF" d="M15,29.5C7,29.5,0.5,23,0.5,15S7,0.5,15,0.5S29.5,7,29.5,15S23,29.5,15,29.5z"/>
<g id="XMLID_1042_">
	<path id="XMLID_1045_" fill="#305FA0" d="M15,1c7.7,0,14,6.3,14,14s-6.3,14-14,14S1,22.7,1,15S7.3,1,15,1 M15,0C6.7,0,0,6.7,0,15
		s6.7,15,15,15s15-6.7,15-15S23.3,0,15,0L15,0z"/>
</g>
<path fill="#305FA0" d="M7.3,15.7c0,0.4-0.1,0.5-0.1,0.7c0,1.4,0.1,2.8,0,4.1c0,0.3-0.1,0.6-0.3,0.8c-0.4,0.4-0.9,0.1-1-0.4
	c0-0.3,0-0.6,0-0.9c0-1.5,0-3,0-4.5c0-0.2,0-0.4-0.1-0.5c-0.4-0.4-0.4-0.8-0.3-1.3c0-1.1,0-2.2,0-3.2c0-0.6,0.5-1.1,1-1.2
	C7.1,9.1,7.8,9.4,8,9.9c0.2,0.3,0.2,0.7,0.2,1.1c-0.1,0.7,0.4,1,0.9,1.3c0.2,0.1,0.4,0.2,0.6,0.4c0.1,0.1,0.2,0.5,0.2,0.5
	c-0.2,0.1-0.4,0.3-0.6,0.2c-0.2,0-0.4-0.2-0.6-0.3c-0.3-0.2-0.4,0-0.4,0.3c0,0.4,0,0.8,0.1,1.2c0,0.2,0.2,0.4,0.3,0.5
	c0.4,0.4,0.9,0.7,1.3,1.2c0.2,0.2,0.3,0.5,0.3,0.8c0,0.4,0,0.9-0.1,1.3c-0.1,0.2-0.3,0.5-0.5,0.5c-0.3,0.1-0.5-0.2-0.6-0.6
	c0-0.1,0-0.2,0-0.2c0-0.3,0.1-0.8-0.1-1C8.5,16.6,7.9,16.2,7.3,15.7z"/>
<path fill="#305FA0" d="M6.8,8.6c-0.7,0-1.1-0.5-1.1-1.2c0-0.6,0.5-1.1,1.2-1.1C7.5,6.3,8,6.9,8,7.5S7.4,8.6,6.8,8.6z"/>
<polyline fill="#305FA0" points="4.8,25.3 4.8,22.4 8.2,22.4 8.1,19 11.9,18.9 11.9,16.1 15.4,16.2 16.6,16.2 "/>
<rect x="15" y="13" fill="#305FA0" width="10.6" height="3.2"/>
<line fill="none" stroke="#305FA0" stroke-linecap="round" stroke-linejoin="round" stroke-miterlimit="10" x1="16.6" y1="5.6" x2="16.6" y2="13.2"/>
<line fill="none" stroke="#305FA0" stroke-linecap="round" stroke-linejoin="round" stroke-miterlimit="10" x1="24.3" y1="5.6" x2="24.3" y2="13.1"/>
<line fill="none" stroke="#305FA0" stroke-linecap="round" stroke-linejoin="round" stroke-miterlimit="10" x1="24" y1="6.7" x2="16.7" y2="6.7"/>
<line fill="none" stroke="#305FA0" stroke-width="0.5" stroke-linecap="round" stroke-linejoin="round" stroke-miterlimit="10" x1="17.9" y1="7" x2="17.9" y2="13.1"/>
<line fill="none" stroke="#305FA0" stroke-width="0.5" stroke-linecap="round" stroke-linejoin="round" stroke-miterlimit="10" x1="19.3" y1="7" x2="19.3" y2="13.1"/>
<line fill="none" stroke="#305FA0" stroke-width="0.5" stroke-linecap="round" stroke-linejoin="round" stroke-miterlimit="10" x1="20.5" y1="7" x2="20.5" y2="13.1"/>
<line fill="none" stroke="#305FA0" stroke-width="0.5" stroke-linecap="round" stroke-linejoin="round" stroke-miterlimit="10" x1="21.7" y1="7" x2="21.7" y2="13.1"/>
<line fill="none" stroke="#305FA0" stroke-width="0.5" stroke-miterlimit="10" x1="23.1" y1="7.1" x2="23.1" y2="13.2"/>
<polyline fill="none" stroke="#305FA0" stroke-width="0.6" stroke-linecap="round" stroke-linejoin="round" stroke-miterlimit="10" points="
	5.5,25.5 17,16.8 25.3,16.7 "/>
</svg>
