<?xml version="1.0" encoding="utf-8"?>
<!-- Generator: Adobe Illustrator 21.0.0, SVG Export Plug-In . SVG Version: 6.00 Build 0)  -->
<svg version="1.1" id="Layer_1" xmlns="http://www.w3.org/2000/svg" xmlns:xlink="http://www.w3.org/1999/xlink" x="0px" y="0px"
	 width="30px" height="30px" viewBox="0 0 30 30" enable-background="new 0 0 30 30" xml:space="preserve">
<g>
	<g id="XMLID_2141_">
		<path fill="#FFFFFF" d="M15,29.5C7.005,29.5,0.5,22.995,0.5,15S7.005,0.5,15,0.5S29.5,7.005,29.5,15S22.995,29.5,15,29.5z"/>
		<path fill="#FF001F" d="M15,1c7.72,0,14,6.28,14,14s-6.28,14-14,14S1,22.72,1,15S7.28,1,15,1 M15,0C6.716,0,0,6.716,0,15
			s6.716,15,15,15s15-6.716,15-15S23.284,0,15,0L15,0z"/>
	</g>
	<path id="XMLID_2139_" fill="#EDEDED" d="M23.8,25.3H5.9L8.1,3.2h13.4L23.8,25.3z"/>
	<path id="XMLID_2138_" fill="#FF001F" d="M6,25.6L6,25.6c-0.2,0-0.3-0.2-0.3-0.4L7.9,3.1c0-0.2,0.2-0.3,0.3-0.3S8.5,3,8.5,3.2
		L6.3,25.3C6.2,25.5,6.2,25.6,6,25.6z"/>
	<path id="XMLID_2136_" fill="#FF001F" d="M24,25.6c-0.2,0-0.3-0.1-0.3-0.3L21.5,3.2c0-0.2,0.1-0.3,0.3-0.4s0.3,0.1,0.3,0.3
		l2.2,22.1C24.2,25.4,24.2,25.6,24,25.6L24,25.6z"/>
	<path id="XMLID_2135_" fill="#FF001F" d="M14.8,6.6c-0.2,0-0.3,0-0.3-0.1V5.1c0,0,0.1-0.1,0.3-0.1s0.3,0,0.3,0.1v1.4
		C15.2,6.6,15,6.6,14.8,6.6z"/>
	<path id="XMLID_2134_" fill="#FF001F" d="M14.8,3.2c-0.2,0-0.3,0-0.3-0.1V1.7c0,0,0.1-0.1,0.3-0.1s0.3,0,0.3,0.1v1.4
		C15.2,3.2,15,3.2,14.8,3.2z"/>
	<path id="XMLID_2133_" fill="#FF001F" d="M14.8,28.5c-0.2,0-0.3,0-0.3-0.1v-1.5c0,0,0.1-0.1,0.3-0.1s0.3,0,0.3,0.1v1.5
		C15.2,28.5,15,28.5,14.8,28.5z"/>
	<path id="XMLID_2132_" fill="#FF001F" d="M14.8,24.6c-0.2,0-0.3,0-0.3-0.1V23c0,0,0.1-0.1,0.3-0.1s0.3,0,0.3,0.1v1.5
		C15.2,24.6,15,24.6,14.8,24.6z"/>
	<g id="XMLID_2129_">
		<g id="XMLID_2130_">
			<text id="XMLID_2131_" transform="matrix(1 0 0 1 8.3287 18.3272)" font-family="'MicrosoftYaHei-Bold'" font-size="12.7911px">限</text>
		</g>
	</g>
</g>
</svg>
