<?xml version="1.0" encoding="utf-8"?>
<!-- Generator: Adobe Illustrator 21.0.0, SVG Export Plug-In . SVG Version: 6.00 Build 0)  -->
<svg version="1.1" id="Layer_1" xmlns="http://www.w3.org/2000/svg" xmlns:xlink="http://www.w3.org/1999/xlink" x="0px" y="0px"
	 width="30px" height="30px" viewBox="0 0 30 30" enable-background="new 0 0 30 30" xml:space="preserve">
<g id="XMLID_2261_">
	<g>
		<g>
			<g id="XMLID_3934_">
				<g enable-background="new    ">
					<path fill="#305FA0" d="M14.166,10.971l-2.177,8.2h-1.959l-1.379-5.37c-0.073-0.29-0.145-0.581-0.145-0.943l0,0
						c0,0.363-0.073,0.653-0.145,0.943l-1.451,5.37H4.877l-2.177-8.2h1.959l1.234,5.588c0.073,0.218,0.073,0.581,0.145,0.943h0.073
						c0-0.29,0.073-0.581,0.145-0.943l1.524-5.588h1.887l1.379,5.66c0.073,0.218,0.073,0.508,0.145,0.871l0,0
						c0-0.29,0.073-0.581,0.145-0.871l1.161-5.588h1.669V10.971z"/>
					<path fill="#305FA0" d="M20.406,19.171h-5.152v-1.379h1.742v-5.297l-1.742,0.363v-1.379l3.483-0.726v7.039h1.742v1.379H20.406z
						"/>
					<path fill="#305FA0" d="M21.422,15.18c0-1.451,0.29-2.54,0.798-3.265s1.306-1.161,2.25-1.161c1.887,0,2.83,1.379,2.83,4.209
						c0,1.379-0.29,2.467-0.798,3.193c-0.508,0.726-1.234,1.088-2.25,1.088C22.366,19.316,21.422,17.938,21.422,15.18z
						 M23.164,15.18c0,1.887,0.435,2.83,1.234,2.83c0.798,0,1.161-0.943,1.161-2.903s-0.363-2.975-1.161-2.975
						C23.527,12.132,23.164,13.148,23.164,15.18z"/>
				</g>
			</g>
		</g>
	</g>
</g>
</svg>
