<?xml version="1.0" encoding="utf-8"?>
<!-- Generator: Adobe Illustrator 17.0.0, SVG Export Plug-In . SVG Version: 6.00 Build 0)  -->
<!DOCTYPE svg PUBLIC "-//W3C//DTD SVG 1.1//EN" "http://www.w3.org/Graphics/SVG/1.1/DTD/svg11.dtd">
<svg version="1.1"
	 id="svg2203" inkscape:output_extension="org.inkscape.output.svg.inkscape" sodipodi:version="0.32" sodipodi:docbase="D:\SVG\闂傚倸鍊搁崐鎼佸磹妞嬪海鐭嗗〒姘ｅ亾妤犵偞鐗犲璇测槈濞嗘劕鍔呴梺闈涚箳婵攱绂掗懖鈺冪＝濞达絼绮欓崫娲煙閸涘﹥鍊愰柡" sodipodi:docname="闂傚倸鍊搁崐宄懊归崶鏃堟偐閸欏鍠愮紓浣戒含閸嬬偟鎹㈠┑瀣＜婵犲﹤鎳愰敍婊冣攽閳╁啳纭€缂備胶濮靛畝绋垮ú绠归柣鎰絻婵洖鈹戦敍鍕哗婵″閹偓鎼达絿鐓撻柣鐘叉川閸嬫挸螞閸愭槬闁逞勭厵闁艰崵妫" inkscape:version="0.45.1" xmlns:sodipodi="http://sodipodi.sourceforge.net/DTD/sodipodi-0.dtd" xmlns:dc="http://purl.org/dc/elements/1.1/" xmlns:cc="http://web.resource.org/cc/" xmlns:inkscape="http://www.inkscape.org/namespaces/inkscape" xmlns:rdf="http://www.w3.org/1999/02/22-rdf-syntax-ns#" xmlns:svg="http://www.w3.org/2000/svg"
	 xmlns="http://www.w3.org/2000/svg" xmlns:xlink="http://www.w3.org/1999/xlink" x="0px" y="0px" width="30px" height="30px"
	 viewBox="0 0 30 30" enable-background="new 0 0 30 30" xml:space="preserve">
<sodipodi:namedview  inkscape:pageopacity="0.0" inkscape:pageshadow="2" inkscape:document-units="px" inkscape:window-x="-4" inkscape:window-y="-4" inkscape:window-width="1280" inkscape:window-height="968" inkscape:guide-bbox="true" inkscape:current-layer="layer1" showguides="true" bordercolor="#666666" inkscape:cy="646.08493" gridtolerance="10000" id="base" borderopacity="1.0" objecttolerance="10" pagecolor="#ffffff" inkscape:cx="126.79097" inkscape:zoom="0.74999999" guidetolerance="10">
	<sodipodi:guide  position="1116" orientation="vertical" id="guide22942"></sodipodi:guide>
	<sodipodi:guide  position="1147" orientation="vertical" id="guide22944"></sodipodi:guide>
</sodipodi:namedview>
<g>
	<rect x="0.118" y="7.914" fill="#FFFFFF" width="29.764" height="14.173"/>
	<path d="M17.08,9.625l-2.678,10.75h-1.438l-1.922-7.745c-0.087-0.354-0.138-0.724-0.156-1.11h-0.022
		c-0.025,0.384-0.083,0.75-0.173,1.097l-1.943,7.76H7.321L4.55,9.626h1.364l1.951,8.12c0.087,0.363,0.138,0.731,0.154,1.103h0.038
		c0.02-0.278,0.088-0.646,0.203-1.103l2.067-8.12h1.215l1.975,8.182c0.066,0.268,0.118,0.611,0.161,1.027h0.023
		c0.021-0.303,0.081-0.653,0.18-1.057l1.876-8.153L17.08,9.625L17.08,9.625z"/>
	<path d="M18.749,18.812c0.75,0.581,1.601,0.871,2.542,0.871c0.755,0,1.354-0.186,1.795-0.556c0.441-0.371,0.662-0.867,0.662-1.49
		c0-1.388-0.993-2.082-2.979-2.082h-0.913v-1.146h0.871c1.761,0,2.641-0.649,2.641-1.952c0-1.204-0.673-1.808-2.018-1.808
		c-0.771,0-1.494,0.26-2.176,0.779v-1.313c0.72-0.414,1.558-0.622,2.516-0.622c0.935,0,1.685,0.243,2.251,0.732
		c0.563,0.488,0.85,1.122,0.85,1.9c0,1.436-0.729,2.356-2.193,2.769v0.028c0.794,0.085,1.42,0.364,1.881,0.839
		c0.46,0.475,0.688,1.064,0.688,1.772c0,0.985-0.354,1.781-1.063,2.388c-0.71,0.604-1.655,0.906-2.835,0.906
		c-1.039,0-1.876-0.194-2.516-0.581v-1.438h-0.004C18.749,18.807,18.749,18.812,18.749,18.812z"/>
</g>
</svg>
