<?xml version="1.0" encoding="utf-8"?>
<!-- Generator: Adobe Illustrator 17.0.0, SVG Export Plug-In . SVG Version: 6.00 Build 0)  -->
<!DOCTYPE svg PUBLIC "-//W3C//DTD SVG 1.1//EN" "http://www.w3.org/Graphics/SVG/1.1/DTD/svg11.dtd">
<svg version="1.1"
	 id="svg2203" inkscape:output_extension="org.inkscape.output.svg.inkscape" sodipodi:version="0.32" sodipodi:docbase="D:\SVG\闂傚倸鍊搁崐鎼佸磹妞嬪海鐭嗗〒姘ｅ亾妤犵偞鐗犲璇测槈濞嗘劕鍔呴梺闈涚箳婵攱绂掗懖鈺冪＝濞达絼绮欓崫娲煙閸涘﹥鍊愰柡" sodipodi:docname="闂傚倸鍊搁崐宄懊归崶鏃堟偐閸欏鍠愮紓浣戒含閸嬬偟鎹㈠┑瀣＜婵犲﹤鎳愰敍婊冣攽閳╁啳纭€缂備胶濮靛畝绋垮ú绠归柣鎰絻婵洖鈹戦敍鍕哗婵″閹偓鎼达絿鐓撻柣鐘叉川閸嬫挸螞閸愭槬闁逞勭厵闁艰崵妫" inkscape:version="0.45.1" xmlns:sodipodi="http://sodipodi.sourceforge.net/DTD/sodipodi-0.dtd" xmlns:dc="http://purl.org/dc/elements/1.1/" xmlns:cc="http://web.resource.org/cc/" xmlns:inkscape="http://www.inkscape.org/namespaces/inkscape" xmlns:rdf="http://www.w3.org/1999/02/22-rdf-syntax-ns#" xmlns:svg="http://www.w3.org/2000/svg"
	 xmlns="http://www.w3.org/2000/svg" xmlns:xlink="http://www.w3.org/1999/xlink" x="0px" y="0px" width="30px" height="30px"
	 viewBox="0 0 30 30" enable-background="new 0 0 30 30" xml:space="preserve">
<sodipodi:namedview  inkscape:pageopacity="0.0" inkscape:pageshadow="2" inkscape:document-units="px" inkscape:window-x="-4" inkscape:window-y="-4" inkscape:window-width="1280" inkscape:window-height="968" inkscape:guide-bbox="true" inkscape:current-layer="layer1" showguides="true" bordercolor="#666666" inkscape:cy="646.08493" gridtolerance="10000" id="base" borderopacity="1.0" objecttolerance="10" pagecolor="#ffffff" inkscape:cx="126.79097" inkscape:zoom="0.74999999" guidetolerance="10">
	<sodipodi:guide  position="1116" orientation="vertical" id="guide22942"></sodipodi:guide>
	<sodipodi:guide  position="1147" orientation="vertical" id="guide22944"></sodipodi:guide>
</sodipodi:namedview>
<g>
	<rect x="0.118" y="7.913" fill="#FFFFFF" width="29.764" height="14.173"/>
	<path d="M17.425,9.821l-2.678,10.75h-1.438l-1.922-7.745c-0.087-0.354-0.138-0.724-0.156-1.11h-0.022
		c-0.025,0.384-0.083,0.75-0.173,1.097l-1.943,7.76H7.666L4.895,9.823h1.364l1.951,8.12c0.087,0.363,0.138,0.731,0.154,1.103h0.038
		c0.02-0.278,0.088-0.646,0.203-1.103l2.067-8.12h1.215l1.975,8.182c0.066,0.268,0.118,0.611,0.161,1.027h0.023
		c0.021-0.303,0.081-0.653,0.18-1.057l1.876-8.153L17.425,9.821L17.425,9.821z"/>
	<path d="M24.955,11.181c-0.571-0.293-1.168-0.438-1.792-0.438c-0.948,0-1.711,0.413-2.287,1.237
		c-0.576,0.826-0.869,1.954-0.878,3.386h0.036c0.519-1.005,1.347-1.508,2.482-1.508c0.949,0,1.707,0.31,2.273,0.928
		c0.565,0.618,0.85,1.438,0.85,2.464c0,1.071-0.324,1.951-0.979,2.641c-0.654,0.69-1.488,1.034-2.502,1.034
		c-1.114,0-1.989-0.436-2.624-1.307s-0.952-2.106-0.952-3.707c0-1.937,0.417-3.475,1.25-4.612s1.93-1.71,3.289-1.71
		c0.778,0,1.39,0.106,1.833,0.318L24.955,11.181L24.955,11.181z"/>
	<path fill="#FFFFFF" d="M20.084,17.147c0,0.725,0.192,1.343,0.577,1.855c0.385,0.513,0.896,0.771,1.533,0.771
		c0.604,0,1.095-0.223,1.473-0.664c0.377-0.444,0.566-1.018,0.566-1.716c0-0.755-0.181-1.343-0.535-1.763
		C23.341,15.211,22.836,15,22.177,15c-0.623,0-1.128,0.213-1.515,0.638C20.275,16.062,20.084,16.568,20.084,17.147z"/>
</g>
</svg>
