<?xml version="1.0" encoding="utf-8"?>
<!-- Generator: Adobe Illustrator 21.0.0, SVG Export Plug-In . SVG Version: 6.00 Build 0)  -->
<svg version="1.1" id="Layer_1" xmlns="http://www.w3.org/2000/svg" xmlns:xlink="http://www.w3.org/1999/xlink" x="0px" y="0px"
	 width="30px" height="30px" viewBox="0 0 30 30" enable-background="new 0 0 30 30" xml:space="preserve">
<g id="XMLID_2257_">
	<g>
		<g>
			<g id="XMLID_4016_">
				<g enable-background="new    ">
					<path fill="#305FA0" d="M18.5,9.448l-3,11.3h-2.7l-1.9-7.4c-0.1-0.4-0.2-0.8-0.2-1.3l0,0c0,0.5-0.1,0.9-0.2,1.3l-2,7.4H5.7
						l-3-11.3h2.7l1.7,7.7c0.1,0.3,0.1,0.8,0.2,1.3h0.1c0-0.4,0.1-0.8,0.2-1.3l2.1-7.7h2.6l1.9,7.8c0.1,0.3,0.1,0.7,0.2,1.2l0,0
						c0-0.4,0.1-0.8,0.2-1.2l1.6-7.7h2.3V9.448z"/>
					<path fill="#305FA0" d="M19.2,15.248c0-2,0.4-3.5,1.1-4.5s1.8-1.6,3.1-1.6c2.6,0,3.9,1.9,3.9,5.8c0,1.9-0.4,3.4-1.1,4.4
						c-0.7,1-1.7,1.5-3.1,1.5C20.6,20.948,19.2,19.048,19.2,15.248z M21.6,15.248c0,2.6,0.6,3.9,1.7,3.9c1.1,0,1.6-1.3,1.6-4
						s-0.5-4.1-1.6-4.1C22.2,11.048,21.6,12.448,21.6,15.248z"/>
				</g>
			</g>
		</g>
	</g>
</g>
</svg>
