<?xml version="1.0" encoding="utf-8"?>
<!-- Generator: Adobe Illustrator 17.0.0, SVG Export Plug-In . SVG Version: 6.00 Build 0)  -->
<!DOCTYPE svg PUBLIC "-//W3C//DTD SVG 1.1//EN" "http://www.w3.org/Graphics/SVG/1.1/DTD/svg11.dtd">
<svg version="1.1"
	 id="svg2203" inkscape:output_extension="org.inkscape.output.svg.inkscape" sodipodi:version="0.32" sodipodi:docbase="D:\SVG\闂傚倸鍊搁崐鎼佸磹妞嬪海鐭嗗〒姘ｅ亾妤犵偞鐗犲璇测槈濞嗘劕鍔呴梺闈涚箳婵攱绂掗懖鈺冪＝濞达絼绮欓崫娲煙閸涘﹥鍊愰柡" sodipodi:docname="闂傚倸鍊搁崐宄懊归崶鏃堟偐閸欏鍠愮紓浣戒含閸嬬偟鎹㈠┑瀣＜婵犲﹤鎳愰敍婊冣攽閳╁啳纭€缂備胶濮靛畝绋垮ú绠归柣鎰絻婵洖鈹戦敍鍕哗婵″閹偓鎼达絿鐓撻柣鐘叉川閸嬫挸螞閸愭槬闁逞勭厵闁艰崵妫" inkscape:version="0.45.1" xmlns:sodipodi="http://sodipodi.sourceforge.net/DTD/sodipodi-0.dtd" xmlns:dc="http://purl.org/dc/elements/1.1/" xmlns:cc="http://web.resource.org/cc/" xmlns:inkscape="http://www.inkscape.org/namespaces/inkscape" xmlns:rdf="http://www.w3.org/1999/02/22-rdf-syntax-ns#" xmlns:svg="http://www.w3.org/2000/svg"
	 xmlns="http://www.w3.org/2000/svg" xmlns:xlink="http://www.w3.org/1999/xlink" x="0px" y="0px" width="30px" height="30px"
	 viewBox="0 0 30 30" enable-background="new 0 0 30 30" xml:space="preserve">
<sodipodi:namedview  inkscape:pageopacity="0.0" inkscape:pageshadow="2" inkscape:document-units="px" inkscape:window-x="-4" inkscape:window-y="-4" inkscape:window-width="1280" inkscape:window-height="968" inkscape:guide-bbox="true" inkscape:current-layer="layer1" showguides="true" bordercolor="#666666" inkscape:cy="646.08493" gridtolerance="10000" id="base" borderopacity="1.0" objecttolerance="10" pagecolor="#ffffff" inkscape:cx="126.79097" inkscape:zoom="0.74999999" guidetolerance="10">
	<sodipodi:guide  position="1116" orientation="vertical" id="guide22942"></sodipodi:guide>
	<sodipodi:guide  position="1147" orientation="vertical" id="guide22944"></sodipodi:guide>
</sodipodi:namedview>
<g>
	<rect x="0.118" y="7.914" fill="#FFFFFF" width="29.764" height="14.173"/>
	<path d="M17.151,9.625l-2.678,10.75h-1.438l-1.922-7.745c-0.087-0.354-0.138-0.724-0.156-1.11h-0.022
		c-0.025,0.384-0.083,0.75-0.173,1.097l-1.943,7.76H7.392L4.621,9.626h1.364l1.951,8.12c0.087,0.363,0.138,0.731,0.154,1.103h0.038
		c0.02-0.278,0.088-0.646,0.203-1.103l2.067-8.12h1.215l1.975,8.182c0.066,0.268,0.118,0.611,0.161,1.027h0.023
		c0.021-0.303,0.081-0.653,0.18-1.057l1.876-8.153L17.151,9.625L17.151,9.625z"/>
	<path d="M20.533,14.855c-1.308-0.606-1.961-1.491-1.961-2.646c0-0.81,0.31-1.467,0.921-1.974c0.613-0.508,1.397-0.762,2.354-0.762
		c0.873,0,1.593,0.238,2.159,0.715c0.563,0.479,0.85,1.093,0.85,1.851c0,1.218-0.682,2.152-2.046,2.813v0.028
		c1.6,0.576,2.397,1.558,2.397,2.943c0,0.911-0.326,1.639-0.985,2.179c-0.658,0.541-1.578,0.812-2.758,0.812
		c-0.97,0-1.759-0.268-2.364-0.801c-0.609-0.533-0.914-1.225-0.914-2.074c0-1.396,0.784-2.414,2.351-3.052L20.533,14.855
		L20.533,14.855z"/>
	<path fill="#FFFFFF" d="M21.609,15.512c-1.354,0.548-2.032,1.332-2.032,2.352c0,0.528,0.198,0.963,0.598,1.305
		c0.396,0.34,0.913,0.51,1.55,0.51c0.618,0,1.121-0.169,1.508-0.507c0.387-0.337,0.58-0.759,0.58-1.266
		C23.811,16.844,23.077,16.046,21.609,15.512z"/>
	<path fill="#FFFFFF" d="M23.45,12.2c0-0.489-0.15-0.879-0.46-1.16c-0.307-0.283-0.722-0.426-1.246-0.426
		c-0.488,0-0.905,0.147-1.253,0.442c-0.345,0.295-0.517,0.671-0.517,1.129c0,0.916,0.573,1.612,1.72,2.089
		C22.865,13.789,23.45,13.096,23.45,12.2z"/>
</g>
</svg>
