<?xml version="1.0" encoding="utf-8"?>
<!-- Generator: Adobe Illustrator 17.0.0, SVG Export Plug-In . SVG Version: 6.00 Build 0)  -->
<!DOCTYPE svg PUBLIC "-//W3C//DTD SVG 1.1//EN" "http://www.w3.org/Graphics/SVG/1.1/DTD/svg11.dtd">
<svg version="1.1"
	 id="svg2203" inkscape:output_extension="org.inkscape.output.svg.inkscape" sodipodi:version="0.32" sodipodi:docbase="D:\SVG\闂傚倸鍊搁崐鎼佸磹妞嬪海鐭嗗〒姘ｅ亾妤犵偞鐗犲璇测槈濞嗘劕鍔呴梺闈涚箳婵攱绂掗懖鈺冪＝濞达絼绮欓崫娲煙閸涘﹥鍊愰柡" sodipodi:docname="闂傚倸鍊搁崐宄懊归崶鏃堟偐閸欏鍠愮紓浣戒含閸嬬偟鎹㈠┑瀣＜婵犲﹤鎳愰敍婊冣攽閳╁啳纭€缂備胶濮靛畝绋垮ú绠归柣鎰絻婵洖鈹戦敍鍕哗婵″閹偓鎼达絿鐓撻柣鐘叉川閸嬫挸螞閸愭槬闁逞勭厵闁艰崵妫" inkscape:version="0.45.1" xmlns:sodipodi="http://sodipodi.sourceforge.net/DTD/sodipodi-0.dtd" xmlns:dc="http://purl.org/dc/elements/1.1/" xmlns:cc="http://web.resource.org/cc/" xmlns:inkscape="http://www.inkscape.org/namespaces/inkscape" xmlns:rdf="http://www.w3.org/1999/02/22-rdf-syntax-ns#" xmlns:svg="http://www.w3.org/2000/svg"
	 xmlns="http://www.w3.org/2000/svg" xmlns:xlink="http://www.w3.org/1999/xlink" x="0px" y="0px" width="30px" height="30px"
	 viewBox="0 0 30 30" enable-background="new 0 0 30 30" xml:space="preserve">
<sodipodi:namedview  inkscape:pageopacity="0.0" inkscape:pageshadow="2" inkscape:document-units="px" inkscape:window-x="-4" inkscape:window-y="-4" inkscape:window-width="1280" inkscape:window-height="968" inkscape:guide-bbox="true" inkscape:current-layer="layer1" showguides="true" bordercolor="#666666" inkscape:cy="646.08493" gridtolerance="10000" id="base" borderopacity="1.0" objecttolerance="10" pagecolor="#ffffff" inkscape:cx="126.79097" inkscape:zoom="0.74999999" guidetolerance="10">
	<sodipodi:guide  position="1116" orientation="vertical" id="guide22942"></sodipodi:guide>
	<sodipodi:guide  position="1147" orientation="vertical" id="guide22944"></sodipodi:guide>
</sodipodi:namedview>
<g>
	<rect x="0.118" y="7.913" fill="#FFFFFF" width="29.764" height="14.173"/>
	<path d="M17.067,9.593l-2.678,10.75h-1.438l-1.922-7.745c-0.087-0.354-0.138-0.724-0.156-1.11h-0.022
		c-0.025,0.384-0.083,0.75-0.173,1.097l-1.943,7.76H7.308L4.537,9.595h1.364l1.951,8.12c0.087,0.363,0.138,0.731,0.154,1.103h0.038
		c0.02-0.278,0.088-0.646,0.203-1.103l2.067-8.12h1.215l1.975,8.182c0.066,0.268,0.118,0.611,0.161,1.027h0.023
		c0.021-0.303,0.081-0.653,0.18-1.057l1.876-8.153L17.067,9.593L17.067,9.593z"/>
	<path d="M25.018,20.427h-6.669v-1.204l3.186-3.181c0.878-0.878,1.468-1.57,1.765-2.085c0.298-0.512,0.444-1.042,0.444-1.59
		c0-0.623-0.175-1.101-0.522-1.434c-0.351-0.332-0.854-0.499-1.517-0.499c-0.977,0-1.907,0.416-2.797,1.246v-1.409
		c0.864-0.665,1.869-0.998,3.019-0.998c0.984,0,1.765,0.267,2.336,0.801c0.569,0.533,0.855,1.25,0.855,2.152
		c0,0.68-0.183,1.346-0.549,2c-0.366,0.653-1.058,1.485-2.078,2.495l-2.5,2.44v0.029h5.027L25.018,20.427L25.018,20.427z"/>
</g>
</svg>
