<?xml version="1.0" encoding="utf-8"?>
<!-- Generator: Adobe Illustrator 17.0.0, SVG Export Plug-In . SVG Version: 6.00 Build 0)  -->
<!DOCTYPE svg PUBLIC "-//W3C//DTD SVG 1.1//EN" "http://www.w3.org/Graphics/SVG/1.1/DTD/svg11.dtd">
<svg version="1.1"
	 id="svg2203" inkscape:output_extension="org.inkscape.output.svg.inkscape" sodipodi:version="0.32" sodipodi:docbase="D:\SVG\闂傚倸鍊搁崐鎼佸磹妞嬪海鐭嗗〒姘ｅ亾妤犵偞鐗犲璇测槈濞嗘劕鍔呴梺闈涚箳婵攱绂掗懖鈺冪＝濞达絼绮欓崫娲煙閸涘﹥鍊愰柡" sodipodi:docname="闂傚倸鍊搁崐宄懊归崶鏃堟偐閸欏鍠愮紓浣戒含閸嬬偟鎹㈠┑瀣＜婵犲﹤鎳愰敍婊冣攽閳╁啳纭€缂備胶濮靛畝绋垮ú绠归柣鎰絻婵洖鈹戦敍鍕哗婵″閹偓鎼达絿鐓撻柣鐘叉川閸嬫挸螞閸愭槬闁逞勭厵闁艰崵妫" inkscape:version="0.45.1" xmlns:sodipodi="http://sodipodi.sourceforge.net/DTD/sodipodi-0.dtd" xmlns:dc="http://purl.org/dc/elements/1.1/" xmlns:cc="http://web.resource.org/cc/" xmlns:inkscape="http://www.inkscape.org/namespaces/inkscape" xmlns:rdf="http://www.w3.org/1999/02/22-rdf-syntax-ns#" xmlns:svg="http://www.w3.org/2000/svg"
	 xmlns="http://www.w3.org/2000/svg" xmlns:xlink="http://www.w3.org/1999/xlink" x="0px" y="0px" width="30px" height="30px"
	 viewBox="0 0 30 30" enable-background="new 0 0 30 30" xml:space="preserve">
<sodipodi:namedview  inkscape:pageopacity="0.0" inkscape:pageshadow="2" inkscape:document-units="px" inkscape:window-x="-4" inkscape:window-y="-4" inkscape:window-width="1280" inkscape:window-height="968" inkscape:guide-bbox="true" inkscape:current-layer="layer1" showguides="true" bordercolor="#666666" inkscape:cy="646.08493" gridtolerance="10000" id="base" borderopacity="1.0" objecttolerance="10" pagecolor="#ffffff" inkscape:cx="126.79097" inkscape:zoom="0.74999999" guidetolerance="10">
	<sodipodi:guide  position="1116" orientation="vertical" id="guide22942"></sodipodi:guide>
	<sodipodi:guide  position="1147" orientation="vertical" id="guide22944"></sodipodi:guide>
</sodipodi:namedview>
<g>
	<rect x="0.118" y="7.913" fill="#FFFFFF" width="29.764" height="14.173"/>
	<path d="M17.946,9.871l-2.678,10.75H13.83l-1.922-7.745c-0.087-0.354-0.138-0.724-0.156-1.11H11.73
		c-0.025,0.384-0.083,0.75-0.173,1.097l-1.943,7.76H8.187L5.416,9.873H6.78l1.951,8.12c0.087,0.363,0.138,0.731,0.154,1.103h0.038
		c0.02-0.278,0.088-0.646,0.203-1.103l2.067-8.12h1.215l1.975,8.182c0.066,0.268,0.118,0.611,0.161,1.027h0.023
		c0.021-0.303,0.081-0.653,0.18-1.057l1.876-8.153L17.946,9.871L17.946,9.871z"/>
	<path d="M19.745,19.175c0.604,0.35,1.256,0.524,1.954,0.524c0.982,0,1.743-0.389,2.284-1.161c0.541-0.774,0.811-1.874,0.811-3.301
		c-0.009,0.011-0.019,0.011-0.025,0c-0.481,0.915-1.291,1.373-2.428,1.373c-0.924,0-1.686-0.314-2.287-0.947
		c-0.604-0.634-0.906-1.453-0.906-2.463c0-1.076,0.331-1.963,0.991-2.652c0.66-0.691,1.518-1.037,2.567-1.037
		c1.093,0,1.942,0.429,2.559,1.285c0.611,0.854,0.92,2.104,0.92,3.742c0,2.022-0.396,3.582-1.189,4.673
		c-0.793,1.09-1.89,1.636-3.292,1.636c-0.769,0-1.42-0.126-1.954-0.376v-1.296H19.745z"/>
	<path fill="#FFFFFF" d="M20.546,13.023c0,0.736,0.188,1.32,0.563,1.753c0.377,0.434,0.899,0.647,1.565,0.647
		c0.573,0,1.06-0.197,1.448-0.591c0.395-0.396,0.591-0.872,0.591-1.437c0-0.788-0.195-1.438-0.584-1.957
		c-0.392-0.517-0.903-0.773-1.54-0.773c-0.593,0-1.079,0.225-1.469,0.673C20.738,11.787,20.546,12.35,20.546,13.023z"/>
</g>
</svg>
