<?xml version="1.0" encoding="utf-8"?>
<!-- Generator: Adobe Illustrator 21.0.0, SVG Export Plug-In . SVG Version: 6.00 Build 0)  -->
<svg version="1.1" id="Layer_1" xmlns="http://www.w3.org/2000/svg" xmlns:xlink="http://www.w3.org/1999/xlink" x="0px" y="0px"
	 width="30px" height="30px" viewBox="0 0 30 30" enable-background="new 0 0 30 30" xml:space="preserve">
<g>
	<text id="XMLID_2078_" transform="matrix(1 0 0 1 5.4996 17.7894)" font-family="'MicrosoftYaHei'" font-size="9.4492px">右上</text>
	<path id="path14_64_" fill="#FF001F" d="M0.05,15.75c0,0.9,0.7,1.6,1.6,1.6s1.6-0.7,1.6-1.6c0-0.9-0.7-1.6-1.6-1.6
		S0.05,14.85,0.05,15.75z"/>
	<path id="path14_63_" fill="#FF001F" d="M1.35,20.65c0,0.9,0.7,1.6,1.6,1.6s1.6-0.7,1.6-1.6s-0.7-1.6-1.6-1.6
		S1.35,19.75,1.35,20.65z"/>
	<path id="path14_62_" fill="#FF001F" d="M4.25,24.65c0,0.9,0.7,1.6,1.6,1.6s1.6-0.7,1.6-1.6s-0.7-1.6-1.6-1.6
		S4.25,23.75,4.25,24.65z"/>
	<path id="path14_61_" fill="#FF001F" d="M8.75,27.55c0,0.9,0.7,1.6,1.6,1.6s1.6-0.7,1.6-1.6s-0.7-1.6-1.6-1.6
		S8.75,26.65,8.75,27.55z"/>
	<path id="path14_60_" fill="#FF001F" d="M19.75,26.85c0,0.9,0.7,1.6,1.6,1.6s1.6-0.7,1.6-1.6c0-0.9-0.7-1.6-1.6-1.6
		C20.45,25.35,19.75,26.05,19.75,26.85z"/>
	<path id="path14_59_" fill="#FF001F" d="M23.85,23.45c0,0.9,0.7,1.6,1.6,1.6s1.6-0.7,1.6-1.6c0-0.9-0.7-1.6-1.6-1.6
		S23.85,22.55,23.85,23.45z"/>
	<path id="path14_58_" fill="#FF001F" d="M29.65,18.55c0-0.9-0.7-1.6-1.6-1.6c-1,0-1.6,0.7-1.6,1.6s0.7,1.6,1.6,1.6
		S29.65,19.45,29.65,18.55"/>
	<path id="path14_57_" fill="#FF001F" d="M24.95,8.05c0,0.9,0.7,1.6,1.6,1.6s1.6-0.7,1.6-1.6s-0.7-1.6-1.6-1.6
		C25.75,6.55,24.95,7.25,24.95,8.05z"/>
	<path id="path14_56_" fill="#FF001F" d="M21.55,4.35c0,0.9,0.7,1.6,1.6,1.6s1.6-0.7,1.6-1.6c0-0.9-0.7-1.6-1.6-1.6
		C22.35,2.85,21.55,3.55,21.55,4.35z"/>
	<path id="path14_55_" fill="#FF001F" d="M17.35,2.15c0,0.9,0.7,1.6,1.6,1.6s1.6-0.7,1.6-1.6s-0.7-1.6-1.6-1.6
		C17.95,0.65,17.35,1.35,17.35,2.15z"/>
	<path id="path14_54_" fill="#FF001F" d="M12.35,1.65c0,0.9,0.7,1.6,1.6,1.6s1.6-0.7,1.6-1.6s-0.7-1.6-1.6-1.6
		S12.35,0.75,12.35,1.65z"/>
	<path id="path14_53_" fill="#FF001F" d="M7.45,3.05c0,0.9,0.7,1.6,1.6,1.6s1.6-0.7,1.6-1.6s-0.7-1.6-1.6-1.6
		C8.05,1.45,7.45,2.15,7.45,3.05z"/>
	<path id="path14_52_" fill="#FF001F" d="M16.35,29.95c0.9,0,1.6-0.7,1.6-1.6c0-0.9-0.7-1.6-1.6-1.6s-1.6,0.7-1.6,1.6
		S15.45,29.95,16.35,29.95"/>
	<path id="path14_51_" fill="#FF001F" d="M29.95,13.05c0-0.9-0.7-1.6-1.6-1.6s-1.6,0.7-1.6,1.6s0.7,1.6,1.6,1.6
		S29.95,13.95,29.95,13.05"/>
	<path id="path14_50_" fill="#FF001F" d="M3.45,6.15c0,0.9,0.7,1.6,1.6,1.6s1.6-0.7,1.6-1.6s-0.7-1.6-1.6-1.6S3.45,5.25,3.45,6.15z"
		/>
	<path id="path14_49_" fill="#FF001F" d="M0.85,10.35c0,0.9,0.7,1.6,1.6,1.6s1.6-0.7,1.6-1.6c0-0.9-0.7-1.6-1.6-1.6
		S0.85,9.55,0.85,10.35z"/>
</g>
</svg>
