<?xml version="1.0" encoding="utf-8"?>
<!-- Generator: Adobe Illustrator 21.0.0, SVG Export Plug-In . SVG Version: 6.00 Build 0)  -->
<svg version="1.1" id="Layer_1" xmlns="http://www.w3.org/2000/svg" xmlns:xlink="http://www.w3.org/1999/xlink" x="0px" y="0px"
	 width="30px" height="30px" viewBox="0 0 30 30" enable-background="new 0 0 30 30" xml:space="preserve">
<g id="XMLID_2079_">
	<text id="XMLID_2116_" transform="matrix(1 0 0 1 5.4766 17.7894)" font-family="'MicrosoftYaHei'" font-size="9.4492px">左右</text>
	<g id="XMLID_2115_">
		<path id="path14_176_" fill="#FF001F" d="M0.15,15.75c0,0.9,0.7,1.6,1.6,1.6c0.9,0,1.6-0.7,1.6-1.6c0-0.9-0.7-1.6-1.6-1.6
			S0.15,14.85,0.15,15.75z"/>
		<path id="path14_175_" fill="#FF001F" d="M1.35,20.65c0,0.9,0.7,1.6,1.6,1.6s1.6-0.7,1.6-1.6s-0.7-1.6-1.6-1.6
			S1.35,19.75,1.35,20.65z"/>
		<path id="path14_174_" fill="#FF001F" d="M4.15,24.65c0,0.9,0.7,1.6,1.6,1.6c0.9,0,1.6-0.7,1.6-1.6s-0.7-1.6-1.6-1.6
			S4.15,23.75,4.15,24.65z"/>
		<path id="path14_173_" fill="#FF001F" d="M8.65,27.55c0,0.9,0.7,1.6,1.6,1.6c0.9,0,1.6-0.7,1.6-1.6s-0.7-1.6-1.6-1.6
			S8.65,26.65,8.65,27.55z"/>
		<path id="path14_172_" fill="#FF001F" d="M19.65,26.85c0,0.9,0.7,1.6,1.6,1.6c0.9,0,1.6-0.7,1.6-1.6c0-0.9-0.7-1.6-1.6-1.6
			C20.45,25.35,19.65,26.05,19.65,26.85z"/>
		<path id="path14_171_" fill="#FF001F" d="M23.85,23.45c0,0.9,0.7,1.6,1.6,1.6s1.6-0.7,1.6-1.6c0-0.9-0.7-1.6-1.6-1.6
			S23.85,22.55,23.85,23.45z"/>
		<path id="path14_170_" fill="#FF001F" d="M26.45,18.55c0,0.9,0.7,1.6,1.6,1.6c0.9,0,1.6-0.7,1.6-1.6s-0.7-1.6-1.6-1.6
			S26.45,17.65,26.45,18.55z"/>
		<path id="path14_169_" fill="#FF001F" d="M24.85,8.05c0,0.9,0.7,1.6,1.6,1.6s1.6-0.7,1.6-1.6s-0.7-1.6-1.6-1.6
			C25.65,6.55,24.85,7.25,24.85,8.05z"/>
		<path id="path14_168_" fill="#FF001F" d="M21.65,4.35c0,0.9,0.7,1.6,1.6,1.6c0.9,0,1.6-0.7,1.6-1.6c0-0.9-0.7-1.6-1.6-1.6
			C22.35,2.85,21.65,3.55,21.65,4.35z"/>
		<path id="path14_167_" fill="#FF001F" d="M17.35,2.15c0,0.9,0.7,1.6,1.6,1.6s1.6-0.7,1.6-1.6s-0.7-1.6-1.6-1.6
			C17.95,0.65,17.35,1.35,17.35,2.15z"/>
		<path id="path14_166_" fill="#FF001F" d="M12.35,1.65c0,0.9,0.7,1.6,1.6,1.6s1.6-0.7,1.6-1.6s-0.7-1.6-1.6-1.6
			S12.35,0.75,12.35,1.65z"/>
		<path id="path14_165_" fill="#FF001F" d="M7.35,3.05c0,0.9,0.7,1.6,1.6,1.6s1.6-0.7,1.6-1.6s-0.7-1.6-1.6-1.6S7.35,2.15,7.35,3.05
			z"/>
		<path id="path14_164_" fill="#FF001F" d="M14.65,28.35c0,0.9,0.7,1.6,1.6,1.6c0.9,0,1.6-0.7,1.6-1.6c0-0.9-0.7-1.6-1.6-1.6
			S14.65,27.45,14.65,28.35z"/>
		<path id="path14_163_" fill="#FF001F" d="M26.65,13.05c0,0.9,0.7,1.6,1.6,1.6c0.9,0,1.6-0.7,1.6-1.6s-0.7-1.6-1.6-1.6
			S26.65,12.15,26.65,13.05z"/>
		<path id="path14_162_" fill="#FF001F" d="M3.45,6.15c0,0.9,0.7,1.6,1.6,1.6c0.9,0,1.6-0.7,1.6-1.6s-0.7-1.6-1.6-1.6
			S3.45,5.25,3.45,6.15z"/>
		<path id="path14_161_" fill="#FF001F" d="M0.85,10.35c0,0.9,0.7,1.6,1.6,1.6s1.6-0.7,1.6-1.6c0-0.9-0.7-1.6-1.6-1.6
			S0.85,9.55,0.85,10.35z"/>
	</g>
</g>
</svg>
