<?xml version="1.0" encoding="utf-8"?>
<!-- Generator: Adobe Illustrator 21.0.0, SVG Export Plug-In . SVG Version: 6.00 Build 0)  -->
<svg version="1.1" id="Layer_1" xmlns="http://www.w3.org/2000/svg" xmlns:xlink="http://www.w3.org/1999/xlink" x="0px" y="0px"
	 width="30px" height="30px" viewBox="0 0 30 30" enable-background="new 0 0 30 30" xml:space="preserve">
<g id="XMLID_2070_">
	<text id="XMLID_2075_" transform="matrix(1 0 0 1 5.4803 17.7894)" font-family="'MicrosoftYaHei'" font-size="9.4492px">左上</text>
	<g id="XMLID_2071_">
		<path id="path14_48_" fill="#FF001F" d="M0.15,15.75c0,0.9,0.7,1.6,1.6,1.6s1.6-0.7,1.6-1.6c0-0.9-0.7-1.6-1.6-1.6
			C0.85,14.15,0.15,14.85,0.15,15.75z"/>
		<path id="path14_47_" fill="#FF001F" d="M1.35,20.65c0,0.9,0.7,1.6,1.6,1.6s1.6-0.7,1.6-1.6s-0.7-1.6-1.6-1.6
			S1.35,19.75,1.35,20.65z"/>
		<path id="path14_46_" fill="#FF001F" d="M4.15,24.65c0,0.9,0.7,1.6,1.6,1.6s1.6-0.7,1.6-1.6s-0.7-1.6-1.6-1.6
			C4.85,23.05,4.15,23.75,4.15,24.65z"/>
		<path id="path14_45_" fill="#FF001F" d="M8.65,27.55c0,0.9,0.7,1.6,1.6,1.6s1.6-0.7,1.6-1.6s-0.7-1.6-1.6-1.6
			C9.35,25.95,8.65,26.65,8.65,27.55z"/>
		<path id="path14_44_" fill="#FF001F" d="M19.65,26.85c0,0.9,0.7,1.6,1.6,1.6s1.6-0.7,1.6-1.6c0-0.9-0.7-1.6-1.6-1.6
			C20.35,25.35,19.65,26.05,19.65,26.85z"/>
		<path id="path14_43_" fill="#FF001F" d="M23.85,23.45c0,0.9,0.7,1.6,1.6,1.6s1.6-0.7,1.6-1.6c0-0.9-0.7-1.6-1.6-1.6
			S23.85,22.55,23.85,23.45z"/>
		<path id="path14_42_" fill="#FF001F" d="M26.35,18.55c0,0.9,0.7,1.6,1.6,1.6s1.6-0.7,1.6-1.6s-0.7-1.6-1.6-1.6
			C27.15,16.95,26.35,17.65,26.35,18.55z"/>
		<path id="path14_41_" fill="#FF001F" d="M24.95,8.05c0,0.9,0.7,1.6,1.6,1.6s1.6-0.7,1.6-1.6s-0.7-1.6-1.6-1.6
			C25.65,6.55,24.95,7.25,24.95,8.05z"/>
		<path id="path14_40_" fill="#FF001F" d="M21.65,4.35c0,0.9,0.7,1.6,1.6,1.6s1.6-0.7,1.6-1.6c0-0.9-0.7-1.6-1.6-1.6
			C22.35,2.85,21.65,3.55,21.65,4.35z"/>
		<path id="path14_39_" fill="#FF001F" d="M17.35,2.15c0,0.9,0.7,1.6,1.6,1.6s1.6-0.7,1.6-1.6s-0.7-1.6-1.6-1.6
			C17.95,0.65,17.35,1.35,17.35,2.15z"/>
		<path id="path14_38_" fill="#FF001F" d="M12.35,1.65c0,0.9,0.7,1.6,1.6,1.6s1.6-0.7,1.6-1.6s-0.7-1.6-1.6-1.6
			S12.35,0.75,12.35,1.65z"/>
		<path id="path14_37_" fill="#FF001F" d="M7.35,3.05c0,0.9,0.7,1.6,1.6,1.6s1.6-0.7,1.6-1.6s-0.7-1.6-1.6-1.6S7.35,2.15,7.35,3.05z
			"/>
		<path id="path14_36_" fill="#FF001F" d="M14.65,28.35c0,0.9,0.7,1.6,1.6,1.6s1.6-0.7,1.6-1.6c0-0.9-0.7-1.6-1.6-1.6
			C15.35,26.75,14.65,27.45,14.65,28.35z"/>
		<path id="path14_35_" fill="#FF001F" d="M26.65,13.05c0,0.9,0.7,1.6,1.6,1.6s1.6-0.7,1.6-1.6s-0.7-1.6-1.6-1.6
			C27.35,11.45,26.65,12.15,26.65,13.05z"/>
		<path id="path14_18_" fill="#FF001F" d="M3.35,6.15c0,0.9,0.7,1.6,1.6,1.6s1.6-0.7,1.6-1.6s-0.7-1.6-1.6-1.6S3.35,5.25,3.35,6.15z
			"/>
		<path id="path14_17_" fill="#FF001F" d="M0.95,10.35c0,0.9,0.7,1.6,1.6,1.6s1.6-0.7,1.6-1.6c0-0.9-0.7-1.6-1.6-1.6
			S0.95,9.55,0.95,10.35z"/>
	</g>
</g>
</svg>
