<?xml version="1.0" encoding="utf-8"?>
<!-- Generator: Adobe Illustrator 21.0.0, SVG Export Plug-In . SVG Version: 6.00 Build 0)  -->
<svg version="1.1" id="Layer_1" xmlns="http://www.w3.org/2000/svg" xmlns:xlink="http://www.w3.org/1999/xlink" x="0px" y="0px"
	 width="30px" height="30px" viewBox="0 0 30 30" enable-background="new 0 0 30 30" xml:space="preserve">
<g id="XMLID_2101_">
	<text id="XMLID_2103_" transform="matrix(1 0 0 1 8.1822 19.0434)" font-family="'MicrosoftYaHei'" font-size="13.5095px">тид</text>
	<g id="XMLID_2102_">
		<path id="path14_144_" fill="#FF001F" d="M0.05,15.75c0,0.9,0.7,1.6,1.6,1.6c0.9,0,1.6-0.7,1.6-1.6c0-0.9-0.7-1.6-1.6-1.6
			C0.75,14.25,0.05,14.95,0.05,15.75z"/>
		<path id="path14_143_" fill="#FF001F" d="M1.25,20.65c0,0.9,0.7,1.6,1.6,1.6c0.9,0,1.6-0.7,1.6-1.6c0-0.9-0.7-1.6-1.6-1.6
			C2.05,19.15,1.25,19.85,1.25,20.65z"/>
		<path id="path14_142_" fill="#FF001F" d="M4.25,24.65c0,0.9,0.7,1.6,1.6,1.6c0.9,0,1.6-0.7,1.6-1.6c0-0.9-0.7-1.6-1.6-1.6
			C4.95,23.15,4.25,23.85,4.25,24.65z"/>
		<path id="path14_141_" fill="#FF001F" d="M8.75,27.55c0,0.9,0.7,1.6,1.6,1.6c0.9,0,1.6-0.7,1.6-1.6s-0.7-1.6-1.6-1.6
			C9.45,26.05,8.75,26.75,8.75,27.55z"/>
		<path id="path14_140_" fill="#FF001F" d="M19.75,26.95c0,0.9,0.7,1.6,1.6,1.6c0.9,0,1.6-0.7,1.6-1.6s-0.7-1.6-1.6-1.6
			S19.75,26.05,19.75,26.95z"/>
		<path id="path14_139_" fill="#FF001F" d="M23.75,23.45c0,0.9,0.7,1.6,1.6,1.6c0.9,0,1.6-0.7,1.6-1.6s-0.7-1.6-1.6-1.6
			C24.45,21.95,23.75,22.65,23.75,23.45z"/>
		<path id="path14_138_" fill="#FF001F" d="M26.45,18.55c0,0.9,0.7,1.6,1.6,1.6s1.6-0.7,1.6-1.6s-0.7-1.6-1.6-1.6
			C27.05,17.05,26.45,17.75,26.45,18.55z"/>
		<path id="path14_137_" fill="#FF001F" d="M24.95,8.15c0,0.9,0.7,1.6,1.6,1.6s1.6-0.7,1.6-1.6c0-0.9-0.7-1.6-1.6-1.6
			S24.95,7.25,24.95,8.15z"/>
		<path id="path14_136_" fill="#FF001F" d="M21.55,4.45c0,0.9,0.7,1.6,1.6,1.6c0.9,0,1.6-0.7,1.6-1.6s-0.7-1.6-1.6-1.6
			S21.55,3.55,21.55,4.45z"/>
		<path id="path14_135_" fill="#FF001F" d="M17.25,2.25c0,0.9,0.7,1.6,1.6,1.6c0.9,0,1.6-0.7,1.6-1.6c0-0.9-0.7-1.6-1.6-1.6
			S17.25,1.35,17.25,2.25z"/>
		<path id="path14_134_" fill="#FF001F" d="M12.25,1.65c0,0.9,0.7,1.6,1.6,1.6c0.9,0,1.6-0.7,1.6-1.6c0-0.9-0.7-1.6-1.6-1.6
			C13.05,0.15,12.25,0.85,12.25,1.65z"/>
		<path id="path14_133_" fill="#FF001F" d="M7.45,3.05c0,0.9,0.7,1.6,1.6,1.6s1.6-0.7,1.6-1.6s-0.7-1.6-1.6-1.6
			C8.05,1.55,7.45,2.25,7.45,3.05z"/>
		<path id="path14_132_" fill="#FF001F" d="M14.75,28.35c0,0.9,0.7,1.6,1.6,1.6c0.9,0,1.6-0.7,1.6-1.6c0-0.9-0.7-1.6-1.6-1.6
			S14.75,27.45,14.75,28.35z"/>
		<path id="path14_131_" fill="#FF001F" d="M26.75,13.05c0,0.9,0.7,1.6,1.6,1.6c0.9,0,1.6-0.7,1.6-1.6s-0.7-1.6-1.6-1.6
			C27.45,11.55,26.75,12.25,26.75,13.05z"/>
		<path id="path14_130_" fill="#FF001F" d="M3.45,6.15c0,0.9,0.7,1.6,1.6,1.6s1.6-0.7,1.6-1.6c0-0.9-0.7-1.6-1.6-1.6
			S3.45,5.25,3.45,6.15z"/>
		<path id="path14_129_" fill="#FF001F" d="M0.95,10.35c0,0.9,0.7,1.6,1.6,1.6s1.6-0.7,1.6-1.6c0-0.9-0.7-1.6-1.6-1.6
			S0.95,9.55,0.95,10.35z"/>
	</g>
</g>
</svg>
