<?xml version="1.0" encoding="utf-8"?>
<!-- Generator: Adobe Illustrator 21.0.0, SVG Export Plug-In . SVG Version: 6.00 Build 0)  -->
<svg version="1.1" id="Layer_1" xmlns="http://www.w3.org/2000/svg" xmlns:xlink="http://www.w3.org/1999/xlink" x="0px" y="0px"
	 width="30px" height="30px" viewBox="0 0 30 30" enable-background="new 0 0 30 30" xml:space="preserve">
<g id="XMLID_2057_">
	<text id="XMLID_2083_" transform="matrix(1 0 0 1 4.0254 17.1646)" font-family="'MicrosoftYaHei'" font-size="7.2462px">左右上</text>
	<g id="XMLID_2081_">
		<path id="path14_80_" fill="#FF001F" d="M0.05,15.75c0,0.9,0.7,1.6,1.6,1.6s1.6-0.7,1.6-1.6c0-0.9-0.7-1.6-1.6-1.6
			C0.75,14.25,0.05,14.95,0.05,15.75z"/>
		<path id="path14_79_" fill="#FF001F" d="M1.25,20.65c0,0.9,0.7,1.6,1.6,1.6s1.6-0.7,1.6-1.6c0-0.9-0.7-1.6-1.6-1.6
			C2.05,19.15,1.25,19.85,1.25,20.65z"/>
		<path id="path14_78_" fill="#FF001F" d="M4.15,24.65c0,0.9,0.7,1.6,1.6,1.6s1.6-0.7,1.6-1.6c0-0.9-0.7-1.6-1.6-1.6
			C4.75,23.15,4.15,23.85,4.15,24.65z"/>
		<path id="path14_77_" fill="#FF001F" d="M8.75,27.55c0,0.9,0.7,1.6,1.6,1.6s1.6-0.7,1.6-1.6c0-0.9-0.7-1.6-1.6-1.6
			C9.35,26.05,8.75,26.75,8.75,27.55z"/>
		<path id="path14_76_" fill="#FF001F" d="M19.75,26.95c0,0.9,0.7,1.6,1.6,1.6s1.6-0.7,1.6-1.6s-0.7-1.6-1.6-1.6
			S19.75,26.05,19.75,26.95z"/>
		<path id="path14_75_" fill="#FF001F" d="M23.75,23.45c0,0.9,0.7,1.6,1.6,1.6s1.6-0.7,1.6-1.6s-0.7-1.6-1.6-1.6
			C24.55,21.95,23.75,22.65,23.75,23.45z"/>
		<path id="path14_74_" fill="#FF001F" d="M26.25,18.55c0,0.9,0.7,1.6,1.6,1.6s1.6-0.7,1.6-1.6c0-0.9-0.7-1.6-1.6-1.6
			C27.05,16.95,26.25,17.75,26.25,18.55z"/>
		<path id="path14_73_" fill="#FF001F" d="M24.85,8.15c0,0.9,0.7,1.6,1.6,1.6s1.6-0.7,1.6-1.6c0-0.9-0.7-1.6-1.6-1.6
			C25.65,6.55,24.85,7.25,24.85,8.15z"/>
		<path id="path14_72_" fill="#FF001F" d="M21.55,4.45c0,0.9,0.7,1.6,1.6,1.6s1.6-0.7,1.6-1.6s-0.7-1.6-1.6-1.6
			S21.55,3.55,21.55,4.45z"/>
		<path id="path14_71_" fill="#FF001F" d="M17.25,2.25c0,0.9,0.7,1.6,1.6,1.6s1.6-0.7,1.6-1.6c0-0.9-0.7-1.6-1.6-1.6
			C18.05,0.65,17.25,1.35,17.25,2.25z"/>
		<path id="path14_70_" fill="#FF001F" d="M12.15,1.65c0,0.9,0.7,1.6,1.6,1.6s1.6-0.7,1.6-1.6c0-0.9-0.7-1.6-1.6-1.6
			C12.85,0.15,12.15,0.85,12.15,1.65z"/>
		<path id="path14_69_" fill="#FF001F" d="M7.25,3.05c0,0.9,0.7,1.6,1.6,1.6s1.6-0.7,1.6-1.6c0-0.9-0.7-1.6-1.6-1.6
			C8.05,1.55,7.25,2.25,7.25,3.05z"/>
		<path id="path14_68_" fill="#FF001F" d="M14.65,28.35c0,0.9,0.7,1.6,1.6,1.6s1.6-0.7,1.6-1.6s-0.7-1.6-1.6-1.6
			C15.25,26.75,14.65,27.45,14.65,28.35z"/>
		<path id="path14_67_" fill="#FF001F" d="M26.75,13.05c0,0.9,0.7,1.6,1.6,1.6s1.6-0.7,1.6-1.6c0-0.9-0.7-1.6-1.6-1.6
			C27.35,11.55,26.75,12.25,26.75,13.05z"/>
		<path id="path14_66_" fill="#FF001F" d="M3.25,6.15c0,0.9,0.7,1.6,1.6,1.6s1.6-0.7,1.6-1.6c0-0.9-0.7-1.6-1.6-1.6
			C4.05,4.65,3.25,5.35,3.25,6.15z"/>
		<path id="path14_65_" fill="#FF001F" d="M0.85,10.35c0,0.9,0.7,1.6,1.6,1.6s1.6-0.7,1.6-1.6s-0.7-1.6-1.6-1.6
			C1.65,8.75,0.85,9.55,0.85,10.35z"/>
	</g>
</g>
</svg>
