<?xml version="1.0" encoding="utf-8"?>
<!-- Generator: Adobe Illustrator 21.0.0, SVG Export Plug-In . SVG Version: 6.00 Build 0)  -->
<svg version="1.1" id="Layer_1" xmlns="http://www.w3.org/2000/svg" xmlns:xlink="http://www.w3.org/1999/xlink" x="0px" y="0px"
	 width="30px" height="30px" viewBox="0 0 30 30" enable-background="new 0 0 30 30" xml:space="preserve">
<g id="XMLID_2110_">
	<text id="XMLID_2112_" transform="matrix(1 0 0 1 8.2027 19.0434)" font-family="'MicrosoftYaHei'" font-size="13.5095px">右</text>
	<g id="XMLID_2111_">
		<path id="path14_160_" fill="#FF001F" d="M0.1,15.75c0,0.9,0.7,1.6,1.6,1.6s1.6-0.7,1.6-1.6c0-0.9-0.7-1.6-1.6-1.6
			C0.7,14.25,0.1,14.95,0.1,15.75z"/>
		<path id="path14_159_" fill="#FF001F" d="M1.4,20.65c0,0.9,0.7,1.6,1.6,1.6c0.9,0,1.6-0.7,1.6-1.6c0-0.9-0.7-1.6-1.6-1.6
			C2.1,19.15,1.4,19.85,1.4,20.65z"/>
		<path id="path14_158_" fill="#FF001F" d="M4.1,24.65c0,0.9,0.7,1.6,1.6,1.6s1.6-0.7,1.6-1.6c0-0.9-0.7-1.6-1.6-1.6
			C4.9,23.15,4.1,23.85,4.1,24.65z"/>
		<path id="path14_157_" fill="#FF001F" d="M8.7,27.55c0,0.9,0.7,1.6,1.6,1.6c0.9,0,1.6-0.7,1.6-1.6s-0.7-1.6-1.6-1.6
			C9.4,26.05,8.7,26.75,8.7,27.55z"/>
		<path id="path14_156_" fill="#FF001F" d="M19.7,26.95c0,0.9,0.7,1.6,1.6,1.6c0.9,0,1.6-0.7,1.6-1.6s-0.7-1.6-1.6-1.6
			S19.7,26.05,19.7,26.95z"/>
		<path id="path14_155_" fill="#FF001F" d="M23.9,23.45c0,0.9,0.7,1.6,1.6,1.6c0.9,0,1.6-0.7,1.6-1.6s-0.7-1.6-1.6-1.6
			C24.6,21.95,23.9,22.65,23.9,23.45z"/>
		<path id="path14_154_" fill="#FF001F" d="M26.4,18.55c0,0.9,0.7,1.6,1.6,1.6c0.9,0,1.6-0.7,1.6-1.6s-0.7-1.6-1.6-1.6
			C27.1,17.05,26.4,17.75,26.4,18.55z"/>
		<path id="path14_153_" fill="#FF001F" d="M24.9,8.15c0,0.9,0.7,1.6,1.6,1.6c0.9,0,1.6-0.7,1.6-1.6c0-0.9-0.7-1.6-1.6-1.6
			S24.9,7.25,24.9,8.15z"/>
		<path id="path14_152_" fill="#FF001F" d="M21.6,4.45c0,0.9,0.7,1.6,1.6,1.6s1.6-0.7,1.6-1.6s-0.7-1.6-1.6-1.6S21.6,3.55,21.6,4.45
			z"/>
		<path id="path14_151_" fill="#FF001F" d="M17.4,2.25c0,0.9,0.7,1.6,1.6,1.6c0.9,0,1.6-0.7,1.6-1.6c0-0.9-0.7-1.6-1.6-1.6
			S17.4,1.35,17.4,2.25z"/>
		<path id="path14_150_" fill="#FF001F" d="M12.4,1.65c0,0.9,0.7,1.6,1.6,1.6c0.9,0,1.6-0.7,1.6-1.6c0-0.9-0.7-1.6-1.6-1.6
			C13.1,0.15,12.4,0.85,12.4,1.65z"/>
		<path id="path14_149_" fill="#FF001F" d="M7.4,3.05c0,0.9,0.7,1.6,1.6,1.6c0.9,0,1.6-0.7,1.6-1.6S9.9,1.45,9,1.45
			C8.1,1.55,7.4,2.25,7.4,3.05z"/>
		<path id="path14_148_" fill="#FF001F" d="M14.7,28.35c0,0.9,0.7,1.6,1.6,1.6c0.9,0,1.6-0.7,1.6-1.6c0-0.9-0.7-1.6-1.6-1.6
			S14.7,27.45,14.7,28.35z"/>
		<path id="path14_147_" fill="#FF001F" d="M26.7,13.05c0,0.9,0.7,1.6,1.6,1.6c0.9,0,1.6-0.7,1.6-1.6s-0.7-1.6-1.6-1.6
			C27.4,11.55,26.7,12.25,26.7,13.05z"/>
		<path id="path14_146_" fill="#FF001F" d="M3.4,6.15c0,0.9,0.7,1.6,1.6,1.6c0.9,0,1.6-0.7,1.6-1.6c0-0.9-0.7-1.6-1.6-1.6
			S3.4,5.25,3.4,6.15z"/>
		<path id="path14_145_" fill="#FF001F" d="M0.9,10.35c0,0.9,0.7,1.6,1.6,1.6c0.9,0,1.6-0.7,1.6-1.6c0-0.9-0.7-1.6-1.6-1.6
			S0.9,9.55,0.9,10.35z"/>
	</g>
</g>
</svg>
