<?xml version="1.0" encoding="utf-8"?>
<!-- Generator: Adobe Illustrator 21.0.0, SVG Export Plug-In . SVG Version: 6.00 Build 0)  -->
<svg version="1.1" id="Layer_1" xmlns="http://www.w3.org/2000/svg" xmlns:xlink="http://www.w3.org/1999/xlink" x="0px" y="0px"
	 width="30px" height="30px" viewBox="0 0 30 30" enable-background="new 0 0 30 30" xml:space="preserve">
<g>
	<g id="XMLID_3213_">
		<path fill="#FFFFFF" d="M15,29.5C7.005,29.5,0.5,22.995,0.5,15S7.005,0.5,15,0.5S29.5,7.005,29.5,15S22.995,29.5,15,29.5z"/>
		<path fill="#FF001F" d="M15,1c7.72,0,14,6.28,14,14s-6.28,14-14,14S1,22.72,1,15S7.28,1,15,1 M15,0C6.716,0,0,6.716,0,15
			s6.716,15,15,15s15-6.716,15-15S23.284,0,15,0L15,0z"/>
	</g>
	<path id="XMLID_3212_" fill="#EDEDED" d="M24.2,25.3H6.3L8.5,3.2h13.4L24.2,25.3z"/>
	<path id="XMLID_3211_" fill="#A0A0A0" d="M6.3,25.6L6.3,25.6c-0.2,0-0.3-0.2-0.3-0.4L8.2,3.1c0-0.2,0.2-0.3,0.3-0.3
		c0.1,0,0.3,0.2,0.3,0.4L6.6,25.3C6.6,25.5,6.6,25.6,6.3,25.6z"/>
	<path id="XMLID_3210_" fill="#A0A0A0" d="M22.5,3.1l2.2,22.1c0,0.2-0.2,0.4-0.3,0.4s-0.3-0.1-0.3-0.3L21.9,3.2
		c0-0.2,0.1-0.4,0.3-0.4l0,0C22.3,2.8,22.5,2.9,22.5,3.1z"/>
	<path id="XMLID_3207_" fill="#A0A0A0" d="M15.6,25.4c-0.2,0-0.3,0-0.3-0.1v-1.5c0,0,0.1-0.1,0.3-0.1s0.3,0,0.3,0.1v1.5
		C16,25.4,15.8,25.4,15.6,25.4z"/>
	<path id="XMLID_3206_" fill="#A0A0A0" d="M15.6,28.5c-0.2,0-0.3,0-0.3-0.1v-1.5c0,0,0.1-0.1,0.3-0.1s0.3,0,0.3,0.1v1.5
		C16,28.5,15.8,28.5,15.6,28.5z"/>
	
		<line id="XMLID_3205_" fill="none" stroke="#FF001F" stroke-width="2" stroke-miterlimit="10" x1="25.1" y1="4.1" x2="5" y2="25.9"/>
	
		<line id="XMLID_3204_" fill="none" stroke="#FF001F" stroke-width="2" stroke-miterlimit="10" x1="25.37" y1="24.9" x2="4.502" y2="4.882"/>
	<g>
		<path d="M5.2,18.8H14v-0.5l2.4-1.3H9.1v-1.4c-1,0.5-2,1-3.1,1.4c-0.2-0.7-0.5-1.5-0.9-2.4c2.7-0.8,4.8-1.7,6.5-2.9H5.5V9.6h8.4
			V8.2l-7,0.2C6.8,7.7,6.7,7,6.5,6.2C12.3,6.1,17.9,6,23.4,5.7c0,0,0.1,0.8,0.4,2.2l-7.3,0.2v1.5h8.3v2.1h-6.3
			c1.8,1.3,4,2.2,6.7,2.7c-0.4,0.9-0.7,1.8-0.9,2.5c-1.3-0.4-2.4-0.8-3.5-1.4V17l-3.5,1.8H25V21h-8.3v1.3c0,0.9-0.2,1.5-0.7,1.9
			c-0.4,0.4-1,0.7-1.8,0.7s-2,0-3.6,0c-0.2-1-0.5-1.8-0.7-2.6c0.8,0,1.7,0.1,2.7,0.1c0.9,0,1.3-0.4,1.3-1.3V21H5.1v-2.2L5.2,18.8
			L5.2,18.8z M16.6,12.3v2H14v-2c-1,0.9-2.1,1.8-3.5,2.6H20C18.6,14.2,17.5,13.3,16.6,12.3z"/>
	</g>
</g>
</svg>
