<?xml version="1.0" encoding="utf-8"?>
<!-- Generator: Adobe Illustrator 17.0.0, SVG Export Plug-In . SVG Version: 6.00 Build 0)  -->
<!DOCTYPE svg PUBLIC "-//W3C//DTD SVG 1.1//EN" "http://www.w3.org/Graphics/SVG/1.1/DTD/svg11.dtd">
<svg version="1.1"
	 id="svg2203" xmlns:inkscape="http://www.inkscape.org/namespaces/inkscape" xmlns:cc="http://web.resource.org/cc/" xmlns:dc="http://purl.org/dc/elements/1.1/" xmlns:sodipodi="http://sodipodi.sourceforge.net/DTD/sodipodi-0.dtd" xmlns:rdf="http://www.w3.org/1999/02/22-rdf-syntax-ns#" xmlns:svg="http://www.w3.org/2000/svg" sodipodi:docname="闂傚倷娴囧Δ鐘叉憸缁辩偞绻濋崒婊呯＜婵℃贡缁犳岸姊洪幖鐐插姕婵＄偠妫勯悾椋庣矙鐠囩偓妫冮崺鈧柟鑻痝" inkscape:version="0.45.1" sodipodi:version="0.32" sodipodi:docbase="D:\SVG\闂傚倸鍊风粈渚€骞栭弻娑欐償閵忕姷浠肩紓浣介哺閹告悂鏌" inkscape:output_extension="org.inkscape.output.svg.inkscape"
	 xmlns="http://www.w3.org/2000/svg" xmlns:xlink="http://www.w3.org/1999/xlink" x="0px" y="0px" width="30px" height="30px"
	 viewBox="0 0 30 30" enable-background="new 0 0 30 30" xml:space="preserve">
<sodipodi:namedview  inkscape:zoom="0.74999999" objecttolerance="10" showguides="true" inkscape:cy="646.08493" gridtolerance="10000" inkscape:cx="126.79097" pagecolor="#ffffff" borderopacity="1.0" id="base" bordercolor="#666666" guidetolerance="10" inkscape:window-y="-4" inkscape:window-height="968" inkscape:pageshadow="2" inkscape:pageopacity="0.0" inkscape:guide-bbox="true" inkscape:window-width="1280" inkscape:current-layer="layer1" inkscape:window-x="-4" inkscape:document-units="px">
	<sodipodi:guide  orientation="vertical" position="1116" id="guide22942"></sodipodi:guide>
	<sodipodi:guide  orientation="vertical" position="1147" id="guide22944"></sodipodi:guide>
</sodipodi:namedview>
<g>
	<polygon fill="#FFEA9F" stroke="#3FBDFF" points="5.606,18.88 5.575,13.88 9.544,13.88 9.544,12.849 10.595,12.838 10.606,11.849 
		11.544,11.849 11.544,10.88 12.575,10.901 12.575,9.88 14.575,9.849 14.575,23.849 12.544,23.88 12.544,22.88 11.544,22.849 
		11.575,21.88 10.575,21.88 10.544,20.849 9.553,20.901 9.553,19.901 8.575,19.901 8.575,18.88 	"/>
	<path fill="#0000FF" d="M17.212,10.396l2.646-0.063l-0.06,6.264l1.897-0.026l-0.016-6.221l2.591,0.04l-3.448-5.104L17.212,10.396z"
		/>
	<path fill="#0000FF" d="M24.425,21.279c0,1.897-1.538,3.436-3.435,3.436s-3.436-1.538-3.436-3.436c0-1.896,1.538-3.435,3.436-3.435
		C22.887,17.844,24.425,19.382,24.425,21.279z M20.991,18.915c-1.306,0-2.364,1.06-2.364,2.364c0,1.306,1.06,2.364,2.364,2.364
		s2.363-1.059,2.363-2.364C23.354,19.974,22.297,18.915,20.991,18.915z"/>
</g>
</svg>
