<?xml version="1.0" encoding="utf-8"?>
<!-- Generator: Adobe Illustrator 21.0.0, SVG Export Plug-In . SVG Version: 6.00 Build 0)  -->
<svg version="1.1" id="Layer_1" xmlns="http://www.w3.org/2000/svg" xmlns:xlink="http://www.w3.org/1999/xlink" x="0px" y="0px"
	 width="30px" height="30px" viewBox="0 0 30 30" enable-background="new 0 0 30 30" xml:space="preserve">
<g>
	<g id="XMLID_1725_">
		<path fill="#FFFFFF" d="M15,29.5C7.005,29.5,0.5,22.995,0.5,15S7.005,0.5,15,0.5S29.5,7.005,29.5,15S22.995,29.5,15,29.5z"/>
		<path fill="#DB915A" d="M15,1c7.72,0,14,6.28,14,14s-6.28,14-14,14S1,22.72,1,15S7.28,1,15,1 M15,0C6.716,0,0,6.716,0,15
			s6.716,15,15,15s15-6.716,15-15S23.284,0,15,0L15,0z"/>
	</g>
	<g id="XMLID_1518_">
		<g>
			<g id="XMLID_1842_">
				<g enable-background="new    ">
					<path fill="#E47200" d="M6.7,17.1c1.1-1.1,1.9-2.5,2.6-4.2H6.9v-2.1h2.6V9L7.2,9.2C7.1,8.6,7,7.9,6.9,7.2
						c2.5-0.2,4.8-0.4,7-0.7l0.4,2c-0.9,0.1-1.7,0.2-2.6,0.3v2h2.7v2.1h-2.7v1.5l0.7-0.6c0.6,0.6,1.3,1.3,2.2,2.2l-1.5,1.5
						c-0.4-0.6-0.9-1.1-1.3-1.6v6.4H9.6v-5.8c-0.6,1.2-1.2,2.3-1.9,3.2C7.4,19,7.1,18.1,6.7,17.1z M20.5,13.1c1.2,3.2,2.1,6,2.8,8.5
						l-2.2,0.7l-0.4-1.5c-4,0.1-6.2,0.4-6.7,0.7l-1.1-2.1c0.4-0.3,0.8-0.8,1.1-1.4c0.3-0.6,0.8-2.1,1.5-4.3c0.6-2.2,1.2-4.7,1.8-7.5
						l2.4,0.5C18.2,12.3,17,16.4,16,19c1.2,0,2.6-0.1,4.2-0.2c-0.5-1.8-1.1-3.4-1.6-5.1L20.5,13.1z"/>
				</g>
			</g>
		</g>
	</g>
</g>
</svg>
