<?xml version="1.0" encoding="utf-8"?>
<!-- Generator: Adobe Illustrator 21.0.0, SVG Export Plug-In . SVG Version: 6.00 Build 0)  -->
<svg version="1.1" id="Layer_1" xmlns="http://www.w3.org/2000/svg" xmlns:xlink="http://www.w3.org/1999/xlink" x="0px" y="0px"
	 width="30px" height="30px" viewBox="0 0 30 30" enable-background="new 0 0 30 30" xml:space="preserve">
<g>
	<g id="XMLID_3067_">
		<path id="XMLID_3070_" fill="#FFFFFF" d="M15,29.5C7,29.5,0.5,23,0.5,15S7,0.5,15,0.5S29.5,7,29.5,15S23,29.5,15,29.5z"/>
		<g id="XMLID_3068_">
			<path id="XMLID_3069_" fill="#305FA0" d="M15,1c7.7,0,14,6.3,14,14s-6.3,14-14,14C7.3,29,1,22.7,1,15S7.3,1,15,1 M15,0
				C6.7,0,0,6.7,0,15s6.7,15,15,15c8.3,0,15-6.7,15-15S23.3,0,15,0L15,0z"/>
		</g>
	</g>
	<g>
		<path fill="#305FA0" d="M18.7,12.6c0.9,0,1.6,0.7,1.6,1.6s-0.7,1.6-1.6,1.6c-0.9,0-1.6-0.7-1.6-1.6S17.8,12.6,18.7,12.6z"/>
		<path fill="#305FA0" d="M7.5,12.6v-1.8c0-1.7,1.4-3.1,3.2-3.1c1.2,0,2.3,0.6,2.8,1.7l1.9,3.5c0.1,0.2,0.2,0.4,0.2,0.6
			c0,0.3-0.1,0.7-0.4,0.9l1.9,1.5c0.5,0.4,1,0.6,1.6,0.6c0.2,0,0.5,0,0.7-0.1l0.3-0.1c0.1,0,0.2,0,0.2,0c0.3,0,0.5,0.1,0.7,0.3
			l2.3,2.7c0.2,0.2,0.3,0.4,0.3,0.7s-0.1,0.6-0.4,0.8l-2.1-2.4l0.7,3.3l-0.9,0.1L21,25v0.1c0,0.3-0.3,0.6-0.6,0.6
			c-0.3,0-0.5-0.2-0.6-0.5L19.1,22l-0.7,0.1l-0.3,3.5c0,0.3-0.3,0.5-0.6,0.5s-0.6-0.2-0.6-0.5l0,0l0.5-7.6l-3.2-3
			c-0.1-0.2-0.2-0.4-0.2-0.6c0-0.3,0.1-0.5,0.3-0.7l-2-3.8l-0.1-0.1c-0.1,0-0.1,0.1-0.1,0.1v3.4c0,0.1,0,0.2,0.1,0.3l0.4,0.4
			c1.4,1.4,2.3,3.1,2.6,5.1H6.1c0.3-1.7,1-3.3,2.2-4.6C7.8,14.1,7.5,13.4,7.5,12.6z"/>
		<g>
			<path fill="#305FA0" d="M12.3,19.7v6c0,0.4-0.3,0.7-0.7,0.7s-0.7-0.3-0.7-0.7v-6H12.3z"/>
		</g>
		<g>
			<path fill="#305FA0" d="M10.5,19.7v6c0,0.4-0.3,0.7-0.7,0.7s-0.7-0.3-0.7-0.7v-6H10.5z"/>
		</g>
		<path fill="#305FA0" d="M10.3,3.7c0.9,0,1.6,0.7,1.6,1.5c0,0.9-0.7,1.6-1.6,1.6c-0.9,0-1.6-0.7-1.6-1.6C8.7,4.4,9.4,3.7,10.3,3.7z
			"/>
	</g>
</g>
</svg>
