<?xml version="1.0" encoding="utf-8"?>
<!-- Generator: Adobe Illustrator 21.0.0, SVG Export Plug-In . SVG Version: 6.00 Build 0)  -->
<svg version="1.1" id="Layer_1" xmlns="http://www.w3.org/2000/svg" xmlns:xlink="http://www.w3.org/1999/xlink" x="0px" y="0px"
	 width="30px" height="30px" viewBox="0 0 30 30" enable-background="new 0 0 30 30" xml:space="preserve">
<g>
	<g id="XMLID_2197_">
		<path fill="#FFFFFF" d="M15,29.5C7.005,29.5,0.5,22.995,0.5,15S7.005,0.5,15,0.5S29.5,7.005,29.5,15S22.995,29.5,15,29.5z"/>
		<path fill="#FF001F" d="M15,1c7.72,0,14,6.28,14,14s-6.28,14-14,14S1,22.72,1,15S7.28,1,15,1 M15,0C6.716,0,0,6.716,0,15
			s6.716,15,15,15s15-6.716,15-15S23.284,0,15,0L15,0z"/>
	</g>
	<g enable-background="new    ">
		<path d="M10.3,19.3c1,0.6,2.1,1,3.3,1c0.9,0,1.6-0.2,2.1-0.7s0.8-1,0.8-1.8c0-1.6-1.1-2.3-3.3-2.3c-0.7,0-1.5,0.1-2.5,0.2V7.4H19
			V10h-5.5v3.2c0.4,0,0.8-0.1,1.3-0.1c1.5,0,2.7,0.4,3.6,1.2c0.9,0.8,1.3,1.9,1.3,3.3c0,1.6-0.5,2.8-1.6,3.8s-2.4,1.4-4.2,1.4
			c-1.5,0-2.7-0.2-3.6-0.7L10.3,19.3L10.3,19.3z"/>
	</g>
</g>
</svg>
