<?xml version="1.0" encoding="utf-8"?>
<!-- Generator: Adobe Illustrator 21.0.0, SVG Export Plug-In . SVG Version: 6.00 Build 0)  -->
<svg version="1.1" id="Layer_1" xmlns="http://www.w3.org/2000/svg" xmlns:xlink="http://www.w3.org/1999/xlink" x="0px" y="0px"
	 width="30px" height="30px" viewBox="0 0 30 30" enable-background="new 0 0 30 30" xml:space="preserve">
<g>
	<polygon id="XMLID_2183_" fill="#231815" points="18.982,1.187 19.666,1.843 1.477,20.375 0.793,19.718 	"/>
	<polygon id="XMLID_2180_" fill="#231815" points="20.785,1.88 21.468,2.54 2.445,22.059 1.762,21.399 	"/>
	<polygon id="XMLID_2175_" fill="#231815" points="22.871,2.796 23.576,3.483 3.478,24.272 2.773,23.585 	"/>
	
		<rect id="XMLID_2174_" x="0.333" y="14.594" transform="matrix(0.6965 -0.7175 0.7175 0.6965 -6.2532 15.4028)" fill="#231815" width="29.499" height="1"/>
	
		<rect id="XMLID_2173_" x="1.982" y="16.321" transform="matrix(0.6964 -0.7177 0.7177 0.6964 -7.0595 16.938)" fill="#231815" width="29.015" height="0.984"/>
	<polygon id="XMLID_2172_" fill="#231815" points="27.373,7.472 28.077,8.158 8.393,28.513 7.689,27.827 	"/>
	<g id="XMLID_2171_">
		<path d="M15,1c7.72,0,14,6.28,14,14s-6.28,14-14,14S1,22.72,1,15S7.28,1,15,1 M15,0C6.716,0,0,6.716,0,15s6.716,15,15,15
			s15-6.716,15-15S23.284,0,15,0L15,0z"/>
	</g>
	<g enable-background="new    ">
		<path d="M10.4,18.95c1,0.6,2.1,1,3.3,1c0.9,0,1.6-0.2,2.1-0.7s0.8-1,0.8-1.8c0-1.6-1.1-2.3-3.3-2.3c-0.7,0-1.5,0.1-2.5,0.2v-8.3
			h8.3v2.6h-5.5v3.2c0.4,0,0.8-0.1,1.3-0.1c1.5,0,2.7,0.4,3.6,1.2c0.9,0.8,1.3,1.9,1.3,3.3c0,1.6-0.5,2.8-1.6,3.8s-2.4,1.4-4.2,1.4
			c-1.5,0-2.7-0.2-3.6-0.7L10.4,18.95L10.4,18.95z"/>
	</g>
</g>
</svg>
