<?xml version="1.0" encoding="utf-8"?>
<!-- Generator: Adobe Illustrator 17.0.0, SVG Export Plug-In . SVG Version: 6.00 Build 0)  -->
<!DOCTYPE svg PUBLIC "-//W3C//DTD SVG 1.1//EN" "http://www.w3.org/Graphics/SVG/1.1/DTD/svg11.dtd">
<svg version="1.1"
	 id="svg2203" xmlns:rdf="http://www.w3.org/1999/02/22-rdf-syntax-ns#" xmlns:cc="http://web.resource.org/cc/" xmlns:inkscape="http://www.inkscape.org/namespaces/inkscape" xmlns:sodipodi="http://sodipodi.sourceforge.net/DTD/sodipodi-0.dtd" xmlns:dc="http://purl.org/dc/elements/1.1/" xmlns:svg="http://www.w3.org/2000/svg" sodipodi:version="0.32" inkscape:version="0.45.1" sodipodi:docname="闂傚倸鍊峰ù鍥旈悩鍙夋喐缂佽京鍋炵换婵嬪磼濠婂懐锛滃┑鈩冭础缂佺姵宀稿娲箹閻愭彃濮曞┑锛勫仩濡嫰鎮炬搴ｇ煓閻犲洨鍋撳Λ鍐春閳ф煙閼荤棟" sodipodi:docbase="D:\SVG\闂傚倸鍊搁崐椋庣矆娓氣偓楠炴牠寮诲☉娆愬劅闁靛繒濮锋禒鑲╃磽娴ｄ粙鍝洪柟鍛婃倐閺" inkscape:output_extension="org.inkscape.output.svg.inkscape"
	 xmlns="http://www.w3.org/2000/svg" xmlns:xlink="http://www.w3.org/1999/xlink" x="0px" y="0px" width="30px" height="30px"
	 viewBox="0 0 30 30" enable-background="new 0 0 30 30" xml:space="preserve">
<sodipodi:namedview  borderopacity="1.0" guidetolerance="10" inkscape:zoom="0.74999999" inkscape:cy="646.08493" showguides="true" id="base" gridtolerance="10000" bordercolor="#666666" objecttolerance="10" inkscape:cx="126.79097" pagecolor="#ffffff" inkscape:pageopacity="0.0" inkscape:pageshadow="2" inkscape:document-units="px" inkscape:current-layer="layer1" inkscape:window-width="1280" inkscape:window-height="968" inkscape:window-y="-4" inkscape:window-x="-4" inkscape:guide-bbox="true">
	<sodipodi:guide  orientation="vertical" position="1116" id="guide22942"></sodipodi:guide>
	<sodipodi:guide  orientation="vertical" position="1147" id="guide22944"></sodipodi:guide>
</sodipodi:namedview>
<g>
	<path fill="#FFFFFF" d="M8.042,21.847c-0.405,0-0.732-0.33-0.732-0.74c0-0.131,0.035-0.257,0.103-0.37l6.959-12.214
		c0.129-0.229,0.37-0.371,0.632-0.371c0.261,0,0.502,0.143,0.633,0.371l6.958,12.214c0.064,0.113,0.102,0.239,0.102,0.37
		c0,0.41-0.326,0.74-0.729,0.74H8.042z"/>
	<path fill="#9E9E9F" d="M8.042,21.892v-0.045v-0.045h13.917c0.38,0,0.688-0.312,0.688-0.695l0,0c0-0.121-0.029-0.242-0.092-0.35
		l0,0L15.596,8.545C15.472,8.329,15.244,8.196,15,8.196l0,0c-0.246,0-0.473,0.133-0.596,0.349l0,0l-6.96,12.213
		c-0.063,0.105-0.096,0.229-0.096,0.35l0,0c0,0.387,0.312,0.695,0.688,0.695l0,0v0.045L8.042,21.892
		c-0.429,0-0.775-0.354-0.775-0.785l0,0c0-0.137,0.035-0.272,0.104-0.395l0,0L14.33,8.5C14.468,8.256,14.723,8.108,15,8.107l0,0
		c0.277,0.001,0.533,0.149,0.671,0.394l0,0l6.959,12.214c0.067,0.119,0.103,0.257,0.103,0.394l0,0c0,0.434-0.345,0.785-0.771,0.785
		l0,0L8.042,21.892L8.042,21.892z"/>
	<path fill="#0078FF" d="M8.042,21.57c-0.252,0-0.457-0.208-0.457-0.464c0-0.082,0.021-0.16,0.061-0.229l6.959-12.215
		c0.08-0.145,0.232-0.229,0.396-0.229c0.162,0,0.313,0.087,0.396,0.229l6.959,12.215c0.039,0.069,0.063,0.147,0.063,0.229
		c0,0.256-0.205,0.464-0.458,0.464H8.042z"/>
	<polygon fill="#FFFFFF" points="9.625,20.181 20.376,20.181 15.001,10.746 	"/>
	<polygon fill="#231815" points="9.942,19.998 16.875,14.609 20.059,19.998 	"/>
</g>
</svg>
