<?xml version="1.0" encoding="utf-8"?>
<!-- Generator: Adobe Illustrator 21.0.0, SVG Export Plug-In . SVG Version: 6.00 Build 0)  -->
<svg version="1.1" id="Layer_1" xmlns="http://www.w3.org/2000/svg" xmlns:xlink="http://www.w3.org/1999/xlink" x="0px" y="0px"
	 width="30px" height="30px" viewBox="0 0 30 30" enable-background="new 0 0 30 30" xml:space="preserve">
<g>
	<g id="XMLID_2671_">
		<path fill="#FFFFFF" d="M15,29.5C7,29.5,0.5,23,0.5,15S7,0.5,15,0.5S29.5,7,29.5,15S23,29.5,15,29.5z"/>
		<path fill="#69C567" d="M15,1c7.7,0,14,6.3,14,14s-6.3,14-14,14S1,22.7,1,15S7.2,1,15,1 M15,0C6.7,0,0,6.7,0,15s6.7,15,15,15
			s15-6.7,15-15S23.2,0,15,0L15,0z"/>
	</g>
	<g>
		<rect x="17.1" y="10.2" width="2.5" height="14.4"/>
		<rect x="10" y="10.2" width="2.5" height="11.9"/>
		<path d="M14.8,5.4c-2.7,0-4.8,2.2-4.8,4.8c0,1.8,1,3.4,2.5,4.2v-4.2c0-1.3,1-2.3,2.3-2.3s2.3,1,2.3,2.3c0,0.1,0,0.2,0,0.3v3.9
			c1.5-0.8,2.5-2.4,2.5-4.2C19.7,7.6,17.6,5.4,14.8,5.4z"/>
		<polygon points="6.8,17.9 6.8,21.1 11.2,24.6 15.7,21.1 15.7,17.9 11.2,21.4 		"/>
	</g>
</g>
</svg>
