<?xml version="1.0" encoding="utf-8"?>
<!-- Generator: Adobe Illustrator 21.0.0, SVG Export Plug-In . SVG Version: 6.00 Build 0)  -->
<svg version="1.1" id="Layer_1" xmlns="http://www.w3.org/2000/svg" xmlns:xlink="http://www.w3.org/1999/xlink" x="0px" y="0px"
	 width="30px" height="30px" viewBox="0 0 30 30" enable-background="new 0 0 30 30" xml:space="preserve">
<g>
	<g id="XMLID_2579_">
		<path fill="#FFFFFF" d="M15,29.5C7,29.5,0.5,23,0.5,15S7,0.5,15,0.5S29.5,7,29.5,15S23,29.5,15,29.5z"/>
		<path fill="#69C567" d="M15,1c7.7,0,14,6.3,14,14s-6.3,14-14,14S1,22.7,1,15S7.1,1,15,1 M15,0C6.7,0,0,6.7,0,15s6.7,15,15,15
			s15-6.7,15-15S23.1,0,15,0L15,0z"/>
	</g>
	
		<rect id="XMLID_2578_" x="14.073" y="0.89" transform="matrix(0.7071 -0.7071 0.7071 0.7071 -6.3051 15.0571)" fill="#69C567" width="1.9" height="28.5"/>
	<g enable-background="new    ">
		<path d="M15.2,19.8h-2.4v-1.2c0-1,0.2-1.8,0.6-2.5c0.4-0.7,1.1-1.4,2.1-2.2c1-0.7,1.7-1.4,2.1-2.1c0.4-0.7,0.6-1.4,0.6-2.3
			s-0.3-1.6-1-2.2c-0.6-0.6-1.5-0.9-2.6-0.9c-1.7,0-3.3,0.7-4.6,2V5.6c1.5-1,3.2-1.4,5-1.4s3.2,0.5,4.3,1.4s1.6,2.2,1.6,3.7
			c0,1.1-0.2,2-0.7,2.9s-1.3,1.8-2.5,2.7c-0.9,0.8-1.6,1.4-1.9,1.8c-0.3,0.5-0.5,1.1-0.5,1.9L15.2,19.8L15.2,19.8z M14,22.7
			c0.5,0,0.9,0.2,1.2,0.5s0.5,0.7,0.5,1.2s-0.2,0.9-0.5,1.2s-0.8,0.5-1.2,0.5c-0.5,0-0.9-0.2-1.2-0.5s-0.5-0.7-0.5-1.2
			s0.2-0.9,0.5-1.2S13.5,22.7,14,22.7z"/>
	</g>
</g>
</svg>
