<?xml version="1.0" encoding="utf-8"?>
<!-- Generator: Adobe Illustrator 21.0.0, SVG Export Plug-In . SVG Version: 6.00 Build 0)  -->
<svg version="1.1" id="Layer_1" xmlns="http://www.w3.org/2000/svg" xmlns:xlink="http://www.w3.org/1999/xlink" x="0px" y="0px"
	 width="30px" height="30px" viewBox="0 0 30 30" enable-background="new 0 0 30 30" xml:space="preserve">
<g>
	<g id="XMLID_2668_">
		<path fill="#FFFFFF" d="M15,29.5C7,29.5,0.5,23,0.5,15S7,0.5,15,0.5S29.5,7,29.5,15S23,29.5,15,29.5z"/>
		<path fill="#69C567" d="M15,1c7.7,0,14,6.3,14,14s-6.3,14-14,14S1,22.7,1,15S7.4,1,15,1 M15,0C6.7,0,0,6.7,0,15s6.7,15,15,15
			s15-6.7,15-15S23.4,0,15,0L15,0z"/>
	</g>
	
		<rect id="XMLID_2666_" x="14.08" y="0.504" transform="matrix(0.7071 -0.7071 0.7071 0.7071 -6.157 15.0427)" fill="#69C567" width="2" height="28.9"/>
	<g>
		<rect x="16.2" y="14" width="8" height="2.5"/>
		<rect x="11.7" y="6.8" width="2.5" height="18.7"/>
		<polygon points="12.9,7.4 17.4,10.9 17.4,7.8 12.9,4.2 8.4,7.8 8.4,10.9 		"/>
		<polygon points="23.7,15.3 20.1,19.8 23.2,19.8 26.8,15.3 23.2,10.8 20.1,10.8 		"/>
		<path d="M20.7,16.5C19.9,15,18.3,14,16.5,14c-2.7,0-4.8,2.2-4.8,4.8c0,1.8,1,3.4,2.5,4.2v-4.2c0-1.3,1-2.3,2.3-2.3
			C16.5,16.5,20.7,16.5,20.7,16.5z"/>
	</g>
</g>
</svg>
