<?xml version="1.0" encoding="utf-8"?>
<!-- Generator: Adobe Illustrator 21.0.0, SVG Export Plug-In . SVG Version: 6.00 Build 0)  -->
<svg version="1.1" id="Layer_1" xmlns="http://www.w3.org/2000/svg" xmlns:xlink="http://www.w3.org/1999/xlink" x="0px" y="0px"
	 width="30px" height="30px" viewBox="0 0 30 30" enable-background="new 0 0 30 30" xml:space="preserve">
<g>
	<g id="XMLID_2607_">
		<path fill="#FFFFFF" d="M15,29.5C7,29.5,0.5,23,0.5,15S7,0.5,15,0.5S29.5,7,29.5,15S23,29.5,15,29.5z"/>
		<path fill="#69C567" d="M15,1c7.7,0,14,6.3,14,14s-6.3,14-14,14S1,22.7,1,15S7.4,1,15,1 M15,0C6.7,0,0,6.7,0,15s6.7,15,15,15
			s15-6.7,15-15S23.4,0,15,0L15,0z"/>
	</g>
	
		<rect id="XMLID_2593_" x="13.879" y="0.828" transform="matrix(0.7071 -0.7071 0.7071 0.7071 -6.2335 14.9077)" fill="#69C567" width="2" height="28.3"/>
	<g>
		<rect x="14.4" y="9.5" width="8" height="2.5"/>
		<rect x="9.8" y="14.3" width="2.5" height="11.6"/>
		<polygon points="21.5,10.8 18,15.3 21.2,15.3 24.7,10.8 21.2,6.3 18,6.3 		"/>
		<path d="M18.8,12c-0.8-1.5-2.4-2.5-4.2-2.5c-2.7,0-4.8,2.2-4.8,4.8c0,1.8,1,3.4,2.5,4.2v-4.2c0-1.3,1-2.3,2.3-2.3
			C14.7,12,18.8,12,18.8,12z"/>
	</g>
</g>
</svg>
