<?xml version="1.0" encoding="utf-8"?>
<!-- Generator: Adobe Illustrator 21.0.0, SVG Export Plug-In . SVG Version: 6.00 Build 0)  -->
<svg version="1.1" id="Layer_1" xmlns="http://www.w3.org/2000/svg" xmlns:xlink="http://www.w3.org/1999/xlink" x="0px" y="0px"
	 width="30px" height="30px" viewBox="0 0 30 30" enable-background="new 0 0 30 30" xml:space="preserve">
<g>
	<g id="XMLID_2589_">
		<path fill="#FFFFFF" d="M15,29.5C7,29.5,0.5,23,0.5,15S7,0.5,15,0.5S29.5,7,29.5,15S23,29.5,15,29.5z"/>
		<path fill="#69C567" d="M15,1c7.7,0,14,6.3,14,14s-6.3,14-14,14S1,22.7,1,15S7.3,1,15,1 M15,0C6.7,0,0,6.7,0,15s6.7,15,15,15
			s15-6.7,15-15S23.3,0,15,0L15,0z"/>
	</g>
	
		<rect id="XMLID_2588_" x="13.953" y="0.71" transform="matrix(0.7071 -0.7071 0.7071 0.7071 -6.3044 14.9992)" fill="#69C567" width="2" height="28.8"/>
	<g>
		<rect x="6.5" y="9.5" width="8" height="2.5"/>
		<rect x="16.6" y="14.3" width="2.5" height="11.6"/>
		<polygon points="11,6.3 7.8,6.3 4.3,10.8 7.8,15.3 11,15.3 7.5,10.8 		"/>
		<path d="M14.3,12c1.3,0,2.3,1,2.3,2.3v4.2c1.5-0.8,2.5-2.4,2.5-4.2c0-2.7-2.2-4.8-4.8-4.8c-1.8,0-3.4,1-4.2,2.5H14.3z"/>
	</g>
</g>
</svg>
