<?xml version="1.0" encoding="utf-8"?>
<!-- Generator: Adobe Illustrator 21.0.0, SVG Export Plug-In . SVG Version: 6.00 Build 0)  -->
<svg version="1.1" id="Layer_1" xmlns="http://www.w3.org/2000/svg" xmlns:xlink="http://www.w3.org/1999/xlink" x="0px" y="0px"
	 width="30px" height="30px" viewBox="0 0 30 30" enable-background="new 0 0 30 30" xml:space="preserve">
<g>
	<g id="XMLID_2629_">
		<path fill="#FFFFFF" d="M15,29.5C7,29.5,0.5,23,0.5,15S7,0.5,15,0.5S29.5,7,29.5,15S23,29.5,15,29.5z"/>
		<path fill="#69C567" d="M15,1c7.7,0,14,6.3,14,14s-6.3,14-14,14S1,22.7,1,15S7.3,1,15,1 M15,0C6.7,0,0,6.7,0,15s6.7,15,15,15
			s15-6.7,15-15S23.3,0,15,0L15,0z"/>
	</g>
	
		<rect id="XMLID_2628_" x="14.023" y="1.131" transform="matrix(0.7071 -0.7071 0.7071 0.7071 -6.3135 15.0189)" fill="#69C567" width="1.9" height="28"/>
	<rect x="18.4" y="9.5" width="4.6" height="2.5"/>
	<rect x="13.7" y="14.3" width="2.6" height="11.6"/>
	<polygon points="22.5,10.8 19,15.3 22.1,15.3 25.6,10.8 22.1,6.3 19,6.3 	"/>
	<path d="M22.8,12c-0.8-1.5-2.4-2.5-4.2-2.5c-2.7,0-4.8,2.2-4.8,4.8c0,1.8,1,3.4,2.5,4.2v-4.2c0-1.3,1-2.3,2.3-2.3H22.8z"/>
	<rect x="7" y="9.5" width="4.6" height="2.5"/>
	<polygon points="11,6.3 7.9,6.3 4.4,10.8 7.9,15.3 11,15.3 7.5,10.8 	"/>
	<path d="M11.4,12c1.3,0,2.3,1,2.3,2.3v4.2c1.5-0.8,2.5-2.4,2.5-4.2c0-2.7-2.2-4.8-4.8-4.8c-1.8,0-3.4,1-4.2,2.5H11.4z"/>
</g>
</svg>
