<?xml version="1.0" encoding="utf-8"?>
<!-- Generator: Adobe Illustrator 21.0.0, SVG Export Plug-In . SVG Version: 6.00 Build 0)  -->
<svg version="1.1" id="Layer_1" xmlns="http://www.w3.org/2000/svg" xmlns:xlink="http://www.w3.org/1999/xlink" x="0px" y="0px"
	 width="30px" height="30px" viewBox="0 0 30 30" enable-background="new 0 0 30 30" xml:space="preserve">
<g>
	<g id="XMLID_2587_">
		<path fill="#FFFFFF" d="M15,29.5C7,29.5,0.5,23,0.5,15S7,0.5,15,0.5S29.5,7,29.5,15S23,29.5,15,29.5z"/>
		<path fill="#69C567" d="M15,1c7.7,0,14,6.3,14,14s-6.3,14-14,14S1,22.7,1,15S7.2,1,15,1 M15,0C6.7,0,0,6.7,0,15s6.7,15,15,15
			s15-6.7,15-15S23.2,0,15,0L15,0z"/>
	</g>
	
		<rect id="XMLID_2586_" x="13.938" y="0.72" transform="matrix(0.7071 -0.7071 0.7071 0.7071 -6.3163 14.991)" fill="#69C567" width="2" height="28.8"/>
	<polygon id="XMLID_2585_" points="13.5,27.7 16,27.7 16,8.8 19.1,11 19.1,7.9 14.8,2.9 10.6,7.6 10.6,11 13.5,8.8 	"/>
</g>
</svg>
