<?xml version="1.0" encoding="utf-8"?>
<!-- Generator: Adobe Illustrator 17.0.0, SVG Export Plug-In . SVG Version: 6.00 Build 0)  -->
<!DOCTYPE svg PUBLIC "-//W3C//DTD SVG 1.1//EN" "http://www.w3.org/Graphics/SVG/1.1/DTD/svg11.dtd">
<svg version="1.1" id="图层_1" xmlns="http://www.w3.org/2000/svg" xmlns:xlink="http://www.w3.org/1999/xlink" x="0px" y="0px"
	 width="30px" height="30px" viewBox="0 0 30 30" style="enable-background:new 0 0 30 30;" xml:space="preserve">
<style type="text/css">
	.st0{fill:#FF0000;}
	.st1{fill:#FFFFFF;}
</style>
<g>
	<path id="path14_19_" class="st0" d="M7.5,14.9c0,0.4,0.4,0.8,0.8,0.8c0.4,0,0.8-0.4,0.8-0.8c0-0.4-0.4-0.8-0.8-0.8
		C7.9,14.1,7.5,14.5,7.5,14.9z"/>
	<path id="path14_20_" class="st0" d="M8.2,17.4c0,0.4,0.4,0.8,0.8,0.8c0.4,0,0.8-0.4,0.8-0.8c0-0.4-0.4-0.8-0.8-0.8
		C8.5,16.6,8.2,17,8.2,17.4z"/>
	<path id="path14_21_" class="st0" d="M9.6,19.4c0,0.4,0.4,0.8,0.8,0.8s0.8-0.4,0.8-0.8c0-0.4-0.4-0.8-0.8-0.8S9.6,19,9.6,19.4z"/>
	<path id="path14_22_" class="st0" d="M11.9,20.9c0,0.4,0.4,0.8,0.8,0.8c0.4,0,0.8-0.4,0.8-0.8c0-0.4-0.4-0.8-0.8-0.8
		C12.3,20.1,11.9,20.4,11.9,20.9z"/>
	<path id="path14_23_" class="st0" d="M17.5,20.5c0,0.4,0.4,0.8,0.8,0.8c0.4,0,0.8-0.4,0.8-0.8c0-0.4-0.4-0.8-0.8-0.8
		C17.8,19.8,17.5,20.1,17.5,20.5z"/>
	<path id="path14_24_" class="st0" d="M19.5,18.8c0,0.4,0.4,0.8,0.8,0.8c0.4,0,0.8-0.4,0.8-0.8c0-0.4-0.4-0.8-0.8-0.8
		S19.5,18.4,19.5,18.8z"/>
	<path id="path14_25_" class="st0" d="M20.8,16.3c0,0.4,0.4,0.8,0.8,0.8c0.4,0,0.8-0.4,0.8-0.8c0-0.4-0.4-0.8-0.8-0.8
		C21.2,15.6,20.8,15.9,20.8,16.3z"/>
	<path id="path14_26_" class="st0" d="M20.1,11c0,0.4,0.4,0.8,0.8,0.8c0.4,0,0.8-0.4,0.8-0.8c0-0.4-0.4-0.8-0.8-0.8
		C20.4,10.3,20.1,10.6,20.1,11z"/>
	<path id="path14_27_" class="st0" d="M18.4,9.2c0,0.4,0.4,0.8,0.8,0.8S20,9.6,20,9.2c0-0.4-0.4-0.8-0.8-0.8S18.4,8.8,18.4,9.2z"/>
	<path id="path14_28_" class="st0" d="M16.2,8.1c0,0.4,0.4,0.8,0.8,0.8s0.8-0.4,0.8-0.8c0-0.4-0.4-0.8-0.8-0.8S16.2,7.6,16.2,8.1z"
		/>
	<path id="path14_29_" class="st0" d="M13.7,7.8c0,0.4,0.4,0.8,0.8,0.8c0.4,0,0.8-0.4,0.8-0.8c0-0.4-0.4-0.8-0.8-0.8
		C14.1,7,13.7,7.4,13.7,7.8z"/>
	<path id="path14_30_" class="st0" d="M11.2,8.5c0,0.4,0.4,0.8,0.8,0.8c0.4,0,0.8-0.4,0.8-0.8c0-0.4-0.4-0.8-0.8-0.8
		C11.6,7.7,11.2,8.1,11.2,8.5z"/>
	<path id="path14_31_" class="st0" d="M14.9,21.3c0,0.4,0.4,0.8,0.8,0.8c0.4,0,0.8-0.4,0.8-0.8c0-0.4-0.4-0.8-0.8-0.8
		C15.3,20.5,14.9,20.8,14.9,21.3z"/>
	<path id="path14_32_" class="st0" d="M21,13.6c0,0.4,0.4,0.8,0.8,0.8c0.4,0,0.8-0.4,0.8-0.8c0-0.4-0.4-0.8-0.8-0.8
		C21.3,12.8,21,13.1,21,13.6z"/>
	<path id="path14_33_" class="st0" d="M9.2,10.1c0,0.4,0.4,0.8,0.8,0.8c0.4,0,0.8-0.4,0.8-0.8S10.4,9.3,10,9.3
		C9.6,9.3,9.2,9.6,9.2,10.1z"/>
	<path id="path14_34_" class="st0" d="M8,12.2C8,12.6,8.3,13,8.8,13c0.4,0,0.8-0.4,0.8-0.8c0-0.4-0.4-0.8-0.8-0.8
		C8.3,11.4,8,11.8,8,12.2z"/>
</g>
<path d="M14.1,15.4c0.2,1-0.1,1.6-0.8,1.7c-0.2,0-0.5,0.1-0.8,0c0-0.2-0.1-0.4-0.2-0.7c0.3,0.1,0.5,0.1,0.7,0.1
	c0.4-0.1,0.5-0.4,0.4-1.1c-0.1-0.4-0.3-0.9-0.7-1.4c0.2-0.6,0.4-1.3,0.7-2.3h-1.2v6.9h-0.6v-7.5h2.4v0.6c-0.3,0.7-0.5,1.5-0.7,2.2
	C13.8,14.4,14,15,14.1,15.4z"/>
<path d="M14.6,11.1h3.8v3.9h-0.6v-0.2h-1.3c0.2,0.5,0.4,0.9,0.7,1.3c0.5-0.3,1-0.7,1.5-1.1l0.4,0.5c-0.6,0.4-1.1,0.8-1.6,1
	c0.5,0.5,1,0.8,1.7,1.1c-0.2,0.2-0.4,0.4-0.5,0.6c-1.5-0.8-2.4-1.9-2.8-3.4h-0.7v2.7c0.4-0.2,0.8-0.4,1.4-0.7c0,0.2,0,0.5,0,0.6
	c-0.5,0.2-0.9,0.5-1.4,0.7c-0.1,0.1-0.2,0.2-0.4,0.3l-0.5-0.6c0.2-0.1,0.2-0.3,0.2-0.5L14.6,11.1L14.6,11.1L14.6,11.1z"/>
<rect x="15.2" y="11.7" class="st1" width="2.6" height="1.1"/>
<rect x="15.2" y="13.3" class="st1" width="2.6" height="1.1"/>
<g>
</g>
<g>
</g>
<g>
</g>
<g>
</g>
<g>
</g>
<g>
</g>
<g>
</g>
<g>
</g>
<g>
</g>
<g>
</g>
<g>
</g>
<g>
</g>
<g>
</g>
<g>
</g>
<g>
</g>
</svg>
