<?xml version="1.0" encoding="utf-8"?>
<!-- Generator: Adobe Illustrator 21.0.0, SVG Export Plug-In . SVG Version: 6.00 Build 0)  -->
<svg version="1.1" id="Layer_1" xmlns="http://www.w3.org/2000/svg" xmlns:xlink="http://www.w3.org/1999/xlink" x="0px" y="0px"
	 width="30px" height="30px" viewBox="0 0 30 30" enable-background="new 0 0 30 30" xml:space="preserve">
<g id="XMLID_2204_">
	<g id="XMLID_3430_">
		<path id="XMLID_3433_" fill="#FFFFFF" d="M14.8,29.3c-8,0-14.5-6.5-14.5-14.5S6.8,0.3,14.8,0.3s14.5,6.5,14.5,14.5
			S22.8,29.3,14.8,29.3z"/>
		<g id="XMLID_3431_">
			<path id="XMLID_3432_" fill="#305FA0" d="M15,1c7.7,0,14,6.3,14,14s-6.3,14-14,14S1,22.7,1,15S7.3,1,15,1 M15,0C6.7,0,0,6.7,0,15
				s6.7,15,15,15s15-6.7,15-15S23.3,0,15,0L15,0z"/>
		</g>
	</g>
	<path id="XMLID_2486_" fill="#305FA0" d="M25.1,13h-4.4c-1.4,0-2.6-1.2-2.6-2.6l0,0V8.9V8.8V4.9l-3-3.4L12,4.9v5.4
		c0,1.4-1.2,2.6-2.6,2.6H8.6l0,0H4.9l-3.2,2.8l3.2,2.9h4.4c1.4,0,2.6,1.2,2.6,2.6l0,0v6.6H18v-5v-0.1v-1.5c0-1.4,1.2-2.6,2.6-2.6H21
		l0,0h4l3.2-2.8L25.1,13L25.1,13z M11.5,18.1H9.4v-0.9h2.1V18.1z M11.5,16.9H9.4V16h2.1V16.9z M11.5,15.6H9.4v-0.9h2.1V15.6z
		 M11.5,14.4H9.4v-0.9h2.1V14.4z M13.3,20.4h-1.1v-2.1h1.1V20.4L13.3,20.4L13.3,20.4z M13.3,13.1h-1.1V11h1.1V13.1L13.3,13.1
		L13.3,13.1z M14.8,20.4h-1.1v-2.1h1.1V20.4z M14.8,13.1h-1.1V11h1.1V13.1z M16.3,20.4h-1.1v-2.1h1.1V20.4z M16.3,13.1h-1.1V11h1.1
		V13.1z M17.8,20.4h-1.1v-2.1h1.1V20.4z M17.8,13.1h-1.1V11h1.1V13.1z M20.6,18.1h-2.1v-0.9h2.1V18.1z M20.6,16.9h-2.1V16h2.1V16.9z
		 M20.6,15.6h-2.1v-0.9h2.1V15.6z M20.6,14.4h-2.1v-0.9h2.1V14.4z"/>
</g>
</svg>
