<?xml version="1.0" encoding="utf-8"?>
<!-- Generator: Adobe Illustrator 21.0.0, SVG Export Plug-In . SVG Version: 6.00 Build 0)  -->
<svg version="1.1" id="Layer_1" xmlns="http://www.w3.org/2000/svg" xmlns:xlink="http://www.w3.org/1999/xlink" x="0px" y="0px"
	 width="30px" height="30px" viewBox="0 0 30 30" enable-background="new 0 0 30 30" xml:space="preserve">
<g>
	<g id="XMLID_2850_">
		<path id="XMLID_2853_" fill="#FFFFFF" d="M15,29.3c-8,0-14.5-6.5-14.5-14.5S7,0.3,15,0.3s14.5,6.5,14.5,14.5S23,29.3,15,29.3z"/>
		<g id="XMLID_2851_">
			<path id="XMLID_2852_" fill="#305FA0" d="M15,1c7.7,0,14,6.3,14,14s-6.3,14-14,14S1,22.7,1,15S7.4,1,15,1 M15,0C6.7,0,0,6.7,0,15
				s6.7,15,15,15s15-6.7,15-15S23.4,0,15,0L15,0z"/>
		</g>
	</g>
	<rect id="XMLID_2847_" x="8.5" y="3.8" fill="#305FA0" width="2.4" height="22.4"/>
	<rect id="XMLID_2846_" x="2.7" y="10.9" fill="#305FA0" width="24.8" height="2.4"/>
	<path fill="none" stroke="#305FA0" stroke-width="2" stroke-miterlimit="10" d="M9.7,22.7c0,0,3.9-10.2,12.8-10.6"/>
</g>
</svg>
