<?xml version="1.0" encoding="utf-8"?>
<!-- Generator: Adobe Illustrator 21.0.0, SVG Export Plug-In . SVG Version: 6.00 Build 0)  -->
<svg version="1.1" id="Layer_1" xmlns="http://www.w3.org/2000/svg" xmlns:xlink="http://www.w3.org/1999/xlink" x="0px" y="0px"
	 width="30px" height="30px" viewBox="0 0 30 30" enable-background="new 0 0 30 30" xml:space="preserve">
<g>
	<g id="XMLID_2558_">
		<path fill="#FFFFFF" d="M15,29.5C7,29.5,0.5,23,0.5,15S7,0.5,15,0.5S29.5,7,29.5,15S23,29.5,15,29.5z"/>
		<g>
			<path fill="#FF001F" d="M15,1c7.7,0,14,6.3,14,14s-6.3,14-14,14S1,22.7,1,15S7.4,1,15,1 M15,0C6.7,0,0,6.7,0,15s6.7,15,15,15
				s15-6.7,15-15S23.4,0,15,0L15,0z"/>
		</g>
	</g>
	
		<rect id="XMLID_2557_" x="15.18" y="-0.178" transform="matrix(0.7071 -0.7071 0.7071 0.7071 -5.3174 15.6062)" fill="#F71934" width="2" height="28.8"/>
	<g>
		<path d="M18.8,19.2L18.8,19.2c0-1.1,0.9-2,2-2s2,0.9,2,2s-0.9,2-2,2S18.8,20.4,18.8,19.2L18.8,19.2z M6.6,19.2L6.6,19.2
			c0-1.1,0.9-2,2-2s2,0.9,2,2s-0.9,2-2,2S6.6,20.4,6.6,19.2L6.6,19.2z M25.3,7.2L25.3,7.2c0.3,0,0.5,0.2,0.5,0.5v11.1
			c0,0.3-0.2,0.5-0.5,0.5h-1.5c0-1.7-1.4-3-3-3c-1.7,0-3,1.4-3,3h-6c0-1.7-1.4-3-3-3c-1.7,0-3,1.4-3,3H4.3c-0.3,0-0.5-0.2-0.5-0.5
			v-4.4c0-0.3,0-0.7,0.1-1l3.6-4.8c0.2-0.2,0.6-0.4,0.8-0.4h4c0.3,0,0.5,0.2,0.5,0.5v7.5h1V7.7c0-0.3,0.2-0.5,0.5-0.5L25.3,7.2
			L25.3,7.2z M11.3,12.7L11.3,12.7v-2.5c0-0.3-0.2-0.5-0.5-0.5H8.4c-0.3,0-0.6,0.2-0.8,0.4l-1.8,2.6c-0.2,0.2-0.1,0.4,0.2,0.4h4.8
			C11.1,13.2,11.3,13,11.3,12.7L11.3,12.7z"/>
	</g>
</g>
</svg>
