<?xml version="1.0" encoding="utf-8"?>
<!-- Generator: Adobe Illustrator 21.0.0, SVG Export Plug-In . SVG Version: 6.00 Build 0)  -->
<svg version="1.1" id="Layer_1" xmlns="http://www.w3.org/2000/svg" xmlns:xlink="http://www.w3.org/1999/xlink" x="0px" y="0px"
	 width="30px" height="30px" viewBox="0 0 30 30" enable-background="new 0 0 30 30" xml:space="preserve">
<path id="XMLID_1883_" fill="#305FA0" d="M21.3,19.7v-1.5h5.1v1.6L21.3,19.7L21.3,19.7z M19.1,19.7h-3.7c-0.4,0-0.5-0.1-0.6-0.2
	c-0.1-0.1-0.1-0.1-0.2-0.2l-1.3-1v2.2H7.4v-4.4c0-1,0.2-1.4,1.3-1.4h3.1c0.8,0,1.4,0.5,1.7,1.1c0,0,0.1,0.1,0.3,0.2l2.2,2.1
	c0.1,0.1,0.1,0.1,0.1,0.1h2.8c0.5,0,0.9,0.4,0.9,0.7C19.8,19.3,19.6,19.7,19.1,19.7L19.1,19.7z M12.9,11.7c0,1.3-1.1,2.4-2.5,2.4
	S7.9,13,7.9,11.7S9,9.3,10.4,9.3S12.9,10.3,12.9,11.7L12.9,11.7z M15.4,6.5H5.1v16.9h10.3v-2.9h0.7v3.7H3.6V5.8h12.5v4.4h-0.7V7V6.5
	z"/>
</svg>
