<?xml version="1.0" encoding="utf-8"?>
<!-- Generator: Adobe Illustrator 21.0.0, SVG Export Plug-In . SVG Version: 6.00 Build 0)  -->
<svg version="1.1" id="Layer_1" xmlns="http://www.w3.org/2000/svg" xmlns:xlink="http://www.w3.org/1999/xlink" x="0px" y="0px"
	 width="30px" height="30px" viewBox="0 0 30 30" enable-background="new 0 0 30 30" xml:space="preserve">
<g id="XMLID_2952_">
	<g id="XMLID_2982_">
		<path id="XMLID_2985_" fill="#FFFFFF" d="M14.9,29.3c-8,0-14.5-6.5-14.5-14.5S6.9,0.3,14.9,0.3s14.5,6.5,14.5,14.5
			S22.9,29.3,14.9,29.3z"/>
		<g id="XMLID_2983_">
			<path id="XMLID_2984_" fill="#305FA0" d="M15,1c7.7,0,14,6.3,14,14s-6.3,14-14,14S1,22.7,1,15S7.4,1,15,1 M15,0C6.7,0,0,6.7,0,15
				s6.7,15,15,15s15-6.7,15-15S23.4,0,15,0L15,0z"/>
		</g>
	</g>
	<g id="XMLID_2953_">
		<rect id="XMLID_2981_" x="4.7" y="6.3" fill="#305FA0" width="20.8" height="2"/>
		<rect id="XMLID_2980_" x="4.7" y="10.8" fill="#305FA0" width="2" height="1.7"/>
		<rect id="XMLID_2979_" x="8.4" y="10.8" fill="#305FA0" width="2" height="1.7"/>
		<rect id="XMLID_2978_" x="11.7" y="10.8" fill="#305FA0" width="2" height="1.7"/>
		<rect id="XMLID_2977_" x="15.7" y="10.8" fill="#305FA0" width="2" height="1.7"/>
		<rect id="XMLID_2976_" x="21.2" y="10.8" fill="#305FA0" width="2" height="1.7"/>
		<rect id="XMLID_2975_" x="24.5" y="10.8" fill="#305FA0" width="0.9" height="1.7"/>
		<rect id="XMLID_2974_" x="4.7" y="8.7" fill="#305FA0" width="1.5" height="1.3"/>
		<rect id="XMLID_2973_" x="8.2" y="8.7" fill="#305FA0" width="1.5" height="1.3"/>
		<rect id="XMLID_2972_" x="11.7" y="8.7" fill="#305FA0" width="1.5" height="1.3"/>
		<rect id="XMLID_2971_" x="14.9" y="8.7" fill="#305FA0" width="1.5" height="1.3"/>
		<rect id="XMLID_2970_" x="17" y="8.7" fill="#305FA0" width="1.5" height="1.3"/>
		<rect id="XMLID_2969_" x="18.9" y="11.2" fill="#305FA0" width="1.5" height="1.3"/>
		<rect id="XMLID_2968_" x="20.2" y="8.7" fill="#305FA0" width="1.5" height="1.3"/>
		<rect id="XMLID_2967_" x="22.4" y="8.7" fill="#305FA0" width="1.5" height="1.3"/>
		<rect id="XMLID_2966_" x="24.2" y="8.7" fill="#305FA0" width="1.3" height="1.3"/>
		<rect id="XMLID_2965_" x="4.7" y="12.7" fill="#305FA0" width="20.8" height="2"/>
		<g id="XMLID_2954_">
			<line id="XMLID_2964_" fill="none" stroke="#305FA0" stroke-miterlimit="10" x1="5.7" y1="14.4" x2="15.8" y2="24.1"/>
			<line id="XMLID_2963_" fill="none" stroke="#305FA0" stroke-miterlimit="10" x1="11" y1="14.4" x2="20.6" y2="23.8"/>
			<line id="XMLID_2962_" fill="none" stroke="#305FA0" stroke-miterlimit="10" x1="15.9" y1="14.4" x2="25.2" y2="23.4"/>
			<line id="XMLID_2961_" fill="none" stroke="#305FA0" stroke-miterlimit="10" x1="25.2" y1="14.4" x2="15.4" y2="23.8"/>
			<line id="XMLID_2960_" fill="none" stroke="#305FA0" stroke-miterlimit="10" x1="19.7" y1="14.4" x2="10.4" y2="23.4"/>
			<line id="XMLID_2959_" fill="none" stroke="#305FA0" stroke-miterlimit="10" x1="14.7" y1="14.4" x2="5.4" y2="23.4"/>
			<line id="XMLID_2958_" fill="none" stroke="#305FA0" stroke-miterlimit="10" x1="9.7" y1="14.6" x2="4.7" y2="19.5"/>
			<line id="XMLID_2957_" fill="none" stroke="#305FA0" stroke-miterlimit="10" x1="25.3" y1="18.4" x2="20.2" y2="23.4"/>
			<line id="XMLID_2956_" fill="none" stroke="#305FA0" stroke-miterlimit="10" x1="5.2" y1="18.4" x2="10.7" y2="23.8"/>
			<line id="XMLID_2955_" fill="none" stroke="#305FA0" stroke-miterlimit="10" x1="20.7" y1="14.7" x2="25.4" y2="19.1"/>
		</g>
	</g>
</g>
</svg>
