<?xml version="1.0" encoding="utf-8"?>
<!-- Generator: Adobe Illustrator 21.0.0, SVG Export Plug-In . SVG Version: 6.00 Build 0)  -->
<svg version="1.1" id="Layer_1" xmlns="http://www.w3.org/2000/svg" xmlns:xlink="http://www.w3.org/1999/xlink" x="0px" y="0px"
	 width="30px" height="30px" viewBox="0 0 30 30" enable-background="new 0 0 30 30" xml:space="preserve">
<g>
	<g id="XMLID_3329_">
		<path fill="#FFFFFF" d="M15.042,29.467c-4.211,0-8.212-1.811-10.978-4.967c-2.761-3.15-3.975-7.194-3.419-11.384
			C1.528,6.642,6.657,1.513,13.116,0.646c0.608-0.074,1.229-0.113,1.841-0.113c4.212,0,8.214,1.811,10.979,4.967
			c2.761,3.151,3.975,7.194,3.418,11.385c-0.771,6.457-6.012,11.698-12.463,12.469C16.275,29.429,15.654,29.467,15.042,29.467z"/>
		<path fill="#DB915A" d="M14.958,1.033L14.958,1.033c4.067,0,7.931,1.748,10.601,4.796c2.664,3.041,3.836,6.944,3.298,11.002
			c-0.743,6.225-5.801,11.282-12.029,12.026c-0.594,0.073-1.195,0.11-1.786,0.11c-4.067,0-7.931-1.748-10.602-4.796
			c-2.664-3.041-3.836-6.944-3.3-10.986C1.994,6.932,6.946,1.979,13.172,1.143C13.765,1.07,14.366,1.033,14.958,1.033 M14.957,0.033
			c-0.628,0-1.264,0.038-1.907,0.117c-6.7,0.9-12,6.3-12.9,12.9c-1.215,9.157,5.952,16.917,14.893,16.917
			c0.628,0,1.264-0.038,1.907-0.117c6.7-0.8,12.1-6.2,12.9-12.9C31.065,7.793,23.898,0.033,14.957,0.033L14.957,0.033z"/>
	</g>
	<path id="XMLID_3328_" fill="#EDEDED" d="M24.05,25.35H6.15l2.2-22.1h13.4L24.05,25.35z"/>
	<path id="XMLID_3327_" fill="#E47200" d="M6.05,25.65L6.05,25.65c-0.2,0-0.3-0.2-0.3-0.4l2.2-22.1c0-0.2,0.2-0.3,0.3-0.3
		s0.3,0.2,0.3,0.4l-2.2,22.1C6.35,25.55,6.35,25.65,6.05,25.65z"/>
	<path id="XMLID_3326_" fill="#E47200" d="M22.25,3.15l2.2,22.1c0,0.2-0.2,0.4-0.3,0.4s-0.3-0.1-0.3-0.3l-2.2-22.1
		c0-0.2,0.1-0.4,0.3-0.4l0,0C22.05,2.85,22.25,2.95,22.25,3.15z"/>
	<path id="XMLID_3325_" fill="#E47200" d="M15.05,2.45c-0.2,0-0.3,0-0.3-0.1v-1.4c0,0,0.1-0.1,0.3-0.1s0.3,0,0.3,0.1v1.4
		C15.35,2.45,15.25,2.45,15.05,2.45z"/>
	<path id="XMLID_3324_" fill="#E47200" d="M15.05,4.65c-0.2,0-0.3,0-0.3-0.1v-1.4c0,0,0.1-0.1,0.3-0.1s0.3,0,0.3,0.1v1.4
		C15.35,4.65,15.25,4.65,15.05,4.65z"/>
	<path id="XMLID_3323_" fill="#E47200" d="M15.05,26.85c-0.2,0-0.3,0-0.3-0.1v-1.5c0,0,0.1-0.1,0.3-0.1s0.3,0,0.3,0.1v1.5
		C15.35,26.85,15.25,26.85,15.05,26.85z"/>
	<path id="XMLID_3322_" fill="#E47200" d="M15.05,29.05c-0.2,0-0.3,0-0.3-0.1v-1.5c0,0,0.1-0.1,0.3-0.1s0.3,0,0.3,0.1v1.5
		C15.35,29.05,15.25,29.05,15.05,29.05z"/>
	<g id="XMLID_3318_">
		<g id="XMLID_3319_">
			
				<text id="XMLID_3321_" transform="matrix(1 0 0 1 10.4243 12.4236)" fill="#E47200" font-family="'MicrosoftYaHei-Bold'" font-size="8.6376px">区</text>
			
				<text id="XMLID_3320_" transform="matrix(1 0 0 1 10.4243 22.824)" fill="#E47200" font-family="'MicrosoftYaHei-Bold'" font-size="8.6376px">域</text>
		</g>
	</g>
</g>
</svg>
