<?xml version="1.0" encoding="utf-8"?>
<!-- Generator: Adobe Illustrator 21.0.0, SVG Export Plug-In . SVG Version: 6.00 Build 0)  -->
<svg version="1.1" id="Layer_1" xmlns="http://www.w3.org/2000/svg" xmlns:xlink="http://www.w3.org/1999/xlink" x="0px" y="0px"
	 width="30px" height="30px" viewBox="0 0 30 30" enable-background="new 0 0 30 30" xml:space="preserve">
<g id="XMLID_1932_">
	<g id="XMLID_1933_">
		<path id="XMLID_1937_" fill="#231815" d="M24.238,15.5v2.9h-4c0.4,0.7,0.4,1.6,0,2.2h4.1v3.1h1.7l0.1-8.3L24.238,15.5z"/>
		<path id="XMLID_1936_" fill="#231815" d="M4.137,19.3l0.4,0.4l-0.6,0.6c-0.1,0.1-0.1,0.3,0,0.4l1.6,1.6c0.1,0.1,0.3,0.1,0.4,0
			l0.6-0.6l0.4,0.4l0.7-0.7l-2.9-2.9L4.137,19.3z"/>
		<path id="XMLID_1935_" fill="#231815" d="M19.238,18.5C19.238,18.4,19.238,18.4,19.238,18.5c-0.7-0.7-1.7-0.7-2.4,0
			c-0.6,0.6-0.6,1.7,0,2.3s1.7,0.6,2.3,0l0,0l0,0C19.938,20.1,19.938,19.1,19.238,18.5L19.238,18.5z"/>
		<path id="XMLID_1934_" fill="#231815" d="M16.637,6.6c-0.4-0.4-1.1-0.4-1.5,0l-9.6,9.6c-0.4,0.4-0.4,1.1,0,1.5l3.2,3.2
			c0.4,0.4,1.1,0.4,1.5,0l4.1-4.1l1.7,1.7c0.1-0.2,0.3-0.4,0.4-0.6c0.2-0.2,0.4-0.3,0.7-0.4l-1.7-1.7l4.4-4.4c0.4-0.4,0.4-1.1,0-1.5
			L16.637,6.6z"/>
	</g>
</g>
</svg>
