<?xml version="1.0" encoding="utf-8"?>
<!-- Generator: Adobe Illustrator 17.0.0, SVG Export Plug-In . SVG Version: 6.00 Build 0)  -->
<!DOCTYPE svg PUBLIC "-//W3C//DTD SVG 1.1//EN" "http://www.w3.org/Graphics/SVG/1.1/DTD/svg11.dtd">
<svg version="1.1"
	 id="svg2203" inkscape:output_extension="org.inkscape.output.svg.inkscape" sodipodi:version="0.32" sodipodi:docbase="D:\SVG\闂傚倸鍊搁崐鎼佸磹閹间礁纾归柟闂寸绾惧綊鏌熼梻瀵哥痪鎯х秺閺岀喖姊荤€靛摜鐥幆褏绉洪柡宀€鍠栧鑽も偓闈涙憸閻ュ箚瑜忕粔娲煛瀹€鈧崰鏍ч懡銈傚亾闂堟稒鎲搁柣銉ョ畾鐟滃繒绮斿ú鐓涚€光偓閳у窗閺嵮囨嚒閵堝倸浜鹃梻鍫熺⊕閹叉悂鏌ｉ妷銉ч悷婊冮叄瀹曠敻鍩€濮婅櫣鎷犻幓鎺戞瘣缂備礁寮堕崕鎶芥偩閻戣棄绠柤鎭掑劗閹疯櫣绱撻崒娆戝妽闁挎洏鍨藉濠氬即閵忕姴鑰垮┑鈩冮柣鐔村姂濮婄粯鎷呴悷鎵磼鐠囨彃鈧潡鐛繝鍌炲幢濞嗘垵楠勯梻浣告惈濞层劑宕板鍥ㄥ床闁糕剝绋掗悡蹇涙煕缁诲啴骞栭幇鏉跨柈闁归棿鐒﹂埛鎴犵磼鐎ｅ仴鐎规洘鍨挎俊鑸靛緞婵犲嫮鏆柣鐔哥矋濡啴鐛崘鐓涢柛娑欓梺璇插绾板秶鍠婂鍥ㄥ床婵炴垯鍨圭痪褔鏌熺€电浠х紒鈾€鍋撻梻浣圭湽閸ㄨ棄瑜庣粋鎺戦崟绠氶梺鑽ゅ暱閺呮盯鎮惧畡鎵虫斀閻庯絽绁梻渚€娼х换鎺撴叏閻戣姤鈷掑ù锝呮啞閸熺偟绱掔€ｇ伌闁规そ婵℃悂鍩℃担鍝勫箞闂備胶閹绘⒔閸曠厱闁圭儤閻撴洟鏌涢悩铏磳濠碘剝鎸抽獮鎺楀籍閸屾粣绱查梻浣虹帛钃辩憸鏉垮暣瀵娊鏌嗗鍡欏帗闁荤喐鐟ョ€氭倶鐎电硶鍋撻棃娑樺┑鐐靛帶缁绘﹢宕洪敓鐘茬闁告柨缍婂缁樻媴閸涘﹨纭€闂佺绨洪崐婵嬪蓟濞戙垹围闁告稒闂備礁鎼懟绮旈悷鎵殾鐎规洜鍠庨埢鎾诲醇閺囩啿鎷洪梺鍦ù鐑藉煀閺囩姷纾奸悹鍥ㄥ絻閺嗙喖鏌熼獮鍨仼闁宠棄閳诲酣骞囪倴闂傚倷绀侀幉锟犲箰閸℃稑绀冪痪鎹愭闇夐柨婵嗘搐閸斿鏌涢敐鍕祮闁归幉鎾礋濡牆鈹戦悙鏉戠祷濞存粍閳规垿鎮欓崣澶愭煙缁嬪潡骞冮敓鐘插嵆闁绘棁娅ｉ梻浣烘嚀闁稿孩鍨垮畷妤呭蓟閿熺姴鐒电紒缁樼箓闁告椴哥换婵嬫偨闂堟刀銏ゆ煕閻旂寮块悗骞垮劚闁" sodipodi:docname="闂傚倸鍊搁崐鎼佸磹閹间礁纾归柟闂寸绾惧綊鏌熼梻瀵哥痪鎯х秺閺岀喖姊荤€靛摜鐥幆褏绉洪柡宀€鍠栧鑽も偓闈涙憸閻ュ箚瑜忕粔娲煛瀹€鈧崰鏍ч懡銈傚亾闂堟稒鎲搁柣銉ョ畾鐟滃海鎷归敓鐘崇厓鐟滃酣宕甸埀鏌ｆ惔銏ｅ闂傚倻妫柟鍕憸鐗堝笚閻撴瑩鏌ｉ幋鐏绘倶閳哄懏鐓曞┑鐘插娴犺鲸鎱ㄦ繝鍐┿仢鐎规洖绀嬫繛鍫熲拺缂備焦锕㈤弫鍐偩閻戣棄绠ｉ柨鏇楀亾缂佺姵鐩弻锝呂旈埀鎮ц箛娑樺偍闁告鍋愰弨浠嬫煟閹扮骇缂傚倷鑳剁划鏁嬮梺浼欑秮閺€杈┾偓闈涖偢瀵爼骞嬮悩鍨緫缂傚倷鑳堕崑鎾崇暦濡綍娑㈠礋缁犳帡姊绘担鐟扮紒璇插€歌灋婵°倕鎳忛崐璺衡攽閻樺弶澶勯柣鎾存礃閹便劌螣閸濆嫮鐤勯梻鍌欐祰闁告垹鏅濠冪附缁嬭法闂佺粯鍨兼慨銈夊煕閹达附鐓熼柣鏃傞梺浼欑稻閻撴洟鏌曟繛鍨姢缂佸妞介弻娑㈠煛閸愩劋妲愬Δ鐘靛仜闁规櫆缁傚秵銈ｉ崘鈺冨弳濠电娀娼уΛ娑氱不閹惰棄绠归柡澶嬪煀瀹搞儵鏌嶇憴鍕伌闁规櫊瀹曠懓袙閸曠瘈闁搞劌鏀梻浣芥〃缁€渚€宕€涙ü绻嗛柤鎼佹涧缁剁偛鈹戦悩鎻掗柡瀣暣濮婄粯鎷呴懞銉х彾闁糕剝蓱濞呯姵淇婇妶鍛櫣闁汇倕澧界槐鎺旂磼濡偐鐣虹紓浣虹帛缁诲牆鐣烽幒鎴︽偪娓氣偓濮婄粯鎷呮慨鎰ㄥ亾閳ф煕鐎ｅ碍闂囧鏌ｅΟ鑽ゅ弨闁圭節瀹曟﹢鎮￠崘绾ч柣鎰綑闂傚倷绀侀幖螞鎼淬劌鍨傚┑鐘崇閸庡鈧娲橀崹鍧楃嵁濮椻偓瀹曟粍鎷呴悮瀵搁棷闂傚倷鑳堕柡鍫熷殞濡わ絽鍟悞鐢告煕韫囨棑鑰挎鐐诧工铻栭柛娑欑杺闂備焦鎮堕崝灞惧鎼淬劍鈷掗柛灞捐壘閳ф倐閹勭節閸曠厯闂佽宕樻慨瑙勭叀閺屾盯鍩勯崘鍣紒鐐劤閵堟悂骞冨Δ鍛櫜闁告洟姊绘担铏瑰笡闁圭鐖煎畷鎰旈崘鈺呮煙閻戞﹢宕戦幇鐗堢厾濠㈣泛绠嶉崝鎴濆ú浼犻柛鏇炲Ы缂傚倸鍊哥粔宕囨濮樿埖鍋樼€规洖鐖奸崺鈩冩媴閾忓湱鎽岄梻浣藉吹婵潙煤閿斿墽鐭堥柟鍓у摋闂佸吋浜介崕宕囩不妤ｅ啯鐓曟繛鍡楃箲閺呭爼鎮介崨濠勫幈闂佸啿鎼崯绂掓潏銊╂倷閺屻儱鏋侀柛宀€鍋為崵宥夋煏婢舵稑鐟滆埇鍔戝濠氬磼濞嗘垿鏌熷ù瀣у亾鐡掍焦妞藉鐣岀不濞插€甸柨婵嗘川濡插洨绱撴担绋库挃濠⒀勮ぐ婊堟⒑缁嬪潡骞戦崶宓侀幖娣妽閸ゅ秹鏌曟竟鍟粻銉╂⒒閸屾瑨鍏岄梻浣告贡閹虫挸煤閹澘娴犲惟闁挎柨澧借倴闂傚倷绀侀幉锟犲箰閸℃稑绀嬮弶鈺傦耿濮婂宕掑▎鎺戝帯缂備胶婵犵數濮甸懝鍓х不閺屻儲鐓曢柕澶堝妽閹蹭即姊绘担鐟扮紒璇插€块弻娑氣偓锝呴梺鍝勬湰缁嬫垿鍩㈡惔銈囩杸闁哄洨濮烽獮鎾斥攽閻愭潙鐏熼柛銊︽そ閸╂盯骞嬮悩鐢碉紲闁诲函绲芥禒鏉懳旈悩闈涗沪闁告梹娲滈埀鍘滈崑鎾绘煃瑜忛梻浣盒ｉ柍閿嬪笒闇夐柨婵嗘噺閸熺偤鏌涢悢鍝勪槐闁哄本鐩鍩€閹囧即閻愯尙銈┑鐘甸弨缁樹繆閻愭壆鐭欑€靛畷銊р偓娑櫭埀鍏橀弻鐔虹磼濡儤璇為梺鍝勬湰缁嬫垼鐏掗梺绋跨箰閸氬袙閸績鏀介柨鏇樺劚濞寸姴缁犵姵绻濋棃娑氱棯瑜旈弻娑㈠Ω閵夈儱濠" inkscape:version="0.45.1" xmlns:sodipodi="http://sodipodi.sourceforge.net/DTD/sodipodi-0.dtd" xmlns:dc="http://purl.org/dc/elements/1.1/" xmlns:cc="http://web.resource.org/cc/" xmlns:inkscape="http://www.inkscape.org/namespaces/inkscape" xmlns:rdf="http://www.w3.org/1999/02/22-rdf-syntax-ns#" xmlns:svg="http://www.w3.org/2000/svg"
	 xmlns="http://www.w3.org/2000/svg" xmlns:xlink="http://www.w3.org/1999/xlink" x="0px" y="0px" width="30px" height="30px"
	 viewBox="0 0 30 30" enable-background="new 0 0 30 30" xml:space="preserve">
<sodipodi:namedview  inkscape:pageopacity="0.0" inkscape:pageshadow="2" inkscape:document-units="px" inkscape:window-x="-4" inkscape:window-y="-4" inkscape:window-width="1280" inkscape:window-height="968" inkscape:guide-bbox="true" inkscape:current-layer="layer1" showguides="true" bordercolor="#666666" inkscape:cy="646.08493" gridtolerance="10000" id="base" borderopacity="1.0" objecttolerance="10" pagecolor="#ffffff" inkscape:cx="126.79097" inkscape:zoom="0.74999999" guidetolerance="10">
	<sodipodi:guide  position="1116" orientation="vertical" id="guide22942"></sodipodi:guide>
	<sodipodi:guide  position="1147" orientation="vertical" id="guide22944"></sodipodi:guide>
</sodipodi:namedview>
<g>
	
		<rect x="5.078" y="5.078" fill="none" stroke="#231815" stroke-width="1.9843" stroke-miterlimit="10" width="19.843" height="19.845"/>
	<g>
		<path d="M15.688,15.069c0-1.869,0.31-3.282,0.93-4.242s1.521-1.438,2.693-1.438c2.242,0,3.36,1.809,3.36,5.428
			c0,1.787-0.313,3.152-0.944,4.101c-0.632,0.943-1.52,1.418-2.656,1.418c-1.076,0-1.908-0.449-2.499-1.35
			C15.98,18.087,15.688,16.781,15.688,15.069z"/>
		<path fill="#FFFFFF" d="M17.055,15.008c0,2.812,0.713,4.218,2.14,4.218c1.404,0,2.105-1.429,2.105-4.286
			c0-2.958-0.688-4.437-2.064-4.437C17.781,10.503,17.055,12.004,17.055,15.008z"/>
	</g>
	<g>
		<path d="M13.979,20.242H7.54V19.08l3.076-3.069c0.848-0.848,1.415-1.521,1.702-2.013c0.287-0.494,0.431-1.009,0.431-1.535
			c0-0.604-0.168-1.063-0.506-1.387c-0.338-0.318-0.825-0.479-1.463-0.479c-0.943,0-1.843,0.401-2.7,1.203v-1.36
			c0.834-0.643,1.808-0.964,2.912-0.964c0.953,0,1.705,0.257,2.256,0.771c0.554,0.515,0.827,1.208,0.827,2.075
			c0,0.656-0.177,1.303-0.53,1.934s-1.021,1.435-2.006,2.41l-2.413,2.355v0.027h4.854L13.979,20.242L13.979,20.242z"/>
	</g>
	<g>
		
			<line fill="none" stroke="#000000" stroke-width="0.5" stroke-linecap="round" stroke-linejoin="round" x1="5.116" y1="20.254" x2="20.494" y2="4.829"/>
		
			<line fill="none" stroke="#000000" stroke-width="0.5" stroke-linecap="round" stroke-linejoin="round" x1="5.093" y1="22.609" x2="22.397" y2="5.253"/>
		
			<line fill="none" stroke="#000000" stroke-width="0.5" stroke-linecap="round" stroke-linejoin="round" x1="5.617" y1="24.317" x2="24.03" y2="5.848"/>
		
			<line fill="none" stroke="#000000" stroke-width="0.5" stroke-linecap="round" stroke-linejoin="round" x1="7.31" y1="24.956" x2="24.623" y2="7.591"/>
		
			<line fill="none" stroke="#000000" stroke-width="0.5" stroke-linecap="round" stroke-linejoin="round" x1="9.474" y1="25.171" x2="24.907" y2="9.69"/>
	</g>
</g>
</svg>
