<?xml version="1.0" encoding="utf-8"?>
<!-- Generator: Adobe Illustrator 21.0.0, SVG Export Plug-In . SVG Version: 6.00 Build 0)  -->
<svg version="1.1" id="Layer_1" xmlns="http://www.w3.org/2000/svg" xmlns:xlink="http://www.w3.org/1999/xlink" x="0px" y="0px"
	 width="30px" height="30px" viewBox="0 0 30 30" enable-background="new 0 0 30 30" xml:space="preserve">
<g>
	<polygon id="XMLID_624_" fill="#231815" points="0.774,22.177 0,21.401 20.806,0.071 21.581,0.653 	"/>
	<polygon id="XMLID_587_" fill="#231815" points="0.774,25.086 0.194,24.116 23.419,0.168 24.29,1.04 	"/>
	<polygon id="XMLID_572_" fill="#231815" points="0.968,28.867 0,27.897 26.903,0.168 28.065,0.846 	"/>
	<polygon id="XMLID_570_" fill="#231815" points="3.774,29.934 2.71,29.158 29.129,1.913 30,2.883 	"/>
	<polygon id="XMLID_567_" fill="#231815" points="29.233,5.73 29.997,6.465 7.147,29.794 6.384,29.059 	"/>
	<polygon id="XMLID_566_" fill="#231815" points="29.166,9.152 29.866,9.822 10.112,29.934 9.412,29.263 	"/>
	<g>
		<path d="M29,1v28H1V1H29 M30,0H0v30h30V0L30,0z"/>
	</g>
	<g>
		<path d="M8.4,21.1c1.5,0.9,3,1.4,4.6,1.4c1.2,0,2.2-0.3,3-0.9c0.8-0.6,1.1-1.5,1.1-2.5c0-2.2-1.5-3.3-4.6-3.3
			c-0.9,0-2.1,0.1-3.5,0.2V4.2h11.6v3.7h-7.8v4.5c0.5-0.1,1.1-0.1,1.8-0.1c2.1,0,3.8,0.6,5.1,1.7c1.3,1.1,1.9,2.7,1.9,4.7
			c0,2.2-0.7,4-2.2,5.3s-3.5,2-5.9,2c-2.1,0-3.8-0.3-5.1-0.9L8.4,21.1L8.4,21.1z"/>
	</g>
</g>
</svg>
