<?xml version="1.0" encoding="utf-8"?>
<!-- Generator: Adobe Illustrator 17.0.0, SVG Export Plug-In . SVG Version: 6.00 Build 0)  -->
<!DOCTYPE svg PUBLIC "-//W3C//DTD SVG 1.1//EN" "http://www.w3.org/Graphics/SVG/1.1/DTD/svg11.dtd">
<svg version="1.1"
	 id="svg2203" inkscape:output_extension="org.inkscape.output.svg.inkscape" sodipodi:version="0.32" sodipodi:docbase="D:\SVG\闂傚倸鍊搁崐鎼佸磹閹间礁纾归柟闂寸绾惧綊鏌熼梻瀵哥痪鎯х秺閺岀喖姊荤€靛摜鐥幆褏绉洪柡宀€鍠栧鑽も偓闈涙憸閻ュ箚瑜忕粔娲煛瀹€鈧崰鏍ч懡銈傚亾闂堟稒鎲搁柣銉ョ鐟滃酣宕甸埀姊虹拠鎻掑毐缂佸弶鍎抽悾鐑藉箮閼恒儮鎷虹紓鍌欑劍閿曘垽寮婚弴銏犲耿婵℃閻熴劑姊绘担鐟扮紒璇插€块獮濠傞崱娆戝骄闂佸搫娲ㄩ崰宥囨崲閸℃稒鐓忛柛绻冮幖鎰板疮閹间焦鈷戠紒瀣健瀹曟垿濡舵径濠勭暫閻熸粍妫冮獮鍐煛閸涙闁诲孩纰嶇喊宥囨崲濞戙垹绾ч柟瀵稿仧缁♀偓闂佹眹鍨藉褎绂掑鍕箚闁荤啿鏅涢悾宄扳攽鐎ｅ祮闂侀潧绻掓慨鐑芥⒒娴ｅ憡鍟炵紒瀣灴閹椽濡搁埡浣哄幈闂佺鎻梽鍕煕閹烘鐓曢柛鐘虫崌婵℃挳骞掗弮鍌滐紲闂佺粯蓱瑜板啴寮抽柆宥嗙厓閻熸瑥瀚悘瀵糕偓闈涘婵炵厧绻橀崺锟犲礃閸斿綊姊绘担鍛婅础闁稿簺鍊濋弻娑㈠Χ閸涙闂佸搫鑻粔鐟扮暦瀹曠喎鈻撻崼鏇熲拺闁圭娴烽埊鏇犵磼鐠囨彃鏆熼柟骞垮灩閳藉鈻庨幇肖闂備礁鎲￠幐鍡涘礃绾捐棄霉閿濆洤鍔嬮柛锝勫嵆閹鎲撮崟妯堝┑鐐村絻娴滄鈹戦悙鍙夐柟绋块幃锟犲即閻旇櫣闂佺懓閸庢垿宕楅弻锟犲焵缁绘繂閸樿鲸绻濋悽闈浶㈤柛鐔稿弿鐎广儱閻" sodipodi:docname="闂傚倸鍊搁崐鎼佸磹閹间礁纾归柟闂寸绾惧綊鏌熼梻瀵哥痪鎯х秺閺岀喖姊荤€靛摜鐥幆褏绉洪柡宀€鍠栧鑽も偓闈涙憸閻ュ箚瑜庣拹锟犳煃瑜庨崵鈧柣搴㈣壘闂傜棯閹勭瑜版帗鐓欓柣鎴灻悘鈺呮煕婵犲嫬浠辨慨濠冩そ瀹曞礋濞堟⒑缂佹﹢鏁冮悾鐑藉箣閿曗偓缁犳盯鏌ｅΔ鈧悧蹇涘储閸楃偐鏀介柣鎰级缂備胶绮敋闁伙綁鏀辩€靛ジ寮堕幋鐘垫澑缂備胶鍋撳畷妯何涢崟绠掗梻浣瑰缁诲倸螞濡ゅ懏鍊跺┑鐘叉处閻撴洘鎱ㄥΟ鍝勭疄闂備浇閸戠晫寰婃總绋跨闁绘垼濮ら埛鎴︽煟閻旂闁伙絾鐓曢柕濞垮劤缁夋椽鏌涢埡鍐ㄤ槐妤犵偛閹晜绂嶆ィ鍐╃叆婵犻潧妫涚粻鎶藉箹閺夋埊宸ラ柍瑙勫灴閹晠宕瑰В鍕節閸ㄥ攭闂佽桨绀侀崯瀛樹繆閼搁潧绶炲┑鐘插閺嬪啴姊绘担鑺ョ珶閸℃ɑ娅犳俊銈呮噹閻ゅ墽绱掔紒妯肩畺缂佺粯绻堝畷鎺戦悿渚€姊绘担濮愨偓鈧柛瀣尭闇夐柣妯荤叀閹繝宕橀悡鍐级閻愭潙闂備礁鎼Λ搴ㄥ垂婵犳碍鍎夌€规洘鍨块獮姗€宕滄担鐚寸闯闂備胶閺堟嚌妤ｅ啫鐒甸柛蹇旓耿楠炲﹤螖閸涙疂闂佹悶鍔屾导搴ㄦ⒒閸屾艾鈧悂鎮ф繝鍕煓闁规崘濮规煡鏌涢埄鍐噮缁炬儳銈搁幃妤呮晲閸曢梻浣虹帛閹稿爼宕愬Δ鍐╅柟鐑橀崑鎰版煠婢跺箍鍔戝娲传閸曞姽缂傚倸绉崇欢姘舵偘瀹曞爼鍩℃担铏圭摌闂佽崵濮村ú锔剧矈閹剧哗闁兼亽鍎崇粻楣冩煕濞嗗繑鏅堕悽鍛婄厱闁冲搫鍟禒杈ㄩ悙鏌ュ极閸岀偞鍤嶉柕澶涘瑜般劑姊婚崒娆戦柟娴嬧偓瓒佹椽寮界粻娲倵閿濆洨妲囩紓浣稿⒔婢ф褰滈梺绋块幑鍥嵁鎼淬劍鍤嶉柕澹啫绠ラ梻鍌欒兌闂佸湱鎳撳ú鎮板浠嬪Ω閿斿墽肖闂備礁鎲￠幐鍡涘礋鏉╂﹢姊婚崒娆掑厡缂佺濠电姵鑹剧粻鏌ユ煕閵夈劍鎲伴梻浣瑰缁诲倿鏌涚€ｅ闁哄本绋戦埢搴ょ疀閺囩姷骞撳┑鐐村灟閸ㄦ椽鍩涢幋鐘电＜閻庯絽浠村Δ鐘靛仦閸旀洜鈧厜鍋撻柍褏闂佺У閳锋帒霉閿濆懏鍟為柛鐔哄仱閺屾盯寮埀鎮ч弴鐐茬カ婵犵鏀绘俊鐐扮矙瀵宕ㄧ€涙ê鈧兘鏌熺紒妯烘诞闁哄本绋戣灒闁稿繐鍚嬪В鍫濃攽閿曘儱娴犲绠犳繝闈涚痪褔鏌涢妸銉ュ婵" inkscape:version="0.45.1" xmlns:sodipodi="http://sodipodi.sourceforge.net/DTD/sodipodi-0.dtd" xmlns:dc="http://purl.org/dc/elements/1.1/" xmlns:cc="http://web.resource.org/cc/" xmlns:inkscape="http://www.inkscape.org/namespaces/inkscape" xmlns:rdf="http://www.w3.org/1999/02/22-rdf-syntax-ns#" xmlns:svg="http://www.w3.org/2000/svg"
	 xmlns="http://www.w3.org/2000/svg" xmlns:xlink="http://www.w3.org/1999/xlink" x="0px" y="0px" width="30px" height="30px"
	 viewBox="0 0 30 30" enable-background="new 0 0 30 30" xml:space="preserve">
<sodipodi:namedview  inkscape:pageopacity="0.0" inkscape:pageshadow="2" inkscape:document-units="px" inkscape:window-x="-4" inkscape:window-y="-4" inkscape:window-width="1280" inkscape:window-height="968" inkscape:guide-bbox="true" inkscape:current-layer="layer1" showguides="true" bordercolor="#666666" inkscape:cy="646.08493" gridtolerance="10000" id="base" borderopacity="1.0" objecttolerance="10" pagecolor="#ffffff" inkscape:cx="126.79097" inkscape:zoom="0.74999999" guidetolerance="10">
	<sodipodi:guide  position="1116" orientation="vertical" id="guide22942"></sodipodi:guide>
	<sodipodi:guide  position="1147" orientation="vertical" id="guide22944"></sodipodi:guide>
</sodipodi:namedview>
<g>
	
		<rect x="5.078" y="5.078" fill="none" stroke="#000000" stroke-width="1.9843" stroke-miterlimit="10" width="19.843" height="19.845"/>
	<g>
		<path d="M15.611,19.152c0.711,0.465,1.452,0.697,2.222,0.697c0.729,0,1.317-0.204,1.766-0.612c0.445-0.405,0.67-0.946,0.67-1.624
			c0-0.679-0.229-1.206-0.682-1.579c-0.451-0.373-1.109-0.561-1.972-0.561c-0.415,0-0.973,0.032-1.675,0.096v-5.38h5.209v1.186
			h-3.966v2.991c0.396-0.021,0.693-0.031,0.896-0.031c1.117,0,1.987,0.28,2.611,0.848c0.624,0.563,0.937,1.344,0.937,2.338
			c0,1.025-0.335,1.854-1.005,2.488c-0.67,0.633-1.595,0.95-2.773,0.95c-0.989,0-1.734-0.146-2.235-0.438L15.611,19.152
			L15.611,19.152z"/>
	</g>
	<g>
		<path d="M14.632,10.744l-4.145,10.124H9.103l3.938-9.403H7.75v-1.186h6.886L14.632,10.744L14.632,10.744z"/>
	</g>
	<g>
		
			<line fill="none" stroke="#000000" stroke-width="0.5" stroke-linecap="round" stroke-linejoin="round" x1="5.116" y1="20.254" x2="20.494" y2="4.829"/>
		
			<line fill="none" stroke="#000000" stroke-width="0.5" stroke-linecap="round" stroke-linejoin="round" x1="5.093" y1="22.609" x2="22.396" y2="5.253"/>
		
			<line fill="none" stroke="#000000" stroke-width="0.5" stroke-linecap="round" stroke-linejoin="round" x1="5.617" y1="24.317" x2="24.03" y2="5.848"/>
		
			<line fill="none" stroke="#000000" stroke-width="0.5" stroke-linecap="round" stroke-linejoin="round" x1="7.31" y1="24.956" x2="24.621" y2="7.591"/>
		
			<line fill="none" stroke="#000000" stroke-width="0.5" stroke-linecap="round" stroke-linejoin="round" x1="9.474" y1="25.171" x2="24.907" y2="9.69"/>
	</g>
</g>
</svg>
