<?xml version="1.0" encoding="utf-8"?>
<!-- Generator: Adobe Illustrator 21.0.0, SVG Export Plug-In . SVG Version: 6.00 Build 0)  -->
<svg version="1.1" id="Layer_1" xmlns="http://www.w3.org/2000/svg" xmlns:xlink="http://www.w3.org/1999/xlink" x="0px" y="0px"
	 width="30px" height="30px" viewBox="0 0 30 30" enable-background="new 0 0 30 30" xml:space="preserve">
<g>
	<g id="XMLID_2035_">
		
			<text id="XMLID_2453_" transform="matrix(1 0 0 1 9.4143 20.2417)" fill="#305FA0" font-family="'MicrosoftYaHei-Bold'" font-size="11.3853px">限</text>
	</g>
	<path id="XMLID_2036_" fill="none" stroke="#305FA0" stroke-miterlimit="10" d="M4.55,24.25h21.9c1.7-1,2.8-2.8,2.8-4.9
		c0-3.1-2.5-5.7-5.7-5.7c-0.5,0-0.9,0.1-1.3,0.2c0-0.3,0-0.5,0-0.8c0-4-3.3-7.3-7.3-7.3c-3.4,0-6.3,2.4-7.1,5.6c-0.1,0-0.1,0-0.2,0
		c-3.8,0-6.9,3.1-6.9,6.9C0.85,20.75,2.35,23.05,4.55,24.25z"/>
</g>
</svg>
