<?xml version="1.0" encoding="UTF-8"?>
<svg width="22px" height="20px" viewBox="0 0 22 20" version="1.1" xmlns="http://www.w3.org/2000/svg" xmlns:xlink="http://www.w3.org/1999/xlink">
    <!-- Generator: Sketch 41.2 (35397) - http://www.bohemiancoding.com/sketch -->
    <title>形态_障碍物</title>
    <desc>Created with Sketch.</desc>
    <defs></defs>
    <g id="Page-1" stroke="none" stroke-width="1" fill="none" fill-rule="evenodd">
        <g id="形态_障碍物">
            <path d="M0.582,15.606 L1,16.791 C1,16.791 4.393,15.152 4.847,14.938 C5.302,14.713 5.742,14.36 5.917,14.081 C6.118,13.807 7.224,12.183 7.224,12.183 L8.766,19.072 L9.895,19.014 L9.134,9.925 L10.175,7.494 L12.298,9.911 L13.205,9.297 L10.194,4.818 C9.981,4.45 9.605,4.105 9.153,3.985 C8.672,3.862 8.152,4.001 7.745,4.262 L5.097,6.042 L3.856,8.766 L4.794,9.158 L6.147,7.043 L6.585,6.911 L6.237,8.891 L4.368,13.253 L0.582,15.606 Z" id="Shape" fill="#000000"></path>
            <path d="M9.668,0.566 C10.353,0.566 10.909,1.126 10.909,1.81 C10.909,2.494 10.352,3.051 9.668,3.051 C8.982,3.051 8.426,2.494 8.426,1.81 C8.426,1.126 8.983,0.566 9.668,0.566 Z" id="Shape" fill="#000000"></path>
            <polygon id="Shape" stroke="#DF0020" fill="#FF701F" points="15.201 9.853 9.862 18.288 21.02 18.288"></polygon>
        </g>
    </g>
</svg>