<?xml version="1.0" encoding="utf-8"?>
<!-- Generator: Adobe Illustrator 21.0.0, SVG Export Plug-In . SVG Version: 6.00 Build 0)  -->
<svg version="1.1" id="Layer_1" xmlns="http://www.w3.org/2000/svg" xmlns:xlink="http://www.w3.org/1999/xlink" x="0px" y="0px"
	 width="30px" height="30px" viewBox="0 0 30 30" enable-background="new 0 0 30 30" xml:space="preserve">
<g id="XMLID_1095_">
	<path fill="#FFFFFF" d="M15,29.5C7.005,29.5,0.5,22.995,0.5,15S7.005,0.5,15,0.5S29.5,7.005,29.5,15S22.995,29.5,15,29.5z"/>
	<path fill="#FF001F" d="M15,1c7.72,0,14,6.28,14,14s-6.28,14-14,14S1,22.72,1,15S7.28,1,15,1 M15,0C6.716,0,0,6.716,0,15
		s6.716,15,15,15s15-6.716,15-15S23.284,0,15,0L15,0z"/>
</g>
<g id="XMLID_1093_">
	<text id="XMLID_1094_" transform="matrix(1 0 0 1 4.9999 20.9861)" font-family="'MicrosoftYaHei-Bold'" font-size="20px">限</text>
</g>
</svg>
