<?xml version="1.0" encoding="utf-8"?>
<!-- Generator: Adobe Illustrator 21.0.0, SVG Export Plug-In . SVG Version: 6.00 Build 0)  -->
<svg version="1.1" id="Layer_1" xmlns="http://www.w3.org/2000/svg" xmlns:xlink="http://www.w3.org/1999/xlink" x="0px" y="0px"
	 width="30px" height="30px" viewBox="0 0 30 30" enable-background="new 0 0 30 30" xml:space="preserve">
<g>
	<g id="XMLID_3194_">
		<path fill="#305FA0" d="M15,1c7.72,0,14,6.28,14,14s-6.28,14-14,14S1,22.72,1,15S7.28,1,15,1 M15,0C6.716,0,0,6.716,0,15
			s6.716,15,15,15s15-6.716,15-15S23.284,0,15,0L15,0z"/>
	</g>
	<path id="XMLID_3193_" fill="#305FA0" d="M13.8,10.7c-1,0-2.1,0.6-2.2,1.6l0.8,1.8c0.7,0.5,1.8,1,2.2,1.5h-4.5H9.9
		c-0.6,0-1.2,0.5-1.2,1.2l0,0c0,0.5,0.3,0.9,0.7,1.1c-0.4,0.2-0.6,0.6-0.6,1l0,0c0,0.5,0.4,1,0.9,1.1c-0.2,0.2-0.3,0.5-0.3,0.8l0,0
		c0,0.6,0.5,1.2,1.2,1.2l0,0c-0.2,0.2-0.3,0.5-0.3,0.8l0,0c0,0.6,0.5,1.2,1.2,1.2h2.3h2.9l0,0l1-1l3.2-0.3v1.5h4.3v-9h-4.3v1.1h-1.5
		C18.7,13.4,14.4,13.6,13.8,10.7L13.8,10.7z M11,10.6l-0.5,0.5l1.8,4.1H9.4l-1.3-3c-1,0.1-2.1-0.1-2.9-0.8C4.7,9.7,4.8,8.3,5.1,7.2
		C5.3,7.1,5.5,7.1,5.7,7c0.3,0.9,0.7,1.8,1,2.7c1.1,0.1,1.9-0.3,2.7-1C9.1,7.8,8.7,6.9,8.4,6C8.6,5.9,8.8,5.9,9,5.8
		c1,0.7,2,1.6,2.8,3.2C11.8,9.5,11.4,10.1,11,10.6L11,10.6z M13.7,24.3l0.5,1.1c0.5,0.9,2.5,0.7,2.7-0.4l-0.3-0.7L13.7,24.3
		L13.7,24.3z"/>
</g>
</svg>
