<?xml version="1.0" encoding="utf-8"?>
<!-- Generator: Adobe Illustrator 21.0.0, SVG Export Plug-In . SVG Version: 6.00 Build 0)  -->
<svg version="1.1" id="Layer_1" xmlns="http://www.w3.org/2000/svg" xmlns:xlink="http://www.w3.org/1999/xlink" x="0px" y="0px"
	 width="30px" height="30px" viewBox="0 0 30 30" enable-background="new 0 0 30 30" xml:space="preserve">
<g>
	<ellipse id="XMLID_3504_" fill="#B3CFFF" cx="15.1" cy="27.2" rx="7.5" ry="2.8"/>
	<path id="XMLID_3503_" fill="#305FA0" d="M15,26.6C13.3,26.6,5,14.2,5,10C5,4.4,9.5,0,15,0s10,4.4,10,10
		C25.1,14.1,16.7,26.6,15,26.6z"/>
	<path id="XMLID_3502_" fill="#305FA0" d="M15,1.7c-4.6,0-8.3,3.7-8.3,8.3c0,3.5,6.9,14.2,8.3,14.1c1.4,0,8.3-10.7,8.3-14.1
		C23.4,5.4,19.6,1.7,15,1.7z"/>
	<path id="XMLID_3500_" fill="#305FA0" d="M15,14.2c-2.3,0-4.1-1.9-4.1-4.1S12.8,6,15,6c2.3,0,4.1,1.9,4.1,4.1S17.4,14.2,15,14.2z"
		/>
	<path id="XMLID_3498_" fill="#305FA0" d="M15,7.5c-1.4,0-2.5,1.1-2.5,2.5s1.1,2.5,2.5,2.5s2.5-1.1,2.5-2.5
		C17.6,8.7,16.4,7.5,15,7.5z"/>
	<circle id="XMLID_1044_" fill="#FFFFFF" stroke="#305FA0" stroke-miterlimit="10" cx="15" cy="9.9" r="7.4"/>
	<g enable-background="new    ">
		<path fill="#FF7C48" d="M19.9,14h-2.3l-0.7-2.3h-3.6L12.6,14h-2.3l3.6-9.9h2.5L19.9,14z M16.4,10.1l-1.1-3.4
			c-0.1-0.2-0.1-0.5-0.2-0.9H15c0,0.3-0.1,0.6-0.2,0.8l-1.1,3.5L16.4,10.1L16.4,10.1z"/>
	</g>
</g>
</svg>
