<?xml version="1.0" encoding="utf-8"?>
<!-- Generator: Adobe Illustrator 17.0.0, SVG Export Plug-In . SVG Version: 6.00 Build 0)  -->
<!DOCTYPE svg PUBLIC "-//W3C//DTD SVG 1.1//EN" "http://www.w3.org/Graphics/SVG/1.1/DTD/svg11.dtd">
<svg version="1.1"
	 id="svg2203" xmlns:rdf="http://www.w3.org/1999/02/22-rdf-syntax-ns#" xmlns:cc="http://web.resource.org/cc/" xmlns:inkscape="http://www.inkscape.org/namespaces/inkscape" xmlns:sodipodi="http://sodipodi.sourceforge.net/DTD/sodipodi-0.dtd" xmlns:dc="http://purl.org/dc/elements/1.1/" xmlns:svg="http://www.w3.org/2000/svg" sodipodi:version="0.32" inkscape:version="0.45.1" sodipodi:docname="闂傚倷娴囧Δ鐘叉憸缁辩偞绻濋崒婊呯＜婵℃贡缁犳岸姊洪幖鐐插姕婵＄偠妫勯悾椋庣矙鐠囩偓妫冮崺鈧柟鑻痝" sodipodi:docbase="D:\SVG\闂傚倸鍊风粈渚€骞栭弻娑欐償閵忕姷浠肩紓浣介哺閹告悂鏌" inkscape:output_extension="org.inkscape.output.svg.inkscape"
	 xmlns="http://www.w3.org/2000/svg" xmlns:xlink="http://www.w3.org/1999/xlink" x="0px" y="0px" width="30px" height="30px"
	 viewBox="0 0 30 30" enable-background="new 0 0 30 30" xml:space="preserve">
<sodipodi:namedview  borderopacity="1.0" guidetolerance="10" inkscape:zoom="0.74999999" inkscape:cy="646.08493" showguides="true" id="base" gridtolerance="10000" bordercolor="#666666" objecttolerance="10" inkscape:cx="126.79097" pagecolor="#ffffff" inkscape:pageopacity="0.0" inkscape:pageshadow="2" inkscape:document-units="px" inkscape:current-layer="layer1" inkscape:window-width="1280" inkscape:window-height="968" inkscape:window-y="-4" inkscape:window-x="-4" inkscape:guide-bbox="true">
	<sodipodi:guide  orientation="vertical" position="1116" id="guide22942"></sodipodi:guide>
	<sodipodi:guide  orientation="vertical" position="1147" id="guide22944"></sodipodi:guide>
</sodipodi:namedview>
<g>
	<path fill="#FF0000" d="M16.356,21.21V10.773c0,0-4.465-4.749-8.273,0v10.392L16.356,21.21z"/>
	<path fill="#FFFFFF" d="M15.556,20.268v-8.979c0,0-3.883-4.089-7.193,0v8.938L15.556,20.268z"/>
	<path fill="#FF0000" d="M2.912,21.21l0.05-7.101c0,0,4.277-7.052,9.869,0v7.053L2.912,21.21z"/>
	<path fill="#FFFFFF" d="M3.758,21.21l0.037-6.319c0,0,3.549-6.273,8.188,0v6.275L3.758,21.21z"/>
	<rect x="5.018" y="16.976" fill="#FF0000" width="5.453" height="4.233"/>
	<rect x="5.77" y="17.682" fill="#FFFFFF" width="3.996" height="3.527"/>
	<g enable-background="new    ">
		<path d="M21.368,21.21h-3.254v-7.563h3.117v0.869h-2.336v2.422h2.164v0.864h-2.164v2.544h2.473V21.21z"/>
		<path d="M27.086,20.692c-0.604,0.431-1.287,0.646-2.049,0.646c-0.875,0-1.578-0.347-2.113-1.038
			c-0.535-0.692-0.805-1.615-0.805-2.771c0-1.168,0.295-2.129,0.889-2.881c0.592-0.752,1.349-1.128,2.271-1.128
			c0.654,0,1.207,0.13,1.66,0.391v1.056c-0.484-0.381-1.061-0.571-1.729-0.571c-0.659,0-1.202,0.282-1.631,0.845
			c-0.427,0.563-0.641,1.306-0.641,2.228c0,0.947,0.197,1.685,0.59,2.212c0.395,0.527,0.924,0.791,1.596,0.791
			c0.461,0,0.853-0.111,1.176-0.332v-2.046h-1.312V17.23h2.1L27.086,20.692L27.086,20.692z"/>
	</g>
</g>
</svg>
