<?xml version="1.0" encoding="utf-8"?>
<!-- Generator: Adobe Illustrator 17.0.0, SVG Export Plug-In . SVG Version: 6.00 Build 0)  -->
<!DOCTYPE svg PUBLIC "-//W3C//DTD SVG 1.1//EN" "http://www.w3.org/Graphics/SVG/1.1/DTD/svg11.dtd">
<svg version="1.1"
	 id="svg2203" xmlns:rdf="http://www.w3.org/1999/02/22-rdf-syntax-ns#" xmlns:cc="http://web.resource.org/cc/" xmlns:inkscape="http://www.inkscape.org/namespaces/inkscape" xmlns:sodipodi="http://sodipodi.sourceforge.net/DTD/sodipodi-0.dtd" xmlns:dc="http://purl.org/dc/elements/1.1/" xmlns:svg="http://www.w3.org/2000/svg" sodipodi:version="0.32" inkscape:version="0.45.1" sodipodi:docname="闂傚倷娴囧Δ鐘叉憸缁辩偞绻濋崒婊呯＜婵℃贡缁犳岸姊洪幖鐐插姕婵＄偠妫勯悾椋庣矙鐠囩偓妫冮崺鈧柟鑻痝" sodipodi:docbase="D:\SVG\闂傚倸鍊风粈渚€骞栭弻娑欐償閵忕姷浠肩紓浣介哺閹告悂鏌" inkscape:output_extension="org.inkscape.output.svg.inkscape"
	 xmlns="http://www.w3.org/2000/svg" xmlns:xlink="http://www.w3.org/1999/xlink" x="0px" y="0px" width="30px" height="30px"
	 viewBox="0 0 30 30" enable-background="new 0 0 30 30" xml:space="preserve">
<sodipodi:namedview  borderopacity="1.0" guidetolerance="10" inkscape:zoom="0.74999999" inkscape:cy="646.08493" showguides="true" id="base" gridtolerance="10000" bordercolor="#666666" objecttolerance="10" inkscape:cx="126.79097" pagecolor="#ffffff" inkscape:pageopacity="0.0" inkscape:pageshadow="2" inkscape:document-units="px" inkscape:current-layer="layer1" inkscape:window-width="1280" inkscape:window-height="968" inkscape:window-y="-4" inkscape:window-x="-4" inkscape:guide-bbox="true">
	<sodipodi:guide  orientation="vertical" position="1116" id="guide22942"></sodipodi:guide>
	<sodipodi:guide  orientation="vertical" position="1147" id="guide22944"></sodipodi:guide>
</sodipodi:namedview>
<g>
	<path fill="#008039" d="M13.813,21.931V11.494c0,0-4.465-4.749-8.271,0v10.391L13.813,21.931z"/>
	<path fill="#FFFFFF" d="M13.013,20.989V12.01c0,0-3.883-4.089-7.19,0v8.938L13.013,20.989z"/>
	<path fill="#008039" d="M0.368,21.931l0.047-7.101c0,0,4.28-7.052,9.872,0v7.053L0.368,21.931z"/>
	<path fill="#FFFFFF" d="M1.215,21.931l0.037-6.319c0,0,3.549-6.273,8.188,0v6.276L1.215,21.931z"/>
	<rect x="2.474" y="17.698" fill="#008039" width="5.453" height="4.233"/>
	<rect x="3.227" y="18.403" fill="#FFFFFF" width="3.996" height="3.527"/>
	<g enable-background="new    ">
		<path d="M19.875,21.93h-1.07l-2.271-3.438c-0.078-0.121-0.133-0.215-0.16-0.283h-0.021v3.722h-0.779v-7.563h0.779v3.561h0.021
			c0.044-0.089,0.098-0.182,0.16-0.278l2.193-3.281h0.965l-2.537,3.628L19.875,21.93z"/>
		<path d="M24.843,21.412c-0.604,0.431-1.287,0.646-2.047,0.646c-0.875,0-1.58-0.347-2.115-1.038
			c-0.535-0.692-0.803-1.615-0.803-2.771c0-1.168,0.295-2.129,0.887-2.881s1.351-1.128,2.273-1.128c0.652,0,1.207,0.13,1.66,0.391
			v1.056c-0.484-0.381-1.063-0.571-1.73-0.571c-0.659,0-1.202,0.282-1.629,0.845c-0.427,0.563-0.641,1.306-0.641,2.228
			c0,0.947,0.195,1.685,0.59,2.212c0.393,0.527,0.924,0.791,1.594,0.791c0.461,0,0.853-0.111,1.176-0.332v-2.046h-1.313v-0.864
			h2.098C24.843,17.95,24.843,21.412,24.843,21.412z"/>
	</g>
	<polygon points="27.444,21.902 27.429,11.924 29.632,11.939 26.965,7.941 24.007,11.91 26.46,11.91 26.463,21.902 	"/>
</g>
</svg>
