<?xml version="1.0" encoding="utf-8"?>
<!-- Generator: Adobe Illustrator 17.0.0, SVG Export Plug-In . SVG Version: 6.00 Build 0)  -->
<!DOCTYPE svg PUBLIC "-//W3C//DTD SVG 1.1//EN" "http://www.w3.org/Graphics/SVG/1.1/DTD/svg11.dtd">
<svg version="1.1"
	 id="svg2203" xmlns:rdf="http://www.w3.org/1999/02/22-rdf-syntax-ns#" xmlns:cc="http://web.resource.org/cc/" xmlns:inkscape="http://www.inkscape.org/namespaces/inkscape" xmlns:sodipodi="http://sodipodi.sourceforge.net/DTD/sodipodi-0.dtd" xmlns:dc="http://purl.org/dc/elements/1.1/" xmlns:svg="http://www.w3.org/2000/svg" sodipodi:version="0.32" inkscape:version="0.45.1" sodipodi:docname="闂傚倸鍊峰ù鍥旈悩鍙夋喐缂佽京鍋炵换婵嬪磼濠婂懐锛滃┑鈩冭础缂佺姵宀稿娲箹閻愭彃濮曞┑锛勫仩濡嫰鎮炬搴ｇ煓閻犲洨鍋撳Λ鍐春閳ф煙閼荤棟" sodipodi:docbase="D:\SVG\闂傚倸鍊搁崐椋庣矆娓氣偓楠炴牠寮诲☉娆愬劅闁靛繒濮锋禒鑲╃磽娴ｄ粙鍝洪柟鍛婃倐閺" inkscape:output_extension="org.inkscape.output.svg.inkscape"
	 xmlns="http://www.w3.org/2000/svg" xmlns:xlink="http://www.w3.org/1999/xlink" x="0px" y="0px" width="30px" height="30px"
	 viewBox="0 0 30 30" enable-background="new 0 0 30 30" xml:space="preserve">
<sodipodi:namedview  borderopacity="1.0" guidetolerance="10" inkscape:zoom="0.74999999" inkscape:cy="646.08493" showguides="true" id="base" gridtolerance="10000" bordercolor="#666666" objecttolerance="10" inkscape:cx="126.79097" pagecolor="#ffffff" inkscape:pageopacity="0.0" inkscape:pageshadow="2" inkscape:document-units="px" inkscape:current-layer="layer1" inkscape:window-width="1280" inkscape:window-height="968" inkscape:window-y="-4" inkscape:window-x="-4" inkscape:guide-bbox="true">
	<sodipodi:guide  orientation="vertical" position="1116" id="guide22942"></sodipodi:guide>
	<sodipodi:guide  orientation="vertical" position="1147" id="guide22944"></sodipodi:guide>
</sodipodi:namedview>
<g>
	<path fill="#0057F9" d="M16.128,21.209V10.773c0,0-4.465-4.749-8.273,0v10.391L16.128,21.209z"/>
	<path fill="#FFFFFF" d="M15.328,20.267v-8.979c0,0-3.882-4.089-7.193,0v8.938L15.328,20.267z"/>
	<path fill="#0057F9" d="M2.684,21.209l0.051-7.1c0,0,4.276-7.052,9.868,0v7.053L2.684,21.209z"/>
	<path fill="#FFFFFF" d="M3.53,21.209l0.038-6.319c0,0,3.549-6.273,8.188,0v6.276L3.53,21.209z"/>
	<rect x="4.79" y="16.976" fill="#0057F9" width="5.454" height="4.232"/>
	<rect x="5.542" y="17.681" fill="#FFFFFF" width="3.995" height="3.527"/>
	<path d="M18.667,18.382v2.827h-0.781v-7.563h1.722c0.651,0,1.158,0.197,1.521,0.591c0.362,0.395,0.541,0.957,0.541,1.689
		c0,0.742-0.211,1.344-0.633,1.804s-0.949,0.678-1.582,0.652C19.454,18.382,18.667,18.382,18.667,18.382z"/>
	<path fill="#FFFFFF" d="M18.667,14.505v3.018h0.723c0.479,0,0.838-0.134,1.086-0.403s0.371-0.652,0.371-1.154
		c0-0.974-0.461-1.46-1.383-1.46L18.667,14.505L18.667,14.505z"/>
	<path d="M27.312,20.691c-0.604,0.431-1.284,0.646-2.047,0.646c-0.875,0-1.58-0.347-2.112-1.038
		c-0.535-0.692-0.806-1.615-0.806-2.771c0-1.168,0.295-2.129,0.89-2.881c0.592-0.752,1.349-1.128,2.271-1.128
		c0.654,0,1.207,0.13,1.66,0.391v1.056c-0.484-0.381-1.061-0.571-1.73-0.571c-0.656,0-1.199,0.282-1.629,0.845
		c-0.427,0.563-0.641,1.306-0.641,2.228c0,0.946,0.197,1.685,0.59,2.212c0.396,0.527,0.924,0.791,1.594,0.791
		c0.461,0,0.854-0.111,1.179-0.332v-2.046h-1.313v-0.864h2.099L27.312,20.691L27.312,20.691z"/>
</g>
</svg>
