<?xml version="1.0" encoding="utf-8"?>
<!-- Generator: Adobe Illustrator 21.0.0, SVG Export Plug-In . SVG Version: 6.00 Build 0)  -->
<svg version="1.1" id="Layer_1" xmlns="http://www.w3.org/2000/svg" xmlns:xlink="http://www.w3.org/1999/xlink" x="0px" y="0px"
	 width="30px" height="30px" viewBox="0 0 30 30" enable-background="new 0 0 30 30" xml:space="preserve">
<g id="XMLID_170_">
	<path id="XMLID_175_" fill="#0E0B04" d="M27.943,24.5l-5.9-10.2l-5.9-10.2c-0.5-0.8-1.8-0.8-2.3,0l-5.9,10.2l-5.9,10.2
		c-0.5,0.8,0.1,2,1.2,2h11.7h11.8C27.943,26.5,28.443,25.5,27.943,24.5z M23.743,24h-8.6h-8.6c-0.6,0-0.9-0.6-0.7-1.1l4.3-7.4
		l4.3-7.4c0.3-0.5,1-0.5,1.3,0l4.3,7.4l4.3,7.4C24.543,23.4,24.343,24,23.743,24z"/>
	<polygon id="XMLID_174_" fill="#F3B30B" points="5.143,24.1 15.043,6.5 25.043,24.1 	"/>
	<polygon id="XMLID_173_" points="8.343,23.8 12.443,19.3 16.343,19.3 19.743,15.7 19.743,23.7 	"/>
	<polygon id="XMLID_172_" points="7.443,20.6 7.343,22.5 8.943,22.5 9.243,22 8.543,21.9 11.443,19.2 10.943,18.6 8.243,21.3 
		8.043,20.7 	"/>
	<polygon id="XMLID_171_" points="15.043,16.7 15.043,18.6 16.743,18.4 16.943,18 16.343,17.9 18.943,15 18.343,14.4 15.843,17.3 
		15.543,16.7 	"/>
</g>
</svg>
