<?xml version="1.0" encoding="utf-8"?>
<!-- Generator: Adobe Illustrator 21.0.0, SVG Export Plug-In . SVG Version: 6.00 Build 0)  -->
<svg version="1.1" id="Layer_1" xmlns="http://www.w3.org/2000/svg" xmlns:xlink="http://www.w3.org/1999/xlink" x="0px" y="0px"
	 width="30px" height="30px" viewBox="0 0 30 30" enable-background="new 0 0 30 30" xml:space="preserve">
<g>
	<path id="XMLID_154_" fill="#0E0B04" d="M27.95,24.5l-5.9-10.2l-5.9-10.2c-0.5-0.8-1.8-0.8-2.3,0l-5.9,10.2l-5.9,10.2
		c-0.5,0.8,0.1,2,1.2,2h11.7h11.8C27.85,26.5,28.45,25.5,27.95,24.5z M23.55,24h-8.6h-8.6c-0.6,0-0.9-0.6-0.7-1.1l4.3-7.4l4.3-7.4
		c0.3-0.5,1-0.5,1.3,0l4.3,7.4l4.3,7.4C24.55,23.4,24.15,24,23.55,24z"/>
	<polygon id="XMLID_153_" fill="#F3B30B" points="5.05,24 14.95,6.4 24.85,24 	"/>
	<path id="XMLID_152_" d="M11.15,23.5c0.6,0,1.1,0,1.7,0c0-1.6,0-3.1,0-4.7c0.5-1.1,0.9-2.1,1.4-3.2c0-1.2,0-2.4,0-3.7
		c-0.6,0-1.1,0-1.7,0c0,1.1,0,2.3,0,3.4c-0.5,1.1-0.9,2.2-1.4,3.3C11.15,20.2,11.15,21.8,11.15,23.5L11.15,23.5z"/>
	<rect id="XMLID_151_" x="15.95" y="12" width="1.7" height="11.5"/>
</g>
</svg>
