<?xml version="1.0" encoding="utf-8"?>
<!-- Generator: Adobe Illustrator 21.0.0, SVG Export Plug-In . SVG Version: 6.00 Build 0)  -->
<svg version="1.1" id="Layer_1" xmlns="http://www.w3.org/2000/svg" xmlns:xlink="http://www.w3.org/1999/xlink" x="0px" y="0px"
	 width="30px" height="30px" viewBox="0 0 30 30" enable-background="new 0 0 30 30" xml:space="preserve">
<g>
	<circle id="XMLID_1681_" fill="#305FA0" cx="15" cy="15" r="15"/>
	<circle id="XMLID_1684_" fill="none" stroke="#FFFFFF" stroke-width="0.5" stroke-miterlimit="10" cx="15" cy="15" r="13.7"/>
	<path id="XMLID_1775_" fill="#FFFFFF" d="M26.5,17.5c-0.3,0-0.5-0.1-0.7-0.2s-0.3-0.2-0.5-0.2c-0.4,0-0.7,0-1.1,0
		c-0.2,0-0.3,0.1-0.3,0.2v0.1c-0.4,1.4-1.5,2.2-2.9,2.5c-0.2,0-0.3,0-0.5,0c-3.1,0-6.1,0-9.2,0c-1.2,0-2.1-1-2.2-2.1
		c0-0.8,0.4-1.3,1.1-1.7c0.7-0.3,1.4-0.4,2.1-0.4c3.2,0,6.4,0,9.7,0c0.1,0,0.2,0,0.2,0c0-0.5-0.2-0.8-0.6-1s-0.8-0.3-1.3-0.3
		c-0.9,0-1.7,0-2.6,0c-1.4,0-2.8,0-4.2,0.1c-1,0-2.1,0.2-3.1,0.5c-0.8,0.2-1.6,0.4-2.3,0.7c-1.1,0.5-2.1,1.1-2.8,2
		c-0.3,0.4-0.5,0.6-0.8,1c0,0.1-0.1,0.2-0.2,0.2c0-3.4,0-6.6,0-10C4.4,8.9,4.4,9,4.5,9C4.7,9.3,5,9.5,5.2,9.8
		C6,10.7,7,11.4,8.1,11.9s2.2,0.7,3.4,0.8c0.8,0.1,1.6,0.1,2.4,0.1c2.2,0,4.4,0,6.6,0c1.5,0,2.5,0.8,3.2,2.2
		c0.1,0.2,0.2,0.4,0.2,0.6c0,0.1,0.1,0.1,0.2,0.1c0.5,0,0.9,0,1.4,0c0.1,0,0.2-0.1,0.4-0.1c0.2-0.1,0.4-0.1,0.5-0.2
		c0.1,0,0.1,0,0.1,0.1C26.5,16.2,26.5,16.8,26.5,17.5C26.5,17.4,26.5,17.4,26.5,17.5z M22.2,17.1c-0.1,0-0.2,0-0.2,0
		c-0.9,0-1.9,0-2.8,0c-2.4,0-4.8,0-7.3,0c-0.3,0-0.5,0.1-0.8,0.1c-0.2,0-0.3,0.2-0.3,0.3c-0.1,0.4,0,0.8,0.6,0.9c0.1,0,0.1,0,0.2,0
		c3,0,5.9,0,8.9,0c0.1,0,0.3,0,0.4-0.1c0.5-0.2,0.9-0.6,1.2-1.1C22.1,17.3,22.1,17.2,22.2,17.1z"/>
</g>
</svg>
