<?xml version="1.0" encoding="utf-8"?>
<!-- Generator: Adobe Illustrator 21.0.0, SVG Export Plug-In . SVG Version: 6.00 Build 0)  -->
<svg version="1.1" id="Layer_1" xmlns="http://www.w3.org/2000/svg" xmlns:xlink="http://www.w3.org/1999/xlink" x="0px" y="0px"
	 width="30px" height="30px" viewBox="0 0 30 30" enable-background="new 0 0 30 30" xml:space="preserve">
<g>
	<path id="XMLID_131_" fill="#0E0B04" d="M27.95,24.5l-5.9-10.2l-5.9-10.2c-0.5-0.8-1.8-0.8-2.3,0l-5.9,10.2l-5.9,10.2
		c-0.5,0.8,0.1,2,1.2,2h11.7h11.8C27.85,26.5,28.45,25.5,27.95,24.5z M23.75,24h-8.6h-8.6c-0.6,0-0.9-0.6-0.7-1.1l4.3-7.4l4.3-7.4
		c0.3-0.5,1-0.5,1.3,0l4.3,7.4l4.3,7.4C24.55,23.4,24.35,24,23.75,24z"/>
	<polygon id="XMLID_130_" fill="#F3B30B" points="5.25,24 14.95,6.4 24.85,24 	"/>
	<path id="XMLID_125_" d="M11.45,16c0.1,0,0.2,0.2,0.4,0.3c0.5,0.1,1.2,0.3,1.6,0.3c0.5,0.1,4.2-0.1,6.4,0c0.3,0,0.5,0.2,0.5,0.5
		s-0.1,2.3,0,3.7c0,0.2,0.2,0.1,0.1,0.6c0,0.1-0.3-0.2-0.3-0.3c0,0,0-0.1,0-0.2s0,0,0-0.2c0-0.6,0-3,0-3c0-0.2-0.3-0.2-0.3,0
		c0,1.8,0,3.6-0.1,5.4c0,0,0,0.1-0.1,0.1c-0.3,0-0.6,0-0.6-0.1s0.1-0.4,0.2-0.6c0.1-0.3,0.1-0.6,0.1-0.9c0-0.1-0.2-1-0.7-1.1
		c-0.2-0.1-0.5,0-0.7-0.1c-0.3-0.1-0.4-0.4-0.7-0.4c0,0-1.7,0-2.5,0c-0.7,0-0.4,1.3-0.6,2c0,0.1-0.1,0.1-0.1,0.2
		c-0.1,0.3,0.3,0.7,0.1,0.9c-0.1,0.1-0.5,0.1-0.5,0c0-0.2,0.1-0.4,0.1-0.6c0.1-0.5,0.1-1-0.1-1.5c-0.2-0.4-0.2-0.8-0.5-1
		s-0.5-0.4-0.7-0.7c0-0.1,0-0.2-0.1-0.3c-0.5-0.3-0.8-0.7-1.2-1.1c-0.2-0.2-0.7,0-1,0.1c-0.2,0.1-0.5-0.2-0.4-0.4
		c0.1-0.2,0.7-1.3,0.7-1.3c0.1-0.1,0.1-0.2,0.1-0.3s-0.3-0.1-0.2-0.2C10.25,15.6,10.95,15.8,11.45,16z"/>
</g>
</svg>
