<?xml version="1.0" encoding="utf-8"?>
<!-- Generator: Adobe Illustrator 21.0.0, SVG Export Plug-In . SVG Version: 6.00 Build 0)  -->
<svg version="1.1" id="Layer_1" xmlns="http://www.w3.org/2000/svg" xmlns:xlink="http://www.w3.org/1999/xlink" x="0px" y="0px"
	 width="30px" height="30px" viewBox="0 0 30 30" enable-background="new 0 0 30 30" xml:space="preserve">
<g>
	<g id="XMLID_1808_">
		<path id="XMLID_1810_" fill="#0E0B04" d="M3.25,23.1h11.8h11.7c1.1,0,1.7-1.2,1.2-2l-5.9-10.2l-5.9-10.2c-0.5-0.8-1.8-0.8-2.3,0
			l-5.9,10.2l-5.9,10.2C1.55,22.1,2.15,23.1,3.25,23.1z M5.75,19.5l4.3-7.4l4.3-7.4c0.3-0.5,1-0.5,1.3,0l4.3,7.4l4.3,7.4
			c0.2,0.5-0.1,1.1-0.7,1.1h-8.6h-8.6C5.75,20.6,5.55,20,5.75,19.5z"/>
		<polygon id="XMLID_1809_" fill="#F3B30B" points="4.95,20.7 14.95,3.1 24.95,20.7 		"/>
	</g>
	<g id="XMLID_1601_">
		<circle id="XMLID_1807_" cx="11.75" cy="19.2" r="0.8"/>
		<circle id="XMLID_1806_" cx="14.55" cy="19.2" r="0.8"/>
		<circle id="XMLID_1805_" cx="17.55" cy="19.2" r="0.8"/>
		<path id="XMLID_1804_" d="M16.95,9c-0.2,0-0.4,0-0.5,0.1c-0.2-0.4-0.6-0.6-1.1-0.6s-0.9,0.3-1.1,0.7c-0.1,0-0.2,0-0.4,0
			c-1.1,0-1.9,0.9-1.9,1.9c0,0.3,0,0.5,0.1,0.7c-0.1,0-0.2,0-0.3,0c-0.5,0-0.8,0.4-0.8,0.8c0,0.1,0,0.1,0,0.2
			c-0.3,0.1-0.4,0.3-0.4,0.6c0,0.3,0.3,0.6,0.6,0.6s0.6-0.2,0.6-0.6l0,0c0.3,0,0.5-0.1,0.7-0.3c0.1,0.3,0.5,0.6,0.8,0.6
			c0.4,0,0.8-0.3,0.9-0.7c0.8-0.1,1.5-0.8,1.6-1.6c0.3,0.4,0.7,0.6,1.2,0.6c0.8,0,1.5-0.7,1.5-1.5C18.45,9.7,17.65,9,16.95,9z"/>
		<g id="XMLID_1796_">
			<path id="XMLID_1803_" d="M9.75,15.3c0,0-0.2,0.8-0.2,1.6c0,0.8,0.2,1.6,0.2,1.6h-0.2V19h1.3v-0.7h7.6V19h2.1v-0.7h-0.4v-3.1h0.3
				v-0.4h-3.2v0.6h-0.8c0-0.1,0-0.2,0-0.2c0-0.2-0.2-0.4-0.4-0.4c-0.2,0-0.4,0.2-0.4,0.4v0.2h-1.1c0-0.2-0.2-0.4-0.4-0.4
				s-0.4,0.2-0.4,0.4h-2.4v-1h-1v1"/>
			<path id="XMLID_1797_" d="M18.45,18.3L18.45,18.3L18.45,18.3L18.45,18.3L18.45,18.3L18.45,18.3L18.45,18.3L18.45,18.3L18.45,18.3
				L18.45,18.3L18.45,18.3L18.45,18.3L18.45,18.3L18.45,18.3L18.45,18.3L18.45,18.3L18.45,18.3L18.45,18.3L18.45,18.3L18.45,18.3z
				 M18.45,18.3L18.45,18.3L18.45,18.3L18.45,18.3L18.45,18.3L18.45,18.3L18.45,18.3L18.45,18.3L18.45,18.3L18.45,18.3L18.45,18.3z
				 M18.45,18.3L18.45,18.3L18.45,18.3L18.45,18.3L18.45,18.3L18.45,18.3L18.45,18.3z M18.45,18.3L18.45,18.3L18.45,18.3L18.45,18.3
				L18.45,18.3z M18.45,18.3L18.45,18.3L18.45,18.3L18.45,18.3L18.45,18.3z"/>
		</g>
	</g>
	<polygon id="XMLID_1603_" fill="#F71934" points="10.95,26.7 10.95,28 16.95,26.4 16.95,25.1 	"/>
	<g id="XMLID_1605_">
		<path d="M16.85,23.4v6.2h-5.7v-6.2H16.85 M17.15,23.1h-6.3v6.8h6.3V23.1L17.15,23.1z"/>
	</g>
</g>
</svg>
