<?xml version="1.0" encoding="utf-8"?>
<!-- Generator: Adobe Illustrator 21.0.0, SVG Export Plug-In . SVG Version: 6.00 Build 0)  -->
<svg version="1.1" id="Layer_1" xmlns="http://www.w3.org/2000/svg" xmlns:xlink="http://www.w3.org/1999/xlink" x="0px" y="0px"
	 width="30px" height="30px" viewBox="0 0 30 30" enable-background="new 0 0 30 30" xml:space="preserve">
<g>
	<g id="XMLID_1599_">
		<path id="XMLID_1793_" fill="#0E0B04" d="M3.257,26.5h11.8h11.7c1.1,0,1.7-1.2,1.2-2l-5.9-10.2l-5.9-10.2c-0.5-0.8-1.8-0.8-2.3,0
			l-5.9,10.2l-5.9,10.2C1.557,25.5,2.057,26.5,3.257,26.5z M5.757,22.9l4.3-7.4l4.3-7.4c0.3-0.5,1-0.5,1.3,0l4.3,7.4l4.3,7.4
			c0.2,0.5-0.1,1.1-0.7,1.1h-8.6h-8.6C5.757,24,5.357,23.4,5.757,22.9z"/>
		<polygon id="XMLID_1792_" fill="#F3B30B" points="4.857,24.1 14.857,6.5 24.857,24.1 		"/>
	</g>
	<g id="XMLID_505_">
		<circle id="XMLID_1598_" cx="11.857" cy="22.6" r="0.8"/>
		<circle id="XMLID_1597_" cx="14.557" cy="22.6" r="0.8"/>
		<circle id="XMLID_1596_" cx="17.357" cy="22.6" r="0.8"/>
		<path id="XMLID_1595_" d="M16.857,12.4c-0.2,0-0.4,0-0.5,0.1c-0.2-0.4-0.6-0.6-1.1-0.6s-0.9,0.3-1.1,0.7c-0.1,0-0.2,0-0.4,0
			c-1.1,0-1.9,0.9-1.9,1.9c0,0.3,0,0.5,0.1,0.7c-0.1,0-0.2,0-0.3,0c-0.5,0-0.8,0.4-0.8,0.8c0,0.1,0,0.1,0,0.2
			c-0.3,0.1-0.4,0.3-0.4,0.6c0,0.3,0.3,0.6,0.6,0.6c0.3,0,0.6-0.2,0.6-0.6l0,0c0.3,0,0.5-0.1,0.7-0.3c0.1,0.3,0.5,0.6,0.8,0.6
			c0.4,0,0.8-0.3,0.9-0.7c0.8-0.1,1.5-0.8,1.6-1.6c0.3,0.4,0.7,0.6,1.2,0.6c0.8,0,1.5-0.7,1.5-1.5
			C18.257,13,17.757,12.4,16.857,12.4z"/>
		<g id="XMLID_1587_">
			<path id="XMLID_1594_" d="M9.857,18.7c0,0-0.2,0.8-0.2,1.6c0,0.8,0.2,1.6,0.2,1.6h-0.2v0.5h1.3v-0.7h7.6v0.7h2.1v-0.8h-0.3v-3.1
				h0.3v-0.4h-3.2v0.6h-0.8c0-0.1,0-0.2,0-0.2c0-0.2-0.2-0.4-0.4-0.4s-0.4,0.2-0.4,0.4v0.2h-1.1c0-0.2-0.2-0.4-0.4-0.4
				s-0.4,0.2-0.4,0.4h-2.4v-1h-1v1"/>
			<path id="XMLID_1588_" d="M18.357,21.7L18.357,21.7L18.357,21.7L18.357,21.7L18.357,21.7L18.357,21.7L18.357,21.7L18.357,21.7
				L18.357,21.7L18.357,21.7L18.357,21.7L18.357,21.7L18.357,21.7L18.357,21.7L18.357,21.7L18.357,21.7L18.357,21.7L18.357,21.7
				L18.357,21.7L18.357,21.7z M18.357,21.7L18.357,21.7L18.357,21.7L18.357,21.7L18.357,21.7L18.357,21.7L18.357,21.7L18.357,21.7
				L18.357,21.7L18.357,21.7L18.357,21.7z M18.357,21.7L18.357,21.7L18.357,21.7L18.357,21.7L18.357,21.7L18.357,21.7L18.357,21.7z
				 M18.357,21.7L18.357,21.7L18.357,21.7L18.357,21.7L18.357,21.7z M18.357,21.7L18.357,21.7L18.357,21.7L18.357,21.7L18.357,21.7z
				"/>
		</g>
	</g>
</g>
</svg>
