<?xml version="1.0" encoding="utf-8"?>
<!-- Generator: Adobe Illustrator 21.0.0, SVG Export Plug-In . SVG Version: 6.00 Build 0)  -->
<svg version="1.1" id="Layer_1" xmlns="http://www.w3.org/2000/svg" xmlns:xlink="http://www.w3.org/1999/xlink" x="0px" y="0px"
	 width="30px" height="30px" viewBox="0 0 30 30" enable-background="new 0 0 30 30" xml:space="preserve">
<g>
	<g id="XMLID_472_">
		<path id="XMLID_474_" fill="#0E0B04" d="M3.224,26.5h11.8h11.7c1.1,0,1.7-1.2,1.2-2l-5.9-10.2l-5.9-10.2c-0.5-0.8-1.8-0.8-2.3,0
			l-5.9,10.2l-5.9,10.2C1.624,25.5,2.224,26.5,3.224,26.5z M5.724,22.9l4.3-7.4l4.3-7.4c0.3-0.5,1-0.5,1.3,0l4.3,7.4l4.3,7.4
			c0.2,0.5-0.1,1.1-0.7,1.1h-8.6h-8.6C5.724,24,5.524,23.4,5.724,22.9z"/>
		<polygon id="XMLID_473_" fill="#F3B30B" points="5.024,24 15.024,6.4 24.924,24 		"/>
	</g>
	<g id="XMLID_468_">
		<path id="XMLID_471_" d="M13.224,10.5c0,0,0,5.3,1.1,5.3s1.3-5.3,1.3-5.3H13.224z"/>
		<g id="XMLID_469_">
			<path id="XMLID_470_" d="M18.224,17.2c0,0,0,1.3,0,2.5c0,1.3-1.7,1-2.2,1s-0.5,0.4-0.5,0.4v2.3h-1.1v-2.9c0.5-1,1.6-0.8,2.2-0.8
				s0.5-0.6,0.5-0.6v-1.9l-1,0.8v-1.4l1.6-1.6l1.5,1.7v1.4L18.224,17.2z"/>
		</g>
	</g>
</g>
</svg>
