<?xml version="1.0" encoding="utf-8"?>
<!-- Generator: Adobe Illustrator 21.0.0, SVG Export Plug-In . SVG Version: 6.00 Build 0)  -->
<svg version="1.1" id="Layer_1" xmlns="http://www.w3.org/2000/svg" xmlns:xlink="http://www.w3.org/1999/xlink" x="0px" y="0px"
	 width="30px" height="30px" viewBox="0 0 30 30" enable-background="new 0 0 30 30" xml:space="preserve">
<g>
	<g id="XMLID_444_">
		<path id="XMLID_446_" fill="#0E0B04" d="M3.224,26.5h11.8h11.7c1.1,0,1.7-1.2,1.2-2l-5.9-10.2l-5.9-10.2c-0.5-0.8-1.8-0.8-2.3,0
			l-5.9,10.2l-5.9,10.2C1.624,25.5,2.224,26.5,3.224,26.5z M5.724,22.9l4.3-7.4l4.3-7.4c0.3-0.5,1-0.5,1.3,0l4.3,7.4l4.3,7.4
			c0.2,0.5-0.1,1.1-0.7,1.1h-8.6h-8.6C5.724,24,5.524,23.4,5.724,22.9z"/>
		<polygon id="XMLID_445_" fill="#F3B30B" points="5.024,24.1 15.224,6.5 24.924,24.1 		"/>
	</g>
	<path id="XMLID_1676_" d="M10.224,16.6h1v1.8h-2L10.224,16.6z"/>
	<path id="XMLID_1675_" d="M11.724,16.6h2.6v1.7h-2.7L11.724,16.6z"/>
	<path id="XMLID_1674_" d="M9.024,18.8h5.3v2.4h-1.9c0,0-1.4-2.7-3.5-0.1h-1.2L9.024,18.8z"/>
	<path id="XMLID_1673_" d="M10.624,20.3c0.8,0,1.5,0.7,1.5,1.5s-0.7,1.5-1.5,1.5s-1.5-0.7-1.5-1.5C9.124,21,9.824,20.3,10.624,20.3z
		"/>
	<path id="XMLID_1672_" fill="#FFFFFF" d="M10.524,21.3c0.3,0,0.6,0.3,0.6,0.6c0,0.3-0.3,0.6-0.6,0.6s-0.6-0.3-0.6-0.6
		S10.124,21.3,10.524,21.3z"/>
	<path id="XMLID_1671_" d="M14.824,21.8l-0.7,0.2l-0.2,0.9l1.2-0.1c0,0,0.3-1.3,1.4-0.4l3-0.6c0,0,0.5-1.2,1.4-0.3l1.4-0.3l-0.4-0.7
		l-1.5-0.1l-0.8-0.7l-2.7,0.5L14.824,21.8z"/>
	<path id="XMLID_1670_" fill="#FFFFFF" d="M17.024,20.7l0.5-0.1l0.1,0.5l-1.1,0.2L17.024,20.7z"/>
	<path id="XMLID_1669_" fill="#FFFFFF" d="M17.824,20.6l0.9-0.2v0.5l-0.9,0.1V20.6z"/>
	<path id="XMLID_1668_" fill="#FFFFFF" d="M19.024,20.4l0.7-0.1l0.4,0.4l-1.1,0.2V20.4L19.024,20.4z"/>
	<path id="XMLID_1667_" d="M16.024,22.3c0.3,0,0.5,0.2,0.5,0.5s-0.2,0.5-0.5,0.5s-0.5-0.2-0.5-0.5
		C15.524,22.5,15.624,22.3,16.024,22.3z"/>
	<path id="XMLID_1666_" fill="#FFFFFF" d="M15.824,22.7c0.1,0,0.2,0.1,0.2,0.2s-0.1,0.2-0.2,0.2s-0.2-0.1-0.2-0.2
		C15.624,22.8,15.624,22.7,15.824,22.7z"/>
	<path id="XMLID_1665_" d="M20.324,21.5c0.3,0,0.6,0.3,0.6,0.6c0,0.3-0.3,0.6-0.6,0.6c-0.3,0-0.6-0.3-0.6-0.6
		C19.724,21.7,20.124,21.5,20.324,21.5z"/>
	<path id="XMLID_1664_" fill="#FFFFFF" d="M20.124,21.9c0.1,0,0.2,0.1,0.2,0.2s-0.1,0.2-0.2,0.2s-0.2-0.1-0.2-0.2
		C19.924,22,20.024,21.9,20.124,21.9z"/>
	<path id="XMLID_1663_" fill="#FFFFFF" d="M14.624,20.2c0,0-0.7,0.1-0.3,1.1c0,0-0.2,0.5,0.5,0.5c0,0,0.4,0.7,0.8,0c0,0,1.6,0,0.8-1
		c0,0,0.6-1.1-0.3-1.3C16.124,19.7,14.824,18.9,14.624,20.2z"/>
	<path id="XMLID_456_" d="M14.124,10.3l0.5,4h0.9l0.5-4c0.1-0.5-0.3-1.2-0.9-1.2S14.124,9.8,14.124,10.3L14.124,10.3z"/>
	<circle cx="15.124" cy="15.3" r="0.8"/>
</g>
</svg>
