<?xml version="1.0" encoding="utf-8"?>
<!-- Generator: Adobe Illustrator 21.0.0, SVG Export Plug-In . SVG Version: 6.00 Build 0)  -->
<svg version="1.1" id="Layer_1" xmlns="http://www.w3.org/2000/svg" xmlns:xlink="http://www.w3.org/1999/xlink" x="0px" y="0px"
	 width="30px" height="30px" viewBox="0 0 30 30" enable-background="new 0 0 30 30" xml:space="preserve">
<g>
	<path id="XMLID_127_" fill="#0E0B04" d="M27.95,24.5l-5.9-10.2l-5.9-10.2c-0.5-0.8-1.8-0.8-2.3,0l-5.9,10.2l-5.9,10.2
		c-0.5,0.8,0.1,2,1.2,2h11.7h11.8C27.85,26.5,28.45,25.5,27.95,24.5z M23.55,24h-8.6h-8.6c-0.6,0-0.9-0.6-0.7-1.1l4.3-7.4l4.3-7.4
		c0.3-0.5,1-0.5,1.3,0l4.3,7.4l4.3,7.4C24.45,23.4,24.15,24,23.55,24z"/>
	<polygon id="XMLID_126_" fill="#F3B30B" points="4.85,24 14.75,6.4 24.75,24 	"/>
	<g id="XMLID_118_">
		<g id="XMLID_120_">
			<polygon id="XMLID_124_" points="13.45,13.1 13.45,13.3 14.05,13.3 14.45,13.2 14.95,12.3 14.65,11.9 14.45,11.9 14.05,11.5 
				13.45,11.8 13.45,12.1 13.15,12.7 			"/>
			<polygon id="XMLID_123_" points="12.15,14.6 12.65,14.5 12.95,14.2 12.65,14 12.65,13.9 12.05,13.7 11.65,13.9 11.85,14.2 			"/>
			<polygon id="XMLID_122_" points="12.05,16.1 11.85,16.7 11.95,17.2 12.35,17.5 12.65,17.6 12.95,17.2 13.15,17 13.85,16.3 
				13.65,16 13.55,15.4 13.05,15.4 12.85,15.4 			"/>
			<polygon id="XMLID_121_" points="10.35,19.1 10.35,19.4 10.65,19.6 11.05,19.7 11.45,19.3 12.05,18.9 12.05,18.5 12.15,18.2 
				12.05,17.9 11.85,17.8 11.45,17.7 11.05,17.9 10.65,17.7 10.35,17.9 10.05,18.1 10.05,18.7 			"/>
		</g>
		<path id="XMLID_119_" d="M16.65,11.1l-0.2,0.3l-0.9,0.9c0,0-0.4,0.4-0.4,0.6s0,0.6,0,0.7c-0.1,0.2-0.1,0.6-0.2,0.7
			s-0.3,0.4-0.3,0.7c0,0.2-0.1,1-0.2,1.3c0,0.2,0,0.6,0.3,0.8c0.2,0.2,0.6,0.6,0.7,0.7s0.2,0.6,0.1,0.7c-0.1,0.2-0.4,1-0.5,1.2
			s-0.4,0.7-0.4,0.9c0,0.2,0.2,0.2,0.2,0.4c0,0.2,0,0.5,0,0.7c-0.1,0.2-0.6,1.2-0.7,1.2h-3l0.7-0.7v-0.4l0.1-0.6l-0.3-0.4l-0.7-0.2
			l-0.6,0.2h-0.7l-0.8,0.9l0.3,0.8l0.4,0.1l0.3,0.3h-3.6l-0.4,0.6h18.2L16.65,11.1z"/>
	</g>
</g>
</svg>
