<?xml version="1.0" encoding="utf-8"?>
<!-- Generator: Adobe Illustrator 21.0.0, SVG Export Plug-In . SVG Version: 6.00 Build 0)  -->
<svg version="1.1" id="Layer_1" xmlns="http://www.w3.org/2000/svg" xmlns:xlink="http://www.w3.org/1999/xlink" x="0px" y="0px"
	 width="30px" height="30px" viewBox="0 0 30 30" enable-background="new 0 0 30 30" xml:space="preserve">
<g>
	<path id="XMLID_167_" fill="#0E0B04" d="M27.956,24.5l-5.9-10.2l-5.9-10.2c-0.5-0.8-1.8-0.8-2.3,0l-5.9,10.2l-5.9,10.2
		c-0.5,0.8,0.1,2,1.2,2h11.7h11.8C27.756,26.5,28.456,25.5,27.956,24.5z M23.656,24h-8.6h-8.6c-0.6,0-0.9-0.6-0.7-1.1l4.3-7.4
		l4.3-7.4c0.3-0.5,1-0.5,1.3,0l4.3,7.4l4.3,7.4C24.556,23.4,24.156,24,23.656,24z"/>
	<polygon id="XMLID_166_" fill="#F3B30B" points="5.156,24 15.056,6.4 24.856,24 	"/>
	<path id="XMLID_165_" d="M11.056,23.5c0.6,0,1.2,0,1.7,0c0-1.6,0-3.2,0-4.8c0.5-1.1,0.9-2.2,1.4-3.3c0-1.2,0-2.5,0-3.7
		c-0.6,0-1.1,0-1.7,0c0,1.2,0,2.3,0,3.5c-0.5,1.1-1,2.2-1.4,3.4C11.056,20.2,11.056,21.8,11.056,23.5L11.056,23.5z"/>
	<path id="XMLID_164_" d="M18.956,23.4c-0.6,0-1.2,0-1.7,0c0-1.6,0-3.2,0-4.8c-0.5-1.1-0.9-2.2-1.4-3.3c0-1.2,0-2.5,0-3.7
		c0.6,0,1.1,0,1.7,0c0,1.2,0,2.3,0,3.5c0.5,1.1,1,2.2,1.4,3.4C18.956,20.1,18.956,21.8,18.956,23.4L18.956,23.4z"/>
</g>
</svg>
