<?xml version="1.0" encoding="utf-8"?>
<!-- Generator: Adobe Illustrator 21.0.0, SVG Export Plug-In . SVG Version: 6.00 Build 0)  -->
<svg version="1.1" id="Layer_1" xmlns="http://www.w3.org/2000/svg" xmlns:xlink="http://www.w3.org/1999/xlink" x="0px" y="0px"
	 width="30px" height="30px" viewBox="0 0 30 30" enable-background="new 0 0 30 30" xml:space="preserve">
<g>
	<path id="XMLID_35_" fill="#0E0B04" d="M27.956,24.5l-5.9-10.2l-5.9-10.2c-0.5-0.8-1.8-0.8-2.3,0l-5.9,10.2l-5.9,10.2
		c-0.5,0.8,0.1,2,1.2,2h11.7h11.8C27.756,26.5,28.456,25.5,27.956,24.5z M23.656,24h-8.6h-8.6c-0.6,0-0.9-0.6-0.7-1.1l4.3-7.4
		l4.3-7.4c0.3-0.5,1-0.5,1.3,0l4.3,7.4l4.3,7.4C24.556,23.4,24.156,24,23.656,24z"/>
	<polygon id="XMLID_34_" fill="#F3B30B" points="5.156,24 15.056,6.4 24.856,24 	"/>
	<g id="XMLID_28_">
		<polygon id="XMLID_33_" points="14.256,23.4 14.256,18.7 9.456,18.8 6.656,23.4 		"/>
		<path id="XMLID_32_" d="M21.256,20.4c-0.2,0-0.3-0.1-0.5-0.3c-0.2-0.1-0.4-0.3-0.7-0.3c-0.3,0-0.5,0.2-0.7,0.3s-0.3,0.3-0.5,0.3
			s-0.3-0.1-0.5-0.3c-0.2-0.1-0.4-0.3-0.7-0.3c-0.3,0-0.5,0.2-0.7,0.3s-0.3,0.3-0.5,0.3s-0.3-0.1-0.5-0.3c-0.2-0.1-0.4-0.3-0.7-0.3
			c-0.3,0-0.5,0.2-0.7,0.3s-0.3,0.3-0.5,0.3v0.8c0.2,0,0.3-0.1,0.5-0.3c0.2-0.1,0.4-0.3,0.7-0.3c0.3,0,0.5,0.2,0.7,0.3
			c0.2,0.1,0.3,0.3,0.5,0.3s0.3-0.1,0.5-0.3c0.2-0.1,0.4-0.3,0.7-0.3c0.3,0,0.5,0.2,0.7,0.3s0.3,0.3,0.5,0.3s0.3-0.1,0.5-0.3
			c0.2-0.1,0.4-0.3,0.7-0.3c0.3,0,0.5,0.2,0.7,0.3s0.3,0.3,0.5,0.3l0,0l0,0l0,0l0,0c0.2,0,0.3-0.1,0.5-0.3c0,0,0,0,0.1-0.1l-0.2-0.6
			C21.656,20.3,21.556,20.4,21.256,20.4z"/>
		<path id="XMLID_31_" d="M21.756,22.4c-0.2,0.1-0.3,0.2-0.5,0.2s-0.3-0.1-0.5-0.2s-0.4-0.3-0.7-0.3c-0.3,0-0.5,0.2-0.7,0.3
			s-0.3,0.2-0.5,0.2s-0.3-0.1-0.5-0.2s-0.4-0.3-0.7-0.3c-0.3,0-0.5,0.2-0.7,0.3s-0.3,0.2-0.5,0.2s-0.3-0.1-0.5-0.2
			c-0.2-0.1-0.4-0.3-0.7-0.3c-0.3,0-0.5,0.2-0.7,0.3s-0.3,0.2-0.5,0.2v0.8c0.2,0,0.3-0.1,0.5-0.2s0.4-0.3,0.7-0.3
			c0.3,0,0.5,0.2,0.7,0.3c0.2,0.1,0.3,0.2,0.5,0.2s0.3-0.1,0.5-0.2s0.4-0.3,0.7-0.3c0.3,0,0.5,0.2,0.7,0.3s0.3,0.2,0.5,0.2
			s0.3-0.1,0.5-0.2s0.4-0.3,0.7-0.3c0.3,0,0.5,0.2,0.7,0.3s0.3,0.2,0.5,0.2s0.3-0.1,0.5-0.2s0.3-0.3,0.6-0.3l-0.3-0.7
			C22.056,22.2,21.956,22.3,21.756,22.4z"/>
		<path id="XMLID_30_" d="M15.056,12.6c-0.1,0-0.2,0.1-0.2,0.1l-0.1,0.3l-0.7-0.1c-0.3-0.1-0.5,0.1-0.7,0.3
			c-0.1,0.2-0.7,1.1-0.7,1.1c-0.3,0-0.5,0.2-0.6,0.5l-0.3,1.5l0.5,0.1c0,0-0.1,0.4-0.1,0.5c0,0.2,0.1,0.5,0.3,0.5
			c0.2,0,0.4-0.1,0.5-0.3l0.1-0.5l3.1,0.6l-0.1,0.5c0,0.2,0.1,0.5,0.3,0.5c0.2,0,0.4-0.1,0.5-0.3c0-0.1,0.1-0.5,0.1-0.5l0.5,0.1
			l0.3-1.5c0.1-0.3-0.1-0.6-0.4-0.7c0,0-0.2-1.1-0.3-1.3c-0.1-0.3-0.2-0.5-0.5-0.5l-0.7-0.1l0.1-0.3c0-0.1-0.1-0.2-0.1-0.2
			L15.056,12.6z"/>
		<path id="XMLID_29_" fill="#F7BD42" d="M16.456,13.7c0.1,0,0.2,0.1,0.2,0.3c0,0.2,0.2,1,0.2,1l-3.8-0.7c0,0,0.5-0.7,0.6-0.9
			c0.1-0.1,0.2-0.2,0.3-0.2L16.456,13.7z"/>
	</g>
</g>
</svg>
