<?xml version="1.0" encoding="utf-8"?>
<!-- Generator: Adobe Illustrator 21.0.0, SVG Export Plug-In . SVG Version: 6.00 Build 0)  -->
<svg version="1.1" id="Layer_1" xmlns="http://www.w3.org/2000/svg" xmlns:xlink="http://www.w3.org/1999/xlink" x="0px" y="0px"
	 width="30px" height="30px" viewBox="0 0 30 30" enable-background="new 0 0 30 30" xml:space="preserve">
<g>
	<path id="XMLID_187_" fill="#0E0B04" d="M27.943,24.5l-5.9-10.2l-5.9-10.2c-0.5-0.8-1.8-0.8-2.3,0l-5.9,10.2l-5.9,10.2
		c-0.5,0.8,0.1,2,1.2,2h11.7h11.8C27.943,26.5,28.443,25.5,27.943,24.5z M23.643,24h-8.5h-8.6c-0.6,0-0.9-0.6-0.7-1.1l4.3-7.4
		l4.3-7.4c0.3-0.5,1-0.5,1.3,0l4.3,7.4l4.3,7.4C24.643,23.4,24.343,24,23.643,24z"/>
	<polygon id="XMLID_186_" fill="#F3B30B" points="5.143,24.1 14.943,6.5 24.943,24.1 	"/>
	<polygon id="XMLID_184_" points="13.643,13.5 15.443,11.9 20.343,17.4 19.643,18.9 13.643,18.9 15.943,21.7 14.143,23.3 
		9.343,17.6 10.443,16.4 16.343,16.4 	"/>
</g>
</svg>
