<?xml version="1.0" encoding="utf-8"?>
<!-- Generator: Adobe Illustrator 21.0.0, SVG Export Plug-In . SVG Version: 6.00 Build 0)  -->
<svg version="1.1" id="Layer_1" xmlns="http://www.w3.org/2000/svg" xmlns:xlink="http://www.w3.org/1999/xlink" x="0px" y="0px"
	 width="30px" height="30px" viewBox="0 0 30 30" enable-background="new 0 0 30 30" xml:space="preserve">
<g>
	<g id="XMLID_1645_">
		<path id="XMLID_1647_" fill="#0E0B04" d="M3.229,26.5h11.8h11.7c1.1,0,1.7-1.2,1.2-2l-5.9-10.2l-5.9-10.2c-0.5-0.8-1.8-0.8-2.3,0
			l-5.9,10.2l-5.9,10.2C1.629,25.5,2.129,26.5,3.229,26.5z M5.729,22.9l4.3-7.4l4.3-7.4c0.3-0.5,1-0.5,1.3,0l4.3,7.4l4.3,7.4
			c0.2,0.5-0.1,1.1-0.7,1.1h-8.6h-8.6C5.729,24,5.529,23.4,5.729,22.9z"/>
		<polygon id="XMLID_1646_" fill="#F3B30B" points="5.029,24 14.929,6.4 24.829,24 		"/>
	</g>
	<g id="XMLID_1627_">
		<polygon id="XMLID_1751_" points="13.529,18 13.529,16.9 15.129,15.1 16.929,16.9 16.929,18.1 15.629,16.8 15.629,21.7 
			16.929,20.5 16.929,21.7 15.129,23.4 13.529,21.6 13.529,20.5 14.629,21.7 14.629,16.9 		"/>
		<g id="XMLID_1747_">
			<rect id="XMLID_1750_" x="11.629" y="16.2" width="0.5" height="1.8"/>
			<rect id="XMLID_1749_" x="11.629" y="19" width="0.5" height="1.8"/>
			<rect id="XMLID_1748_" x="11.629" y="21.6" width="0.5" height="1.8"/>
		</g>
		<g id="XMLID_1743_">
			<rect id="XMLID_1746_" x="10.129" y="16.2" width="0.5" height="1.8"/>
			<rect id="XMLID_1745_" x="10.129" y="19" width="0.5" height="1.8"/>
			<rect id="XMLID_1744_" x="10.129" y="21.6" width="0.5" height="1.8"/>
		</g>
		<g id="XMLID_1739_">
			<rect id="XMLID_1742_" x="18.229" y="16.2" width="0.5" height="1.8"/>
			<rect id="XMLID_1741_" x="18.229" y="19" width="0.5" height="1.8"/>
			<rect id="XMLID_1740_" x="18.229" y="21.6" width="0.5" height="1.8"/>
		</g>
		<g id="XMLID_1735_">
			<rect id="XMLID_1738_" x="19.529" y="16.2" width="0.5" height="1.8"/>
			<rect id="XMLID_1737_" x="19.529" y="19" width="0.5" height="1.8"/>
			<rect id="XMLID_1736_" x="19.529" y="21.6" width="0.5" height="1.8"/>
		</g>
	</g>
</g>
</svg>
