<?xml version="1.0" encoding="utf-8"?>
<!-- Generator: Adobe Illustrator 21.0.0, SVG Export Plug-In . SVG Version: 6.00 Build 0)  -->
<svg version="1.1" id="Layer_1" xmlns="http://www.w3.org/2000/svg" xmlns:xlink="http://www.w3.org/1999/xlink" x="0px" y="0px"
	 width="30px" height="30px" viewBox="0 0 30 30" enable-background="new 0 0 30 30" xml:space="preserve">
<g>
	<path id="XMLID_191_" fill="#0E0B04" d="M27.956,24.5l-5.9-10.2l-5.9-10.2c-0.5-0.8-1.8-0.8-2.3,0l-5.9,10.2l-5.9,10.2
		c-0.5,0.8,0.1,2,1.2,2h11.7h11.8C27.756,26.5,28.456,25.5,27.956,24.5z M23.556,24h-8.6h-8.6c-0.6,0-0.9-0.6-0.7-1.1l4.3-7.4
		l4.3-7.4c0.3-0.5,1-0.5,1.3,0l4.3,7.4l4.3,7.4C24.556,23.4,24.256,24,23.556,24z"/>
	<polygon id="XMLID_190_" fill="#F3B30B" points="5.056,24 14.956,6.4 24.756,24 	"/>
	<path id="XMLID_185_" d="M15.656,14.2c-1.2,0.3-1.7,0.5-3.4,1.3c-2.2,1-1.4,2.4-1.2,2.6c0.9,1.1,1.2,1.4,5.3,5.4l1.1-1
		c0,0-2.6-2.4-4.8-4.7c-1-1,3.1-2,3.7-2.3l-0.3,2.9l3.1-4.2l-4.8-2.4l-1.1,1.2L15.656,14.2z"/>
</g>
</svg>
