<?xml version="1.0" encoding="utf-8"?>
<!-- Generator: Adobe Illustrator 21.0.0, SVG Export Plug-In . SVG Version: 6.00 Build 0)  -->
<svg version="1.1" id="Layer_1" xmlns="http://www.w3.org/2000/svg" xmlns:xlink="http://www.w3.org/1999/xlink" x="0px" y="0px"
	 width="30px" height="30px" viewBox="0 0 30 30" enable-background="new 0 0 30 30" xml:space="preserve">
<g>
	<path id="XMLID_47_" fill="#0E0B04" d="M27.922,24.5l-5.9-10.2l-5.9-10.2c-0.5-0.8-1.8-0.8-2.3,0l-5.9,10.2l-5.9,10.2
		c-0.5,0.8,0.1,2,1.2,2h11.7h11.8C27.922,26.5,28.521,25.5,27.922,24.5z M23.622,24h-8.6h-8.6c-0.6,0-0.9-0.6-0.7-1.1l4.3-7.4
		l4.3-7.4c0.3-0.5,1-0.5,1.3,0l4.3,7.4l4.3,7.4C24.521,23.4,24.322,24,23.622,24z"/>
	<polygon id="XMLID_46_" fill="#F3B30B" points="5.122,24 14.922,6.4 24.922,24 	"/>
	<g id="XMLID_44_">
		<path id="XMLID_45_" d="M6.822,23.5h17.6l-4.1-0.8l-2.5-2.3v-3.6c-0.9,1.1-3.2,0.8-3.2,0.8l0.6-5.1c0.9-1.4-1-2.2-1-2.2
			L6.822,23.5z"/>
	</g>
</g>
</svg>
