<?xml version="1.0" encoding="utf-8"?>
<!-- Generator: Adobe Illustrator 21.0.0, SVG Export Plug-In . SVG Version: 6.00 Build 0)  -->
<svg version="1.1" id="Layer_1" xmlns="http://www.w3.org/2000/svg" xmlns:xlink="http://www.w3.org/1999/xlink" x="0px" y="0px"
	 width="30px" height="30px" viewBox="0 0 30 30" enable-background="new 0 0 30 30" xml:space="preserve">
<g>
	<path id="XMLID_142_" fill="#0E0B04" d="M27.95,24.5l-5.9-10.2l-5.9-10.2c-0.5-0.8-1.8-0.8-2.3,0l-5.9,10.2l-5.9,10.2
		c-0.5,0.8,0.1,2,1.2,2h11.7h11.8C27.85,26.5,28.45,25.5,27.95,24.5z M23.55,24h-8.6h-8.6c-0.6,0-0.9-0.6-0.7-1.1l4.3-7.4l4.3-7.4
		c0.3-0.5,1-0.5,1.3,0l4.3,7.4l4.3,7.4C24.55,23.4,24.15,24,23.55,24z"/>
	<polygon id="XMLID_141_" fill="#F3B30B" points="4.95,23.9 14.85,6.3 24.75,23.9 	"/>
	<g id="XMLID_134_">
		<ellipse id="XMLID_140_" cx="12.45" cy="14.9" rx="1" ry="1"/>
		<ellipse id="XMLID_139_" cx="16.95" cy="14.2" rx="1" ry="1"/>
		<path id="XMLID_136_" d="M11.45,16.6c1.1-0.5,2.1-0.4,2.7,0.9c0.5,0.6,0.3,1.4-0.1,2.3l0.5,0.1v1.4l-0.7-0.2
			c-1.2-0.5-0.7,0.1,0.4,1.4c0.3,0.7-0.2,1.1-0.5,0.9c-0.6-0.5-1.2-0.9-1.6-1.5c-0.3-0.4-0.6-0.9-0.7-1.5c-0.7,0.2-1.1,0.9-1.1,2
			c-0.3,0.8-0.9,0.8-1.2,0.3c-0.1-1.1,0.1-1.9,0.6-2.3c0.7-0.5,1-1.3,1-2.1l-1.2,0.9c-0.7,0.1-0.9-0.1-0.7-0.7L11.45,16.6
			L11.45,16.6z M13.05,18c0.5-0.2,0.5,0.3,0,1.5V18L13.05,18z"/>
		<path id="XMLID_135_" d="M15.45,16.1c0.8-0.7,1.7-0.7,2.6-0.3c0.4,0.4,0.8,0.6,1.4,0.6l0.7,0.2c0.4,0.3-0.2,1.6-0.9,1.7
			c-1.2-0.7-1.6-0.6-0.9,0.3c0.1,0.2-0.1,0.4-0.5,0.7l0.6,0.3c1,0.5,1.2,0.9,0.8,1.3l-1.7-0.5c-0.4-0.1-0.7-0.4-0.8-0.8
			c-0.3-0.1-0.6-0.1-0.5,0.5v1.2c0,0.6-0.6,0.7-0.9,0.3l-0.3-1.4c-0.3-1.1-0.1-0.6,0.1-0.7c-0.4,0.3-0.2-0.3,0-0.7
			c0.3-0.5,0.4-1-0.2-1.7C14.35,16.1,14.45,15.7,15.45,16.1L15.45,16.1z"/>
	</g>
</g>
</svg>
