<?xml version="1.0" encoding="utf-8"?>
<!-- Generator: Adobe Illustrator 21.0.0, SVG Export Plug-In . SVG Version: 6.00 Build 0)  -->
<svg version="1.1" id="Layer_1" xmlns="http://www.w3.org/2000/svg" xmlns:xlink="http://www.w3.org/1999/xlink" x="0px" y="0px"
	 width="30px" height="30px" viewBox="0 0 30 30" enable-background="new 0 0 30 30" xml:space="preserve">
<g>
	<g id="XMLID_463_">
		<path id="XMLID_465_" fill="#0E0B04" d="M3.271,26.5h11.8h11.7c1.1,0,1.7-1.2,1.2-2l-5.9-10.2l-5.9-10.2c-0.5-0.8-1.8-0.8-2.3,0
			l-5.9,10.2l-5.9,10.2C1.471,25.5,2.171,26.5,3.271,26.5z M5.771,22.9l4.3-7.4l4.3-7.4c0.3-0.5,1-0.5,1.3,0l4.3,7.4l4.3,7.4
			c0.2,0.5-0.1,1.1-0.7,1.1h-8.6h-8.6C5.771,24,5.371,23.4,5.771,22.9z"/>
		<polygon id="XMLID_464_" fill="#F3B30B" points="5.071,24 14.971,6.4 24.971,24 		"/>
	</g>
	<g id="XMLID_1687_">
		<path id="XMLID_1690_" d="M14.271,10.5c0,0,0.2,5.3,1.3,5.3c1.1,0,1.1-5.3,1.1-5.3H14.271z"/>
		<g id="XMLID_1688_">
			<path id="XMLID_1689_" d="M10.771,18.1v-1.4l1.5-1.7l1.6,1.6V18l-1-0.8v1.9c0,0-0.1,0.6,0.5,0.6s1.7-0.2,2.2,0.8v2.9h-1.1v-2.3
				c0,0,0-0.4-0.5-0.4s-2.2,0.3-2.2-1c0-1.2,0-2.5,0-2.5L10.771,18.1z"/>
		</g>
	</g>
</g>
</svg>
