<?xml version="1.0" encoding="utf-8"?>
<!-- Generator: Adobe Illustrator 21.0.0, SVG Export Plug-In . SVG Version: 6.00 Build 0)  -->
<svg version="1.1" id="Layer_1" xmlns="http://www.w3.org/2000/svg" xmlns:xlink="http://www.w3.org/1999/xlink" x="0px" y="0px"
	 width="30px" height="30px" viewBox="0 0 30 30" enable-background="new 0 0 30 30" xml:space="preserve">
<g>
	<path id="XMLID_99_" fill="#0E0B04" d="M3.271,26.5h11.8h11.7c1.1,0,1.7-1.2,1.2-2l-5.9-10.2l-5.9-10.2c-0.5-0.8-1.8-0.8-2.3,0
		l-5.9,10.2l-5.9,10.2C1.471,25.5,2.171,26.5,3.271,26.5z M5.771,22.9l4.3-7.4l4.3-7.4c0.3-0.5,1-0.5,1.3,0l4.3,7.4l4.3,7.4
		c0.2,0.5-0.1,1.1-0.7,1.1h-8.6h-8.6C5.771,24,5.371,23.4,5.771,22.9z"/>
	<polygon id="XMLID_98_" fill="#F3B30B" points="5.071,24 15.071,6.4 24.871,24 	"/>
	<g id="XMLID_38_">
		<polygon id="XMLID_43_" points="23.271,23.4 20.671,18.8 15.671,18.7 15.671,23.4 		"/>
		<path id="XMLID_42_" d="M8.271,20.2l-0.2,0.6c0,0,0,0,0.1,0.1c0.2,0.1,0.3,0.3,0.5,0.3l0,0l0,0l0,0l0,0c0.2,0,0.3-0.1,0.5-0.3
			c0.2-0.1,0.4-0.3,0.7-0.3c0.3,0,0.5,0.2,0.7,0.3s0.3,0.3,0.5,0.3s0.3-0.1,0.5-0.3c0.2-0.1,0.4-0.3,0.7-0.3c0.3,0,0.5,0.2,0.7,0.3
			s0.3,0.3,0.5,0.3s0.3-0.1,0.5-0.3c0.2-0.1,0.4-0.3,0.7-0.3c0.3,0,0.5,0.2,0.7,0.3s0.3,0.3,0.5,0.3v-0.8c-0.2,0-0.3-0.1-0.5-0.3
			c-0.2-0.1-0.4-0.3-0.7-0.3s-0.5,0.2-0.7,0.3s-0.3,0.3-0.5,0.3s-0.3-0.1-0.5-0.3c-0.2-0.1-0.4-0.3-0.7-0.3s-0.5,0.2-0.7,0.3
			s-0.3,0.3-0.5,0.3s-0.3-0.1-0.5-0.3c-0.2-0.1-0.4-0.3-0.7-0.3c-0.3,0-0.5,0.2-0.7,0.3s-0.3,0.3-0.5,0.3S8.371,20.3,8.271,20.2z"/>
		<path id="XMLID_41_" d="M7.871,22.2l-0.3,0.7c0.2,0,0.4,0.2,0.6,0.3s0.3,0.2,0.5,0.2s0.3-0.1,0.5-0.2s0.4-0.3,0.7-0.3
			c0.3,0,0.5,0.2,0.7,0.3s0.3,0.2,0.5,0.2s0.3-0.1,0.5-0.2s0.4-0.3,0.7-0.3c0.3,0,0.5,0.2,0.7,0.3s0.3,0.2,0.5,0.2s0.3-0.1,0.5-0.2
			s0.4-0.3,0.7-0.3c0.3,0,0.5,0.2,0.7,0.3s0.3,0.2,0.5,0.2v-0.8c-0.2,0-0.3-0.1-0.5-0.2s-0.4-0.3-0.7-0.3s-0.5,0.2-0.7,0.3
			s-0.3,0.2-0.5,0.2s-0.3-0.1-0.5-0.2s-0.4-0.3-0.7-0.3s-0.5,0.2-0.7,0.3s-0.3,0.2-0.5,0.2s-0.3-0.1-0.5-0.2s-0.4-0.3-0.7-0.3
			c-0.3,0-0.5,0.2-0.7,0.3s-0.3,0.2-0.5,0.2s-0.3-0.1-0.5-0.2S7.871,22.2,7.871,22.2z"/>
		<path id="XMLID_40_" d="M13.971,12.7c-0.1,0-0.1,0.1-0.1,0.2l0.1,0.3l-0.7,0.1c-0.3,0.1-0.5,0.3-0.5,0.5s-0.3,1.3-0.3,1.3
			c-0.3,0.1-0.4,0.4-0.4,0.7l0.3,1.5l0.5-0.1c0,0,0.1,0.4,0.1,0.5c0,0.2,0.3,0.4,0.5,0.3c0.2,0,0.4-0.3,0.3-0.5l-0.1-0.5l3.1-0.6
			l0.1,0.5c0,0.2,0.3,0.4,0.5,0.3c0.2,0,0.4-0.3,0.3-0.5c0-0.1-0.1-0.5-0.1-0.5l0.5-0.1l-0.3-1.5c0-0.3-0.3-0.5-0.6-0.5
			c0,0-0.6-1-0.7-1.1c-0.1-0.2-0.4-0.4-0.7-0.3l-0.7,0.1l-0.1-0.3c0-0.1-0.1-0.2-0.2-0.1L13.971,12.7z"/>
		<path id="XMLID_39_" fill="#F7BD42" d="M15.671,13.3c0.1,0,0.2,0,0.3,0.2c0.1,0.2,0.6,0.9,0.6,0.9l-3.8,0.7c0,0,0.2-0.8,0.2-1
			s0.1-0.2,0.2-0.3L15.671,13.3z"/>
	</g>
</g>
</svg>
