<?xml version="1.0" encoding="utf-8"?>
<!-- Generator: Adobe Illustrator 21.0.0, SVG Export Plug-In . SVG Version: 6.00 Build 0)  -->
<svg version="1.1" id="Layer_1" xmlns="http://www.w3.org/2000/svg" xmlns:xlink="http://www.w3.org/1999/xlink" x="0px" y="0px"
	 width="30px" height="30px" viewBox="0 0 30 30" enable-background="new 0 0 30 30" xml:space="preserve">
<g>
	<path id="XMLID_115_" fill="#0E0B04" d="M3.279,26.5h11.8h11.7c1.1,0,1.7-1.2,1.2-2l-5.9-10.2l-5.9-10.2c-0.5-0.8-1.8-0.8-2.3,0
		l-5.9,10.2l-5.9,10.2C1.479,25.5,2.079,26.5,3.279,26.5z M5.779,22.9l4.3-7.4l4.3-7.4c0.3-0.5,1-0.5,1.3,0l4.3,7.4l4.3,7.4
		c0.2,0.5-0.1,1.1-0.7,1.1h-8.6h-8.6C5.779,24,5.379,23.4,5.779,22.9z"/>
	<polygon id="XMLID_114_" fill="#F3B30B" points="5.079,24 14.979,6.4 24.879,24 	"/>
	<g id="XMLID_63_">
		<g id="XMLID_65_">
			<polygon id="XMLID_69_" points="16.779,12.7 16.479,12.1 16.579,11.8 15.979,11.5 15.579,11.9 15.379,11.9 15.079,12.3 
				15.379,13.2 15.879,13.3 16.379,13.3 16.479,13.1 			"/>
			<polygon id="XMLID_68_" points="18.079,14.2 18.279,13.9 17.879,13.7 17.379,13.9 17.279,14 17.079,14.2 17.279,14.5 
				17.879,14.6 			"/>
			<polygon id="XMLID_67_" points="17.079,15.4 16.979,15.4 16.379,15.4 16.379,16 16.079,16.3 16.879,17 16.979,17.2 17.279,17.6 
				17.779,17.5 17.979,17.2 18.079,16.7 17.879,16.1 			"/>
			<polygon id="XMLID_66_" points="19.879,18.7 19.879,18.1 19.579,17.9 19.279,17.7 18.979,17.9 18.379,17.7 18.279,17.8 
				17.979,17.9 17.779,18.2 17.979,18.5 17.979,18.9 18.479,19.3 18.979,19.7 19.379,19.6 19.579,19.4 19.579,19.1 			"/>
		</g>
		<path id="XMLID_64_" d="M5.979,23.5h18.2l-0.4-0.6h-3.6l0.3-0.3l0.4-0.1l0.3-0.8l-0.8-0.9h-0.7l-0.6-0.2l-0.7,0.2l-0.3,0.4
			l0.1,0.6v0.4l0.7,0.7h-3c0,0-0.6-1-0.7-1.2s-0.1-0.5,0-0.7c0-0.2,0.2-0.2,0.2-0.4c0-0.2-0.3-0.7-0.4-0.9c-0.1-0.2-0.4-1-0.5-1.2
			s0.1-0.6,0.1-0.7s0.4-0.6,0.7-0.7c0.2-0.2,0.3-0.5,0.3-0.8c0-0.2-0.1-1-0.2-1.3c0-0.2-0.2-0.6-0.3-0.7c-0.1-0.1-0.2-0.6-0.2-0.7
			c-0.1-0.2,0-0.6,0-0.7c0-0.2-0.4-0.6-0.4-0.6l-0.9-0.9l-0.2-0.3L5.979,23.5z"/>
	</g>
</g>
</svg>
