<?xml version="1.0" encoding="utf-8"?>
<!-- Generator: Adobe Illustrator 21.0.0, SVG Export Plug-In . SVG Version: 6.00 Build 0)  -->
<svg version="1.1" id="Layer_1" xmlns="http://www.w3.org/2000/svg" xmlns:xlink="http://www.w3.org/1999/xlink" x="0px" y="0px"
	 width="30px" height="30px" viewBox="0 0 30 30" enable-background="new 0 0 30 30" xml:space="preserve">
<g>
	<g id="XMLID_1657_">
		<path id="XMLID_1659_" fill="#0E0B04" d="M27.95,24.5l-5.9-10.2l-5.9-10.2c-0.5-0.8-1.8-0.8-2.3,0l-5.9,10.2l-5.9,10.2
			c-0.5,0.8,0.1,2,1.2,2h11.7h11.8C27.85,26.5,28.45,25.5,27.95,24.5z M23.55,24h-8.6h-8.6c-0.6,0-0.9-0.6-0.7-1.1l4.3-7.4l4.3-7.4
			c0.3-0.5,1-0.5,1.3,0l4.3,7.4l4.3,7.4C24.45,23.4,24.15,24,23.55,24z"/>
		<polygon id="XMLID_1658_" fill="#F3B30B" points="4.95,24 14.85,6.4 24.75,24 		"/>
	</g>
	<path id="XMLID_1656_" d="M12.45,14.6v-1.5l2.3-1.7l2.3,1.7l-0.1,1.5l-1.7-1.3l0.1,4c0,0,1.7,1.8,4.1,3.1l-0.5,0.8
		c0,0-2.6-1.6-3.6-2.5v4.7h-1.1v-10L12.45,14.6z"/>
</g>
</svg>
