<?xml version="1.0" encoding="utf-8"?>
<!-- Generator: Adobe Illustrator 21.0.0, SVG Export Plug-In . SVG Version: 6.00 Build 0)  -->
<svg version="1.1" id="Layer_1" xmlns="http://www.w3.org/2000/svg" xmlns:xlink="http://www.w3.org/1999/xlink" x="0px" y="0px"
	 width="30px" height="30px" viewBox="0 0 30 30" enable-background="new 0 0 30 30" xml:space="preserve">
<g>
	<path id="XMLID_532_" fill="#0E0B04" d="M27.956,24.5l-5.9-10.2l-5.9-10.2c-0.5-0.8-1.8-0.8-2.3,0l-5.9,10.2l-5.9,10.2
		c-0.5,0.8,0.1,2,1.2,2h11.7h11.8C27.756,26.5,28.456,25.5,27.956,24.5z M23.557,24h-8.6h-8.6c-0.6,0-0.9-0.6-0.7-1.1l4.3-7.4
		l4.3-7.4c0.3-0.5,1-0.5,1.3,0l4.3,7.4l4.3,7.4C24.557,23.4,24.157,24,23.557,24z"/>
	<polygon id="XMLID_531_" fill="#F3B30B" points="5.057,24 14.856,6.4 24.756,24 	"/>
	<polygon id="XMLID_530_" fill="#070D07" points="19.756,15.6 24.456,23.9 5.256,23.9 	"/>
	<g id="XMLID_527_">
		<line id="XMLID_529_" fill="none" stroke="#F3B30B" stroke-miterlimit="10" x1="19.756" y1="18.4" x2="13.356" y2="22.2"/>
		<polygon id="XMLID_528_" fill="#F3B30B" points="12.356,22.9 12.856,20.5 14.356,19.8 13.756,21.5 13.956,22 16.256,22.6 
			14.456,23.3 		"/>
	</g>
</g>
</svg>
