<?xml version="1.0" encoding="utf-8"?>
<!-- Generator: Adobe Illustrator 21.0.0, SVG Export Plug-In . SVG Version: 6.00 Build 0)  -->
<svg version="1.1" id="Layer_1" xmlns="http://www.w3.org/2000/svg" xmlns:xlink="http://www.w3.org/1999/xlink" x="0px" y="0px"
	 width="30px" height="30px" viewBox="0 0 30 30" enable-background="new 0 0 30 30" xml:space="preserve">
<g>
	<path id="XMLID_83_" fill="#0E0B04" d="M3.224,26.5h11.8h11.7c1.1,0,1.7-1.2,1.2-2l-5.9-10.2l-5.9-10.2c-0.5-0.8-1.8-0.8-2.3,0
		l-5.9,10.2l-5.9,10.2C1.624,25.5,2.224,26.5,3.224,26.5z M5.724,22.9l4.3-7.4l4.3-7.4c0.3-0.5,1-0.5,1.3,0l4.3,7.4l4.3,7.4
		c0.2,0.5-0.1,1.1-0.7,1.1h-8.6h-8.6C5.724,24,5.424,23.4,5.724,22.9z"/>
	<polygon id="XMLID_82_" fill="#F3B30B" points="5.124,24 15.024,6.4 24.824,24 	"/>
	<path id="XMLID_19_" d="M7.424,20.5v3h15v-3h-3.5c0,0-0.3-2.3-3.8-2.7c-3.6,0.1-4.1,2.7-4.1,2.7H7.424z"/>
</g>
</svg>
