<?xml version="1.0" encoding="utf-8"?>
<!-- Generator: Adobe Illustrator 21.0.0, SVG Export Plug-In . SVG Version: 6.00 Build 0)  -->
<svg version="1.1" id="Layer_1" xmlns="http://www.w3.org/2000/svg" xmlns:xlink="http://www.w3.org/1999/xlink" x="0px" y="0px"
	 width="30px" height="30px" viewBox="0 0 30 30" enable-background="new 0 0 30 30" xml:space="preserve">
<g>
	<path id="XMLID_71_" fill="#0E0B04" d="M3.257,26.5h11.8h11.7c1.1,0,1.7-1.2,1.2-2l-5.9-10.2l-5.9-10.2c-0.5-0.8-1.8-0.8-2.3,0
		l-5.9,10.2l-5.9,10.2C1.557,25.5,2.057,26.5,3.257,26.5z M5.757,22.9l4.3-7.4l4.3-7.4c0.3-0.5,1-0.5,1.3,0l4.3,7.4l4.3,7.4
		c0.2,0.5-0.1,1.1-0.7,1.1h-8.6h-8.6C5.757,24,5.357,23.4,5.757,22.9z"/>
	<polygon id="XMLID_70_" fill="#F3B30B" points="4.857,24.1 14.857,6.5 24.957,24.1 	"/>
	<g id="XMLID_8_">
		<polygon id="XMLID_11_" points="9.757,17.1 10.257,17.1 10.757,16.2 11.357,17 14.357,17 14.757,16.2 15.357,17.1 18.357,17.1 
			18.857,16.2 19.557,17.1 19.857,17.1 19.857,18.2 19.557,18.2 19.557,21.5 19.857,21.5 19.857,22.6 19.557,22.6 19.557,23.3 
			18.357,23.3 18.357,22.6 15.357,22.6 15.357,23.3 14.357,23.3 14.357,22.6 11.357,22.6 11.357,23.3 10.257,23.3 10.257,22.6 
			9.757,22.6 9.757,21.5 10.257,21.5 10.257,18.2 9.757,18.2 		"/>
		<polygon id="XMLID_10_" fill="#F7BD42" points="14.057,17.9 11.157,17.9 11.157,21.8 14.057,21.8 		"/>
		<rect id="XMLID_9_" x="15.357" y="17.9" fill="#F7BD42" width="2.9" height="3.9"/>
	</g>
</g>
</svg>
