<?xml version="1.0" encoding="utf-8"?>
<!-- Generator: Adobe Illustrator 21.0.0, SVG Export Plug-In . SVG Version: 6.00 Build 0)  -->
<svg version="1.1" id="Layer_1" xmlns="http://www.w3.org/2000/svg" xmlns:xlink="http://www.w3.org/1999/xlink" x="0px" y="0px"
	 width="30px" height="30px" viewBox="0 0 30 30" enable-background="new 0 0 30 30" xml:space="preserve">
<g id="XMLID_157_">
	<path id="XMLID_161_" fill="#0E0B04" d="M27.95,24.5l-5.9-10.2l-5.9-10.2c-0.5-0.8-1.8-0.8-2.3,0l-5.9,10.2l-5.9,10.2
		c-0.5,0.8,0.1,2,1.2,2h11.7h11.8C27.85,26.5,28.45,25.5,27.95,24.5z M23.75,24h-8.6h-8.6c-0.6,0-0.9-0.6-0.7-1.1l4.3-7.4l4.3-7.4
		c0.3-0.5,1-0.5,1.3,0l4.3,7.4l4.3,7.4C24.65,23.4,24.35,24,23.75,24z"/>
	<polygon id="XMLID_160_" fill="#F3B30B" points="5.35,24 15.05,6.4 24.95,24 	"/>
	<path id="XMLID_159_" d="M18.85,23.4c-0.6,0-1.2,0-1.8,0c0-1.6,0-3.2,0-4.8c-0.5-1.1-0.9-2.2-1.4-3.3c0-1.2,0-2.5,0-3.7
		c0.6,0,1.2,0,1.7,0c0,1.2,0,2.3,0,3.5c0.5,1.1,1,2.2,1.4,3.3C18.85,20.2,18.85,21.8,18.85,23.4L18.85,23.4z"/>
	<rect id="XMLID_158_" x="12.35" y="11.7" width="1.7" height="11.7"/>
</g>
</svg>
