<?xml version="1.0" encoding="utf-8"?>
<!-- Generator: Adobe Illustrator 21.0.0, SVG Export Plug-In . SVG Version: 6.00 Build 0)  -->
<svg version="1.1" id="Layer_1" xmlns="http://www.w3.org/2000/svg" xmlns:xlink="http://www.w3.org/1999/xlink" x="0px" y="0px"
	 width="30px" height="30px" viewBox="0 0 30 30" enable-background="new 0 0 30 30" xml:space="preserve">
<g>
	<g id="XMLID_1834_">
		<path id="XMLID_1836_" fill="#0E0B04" d="M3.279,23.1h11.8h11.7c1.1,0,1.7-1.2,1.2-2l-5.9-10.2l-5.9-10.2c-0.5-0.8-1.8-0.8-2.3,0
			l-5.9,10.2l-5.9,10.2C1.479,22.1,2.079,23.1,3.279,23.1z M5.779,19.5l4.3-7.4l4.3-7.4c0.3-0.5,1-0.5,1.3,0l4.3,7.4l4.3,7.4
			c0.2,0.5-0.1,1.1-0.7,1.1h-8.6h-8.6C5.779,20.6,5.479,20,5.779,19.5z"/>
		<polygon id="XMLID_1835_" fill="#F3B30B" points="4.879,20.7 14.779,3.1 24.979,20.7 		"/>
	</g>
	<g id="XMLID_1821_">
		<circle id="XMLID_1833_" cx="11.779" cy="19.2" r="0.8"/>
		<circle id="XMLID_1832_" cx="14.479" cy="19.2" r="0.8"/>
		<circle id="XMLID_1831_" cx="17.479" cy="19.2" r="0.8"/>
		<path id="XMLID_1830_" d="M16.879,9c-0.2,0-0.4,0-0.5,0.1c-0.2-0.4-0.6-0.6-1.1-0.6s-0.9,0.3-1.1,0.7c-0.1,0-0.2,0-0.4,0
			c-1.1,0-1.9,0.9-1.9,1.9c0,0.3,0,0.5,0.1,0.7c-0.1,0-0.2,0-0.3,0c-0.5,0-0.8,0.4-0.8,0.8c0,0.1,0,0.1,0,0.2
			c-0.3,0.1-0.4,0.3-0.4,0.6c0,0.3,0.3,0.6,0.6,0.6s0.6-0.2,0.6-0.6l0,0c0.3,0,0.5-0.1,0.7-0.3c0.1,0.3,0.5,0.6,0.8,0.6
			c0.4,0,0.8-0.3,0.9-0.7c0.8-0.1,1.5-0.8,1.6-1.6c0.3,0.4,0.7,0.6,1.2,0.6c0.8,0,1.5-0.7,1.5-1.5C18.379,9.7,17.779,9,16.879,9z"/>
		<g id="XMLID_1822_">
			<path id="XMLID_1829_" d="M9.779,15.3c0,0-0.2,0.8-0.2,1.6c0,0.8,0.2,1.6,0.2,1.6h-0.2V19h1.3v-0.7h7.6V19h2.1v-0.7h-0.3v-3.1
				h0.3v-0.4h-3.2v0.6h-0.8c0-0.1,0-0.2,0-0.2c0-0.2-0.2-0.4-0.4-0.4c-0.2,0-0.4,0.2-0.4,0.4v0.2h-1.2c0-0.2-0.2-0.4-0.4-0.4
				s-0.4,0.2-0.4,0.4h-2.4v-1h-1v1"/>
			<path id="XMLID_1823_" d="M18.479,18.3L18.479,18.3L18.479,18.3L18.479,18.3L18.479,18.3L18.479,18.3L18.479,18.3L18.479,18.3
				L18.479,18.3L18.479,18.3L18.479,18.3L18.479,18.3L18.479,18.3L18.479,18.3L18.479,18.3L18.479,18.3L18.479,18.3L18.479,18.3
				L18.479,18.3L18.479,18.3z M18.479,18.3L18.479,18.3L18.479,18.3L18.479,18.3L18.479,18.3L18.479,18.3L18.479,18.3L18.479,18.3
				L18.479,18.3L18.479,18.3L18.479,18.3z M18.479,18.3L18.479,18.3L18.479,18.3L18.479,18.3L18.479,18.3L18.479,18.3L18.479,18.3z
				 M18.479,18.3L18.479,18.3L18.479,18.3L18.479,18.3L18.479,18.3z M18.479,18.3L18.479,18.3L18.479,18.3L18.479,18.3L18.479,18.3z
				"/>
		</g>
	</g>
	<polygon id="XMLID_1818_" fill="#F71934" points="10.879,24.9 10.879,26.1 16.879,24.5 16.879,23.2 	"/>
	<polygon id="XMLID_1819_" fill="#F71934" points="10.879,26.7 10.879,28 16.879,26.4 16.879,25 	"/>
	<polygon id="XMLID_1839_" fill="#F71934" points="10.879,28.6 10.879,29.8 16.879,28.2 16.879,26.9 	"/>
	<g id="XMLID_1820_">
		<path d="M16.779,23.4v6.2h-5.7v-6.2H16.779 M17.079,23.1h-6.3v6.8h6.3V23.1L17.079,23.1z"/>
	</g>
</g>
</svg>
