<?xml version="1.0" encoding="utf-8"?>
<!-- Generator: Adobe Illustrator 21.0.0, SVG Export Plug-In . SVG Version: 6.00 Build 0)  -->
<svg version="1.1" id="Layer_1" xmlns="http://www.w3.org/2000/svg" xmlns:xlink="http://www.w3.org/1999/xlink" x="0px" y="0px"
	 width="30px" height="30px" viewBox="0 0 30 30" enable-background="new 0 0 30 30" xml:space="preserve">
<g>
	<path id="XMLID_95_" fill="#0E0B04" d="M3.229,26.5h11.8h11.7c1.1,0,1.7-1.2,1.2-2l-5.9-10.2l-5.9-10.2c-0.5-0.8-1.8-0.8-2.3,0
		l-5.9,10.2l-5.9,10.2C1.629,25.5,2.129,26.5,3.229,26.5z M5.729,22.9l4.3-7.4l4.3-7.4c0.3-0.5,1-0.5,1.3,0l4.3,7.4l4.3,7.4
		c0.2,0.5-0.1,1.1-0.7,1.1h-8.6h-8.6C5.729,24,5.529,23.4,5.729,22.9z"/>
	<polygon id="XMLID_94_" fill="#F3B30B" points="5.029,24 14.929,6.4 24.829,24 	"/>
	<polygon id="XMLID_27_" points="11.629,13.9 14.529,16.2 13.729,16.2 13.729,22.4 23.129,22.4 24.029,23.5 6.129,23.5 	"/>
	<rect id="XMLID_26_" x="9.929" y="17.8" fill="#F7BD42" width="1.1" height="1.4"/>
	<rect id="XMLID_25_" x="11.429" y="17.8" fill="#F7BD42" width="1.1" height="1.4"/>
	<rect id="XMLID_24_" x="11.429" y="19.6" fill="#F7BD42" width="1.1" height="2.5"/>
	<rect id="XMLID_23_" x="9.929" y="19.6" fill="#F7BD42" width="1.1" height="2.5"/>
	<polygon id="XMLID_22_" points="18.129,13.2 20.029,17.6 19.629,17.6 20.029,18.5 19.529,18.5 20.029,19.7 18.129,19.7 
		18.129,22.4 17.629,22.4 17.629,19.7 16.029,19.7 16.629,18.6 16.029,18.6 16.629,17.6 16.029,17.6 	"/>
</g>
</svg>
