<?xml version="1.0" encoding="utf-8"?>
<!-- Generator: Adobe Illustrator 21.0.0, SVG Export Plug-In . SVG Version: 6.00 Build 0)  -->
<svg version="1.1" id="Layer_1" xmlns="http://www.w3.org/2000/svg" xmlns:xlink="http://www.w3.org/1999/xlink" x="0px" y="0px"
	 width="30px" height="30px" viewBox="0 0 30 30" enable-background="new 0 0 30 30" xml:space="preserve">
<g>
	<path id="XMLID_148_" fill="#0E0B04" d="M27.95,24.5l-5.9-10.2l-5.9-10.2c-0.5-0.8-1.8-0.8-2.3,0l-5.9,10.2l-5.9,10.2
		c-0.5,0.8,0.1,2,1.2,2h11.7h11.8C27.85,26.5,28.45,25.5,27.95,24.5z M23.55,24h-8.6h-8.6c-0.6,0-0.9-0.6-0.7-1.1l4.3-7.4l4.3-7.4
		c0.3-0.5,1-0.5,1.3,0l4.3,7.4l4.3,7.4C24.45,23.4,24.15,24,23.55,24z"/>
	<polygon id="XMLID_147_" fill="#F3B30B" points="5.05,24 14.95,6.4 24.85,24 	"/>
	<polygon id="XMLID_146_" points="12.35,12.1 13.45,12.1 13.45,14.2 14.05,15.6 14.05,19.8 13.15,21.5 13.15,23.5 12.15,23.5 
		12.15,21.4 13.05,19.6 13.05,15.8 12.35,14.2 	"/>
	<polygon id="XMLID_145_" points="17.55,12.1 16.45,12.1 16.45,14.2 15.85,15.6 15.85,19.8 16.65,21.5 16.65,23.5 17.65,23.5 
		17.65,21.4 16.95,19.6 16.95,15.8 17.55,14.2 	"/>
</g>
</svg>
