<?xml version="1.0" encoding="utf-8"?>
<!-- Generator: Adobe Illustrator 21.0.0, SVG Export Plug-In . SVG Version: 6.00 Build 0)  -->
<svg version="1.1" id="Layer_1" xmlns="http://www.w3.org/2000/svg" xmlns:xlink="http://www.w3.org/1999/xlink" x="0px" y="0px"
	 width="30px" height="30px" viewBox="0 0 30 30" enable-background="new 0 0 30 30" xml:space="preserve">
<g>
	<path id="XMLID_181_" fill="#0E0B04" d="M27.956,24.5l-5.9-10.2l-5.9-10.2c-0.5-0.8-1.8-0.8-2.3,0l-5.9,10.2l-5.9,10.2
		c-0.5,0.8,0.1,2,1.2,2h11.7h11.8C27.756,26.5,28.456,25.5,27.956,24.5z M23.656,24h-8.6h-8.6c-0.6,0-0.9-0.6-0.7-1.1l4.3-7.4
		l4.3-7.4c0.3-0.5,1-0.5,1.3,0l4.3,7.4l4.3,7.4C24.456,23.4,24.156,24,23.656,24z"/>
	<polygon id="XMLID_180_" fill="#F3B30B" points="5.256,24 15.056,6.4 24.856,24 	"/>
	<g id="XMLID_178_">
		<path id="XMLID_179_" d="M11.656,14l4.3-3.6l1.2,2.6l-1.4,1.2c0,0-0.2,0.2,0.1,0.4c0.3,0.3,1.2,0.9,1.2,0.9s0.5,0.7-0.1,1.2
			c-0.7,0.5-1.2,0.9-1.2,0.9s-0.2,0.2,0,0.4c0.2,0.1,1.2,1,1.2,1s0.5,0.6-0.1,1.1c-0.5,0.5-4.2,3.4-4.2,3.4l-1-2.5l1.5-1.3l-1.5-1.4
			c0,0-0.5-0.6,0.1-1.1s1.4-1.2,1.4-1.2l-1.6-1.3C11.656,14.8,11.256,14.4,11.656,14z"/>
	</g>
</g>
</svg>
