<?xml version="1.0" encoding="utf-8"?>
<!-- Generator: Adobe Illustrator 21.0.0, SVG Export Plug-In . SVG Version: 6.00 Build 0)  -->
<svg version="1.1" id="Layer_1" xmlns="http://www.w3.org/2000/svg" xmlns:xlink="http://www.w3.org/1999/xlink" x="0px" y="0px"
	 width="30px" height="30px" viewBox="0 0 30 30" enable-background="new 0 0 30 30" xml:space="preserve">
<g>
	<g id="XMLID_455_">
		<path id="XMLID_459_" fill="#0E0B04" d="M3.279,26.5h11.8h11.7c1.1,0,1.7-1.2,1.2-2l-5.9-10.2l-5.9-10.2c-0.5-0.8-1.8-0.8-2.3,0
			l-5.9,10.2l-5.9,10.2C1.479,25.5,2.079,26.5,3.279,26.5z M5.779,22.9l4.3-7.4l4.3-7.4c0.3-0.5,1-0.5,1.3,0l4.3,7.4l4.3,7.4
			c0.2,0.5-0.1,1.1-0.7,1.1h-8.6h-8.6C5.779,24,5.379,23.4,5.779,22.9z"/>
		<polygon id="XMLID_458_" fill="#F3B30B" points="5.079,24 14.979,6.4 24.879,24 		"/>
	</g>
	<g id="XMLID_442_">
		<path id="XMLID_1683_" d="M13.579,10.5c0,0,0.2,5.3,1.3,5.3s1.1-5.3,1.1-5.3H13.579z"/>
		<path id="XMLID_1682_" d="M10.279,18.2v-1.4l1.5-1.6l1.5,1.6v1.4l-1-0.8v1.9c0,0-0.1,0.5,0.5,0.6c0.6,0,1.7-0.2,2.2,0.8
			c0,0,0.2-0.8,1-0.8s1.6,0.2,1.6-0.5s0-2.1,0-2.1l-1,1v-1.4l1.6-1.6l1.5,1.6v1.5l-1-1v2.3c0,0,0.1,1.4-1.6,1.4c0,0-1.1-0.3-1.1,0.4
			c0,0.7,0,2.1,0,2.1h-2.1v-2.3c0,0,0-0.4-0.5-0.4s-2.2,0.3-2.2-1s0-2.5,0-2.5L10.279,18.2z"/>
	</g>
</g>
</svg>
