<?xml version="1.0" encoding="utf-8"?>
<!-- Generator: Adobe Illustrator 21.0.0, SVG Export Plug-In . SVG Version: 6.00 Build 0)  -->
<svg version="1.1" id="Layer_1" xmlns="http://www.w3.org/2000/svg" xmlns:xlink="http://www.w3.org/1999/xlink" x="0px" y="0px"
	 width="30px" height="30px" viewBox="0 0 30 30" enable-background="new 0 0 30 30" xml:space="preserve">
<g>
	<path id="XMLID_91_" fill="#0E0B04" d="M3.25,26.5h11.8h11.7c1.1,0,1.7-1.2,1.2-2l-5.9-10.2l-5.9-10.2c-0.5-0.8-1.8-0.8-2.3,0
		l-5.9,10.2l-5.9,10.2C1.55,25.5,2.15,26.5,3.25,26.5z M5.65,22.9l4.3-7.4l4.3-7.4c0.3-0.5,1-0.5,1.3,0l4.3,7.4l4.3,7.4
		c0.2,0.5-0.1,1.1-0.7,1.1h-8.6h-8.6C5.65,24,5.35,23.4,5.65,22.9z"/>
	<polygon id="XMLID_90_" fill="#F3B30B" points="4.95,24 14.95,6.4 24.75,24 	"/>
	<path id="XMLID_21_" d="M7.25,23.4h5.9v-2.6c0.5-2.2,3.4-2.1,3.9,0v2.7h5.8v-2.6l-2.9-0.1c-1.3-1.6-2.5-3.5-4.6-3.6
		c-1.7,0-3.1,0.8-5.1,3.7h-3L7.25,23.4L7.25,23.4z"/>
</g>
</svg>
