<?xml version="1.0" encoding="utf-8"?>
<!-- Generator: Adobe Illustrator 21.0.0, SVG Export Plug-In . SVG Version: 6.00 Build 0)  -->
<svg version="1.1" id="Layer_1" xmlns="http://www.w3.org/2000/svg" xmlns:xlink="http://www.w3.org/1999/xlink" x="0px" y="0px"
	 width="30px" height="30px" viewBox="0 0 30 30" enable-background="new 0 0 30 30" xml:space="preserve">
<g>
	<path id="XMLID_87_" fill="#0E0B04" d="M3.224,26.5h11.8h11.7c1.1,0,1.7-1.2,1.2-2l-5.9-10.2l-5.9-10.2c-0.5-0.8-1.8-0.8-2.3,0
		l-5.9,10.2l-5.9,10.2C1.624,25.5,2.224,26.5,3.224,26.5z M5.724,22.9l4.3-7.4l4.3-7.4c0.3-0.5,1-0.5,1.3,0l4.3,7.4l4.3,7.4
		c0.2,0.5-0.1,1.1-0.7,1.1h-8.6h-8.6C5.724,24,5.524,23.4,5.724,22.9z"/>
	<polygon id="XMLID_86_" fill="#F3B30B" points="5.024,24 15.124,6.4 24.824,24 	"/>
	<path id="XMLID_20_" d="M5.824,23.5h18.1l-1.6-2.9h-0.4c-1.2,0-1.5-2.6-3.1-2.6c-1.7,0-1.8,2.9-3.5,2.9c-1.6,0-1.6-2.9-3.3-2.9
		c-1.6,0-2.1,2.6-3.4,2.6h-1.1L5.824,23.5L5.824,23.5z"/>
</g>
</svg>
