<?xml version="1.0" encoding="utf-8"?>
<!-- Generator: Adobe Illustrator 21.0.0, SVG Export Plug-In . SVG Version: 6.00 Build 0)  -->
<svg version="1.1" id="Layer_1" xmlns="http://www.w3.org/2000/svg" xmlns:xlink="http://www.w3.org/1999/xlink" x="0px" y="0px"
	 width="30px" height="30px" viewBox="0 0 30 30" enable-background="new 0 0 30 30" xml:space="preserve">
<g>
	<path id="XMLID_111_" fill="#0E0B04" d="M3.271,26.5h11.8h11.7c1.1,0,1.7-1.2,1.2-2l-5.9-10.2l-5.9-10.2c-0.5-0.8-1.8-0.8-2.3,0
		l-5.9,10.2l-5.9,10.2C1.471,25.5,2.171,26.5,3.271,26.5z M5.771,22.9l4.3-7.4l4.3-7.4c0.3-0.5,1-0.5,1.3,0l4.3,7.4l4.3,7.4
		c0.2,0.5-0.1,1.1-0.7,1.1h-8.6h-8.6C5.771,24,5.371,23.4,5.771,22.9z"/>
	<polygon id="XMLID_110_" fill="#F3B30B" points="5.171,24 14.971,6.4 24.871,24 	"/>
	<g id="XMLID_57_">
		<path id="XMLID_62_" d="M21.371,19.4l-0.4-0.2l-6.7-2.9l0,0l0,0l-4.8,0.9v6.2h0.9v-5.5l2.3,2.6l0,0l0,0l7.5,2
			c0.8,0.2,1.5-0.5,1.8-1.3C22.271,20.4,21.971,19.7,21.371,19.4z"/>
		<path id="XMLID_61_" fill="#F7BD42" d="M11.671,19.3l-1.7-1.9l2.6-0.5C12.071,17.4,11.671,18.2,11.671,19.3z"/>
		<path id="XMLID_60_" fill="#F7BD42" d="M15.271,21c-0.5-0.1-1-0.3-1.5-0.4c-0.4-0.4-0.6-1.1-0.4-1.8c0.3-0.9,1-1.6,1.7-1.6
			l1.3,0.6C15.971,17.7,14.171,19.2,15.271,21z"/>
		<path id="XMLID_59_" fill="#F7BD42" d="M18.271,21.8c-0.4-0.1-0.8-0.2-1.2-0.3c-0.5-0.2-0.8-0.9-0.5-1.7c0.2-0.8,0.9-1.4,1.5-1.4
			l1.3,0.6C18.671,19,17.471,20.2,18.271,21.8z"/>
		<path id="XMLID_58_" fill="#F7BD42" d="M21.571,21.2c-0.2,0.7-0.8,1.3-1.4,1.1c0,0,0,0-0.1,0c-0.4-0.2-0.5-0.8-0.4-1.5
			c0.2-0.7,0.8-1.2,1.3-1.2c0.1,0,0.2,0.1,0.2,0.1C21.671,19.9,21.671,20.6,21.571,21.2z"/>
	</g>
</g>
</svg>
