<?xml version="1.0" encoding="utf-8"?>
<!-- Generator: Adobe Illustrator 21.0.0, SVG Export Plug-In . SVG Version: 6.00 Build 0)  -->
<svg version="1.1" id="Layer_1" xmlns="http://www.w3.org/2000/svg" xmlns:xlink="http://www.w3.org/1999/xlink" x="0px" y="0px"
	 width="30px" height="30px" viewBox="0 0 30 30" enable-background="new 0 0 30 30" xml:space="preserve">
<g id="XMLID_1633_">
	<path id="XMLID_1636_" fill="#FF001F" d="M2.049,5.5l5.9,10.2l5.9,10.2c0.5,0.8,1.8,0.8,2.3,0l5.9-10.2l5.9-10.2
		c0.5-0.8-0.1-2-1.2-2h-11.7H3.35C2.149,3.6,1.549,4.7,2.049,5.5z M6.249,6h8.6h8.6c0.6,0,0.9,0.6,0.7,1.1l-4.3,7.4l-4.3,7.4
		c-0.3,0.5-1,0.5-1.3,0l-4.3-7.4l-4.3-7.4C5.349,6.6,5.649,6,6.249,6z"/>
	<g id="XMLID_1634_">
		
			<text id="XMLID_1635_" transform="matrix(1 0 0 1 9.9395 14.3814)" fill="#070D07" font-family="'MicrosoftYaHei-Bold'" font-size="9px">шой</text>
	</g>
</g>
</svg>
