<?xml version="1.0" encoding="utf-8"?>
<!-- Generator: Adobe Illustrator 21.0.0, SVG Export Plug-In . SVG Version: 6.00 Build 0)  -->
<svg version="1.1" id="Layer_1" xmlns="http://www.w3.org/2000/svg" xmlns:xlink="http://www.w3.org/1999/xlink" x="0px" y="0px"
	 width="30px" height="30px" viewBox="0 0 30 30" enable-background="new 0 0 30 30" xml:space="preserve">
<g>
	<g id="XMLID_1640_">
		<path id="XMLID_1642_" fill="#0E0B04" d="M3.229,26.5h11.8h11.7c1.1,0,1.7-1.2,1.2-2l-5.9-10.2l-5.9-10.2c-0.5-0.8-1.8-0.8-2.3,0
			l-5.9,10.2l-5.9,10.2C1.629,25.5,2.129,26.5,3.229,26.5z M5.729,22.9l4.3-7.4l4.3-7.4c0.3-0.5,1-0.5,1.3,0l4.3,7.4l4.3,7.4
			c0.2,0.5-0.1,1.1-0.7,1.1h-8.6h-8.6C5.729,24,5.529,23.4,5.729,22.9z"/>
		<polygon id="XMLID_1641_" fill="#F3B30B" points="5.029,24 14.929,6.4 24.829,24 		"/>
	</g>
	<path id="XMLID_1731_" d="M13.729,23.3V18c0,0,0.4-2,2.2-2.4c1.8-0.4,2.2,0,2.2,0s1.7,0.7,2,2.1s0,5.6,0,5.6L13.729,23.3
		L13.729,23.3z"/>
	<path id="XMLID_1730_" fill="#F3B30B" d="M14.429,23.3v-5.2c0,0,0.3-1.5,1.7-1.8c1.4-0.3,1.7,0,1.7,0s1.4,0.7,1.5,1.9
		c0.1,1,0,5.1,0,5.1H14.429L14.429,23.3z"/>
	<path id="XMLID_1729_" d="M14.729,23.3v-4.9c0,0,0.3-1.4,1.5-1.6c1.2-0.3,1.5,0,1.5,0s1.3,0.7,1.4,1.7c0.1,0.9,0,4.9,0,4.9
		L14.729,23.3L14.729,23.3z"/>
	<path id="XMLID_1728_" fill="#F3B30B" d="M15.829,20.9v-2.2c0,0,0.4-0.7,0.9-0.8c0.5,0,0.9,0.7,0.9,0.7v2.2L15.829,20.9
		L15.829,20.9z"/>
	<polygon id="XMLID_1727_" fill="#F3B30B" points="14.729,23.3 15.929,20.9 17.829,20.9 19.029,23.3 	"/>
	<polygon id="XMLID_1726_" points="15.129,23.3 16.529,20.9 17.629,20.9 18.929,23.3 	"/>
	<polygon id="XMLID_1724_" fill="none" points="13.229,22.4 18.929,20.3 18.929,23.2 	"/>
	<polygon id="XMLID_1723_" points="7.029,22.7 7.429,21.8 8.129,21.8 8.729,21.3 10.629,21.3 11.529,21.8 12.629,22 13.129,22.1 
		13.229,22.8 7.929,22.9 7.629,22.6 	"/>
	<polygon id="XMLID_1722_" fill="#F5AB28" points="8.429,21.9 8.829,21.4 9.429,21.4 9.429,21.9 	"/>
	<polygon id="XMLID_1721_" fill="#F5AB28" points="9.729,21.9 9.729,21.4 10.429,21.4 10.829,21.9 	"/>
	<circle id="XMLID_1720_" cx="8.229" cy="22.9" r="0.5"/>
	<circle id="XMLID_1719_" fill="#F5AB28" cx="8.029" cy="22.9" r="0.3"/>
	<circle id="XMLID_1718_" cx="12.129" cy="22.9" r="0.5"/>
	<circle id="XMLID_1717_" fill="#F5AB28" cx="11.929" cy="22.9" r="0.3"/>
	<polygon id="XMLID_1716_" fill="#F3B30B" points="13.329,22.4 19.029,20.3 19.029,23.3 	"/>
</g>
</svg>
