<?xml version="1.0" encoding="utf-8"?>
<!-- Generator: Adobe Illustrator 21.0.0, SVG Export Plug-In . SVG Version: 6.00 Build 0)  -->
<svg version="1.1" id="Layer_1" xmlns="http://www.w3.org/2000/svg" xmlns:xlink="http://www.w3.org/1999/xlink" x="0px" y="0px"
	 width="30px" height="30px" viewBox="0 0 30 30" enable-background="new 0 0 30 30" xml:space="preserve">
<g>
	<g id="XMLID_1651_">
		<path id="XMLID_1653_" fill="#0E0B04" d="M3.229,26.5h11.8h11.7c1.1,0,1.7-1.2,1.2-2l-5.9-10.2l-5.9-10.2c-0.5-0.8-1.8-0.8-2.3,0
			l-5.9,10.2l-5.9,10.2C1.629,25.5,2.129,26.5,3.229,26.5z M5.729,22.9l4.3-7.4l4.3-7.4c0.3-0.5,1-0.5,1.3,0l4.3,7.4l4.3,7.4
			c0.2,0.5-0.1,1.1-0.7,1.1h-8.6h-8.6C5.729,24,5.529,23.4,5.729,22.9z"/>
		<polygon id="XMLID_1652_" fill="#F3B30B" points="5.029,24 14.929,6.4 24.829,24 		"/>
	</g>
	<path id="XMLID_1755_" d="M15.929,13.5v10h-1.1v-4.7c-1,1-3.6,2.5-3.6,2.5l-0.5-0.8c2.5-1.3,4.1-3.1,4.1-3.1l0.1-4l-1.7,1.3
		l-0.1-1.5l2.3-1.7l2.3,1.7v1.5L15.929,13.5z"/>
</g>
</svg>
