<?xml version="1.0" encoding="utf-8"?>
<!-- Generator: Adobe Illustrator 21.0.0, SVG Export Plug-In . SVG Version: 6.00 Build 0)  -->
<svg version="1.1" id="Layer_1" xmlns="http://www.w3.org/2000/svg" xmlns:xlink="http://www.w3.org/1999/xlink" x="0px" y="0px"
	 width="30px" height="30px" viewBox="0 0 30 30" enable-background="new 0 0 30 30" xml:space="preserve">
<g>
	<path id="XMLID_1630_" fill="#FF001F" d="M3.229,26.5h11.8h11.7c1.1,0,1.7-1.2,1.2-2l-5.9-10.2l-5.9-10.2c-0.5-0.8-1.8-0.8-2.3,0
		l-5.9,10.2l-5.9,10.2C1.629,25.5,2.129,26.5,3.229,26.5z M5.729,22.9l4.3-7.4l4.3-7.4c0.3-0.5,1-0.5,1.3,0l4.3,7.4l4.3,7.4
		c0.2,0.5-0.1,1.1-0.7,1.1h-8.6h-8.6C5.729,24,5.529,23.4,5.729,22.9z"/>
	<path id="XMLID_1706_" fill="#F71934" d="M15.129,20.2c0.8,0,1.5,0.7,1.5,1.6s-0.7,1.6-1.5,1.6s-1.5-0.7-1.5-1.6
		C13.629,20.9,14.229,20.2,15.129,20.2L15.129,20.2z M13.629,12.7l0.7,6.4h1.5l0.7-6.4c0.1-0.8-0.6-1.9-1.5-1.9
		S13.529,11.9,13.629,12.7L13.629,12.7z"/>
</g>
</svg>
