<?xml version="1.0" encoding="utf-8"?>
<!-- Generator: Adobe Illustrator 21.0.0, SVG Export Plug-In . SVG Version: 6.00 Build 0)  -->
<svg version="1.1" id="Layer_1" xmlns="http://www.w3.org/2000/svg" xmlns:xlink="http://www.w3.org/1999/xlink" x="0px" y="0px"
	 width="30px" height="30px" viewBox="0 0 30 30" enable-background="new 0 0 30 30" xml:space="preserve">
<g>
	<circle id="XMLID_4005_" fill="#FFFFFF" cx="15.2" cy="15.05" r="15"/>
	<polygon id="XMLID_1695_" fill="#231815" points="20.312,1.495 21.016,2.163 2.085,21.204 1.381,20.537 	"/>
	<polygon id="XMLID_1694_" fill="#231815" points="21.739,2.453 22.443,3.12 2.487,23.193 1.783,22.526 	"/>
	<polygon id="XMLID_1693_" fill="#231815" points="23.735,3.95 24.439,4.617 4.346,24.827 3.642,24.16 	"/>
	<polygon id="XMLID_1692_" fill="#231815" points="25.506,5.527 26.211,6.195 6.049,26.474 5.345,25.806 	"/>
	<polygon id="XMLID_1691_" fill="#231815" points="27.254,6.869 27.958,7.536 8.002,27.609 7.298,26.942 	"/>
	<polygon id="XMLID_1686_" fill="#231815" points="28.177,8.599 28.881,9.266 9.267,28.995 8.563,28.328 	"/>
	<g id="XMLID_1697_">
		<path d="M14.8,0.95c7.72,0,14,6.28,14,14s-6.28,14-14,14s-14-6.28-14-14S7.08,0.95,14.8,0.95 M14.8-0.05c-8.284,0-15,6.716-15,15
			s6.716,15,15,15s15-6.716,15-15S23.084-0.05,14.8-0.05L14.8-0.05z"/>
	</g>
</g>
</svg>
