<?xml version="1.0" encoding="utf-8"?>
<!-- Generator: Adobe Illustrator 21.0.0, SVG Export Plug-In . SVG Version: 6.00 Build 0)  -->
<svg version="1.1" id="Layer_1" xmlns="http://www.w3.org/2000/svg" xmlns:xlink="http://www.w3.org/1999/xlink" x="0px" y="0px"
	 width="30px" height="30px" viewBox="0 0 30 30" enable-background="new 0 0 30 30" xml:space="preserve">
<g>
	<path id="XMLID_75_" fill="#0E0B04" d="M3.229,26.5h11.8h11.7c1.1,0,1.7-1.2,1.2-2l-5.9-10.2l-5.9-10.2c-0.5-0.8-1.8-0.8-2.3,0
		l-5.9,10.2l-5.9,10.2C1.629,25.5,2.129,26.5,3.229,26.5z M5.729,22.9l4.3-7.4l4.3-7.4c0.3-0.5,1-0.5,1.3,0l4.3,7.4l4.3,7.4
		c0.2,0.5-0.1,1.1-0.7,1.1h-8.6h-8.6C5.729,24,5.429,23.4,5.729,22.9z"/>
	<polygon id="XMLID_74_" fill="#F3B30B" points="5.029,24 15.029,6.4 24.829,24 	"/>
	<path id="XMLID_18_" stroke="#231815" stroke-width="0.0037" stroke-miterlimit="2.6131" d="M18.729,19.3v1.3
		c0,0.1-0.1,0.2-0.2,0.2h-0.4c-0.1,0-0.2-0.1-0.2-0.2v-1.3h-4.9v1.3c0,0.1-0.1,0.2-0.2,0.2h-0.4c-0.1,0-0.2-0.1-0.2-0.2v-1.3
		c-0.2,0-0.4-0.2-0.4-0.4v-1.8c0-0.2,0.2-0.4,0.4-0.4l0.5-1.4c0.1-0.3,0.2-0.6,0.4-0.6h4.8c0.2,0,0.3,0.3,0.4,0.6l0.4,1.4
		c0.2,0,0.4,0.2,0.4,0.4v1.8C19.129,19.1,18.929,19.2,18.729,19.3L18.729,19.3z"/>
	<path id="XMLID_17_" fill="#F3B30B" d="M13.429,15.2h4.1c0.2,0,0.3,0.2,0.3,0.4l0.4,1.3c0.1,0.2-0.6,0.4-0.8,0.4h-4.1
		c-0.2,0-0.9-0.2-0.8-0.4l0.5-1.3C13.229,15.4,13.229,15.2,13.429,15.2L13.429,15.2z"/>
	
		<circle id="XMLID_16_" fill="#F7D65A" stroke="#231815" stroke-width="0.0037" stroke-miterlimit="2.6131" cx="12.229" cy="17.7" r="0.4"/>
	
		<circle id="XMLID_15_" fill="#F7D65A" stroke="#231815" stroke-width="0.0037" stroke-miterlimit="2.6131" cx="18.229" cy="17.9" r="0.4"/>
	<path id="XMLID_14_" d="M8.129,20.3c0,0,1.3-4.8,4.4,0.9C12.429,21.2,10.429,18.4,8.129,20.3z"/>
	<path id="XMLID_13_" d="M18.629,20.9c0,0,1.8-2.9,3.2,0.1l0.7,0.2C22.429,21.1,21.129,15.5,18.629,20.9z"/>
	<path id="XMLID_12_" d="M7.729,21.3h14.7l1,2.1h-16.8L7.729,21.3z"/>
</g>
</svg>
