<?xml version="1.0" encoding="utf-8"?>
<!-- Generator: Adobe Illustrator 21.0.0, SVG Export Plug-In . SVG Version: 6.00 Build 0)  -->
<svg version="1.1" id="Layer_1" xmlns="http://www.w3.org/2000/svg" xmlns:xlink="http://www.w3.org/1999/xlink" x="0px" y="0px"
	 width="30px" height="30px" viewBox="0 0 30 30" enable-background="new 0 0 30 30" xml:space="preserve">
<g>
	<path id="XMLID_107_" fill="#0E0B04" d="M3.224,26.5h11.8h11.7c1.1,0,1.7-1.2,1.2-2l-5.9-10.2l-5.9-10.2c-0.5-0.8-1.8-0.8-2.3,0
		l-5.9,10.2l-5.9,10.2C1.624,25.5,2.224,26.5,3.224,26.5z M5.824,22.9l4.3-7.4l4.3-7.4c0.3-0.5,1-0.5,1.3,0l4.3,7.4l4.3,7.4
		c0.2,0.5-0.1,1.1-0.7,1.1h-8.6h-8.6C5.824,24,5.424,23.4,5.824,22.9z"/>
	<polygon id="XMLID_106_" fill="#F3B30B" points="5.224,24 15.224,6.4 24.924,24 	"/>
	<g id="XMLID_52_">
		<path id="XMLID_56_" fill="#231815" d="M17.824,16l-0.2,1.1c0,0.1-0.1,0.2-0.2,0.2l-0.4-0.1c-0.1,0-0.2-0.1-0.2-0.2l0.2-1.1
			l-4.3-0.6l-0.2,1.1c0,0.1-0.1,0.2-0.2,0.2l-0.4-0.1c-0.1,0-0.2-0.1-0.2-0.2l0.2-1.1c-0.2,0-0.3-0.2-0.3-0.4l0.2-1.6
			c0-0.2,0.2-0.3,0.4-0.3l0.6-1.2c0.1-0.3,0.2-0.5,0.4-0.5l4.2,0.6c0.2,0,0.2,0.3,0.3,0.6l0.2,1.3c0.2,0.1,0.3,0.2,0.3,0.4l-0.2,1.6
			C17.924,15.9,17.824,16,17.824,16L17.824,16z"/>
		<path id="XMLID_55_" fill="#F7BD42" d="M13.224,11.6l3.6,0.5c0.2,0,0.2,0.2,0.2,0.4l0.2,1.2c0,0.2-0.6,0.3-0.8,0.3l-3.6-0.5
			c-0.2,0-0.8-0.3-0.7-0.5l0.6-1.1C13.024,11.7,13.124,11.6,13.224,11.6L13.224,11.6z"/>
		<path id="XMLID_54_" fill="#231815" stroke="#231815" stroke-width="0.0037" stroke-miterlimit="2.6131" d="M11.824,16.6
			c-0.2,0.5-2.3,1.7-1.8,2.7c0.5,1.1,5.1,2.4,3.1,4.1h1.8c1.7-2.2-3.3-2.9-4.1-4.1c-0.8-1.1,1.3-2.2,1.6-2.7H11.824L11.824,16.6z"/>
		<path id="XMLID_53_" fill="#231815" stroke="#231815" stroke-width="0.0037" stroke-miterlimit="2.6131" d="M16.824,17.3
			c-0.2,0.5-2,1.4-1.5,2.4s5.5,2.2,3.6,3.7h1.9c1.5-2-4.2-2.7-4.9-3.7c-0.7-1,1.2-1.9,1.4-2.3L16.824,17.3L16.824,17.3z"/>
	</g>
</g>
</svg>
