<?xml version="1.0" encoding="utf-8"?>
<!-- Generator: Adobe Illustrator 21.0.0, SVG Export Plug-In . SVG Version: 6.00 Build 0)  -->
<svg version="1.1" id="Layer_1" xmlns="http://www.w3.org/2000/svg" xmlns:xlink="http://www.w3.org/1999/xlink" x="0px" y="0px"
	 width="30px" height="30px" viewBox="0 0 30 30" enable-background="new 0 0 30 30" xml:space="preserve">
<g>
	<polygon id="XMLID_1769_" fill="#F71934" points="9.35,28.7 20.85,28.7 28.45,20.9 28.45,9.5 20.85,1.3 9.35,1.3 1.55,9.1 
		1.55,20.9 	"/>
	<path id="XMLID_1768_" fill="#FFFFFF" d="M9.95,9.9v10.7c0,1.1,0,2.2,0.1,3.4h-1.5c0.1-1.1,0.1-2.2,0.1-3.3v-8.3
		c-0.4,0.7-0.9,1.7-1.5,2.9c-0.5-0.5-0.9-0.9-1.2-1.2c0.5-0.6,1.1-1.7,2-3.4c0.8-1.6,1.4-3.1,1.6-4.5l1.8,0.5
		C10.85,7.1,10.35,8.2,9.95,9.9z"/>
	<path id="XMLID_1767_" fill="#FFFFFF" d="M23.95,16.5c0,0.5,0,0.9,0,1.2h-1.3v-1.4h-10.3v1.4h-1.4c0.1-0.5,0.1-0.9,0.1-1.3
		c0-0.5,0-0.9-0.1-1.2h13C23.95,15.6,23.95,16,23.95,16.5z"/>
	<path id="XMLID_1766_" fill="#FFFFFF" d="M18.55,8.1h2.2c1.2,0,2.1,0,2.8-0.1v1.3c-0.8,0-1.8-0.1-2.8-0.1h-6.6
		c-0.8,0-1.6,0-2.5,0.1V8c0.8,0.1,1.6,0.1,2.5,0.1h2.7c-0.2-0.6-0.3-1-0.5-1.5c0.5-0.1,1-0.3,1.6-0.5C18.25,6.7,18.35,7.3,18.55,8.1
		z"/>
	<path id="XMLID_1765_" fill="#FFFFFF" d="M21.75,12.5c0,0.7,0,1.3,0.1,1.7h-8.8c0.1-0.6,0.1-1.2,0.1-1.8c0-0.7,0-1.3-0.1-1.9h8.8
		C21.85,11,21.75,11.7,21.75,12.5z"/>
	<path id="XMLID_1764_" fill="#FFFFFF" d="M19.95,17.9c0.7,0,1.4,0,2.1-0.2v1.4c-0.7,0-1.4-0.1-2.1-0.1h-1.5v3.5
		c-0.1,0.8-0.3,1.2-0.8,1.4c-0.5,0.2-1.2,0.3-2.1,0.4c-0.1-0.6-0.3-1.2-0.6-1.8c0.9,0,1.4,0,1.7,0c0.3-0.1,0.4-0.3,0.4-0.6V19h-1.8
		c-0.8,0-1.5,0-2.2,0.1v-1.4c0.7,0.1,1.5,0.2,2.3,0.2H19.95L19.95,17.9z"/>
	<rect id="XMLID_1763_" x="14.35" y="11.6" fill="#D23419" width="6.1" height="1.5"/>
</g>
</svg>
