<?xml version="1.0" encoding="utf-8"?>
<!-- Generator: Adobe Illustrator 17.0.0, SVG Export Plug-In . SVG Version: 6.00 Build 0)  -->
<!DOCTYPE svg PUBLIC "-//W3C//DTD SVG 1.1//EN" "http://www.w3.org/Graphics/SVG/1.1/DTD/svg11.dtd">
<svg version="1.1"
	 id="svg2203" inkscape:output_extension="org.inkscape.output.svg.inkscape" sodipodi:version="0.32" sodipodi:docbase="D:\SVG\闂傚倸鍊搁崐鎼佸磹閹间礁纾归柟闂寸绾惧綊鏌熼梻瀵哥痪鎯х秺閺岀喖姊荤€靛摜鐥幆褏绉洪柡宀€鍠栧鑽も偓闈涙憸閻ュ箚瑜忕粔娲煛瀹€鈧崰鏍ч懡銈傚亾闂堟稒鎲搁柣銉ョ畾鐟滃繒绮斿ú鐓涚€光偓閳у窗閺嵮囨嚒閵堝倸浜鹃梻鍫熺⊕閹叉悂鏌ｉ妷銉х暰閻熸粌绻掔划鏂棵洪悡娑氣偓鍏夊亾闁逞冪獥闁哄诞鍥ㄥ殥闁靛牆鍊告禍楣冩⒒閸喓鈯曢柟鍙夋倐閺岋綁濡烽妷褏鏆伴柣鐔哥矊缁绘帞鍒掗弬妫垫椽鎮″☉姘ｅ亾閸忓浜鹃梺閫炲啰鐛ラ梺鍝勮癁閸ャ劌娈ラ梺闈涚墕閸婂憡绂嶆ィ鍐┾拻闁稿枔閳洟鏌熼崣澶嬪€愰柡宀嬬秮婵＄兘濡疯閹嘲閸愬及閻庤娲滈弫濠氬春閳ф叏婵犲懏闁归濞€楠炴捇骞掗幋鐐垫И缂傚倸鍊风粈浣搁崼鏇炵？闁规儼濮ら崑鈺呮煟閹达絾缂佺姵鐓犻柟甯掗崝妤呮煙閻ょ紒杈ㄦ崌瀹曟帒鈻庨幋婵嗛梻浣瑰濞插繘宕归挊澶嬬節濮樺祮闂侀潧绻掓慨鎾嚀閸ㄦ斀闁斥晛鍟撮弻锝夋偄閺夋垵濠碉功缁箯閸涘瓨鍋￠柟鐢碉紲闁荤姴娲﹁ぐ鍐焵濞硷繝鎮扮换婵嬪磼閻愭彃鑰垮┑鐐叉閸ㄥ灚閸曗拻濞达絽鎲￠幆鍫熺箾鐏炲倸濮傜€规洘婢橀柛銉ｅ妼鎼村﹪姊虹化鏇炲⒉缂佸甯￠幃陇绠涘☉娆戝幈缂備浇閸熸挳鐛弽绠涢柡澶庢硶閺屽牓姊鸿ぐ鎺擄紵闁绘帪绠撻崺娑㈠箣閻樼數锛滈柣搴到娴犳挳鎮楃憴鍕闁搞劍瀵ф穱濠囨嚋闂堟稓绐炴繝鐢靛Т鐎氬汲閺岋綁鎮㈤崫銉х厑濠碘€虫殻闁绘稑绀冮柣鎾寸洴閺屾稑鈽夊▎鎾粹拺閻犲洦褰冪紒鐐緲缁夊爼宕版繝鍌炲炊閵娿儱绨ユ繝鐢靛仦閸ㄥ垂閸︽／鐟滄棃寮婚悢琛″亾閻㈠灚绂掕缁辨帡鍩﹂埀宕戦幘缁樷拻濞达絽婀卞﹢浠嬫煕閵娿劍閻熸粌娴风划瀣箳閹达箑绀嬬紒鐘冲哺濮婃椽鎳￠妶鍛瘣闂佸搫鎳忛惄骞冮幆褏鏆嬮柟浣冩珪閺傗偓闂佽鍑界徊鐣岀矈濮婄粯绗熼埀瑜忛幑銏ゅ箳閹炬潙寮块梺缁樺灱婵倝鍩涢幒鎳ㄥ綊鏁愰崨鏆堥梺鍝ュ枔閸嬬喓妲愰幒鏂哄亾閿濆洣绱濋梻浣介妵婵嗏攽閳╁啯鍊愰柛鈹惧墲閹峰懘宕崟鐤勯梻鍌氬€烽懗鍫曟煙缂佹ǚ鎸冮梺鍛婃礈閸橀亶姊洪崷鍔嬮梺缁樻尰濞茬喖寮诲☉銏″亹闁惧繒锛撳┑鐘甸崜婵嬪箰閹剁晫宓侀柟鐑樼猾宥夋煕鐏炲墽鐜荤紒杈ㄧ叀濮婄粯鎷呴搹鐟扮闁藉啳浜幉鎼佸级閸ㄦ閻庨潧鈻曢柡灞芥闁糕剝鐟ョ敮妤呮⒑閼姐倕鏋戦柣鐔村劤閳х閸婂爼鎮楅悽鐢点€婇柛瀣崌濡啫鈽夊Ο琛℃斀闁绘劙娼х敮鍓佺磼缂佹﹫鑰跨€规洘妞介弫鎾绘偐閼兼⒑閸涘﹥鐓ョ紓宥咃工缂備焦蓱婵挳鏌涘☉姗堥練缁惧亾闂傚倷鑳剁紒銊︽そ瀹曟劕鈹戠€ｆ憰濠电偞鍨崹鐟版纯闂備礁鎲＄粙鎺楁⒒閸屾瑧闁瑰吋鍤愮紒妫冮幃鐑藉箥濞堥箖鎮楃憴鍕闁哥姴閰ｉ崺銏ゅ箻鐠囨煡鍞堕梺鍝勬川閸熷潡骞忓ú鈷戦柛纬褰掓倻閽樺鍘愰梺鍝勬川婵澹曟總鍛婂仯闁搞儯鍔岀徊濠氭煛閸℃瑥鏋涢柡宀€鍠栭悰宕规禒濂告⒑鐎圭姵闂佸疇闁帮綁鐛崶鈧挳姊婚崒姘偓椋庣矆娓氣偓楠炲鏁撻悩鑼梺绯曞墲缁嬫垹绮堥崘妫柟瑙勫姈闂傚洤閺屻劌鈹戦崱妯绘倷闂佸憡鏌ㄩ柡灞剧洴閺佹劙宕熺粊姊鸿ぐ鎺戠疅闁瑰墽濠碉紕澧曢柍瑙勫灴閹瑩寮堕幋鐘点偡濠电偛鐡ㄧ划宥夋煃鐟欏嫬鐏撮柟鐟╁畷锝嗗緞閹板幍缂備礁濞硷繝鐛崘鏅搁柣妯诲絻瀹撳棝姊虹紒妯绘繛鍜冪秮濮婄粯鎷呴悜妯烘畬闂備胶鐎涒晠宕归崹鏆︽俊銈呮噹閽冪喖鏌ㄩ悢鍝勑㈤柣鎺旀暩缁辨帞绱掑Ο鑲╃暤闂備礁鎲″鏉戞憸閹广垹鈹戠€ｄ缓闂傚倸鐗婇崚鈧柕蹇嬪€栭悡鏇㈡煟閺冨倸閸ф鍊垫鐐茬仢閸旀岸姊" sodipodi:docname="闂傚倸鍊搁崐鎼佸磹閹间礁纾归柟闂寸绾惧綊鏌熼梻瀵哥痪鎯х秺閺岀喖姊荤€靛摜鐥幆褏绉洪柡宀€鍠栧鑽も偓闈涙憸閻ュ箚瑜忕粔娲煛瀹€鈧崰鏍ч懡銈傚亾闂堟稒鎲搁柣銉ョ畾鐟滃繒绮斿ú鐓涚€光偓閳у窗閺嵮囨嚒閵堝倸浜鹃梻鍫熺⊕閹叉悂鏌ｉ妷銉х暰閻熸粌绻掔划鏂棵洪悡娑氣偓鍏夊亾闁逞冪獥闁哄诞鍥ㄥ殥闁靛牆鍊告禍楣冩⒒閸喓鈯曢柟鍙夋倐閺岋綁濡烽妷褏鏆伴柣鐔哥矊濞寸兘骞忚ぐ鎺撴櫢闁绘ê纾崢鎾绘偡濠婂啴鍙勭€规洜鏁婚崺鈧柡宀嬬稻閹棃濮€閿濆懘姊婚崒姘偓璇参涢弻鐔煎礋閹叉悂鎮ч崼婵堢懖闂佺粯鎸婚悷鈺呭蓟閿濆绠ｉ柣蹇曠帛閸婂爼鏌嶉崫鍕櫤闁绘挻娲栭埞鎴︽偐閹绘帒霉閻樻椽鍝洪柟渚垮妽缁绘繈宕橀埞澶歌檸闁诲氦濞叉牜绮堢€ｇ闁稿暱閹疯櫣绱撻崒娆戝妽闁挎洏鍨藉宕橀崑鈺呮煟閹达絾缂佺媴缍侀弻銊╁即濡も偓娴滃墽绱撴担鍝勑ｉ柣鈺佽摕闁挎繂鎲橀弮鍫濈劦闁瑰棛鐤€婵炴垶锚閸嬪秹姊洪崨濠囧磻閹版澘缁╁ù鐘查悡鐔兼煙閹电崜缂傚倸鍊搁崐鐑芥嚄閸撲礁鍨濋柡浣稿鐑樺濞嗘垹袦闂佽　鍋撻弶鍫氭杹閸嬫捇妫冨☉鏍т划閻庣數鍩ｆ鐐查幃鈺呭垂缁剁磽閸屾艾鈧兘鎳楅崼鏇炵；闁规儳纾弳锔戒繆缂嶅秴鈽夐姀鐘电紓浣哄У鐢€崇紒妯诲闁荤喐澹嗙槐鎺旀嫚閹绘巻鍋撳宀€浜辨繝寰锋澘鈧洟骞婅箛娑樼９閻犻缚銆€閺€浠嬫煟濡搫绾у璺哄閺岋綁骞樼€涙闂侀€涚┒閸斿矁鐏掗梺鍛婄箓鐎氭偪閸曗拻闁稿本鐟︾粊浼存⒑閸涘﹤鐏╅柡鍛節閸愭缂備礁濞夋洟姊绘担铏瑰笡闁搞劌鍚嬮幈銊╁Χ婢跺﹦鍘遍梺纭呮彧闂勫嫰鎮￠悢鍏肩厽闁哄啫鍊垮鐑樺濞嗘垹蓱闂佺粯鎸诲ú鐔煎蓟閺囩喓绠鹃柛銊バ戠紓鍌欑婵＄偘绮欏璇测槈閵忕姷鍘搁梺鍛婂姂閸斿危閹版棃鎮╅棃娑楃捕闂備浇濞呭棛绱掗崒姘毙ｉ柕鍫秮瀹曟﹢鍩￠崘銊ユ辈濠电姷鏁告繛鈧繛浣冲吘娑樷槈濮樺彉绗夐梺瑙勫劶濡嫮绮昏ぐ鎺撶厸濠㈣泛閻撯偓閻庤鎮堕崕鐢稿蓟瀹ュ洦鍠嗛柛鏇氱礉闂備浇濞呭﹦鈧娲滈幊鎾归梺鍛婃礈閻﹀牓姊洪幖鐐插闁衡偓濮婄粯鎷呴懞銉ｂ偓鍐磼閳х瑹閳х暦閳х⊕鐪夌紒璇叉閺屻倝骞栨担瑙勯敪缂備礁澧庨崑娑㈠煘閹达附鍋愰柟缁樺浮閺岋紕鈧絾娈诲┑锕︾划骞忛崨瀛樺殟闁靛／鍛獎闂備胶纭堕崜婵婃懌濠电偛鎳愭慨鍨┍婵犲洤围闁告稒闂備焦鐪归崐鏇熸櫠閻ｅ本闁圭儤姊荤壕鍏间繆閸嬫劙鎮鹃搹鍦＝濞达綀娅ｇ敮娑氱磼鐠囪尙澧曢柣锝囧厴楠炴帡骞嬮敂钘変痪婵炴挻鍩冮崑鎾存叏婵犲嫮甯涢柟宄版噺閹便劑骞囬妸銉ゅ闂侀€炲嫮鍘遍柣搴到绾板秹姊婚崶褔寮婚敐鍛傜喖鎳￠妶鍛哗闂備礁婀辩弧鈧悗瑙勬礃閿曘垽骞冮敓鐘茬缂佺嫏鍥ㄧ厽闁规壆绋囬梻鍌氬€搁崐椋庣矆娓氣偓楠炴牞鐏嬮柟鍏肩暘閸斿矂宕归崒姘ｆ斀闁绘ê纾梺绋块闁逞兠哄鈧畷褰掑锤濡ゅ啫绁﹀┑銇涢崑鎾垛偓瑙勬礃缁秹骞忛崨瀛樺仏閻庡灚鎮傚Λ鐑芥⒒閸屾艾鈧兘鎳楅崼鏇熺厸闁稿枎濞堢偞淇婇妶蹇曞埌闁哥喐鍊块柣銏犳啞閻撴洟鐓崶銊﹂柤鐗堝闁绘劘瀹搞儵鎽堕弽鐓曟繛鎴炵懅閺夋椽姊婚崒娆戝妽闁圭埣瀹曟繄浠﹂幆褔骞栧ǎ濡介柍閿嬪浮閺屾稓浠﹂幑鎰梺閫炲嫬鈧劙鏌熼崟鐦堥梺鍛婃礈閸樻⒒娴ｈ棄鐣峰Ο缁樺弿閻熸瑥瀚崣鈧梺鍝勬湰閻╁春閸曠闁革絿纾奸柣鎰Б闂侀潧鐗婇幃鍌炵嵁閸愩剮鏃堝川濞呮粓姊洪崨濠冪婵﹦绮幏鍛存惞閻熸壆闂備礁婀遍柣鏍帶閻ｇ兘骞囬弮鍫濈闁冲搫鎳忛悡娆撴煟閹寸儑鑰跨€规洘鍨块獮鍥偋閸垹骞樺┑鐘灱濞夋稓绮诲澶婄闁瑰瓨绻傜叅濞磋偐濞€閺屾盯寮撮悙娈嬬磽閸屾艾鈧悂宕愰崫銉х煋鐎规洖娲﹀┑閸╂牠宕戝Ο灏栧亾鐟欏嫭绀€闁绘牕銈稿畷娲焺閸愨晛闂佹儳绻愬﹢閬嶅箺瀹€鍕拻濞达綀妫勯崥鐟扳攽濞兼瑧鍙呴梺鎸庢煥婢т粙鎯岄崼銉︾厵闁告挆鍐╂啟闂傚倷绀侀崥瀣娴犲纾跨€规洖娲ㄦ稉宥呂旈敐鍛殲闁绘挻娲樼换娑㈠幢濡ゅ啰闂佸搫鎳庨悥濂稿箖娴犲宸濆┑鐘插楠炲牓姊绘担绋挎毐闁圭厧鐤紒鍌涘笚濞煎繘濡搁埡鍌氣偓鐑芥煛鐏炶鍔氶柡瀣╃窔閺屾稑鐣濋埀宕戦悙鍝勫惞鐎广儱閻撳繐閼哥數鈽夐柣鐔哥矎閸╁洭宕濋幋婵囩節濮橈紲濠电偛妫欓崹鍧楀蓟閻旇鍦偓锛卞啩澹曢柣鈩冨笂閻掞箑閽樺鎮惧畝鈧稉宥嗙箾閹绘巻鍋撻悽鍛婄叆婵犻潧妫欏婵囦繆閹绘帗宸濈紒杈ㄦ尰閹峰懐绮欐惔鎾村瘱濠电姭鎷冮崟浜规繝濠傜墛閳锋垹绱掔€ｅ仴妤犵偞鍨垮畷璺虹暤娓氣偓楠炴牕菐婵′粙鏌涢妶鍛ч柡灞炬礃缁旂喖宕划濠氬Ψ閳哄倵鎷婚梺绋挎湰閻熴劑宕楀畝鍕拻濞达絽鎲＄拹锟犳煙閾忓碍閻撱倝鏌熷妯好归悩鍙夊劔闂備焦瀵ч弻銊︽櫠閸婄喎鈧挳姊婚崒姘偓椋庣矆娓氣偓楠炲鏁撻悩鑼梺绯曞墲缁嬫垹绮堢€ｇ骇闁冲搫鍋婇懓鎸庢叏婵犲倸鐣烽幒鎴旀瀻闁圭儤鍨电敮绱撻崒娆掑厡婵犵數濮烽弫鍛婃叏閻㈠憡鍤岄柛鎾楀懍绗夐梺鍝勮閸庢煡鎮￠弴銏＄厪濠㈣泛鐗嗘俊浠嬫煙闊祮婵﹦绮幏鍛存偡閹电＜閻犲洦褰冮埀娼″璇测槈濮橈絽浜鹃柨婵嗘嚇濮婃椽宕崟鎷辩紓浣搁崹鍧楀春閵忊剝鍎熼柕鍫濇川閺夋悂姊洪崫鍕窛濠靛厴閻涘箻閺傘儲鏂€闂佺粯鍔栧娆撴倶閻斿吋鐓曢柕濠忛檮閵囨繈鏌涢埡鍌滄创妤犵偛閹晠鎮界喊澶屽簥闂備浇閸戠晫寰婇懞銉ч柡澶嬪殾閺冨牊鍋愰梻鍫熺◥濞屾⒑閸涘﹥鈷愭繛鍙夌矒閸┾偓闁告ɑ绮撳畷鎴﹀箻缂佹鍘撻悷婊冪箻濮婄粯鎷呴惄鎺炵秮閺屽秹鏌ㄧ€ｇ懆闂傚洤閺屻劌鈹戦崱妯烘闂佸摜鍠撻崑銈夊蓟濞戙垺鍋勯柛婵嗗濡叉劙姊洪崫鍕拱闁烩晠宕洪埀鏌熼崶褍宓嗛梺缁樺姌鐏忔瑩濡堕埞鎴︽偐閻㈢缁╃紓浣姑肩换鍡涙煟閹伴柣鐟ч埀娼ч悾鐑藉Ω瑜夐崑鎾斥槈濞呯劦闁稿繑锕㈠濠氭偄閾忓湱锛滃┑鈥冲妺閻犲洨鍋ゅ娲传閸曟嫳缂備礁閸ㄥジ鎮橀幒妤佲拺缂佸娉曠粻浼存煕濮橀梺鍝ュ闁衡偓娴犲鐓ラ柡鍥崝姘箾鐎电孝缂備胶濮锋慨鐢垫崲濠靛婵炴垶姘ㄥΛ鎲搁弮鍫濊摕婵炴垯鍨规儫闂侀潧閸庤鲸绻" inkscape:version="0.45.1" xmlns:sodipodi="http://sodipodi.sourceforge.net/DTD/sodipodi-0.dtd" xmlns:dc="http://purl.org/dc/elements/1.1/" xmlns:cc="http://web.resource.org/cc/" xmlns:inkscape="http://www.inkscape.org/namespaces/inkscape" xmlns:rdf="http://www.w3.org/1999/02/22-rdf-syntax-ns#" xmlns:svg="http://www.w3.org/2000/svg"
	 xmlns="http://www.w3.org/2000/svg" xmlns:xlink="http://www.w3.org/1999/xlink" x="0px" y="0px" width="40px" height="40px"
	 viewBox="0 0 40 40" enable-background="new 0 0 40 40" xml:space="preserve">
<sodipodi:namedview  inkscape:pageopacity="0.0" inkscape:pageshadow="2" inkscape:document-units="px" inkscape:window-x="-4" inkscape:window-y="-4" inkscape:window-width="1280" inkscape:window-height="968" inkscape:guide-bbox="true" inkscape:current-layer="layer1" showguides="true" bordercolor="#666666" inkscape:cy="646.08493" gridtolerance="10000" id="base" borderopacity="1.0" objecttolerance="10" pagecolor="#ffffff" inkscape:cx="126.79097" inkscape:zoom="0.74999999" guidetolerance="10">
	<sodipodi:guide  position="1116" orientation="vertical" id="guide22942"></sodipodi:guide>
	<sodipodi:guide  position="1147" orientation="vertical" id="guide22944"></sodipodi:guide>
</sodipodi:namedview>
<g>
	<g id="layer1" inkscape:label="Layer 1" inkscape:groupmode="layer">
		<g id="g6098" transform="translate(-129.98917,-73.944573)">
			<path id="rect4132" d="M132.776,85.048h0.333c1.526,0,2.763,1.238,2.763,2.766v12.263c0,1.527-1.237,2.764-2.763,2.764h-0.333
				c-1.528,0-2.764-1.235-2.764-2.764V87.814C130.012,86.285,131.25,85.048,132.776,85.048z"/>
			
				<path id="path5105" sodipodi:cx="205.63222" sodipodi:cy="109.8391" sodipodi:type="arc" sodipodi:ry="14.399307" sodipodi:rx="14.399307" fill="#EA3121" d="
				M135.292,87.999c0,1.31-1.062,2.369-2.369,2.369c-1.31,0-2.371-1.061-2.371-2.369s1.061-2.37,2.371-2.37
				C134.23,85.629,135.292,86.691,135.292,87.999z"/>
			
				<path id="path5107" sodipodi:cx="205.63222" sodipodi:cy="109.8391" sodipodi:type="arc" sodipodi:ry="14.399307" sodipodi:rx="14.399307" fill="#F2B847" d="
				M135.292,93.959c0,1.31-1.062,2.369-2.369,2.369c-1.31,0-2.371-1.061-2.371-2.369s1.061-2.37,2.371-2.37
				C134.23,91.589,135.292,92.65,135.292,93.959z"/>
			
				<path id="path5109" sodipodi:cx="205.63222" sodipodi:cy="109.8391" sodipodi:type="arc" sodipodi:ry="14.399307" sodipodi:rx="14.399307" fill="#7EC559" d="
				M135.292,99.918c0,1.31-1.062,2.368-2.369,2.368c-1.31,0-2.371-1.06-2.371-2.368s1.061-2.371,2.371-2.371
				C134.23,97.55,135.292,98.611,135.292,99.918z"/>
		</g>
	</g>
	<g>
		<path d="M7.579,15.491h10.237v0.922h-3.953c-0.344,0.654-0.802,1.43-1.375,2.328h0.623v7.409h-0.924v-7.043
			c-1.225,1.663-2.667,3.081-4.329,4.254c-0.179-0.283-0.379-0.567-0.602-0.851c2.256-1.552,4.075-3.584,5.457-6.097H7.578
			L7.579,15.491L7.579,15.491z M14.185,19.107c1.339,0.898,2.632,1.812,3.878,2.742l-0.612,0.934
			c-1.475-1.206-2.739-2.163-3.792-2.872L14.185,19.107z"/>
		<path d="M20.04,21.329v-0.815h6.789v0.839c-0.626,0.997-1.434,1.877-2.422,2.641c1.063,0.536,2.608,0.904,4.635,1.105
			c-0.215,0.323-0.408,0.662-0.58,1.016c-2.102-0.323-3.724-0.849-4.866-1.578c-1.139,0.658-2.71,1.208-4.716,1.648
			c-0.143-0.275-0.312-0.571-0.505-0.886c1.873-0.366,3.352-0.815,4.437-1.347c-0.806-0.697-1.482-1.571-2.03-2.623
			C20.782,21.329,20.04,21.329,20.04,21.329z"/>
		<path d="M18.74,18.386h6.563c0.362-0.575,0.795-1.382,1.3-2.422l0.849,0.532c-0.469,0.752-0.877,1.383-1.225,1.891h2.406v2.422
			h-0.87v-1.595H19.61v1.595h-0.87V18.386z"/>
		<path d="M19.266,16.035c-0.043-0.275-0.093-0.567-0.15-0.874c3.452-0.04,6.392-0.158,8.819-0.354l0.129,0.874
			C25.214,15.846,22.281,15.964,19.266,16.035z"/>
		<path d="M19.793,16.649l0.666-0.449c0.387,0.56,0.723,1.095,1.01,1.607l-0.763,0.485C20.419,17.725,20.115,17.177,19.793,16.649z"
			/>
		<path fill="#FFFFFF" d="M25.851,21.329h-4.2c0.512,0.851,1.166,1.574,1.96,2.168C24.514,22.894,25.26,22.171,25.851,21.329z"/>
		<path d="M22.736,16.436l0.698-0.378c0.351,0.559,0.659,1.13,0.924,1.713l-0.784,0.414C23.33,17.587,23.051,17.004,22.736,16.436z"
			/>
		<path d="M29.342,20.773c0.53-0.142,1.039-0.282,1.525-0.419v-2.736h-1.472v-0.851h1.472v-2.292h0.838v2.292h1.096v0.851h-1.096
			v2.494c0.373-0.11,0.73-0.221,1.074-0.331c0.014,0.362,0.04,0.669,0.075,0.921c-0.397,0.123-0.781,0.243-1.149,0.361v3.645
			c0,0.835-0.34,1.252-1.021,1.252c-0.236,0-0.605-0.008-1.106-0.023c-0.029-0.323-0.075-0.65-0.14-0.98
			c0.422,0.055,0.738,0.083,0.945,0.083c0.322,0,0.483-0.185,0.483-0.555V21.33c-0.505,0.162-0.978,0.315-1.418,0.461L29.342,20.773
			z M33.36,20.951h6.102v0.827h-2.643v2.942h3.158v0.874h-7.326V24.72h3.33v-2.942H33.36V20.951z M35.927,18.54
			c-0.838,0.827-1.633,1.568-2.385,2.221l-0.591-0.709c0.874-0.693,1.662-1.414,2.363-2.162L35.927,18.54z M33.199,16.247h3.083
			c-0.265-0.461-0.559-0.922-0.881-1.382l0.688-0.485c0.401,0.544,0.741,1.036,1.021,1.478l-0.532,0.39h3.099v2.127h-0.838v-1.264
			h-4.802v1.264h-0.838L33.199,16.247L33.199,16.247z M36.937,18.528l0.569-0.615c0.953,0.764,1.758,1.469,2.417,2.115l-0.602,0.745
			C38.67,20.064,37.875,19.316,36.937,18.528z"/>
	</g>
</g>
</svg>
