<?xml version="1.0" encoding="utf-8"?>
<!-- Generator: Adobe Illustrator 21.0.0, SVG Export Plug-In . SVG Version: 6.00 Build 0)  -->
<svg version="1.1" id="Layer_1" xmlns="http://www.w3.org/2000/svg" xmlns:xlink="http://www.w3.org/1999/xlink" x="0px" y="0px"
	 width="30px" height="30px" viewBox="0 0 30 30" enable-background="new 0 0 30 30" xml:space="preserve">
<g>
	<path id="XMLID_828_" d="M8.65,17.6h-3.7v1.9c0,0,0.3,0.7,0.9,0.9c0.6,0.2,1.9,0.7,1.9,1.8h0.8c0,0,0.2,0.9,0.9,0.9v-6.3
		C9.65,16.7,8.65,16.7,8.65,17.6z M8.65,10.3h-3.7v1.9c0,0,0.3,0.7,0.9,0.9c0.6,0.2,1.9,0.7,1.9,1.8h0.8c0,0,0.2,0.9,0.9,0.9V9.5
		C9.65,9.4,8.65,9.5,8.65,10.3z M8.65,3h-3.7v1.9c0,0,0.3,0.7,0.9,0.9c0.6,0.2,1.9,0.7,1.9,1.8h0.8c0,0,0.2,0.9,0.9,0.9V2.2
		C9.65,2.2,8.65,2.2,8.65,3z M17.75,1.3h-5.5c-1,0-1.9,0.8-1.9,1.9v20c0,1,0.8,1.9,1.9,1.9v2.7c0,0-0.1,0.9,0.9,0.9h3.6
		c0,0,0.9,0,0.9-0.9V25c1,0,1.9-0.8,1.9-1.9v-20C19.65,2.1,18.75,1.3,17.75,1.3z M17.75,22.2c0,0.5-0.4,0.9-0.9,0.9h-3.6
		c-0.5,0-0.9-0.4-0.9-0.9v-2.8c0-0.5,0.4-0.9,0.9-0.9c2.2-2.1,3.6,0,3.6,0c0.5,0,0.9,0.4,0.9,0.9V22.2z M17.75,14.9
		c0,0.5-0.4,0.9-0.9,0.9h-3.6c-0.5,0-0.9-0.4-0.9-0.9v-2.7c0-0.5,0.4-0.9,0.9-0.9c2.2-2.1,3.6,0,3.6,0c0.5,0,0.9,0.4,0.9,0.9V14.9z
		 M17.75,7.7c0,0.5-0.4,0.9-0.9,0.9h-3.6c-0.5,0-0.9-0.4-0.9-0.9V5c0-0.5,0.4-0.9,0.9-0.9c2.2-2.1,3.6,0,3.6,0
		c0.5,0,0.9,0.4,0.9,0.9V7.7z M20.45,9.4v6.3c0.7,0,0.9-0.9,0.9-0.9h0.8c0-1,1.2-1.5,1.9-1.8c0.6-0.2,0.9-0.9,0.9-0.9v-1.9h-3.5
		C21.45,9.5,20.45,9.4,20.45,9.4z M21.45,3c0-0.8-0.9-0.9-0.9-0.9v6.3c0.7,0,0.9-0.9,0.9-0.9h0.8c0-1,1.2-1.5,1.9-1.8
		c0.6-0.2,0.9-0.9,0.9-0.9V2.9L21.45,3L21.45,3L21.45,3z M20.45,16.7V23c0.7,0,0.9-0.9,0.9-0.9h0.8c0-1,1.2-1.5,1.9-1.8
		c0.6-0.2,0.9-0.9,0.9-0.9v-1.9h-3.5C21.45,16.7,20.45,16.7,20.45,16.7z"/>
	<path id="XMLID_827_" fill="#F83423" d="M12.35,5v2.8c0,0,0.1,0.8,0.8,0.8s0.1,0,0.1,0h3.8c0,0,0.8-0.1,0.7-0.9V4.9
		c0,0,0-0.8-0.9-0.8c0,0-0.7-1.1-1.9-0.9c0,0-1,0-1.8,0.9C13.35,4,12.35,3.8,12.35,5z"/>
	<path id="XMLID_826_" fill="#FFC34B" d="M12.35,12.2V15c0,0,0.1,0.8,0.8,0.8s0.1,0,0.1,0h3.8c0,0,0.8-0.1,0.7-0.9v-2.8
		c0,0,0-0.8-0.9-0.8c0,0-0.7-1.1-1.9-0.9c0,0-1,0-1.8,0.9C13.35,11.3,12.35,11.2,12.35,12.2z"/>
	<path id="XMLID_825_" fill="#88D460" d="M12.35,19.5v2.8c0,0,0.1,0.8,0.8,0.8s0.1,0,0.1,0h3.8c0,0,0.8-0.1,0.7-0.9v-2.8
		c0,0,0-0.8-0.9-0.8c0,0-0.7-1.1-1.9-0.9c0,0-1,0-1.8,0.9C13.35,18.4,12.35,18.3,12.35,19.5z"/>
</g>
</svg>
