<?xml version="1.0" encoding="utf-8"?>
<!-- Generator: Adobe Illustrator 21.0.0, SVG Export Plug-In . SVG Version: 6.00 Build 0)  -->
<svg version="1.1" id="Layer_1" xmlns="http://www.w3.org/2000/svg" xmlns:xlink="http://www.w3.org/1999/xlink" x="0px" y="0px"
	 width="30px" height="30px" viewBox="0 0 30 30" enable-background="new 0 0 30 30" xml:space="preserve">
<g id="XMLID_2905_">
	<g id="XMLID_2908_">
		<path id="XMLID_2911_" fill="#FFFFFF" d="M15,29.5C7,29.5,0.5,23,0.5,15S7,0.5,15,0.5S29.5,7,29.5,15S23,29.5,15,29.5z"/>
		<g id="XMLID_2909_">
			<path id="XMLID_2910_" fill="#305FA0" d="M15,1c7.7,0,14,6.3,14,14s-6.3,14-14,14S1,22.7,1,15S7.2,1,15,1 M15,0C6.7,0,0,6.7,0,15
				s6.7,15,15,15s15-6.7,15-15S23.2,0,15,0L15,0z"/>
		</g>
	</g>
	<path id="XMLID_2907_" fill="#305FA0" d="M16.2,5.5h-9L4.3,23.3h14.9L16.2,5.5z M12.4,21.6h-1.1v-4.1h1.1V21.6L12.4,21.6z
		 M12.4,15.9h-1.1v-4.1h1.1V15.9L12.4,15.9z M12.4,10.2h-1.1V6.1h1.1V10.2L12.4,10.2z"/>
	<path id="XMLID_2906_" fill="#305FA0" d="M13.4,17c-0.6,1.1,0.4-6.6,9.2-9.6V4.7l3.8,4.5l-3.8,5.2v-2.8c0,0-5-0.6-8.3,7.3L13.4,17"
		/>
</g>
</svg>
