<?xml version="1.0" encoding="utf-8"?>
<!-- Generator: Adobe Illustrator 21.0.0, SVG Export Plug-In . SVG Version: 6.00 Build 0)  -->
<svg version="1.1" id="Layer_1" xmlns="http://www.w3.org/2000/svg" xmlns:xlink="http://www.w3.org/1999/xlink" x="0px" y="0px"
	 width="30px" height="30px" viewBox="0 0 30 30" enable-background="new 0 0 30 30" xml:space="preserve">
<g id="XMLID_3302_">
	<g id="XMLID_3336_">
		<path id="XMLID_3339_" fill="#FFFFFF" d="M14.8,29.3c-8,0-14.5-6.5-14.5-14.5S6.8,0.3,14.8,0.3s14.5,6.5,14.5,14.5
			S22.8,29.3,14.8,29.3z"/>
		<g id="XMLID_3337_">
			<path id="XMLID_3338_" fill="#305FA0" d="M15,1c7.7,0,14,6.3,14,14s-6.3,14-14,14S1,22.7,1,15S7.3,1,15,1 M15,0C6.7,0,0,6.7,0,15
				s6.7,15,15,15s15-6.7,15-15S23.3,0,15,0L15,0z"/>
		</g>
	</g>
	<path id="XMLID_3335_" fill="#EDEDED" d="M3,22V8.4l23.5-0.1v13.4L3,22z"/>
	<path id="XMLID_3334_" fill="#305FA0" d="M27.7,8.6H2.3c-0.2,0-0.4-0.2-0.4-0.3S2,8,2.3,8h25.4c0.2,0,0.4,0.1,0.4,0.3l0,0
		C28.2,8.5,28,8.6,27.7,8.6z"/>
	<path id="XMLID_3309_" fill="#305FA0" d="M27.7,21.7H2.3c-0.2,0-0.4-0.2-0.4-0.3s0.1-0.3,0.4-0.3h25.4c0.2,0,0.4,0.1,0.4,0.3l0,0
		C28.2,21.7,28,21.7,27.7,21.7z"/>
	<g id="XMLID_3307_">
		<g enable-background="new    ">
			<path fill="#305FA0" d="M6.4,15.5v3.3h-2V9.3h3.3c2.4,0,3.5,1,3.5,3c0,1-0.4,1.8-1.1,2.3c-0.7,0.6-1.6,0.9-2.7,0.8h-1V15.5z
				 M6.4,10.9V14h0.9c1.2,0,1.8-0.5,1.8-1.5S8.5,11,7.3,11H6.4V10.9z"/>
			<path fill="#305FA0" d="M12.1,14.2c0-1.5,0.4-2.7,1.3-3.6s2-1.4,3.4-1.4s2.4,0.5,3.3,1.4s1.2,2.1,1.2,3.5c0,1.5-0.4,2.7-1.3,3.6
				s-2,1.4-3.4,1.4s-2.5-0.4-3.3-1.3C12.5,16.7,12.1,15.6,12.1,14.2z M14.2,14.1c0,0.9,0.2,1.7,0.7,2.3c0.4,0.6,1.1,0.9,1.8,0.9
				c0.8,0,1.4-0.3,1.9-0.8c0.4-0.6,0.7-1.3,0.7-2.3s-0.2-1.8-0.6-2.3c-0.4-0.6-1-0.9-1.8-0.9s-1.4,0.3-1.9,0.9
				C14.4,12.4,14.2,13.1,14.2,14.1z"/>
			<path fill="#305FA0" d="M25.8,10.9H25v6.3h0.8v1.6h-3.6v-1.6H23v-6.3h-0.8V9.3h3.6V10.9z"/>
		</g>
	</g>
	<path id="XMLID_3306_" fill="#305FA0" d="M2.2,15c0-0.2,0-0.3,0.1-0.3h1.5c0,0,0.1,0.1,0.1,0.3s0,0.3-0.1,0.3H2.3
		C2.2,15.3,2.2,15.2,2.2,15z"/>
	<path id="XMLID_3305_" fill="#305FA0" d="M0.5,14.9c0-0.2,0-0.3,0.1-0.3h0.9c0,0,0.1,0.1,0.1,0.3s0,0.3-0.1,0.3H0.6
		C0.5,15.2,0.5,15.1,0.5,14.9z"/>
	<path id="XMLID_3304_" fill="#305FA0" d="M25.3,14.9c0-0.2,0-0.3,0.1-0.3h1.5c0,0,0.1,0.1,0.1,0.3s0,0.3-0.1,0.3h-1.5
		C25.3,15.2,25.3,15.1,25.3,14.9z"/>
	<path id="XMLID_3303_" fill="#305FA0" d="M28.3,14.9c0-0.2,0-0.3,0.1-0.3h1.5c0,0,0.1,0.1,0.1,0.3s0,0.3-0.1,0.3h-1.5
		C28.3,15.2,28.3,15.1,28.3,14.9z"/>
</g>
</svg>
