<?xml version="1.0" encoding="utf-8"?>
<!-- Generator: Adobe Illustrator 21.0.0, SVG Export Plug-In . SVG Version: 6.00 Build 0)  -->
<svg version="1.1" id="Layer_1" xmlns="http://www.w3.org/2000/svg" xmlns:xlink="http://www.w3.org/1999/xlink" x="0px" y="0px"
	 width="30px" height="30px" viewBox="0 0 30 30" enable-background="new 0 0 30 30" xml:space="preserve">
<g>
	<g id="XMLID_457_">
		<path id="XMLID_812_" fill="#FFFFFF" d="M15,29.5C7,29.5,0.5,23,0.5,15S7,0.5,15,0.5S29.5,7,29.5,15S23,29.5,15,29.5z"/>
		<g id="XMLID_810_">
			<path id="XMLID_811_" fill="#305FA0" d="M15,1c7.7,0,14,6.3,14,14s-6.3,14-14,14S1,22.7,1,15S7.3,1,15,1 M15,0C6.7,0,0,6.7,0,15
				s6.7,15,15,15s15-6.7,15-15S23.3,0,15,0L15,0z"/>
		</g>
	</g>
	<path id="XMLID_2290_" d="M19.1,16.7"/>
	<polygon id="XMLID_814_" fill="#305FA0" points="18.6,26.1 20.9,26.1 20.9,9.2 23.9,11.1 23.9,8.4 19.9,3.9 16.5,8.2 16.5,11.1 
		18.6,9.2 	"/>
	<polygon id="XMLID_813_" fill="#305FA0" points="11.8,3.9 9.2,3.9 9.2,20.7 6.4,18.8 6.4,21.6 10.7,26.1 14.3,21.8 14.3,18.8 
		11.8,20.7 	"/>
</g>
</svg>
