<?xml version="1.0" encoding="utf-8"?>
<!-- Generator: Adobe Illustrator 21.0.0, SVG Export Plug-In . SVG Version: 6.00 Build 0)  -->
<svg version="1.1" id="Layer_1" xmlns="http://www.w3.org/2000/svg" xmlns:xlink="http://www.w3.org/1999/xlink" x="0px" y="0px"
	 width="30px" height="30px" viewBox="0 0 30 30" enable-background="new 0 0 30 30" xml:space="preserve">
<g id="XMLID_3264_">
	<g id="XMLID_3269_">
		<path id="XMLID_3272_" fill="#FFFFFF" d="M14.8,29.3c-8,0-14.5-6.5-14.5-14.5S6.8,0.3,14.8,0.3s14.5,6.5,14.5,14.5
			S22.8,29.3,14.8,29.3z"/>
		<g id="XMLID_3270_">
			<path id="XMLID_3271_" fill="#305FA0" d="M15,1c7.7,0,14,6.3,14,14s-6.3,14-14,14S1,22.7,1,15S7.2,1,15,1 M15,0C6.7,0,0,6.7,0,15
				s6.7,15,15,15s15-6.7,15-15C30,6.7,23.2,0,15,0L15,0z"/>
		</g>
	</g>
	<path id="XMLID_3268_" fill="#305FA0" d="M18.8,5.7L18,7.5l4.1-1.3l-1.9-3.9l-0.7,1.5c-4-1.8-8.9-1.2-12.4,1.9l1.3,1.5
		C11.2,4.5,15.2,4,18.8,5.7z"/>
	<path id="XMLID_3267_" fill="#305FA0" d="M23.8,19.2L22,18.4l1.3,4.1l3.9-1.9l-1.5-0.7c1.8-4,1.2-8.9-1.9-12.4l-1.5,1.3
		C25,11.6,25.5,15.7,23.8,19.2z"/>
	<path id="XMLID_3266_" fill="#305FA0" d="M10.8,23.9l0.8-1.8l-4.1,1.3l1.9,3.9l0.7-1.5c4,1.8,8.9,1.2,12.4-1.9l-1.3-1.5
		C18.3,25.1,14.2,25.6,10.8,23.9z"/>
	<path id="XMLID_3265_" fill="#305FA0" d="M6.2,10.8L8,11.6L6.7,7.5L2.8,9.4l1.5,0.7c-1.8,4-1.2,8.9,1.9,12.4l1.5-1.3
		C5,18.4,4.3,14.3,6.2,10.8z"/>
</g>
</svg>
