<?xml version="1.0" encoding="utf-8"?>
<!-- Generator: Adobe Illustrator 21.0.0, SVG Export Plug-In . SVG Version: 6.00 Build 0)  -->
<svg version="1.1" id="Layer_1" xmlns="http://www.w3.org/2000/svg" xmlns:xlink="http://www.w3.org/1999/xlink" x="0px" y="0px"
	 width="30px" height="30px" viewBox="0 0 30 30" enable-background="new 0 0 30 30" xml:space="preserve">
<g>
	<g id="XMLID_823_">
		<path id="XMLID_1034_" fill="#FFFFFF" d="M15,29.5C7,29.5,0.5,23,0.5,15S7,0.5,15,0.5S29.5,7,29.5,15S23,29.5,15,29.5z"/>
		<g id="XMLID_824_">
			<path id="XMLID_1033_" fill="#305FA0" d="M15,1c7.7,0,14,6.3,14,14s-6.3,14-14,14S1,22.7,1,15S7.2,1,15,1 M15,0C6.7,0,0,6.7,0,15
				s6.7,15,15,15s15-6.7,15-15S23.2,0,15,0L15,0z"/>
		</g>
	</g>
	<path fill="#305FA0" d="M15.4,19.9c0.1-6.3,9.8-13.8,9.8-13.8l-1.9-1.8c-4.5,1.9-8.7,8.1-8.7,8.1"/>
	<path fill="#305FA0" d="M14.9,21.2c0,0-1.5-8.6-9.8-14.2L7,5.2c0,0,5.2,2.7,8,7L14.9,21.2z"/>
	
		<rect x="8.134" y="6.841" transform="matrix(0.6299 -0.7767 0.7767 0.6299 -3.028 9.5284)" fill="#FFFFFF" width="0.7" height="2.2"/>
	
		<rect x="20.145" y="7.048" transform="matrix(0.7767 -0.6299 0.6299 0.7767 0.0846 15.0343)" fill="#FFFFFF" width="2.2" height="0.7"/>
	<path fill="#305FA0" d="M16.6,20.9v-6.5h-3.4v13.5h3.1"/>
	<rect x="14.3" y="15.8" fill="#FFFFFF" width="0.9" height="2.6"/>
	<rect x="14.3" y="22.2" fill="#FFFFFF" width="0.9" height="2.7"/>
	
		<rect x="11.374" y="9.905" transform="matrix(0.7274 -0.6862 0.6862 0.7274 -4.356 11.0452)" fill="#FFFFFF" width="0.7" height="2.2"/>
	
		<rect x="16.841" y="10.221" transform="matrix(0.6465 -0.7629 0.7629 0.6465 -1.7228 17.4245)" fill="#FFFFFF" width="2.2" height="0.7"/>
</g>
</svg>
