<?xml version="1.0" encoding="utf-8"?>
<!-- Generator: Adobe Illustrator 17.0.0, SVG Export Plug-In . SVG Version: 6.00 Build 0)  -->
<!DOCTYPE svg PUBLIC "-//W3C//DTD SVG 1.1//EN" "http://www.w3.org/Graphics/SVG/1.1/DTD/svg11.dtd">
<svg version="1.1"
	 id="svg2203" xmlns:rdf="http://www.w3.org/1999/02/22-rdf-syntax-ns#" xmlns:cc="http://web.resource.org/cc/" xmlns:inkscape="http://www.inkscape.org/namespaces/inkscape" xmlns:sodipodi="http://sodipodi.sourceforge.net/DTD/sodipodi-0.dtd" xmlns:dc="http://purl.org/dc/elements/1.1/" xmlns:svg="http://www.w3.org/2000/svg" sodipodi:version="0.32" inkscape:version="0.45.1" sodipodi:docname="闂傚倸鍊搁崐宄懊归崶鏃堟偐閸欏鍠愮紓浣戒含閸嬬偟鎹㈠┑瀣＜婵犲﹤鎳愰敍婊冣攽閳╁啳纭€缂備胶濮靛畝绋垮ú绠归柣鎰絻婵洖鈹戦敍鍕哗婵″閹偓鎼达絿鐓撻柣鐘叉川閸嬫挸螞閸愭槬闁逞勭厵闁艰崵妫" sodipodi:docbase="D:\SVG\闂傚倸鍊搁崐鎼佸磹妞嬪海鐭嗗〒姘ｅ亾妤犵偞鐗犲璇测槈濞嗘劕鍔呴梺闈涚箳婵攱绂掗懖鈺冪＝濞达絼绮欓崫娲煙閸涘﹥鍊愰柡" inkscape:output_extension="org.inkscape.output.svg.inkscape"
	 xmlns="http://www.w3.org/2000/svg" xmlns:xlink="http://www.w3.org/1999/xlink" x="0px" y="0px" width="30px" height="30px"
	 viewBox="0 0 30 30" enable-background="new 0 0 30 30" xml:space="preserve">
<sodipodi:namedview  borderopacity="1.0" guidetolerance="10" inkscape:zoom="0.74999999" inkscape:cy="646.08493" showguides="true" id="base" gridtolerance="10000" bordercolor="#666666" objecttolerance="10" inkscape:cx="126.79097" pagecolor="#ffffff" inkscape:pageopacity="0.0" inkscape:pageshadow="2" inkscape:document-units="px" inkscape:current-layer="layer1" inkscape:window-width="1280" inkscape:window-height="968" inkscape:window-y="-4" inkscape:window-x="-4" inkscape:guide-bbox="true">
	<sodipodi:guide  orientation="vertical" position="1116" id="guide22942"></sodipodi:guide>
	<sodipodi:guide  orientation="vertical" position="1147" id="guide22944"></sodipodi:guide>
</sodipodi:namedview>
<g>
	<g>
		<path fill="#100808" d="M7.537,22.377c-0.271,0-0.491-0.231-0.491-0.52c0-0.091,0.025-0.182,0.067-0.261l7.463-13.712
			c0.087-0.161,0.249-0.261,0.425-0.261c0.174,0,0.337,0.1,0.424,0.261l7.465,13.712c0.04,0.079,0.064,0.17,0.064,0.261
			c0,0.286-0.219,0.52-0.492,0.52H7.537z"/>
		<polygon fill="#F7BD42" points="9.234,20.817 20.766,20.817 15.001,10.224 		"/>
	</g>
	<g>
		<path d="M13.257,14.919l2.587-2.183l0.756,1.562l-0.84,0.731c0,0-0.138,0.095,0.068,0.252c0.206,0.158,0.73,0.556,0.73,0.556
			s0.329,0.413-0.073,0.729c-0.402,0.32-0.743,0.572-0.743,0.572s-0.099,0.141,0.023,0.22c0.122,0.081,0.744,0.587,0.744,0.587
			s0.291,0.35-0.037,0.669c-0.328,0.314-2.548,2.058-2.548,2.058l-0.633-1.489l0.938-0.807l-0.913-0.824
			c0,0-0.292-0.381,0.062-0.665c0.353-0.287,0.865-0.747,0.865-0.747l-0.95-0.762C13.293,15.378,13.086,15.174,13.257,14.919z"/>
	</g>
</g>
</svg>
