<?xml version="1.0" encoding="utf-8"?>
<!-- Generator: Adobe Illustrator 17.0.0, SVG Export Plug-In . SVG Version: 6.00 Build 0)  -->
<!DOCTYPE svg PUBLIC "-//W3C//DTD SVG 1.1//EN" "http://www.w3.org/Graphics/SVG/1.1/DTD/svg11.dtd">
<svg version="1.1"
	 id="svg2203" xmlns:rdf="http://www.w3.org/1999/02/22-rdf-syntax-ns#" xmlns:cc="http://web.resource.org/cc/" xmlns:inkscape="http://www.inkscape.org/namespaces/inkscape" xmlns:sodipodi="http://sodipodi.sourceforge.net/DTD/sodipodi-0.dtd" xmlns:dc="http://purl.org/dc/elements/1.1/" xmlns:svg="http://www.w3.org/2000/svg" sodipodi:version="0.32" inkscape:version="0.45.1" sodipodi:docname="闂傚倸鍊搁崐宄懊归崶鏃堟偐閸欏鍠愮紓浣戒含閸嬬偟鎹㈠┑瀣＜婵犲﹤鎳愰敍婊冣攽閳╁啳纭€缂備胶濮靛畝绋垮ú绠归柣鎰絻婵洖鈹戦敍鍕哗婵″閹偓鎼达絿鐓撻柣鐘叉川閸嬫挸螞閸愭槬闁逞勭厵闁艰崵妫" sodipodi:docbase="D:\SVG\闂傚倸鍊搁崐鎼佸磹妞嬪海鐭嗗〒姘ｅ亾妤犵偞鐗犲璇测槈濞嗘劕鍔呴梺闈涚箳婵攱绂掗懖鈺冪＝濞达絼绮欓崫娲煙閸涘﹥鍊愰柡" inkscape:output_extension="org.inkscape.output.svg.inkscape"
	 xmlns="http://www.w3.org/2000/svg" xmlns:xlink="http://www.w3.org/1999/xlink" x="0px" y="0px" width="30px" height="30px"
	 viewBox="0 0 30 30" enable-background="new 0 0 30 30" xml:space="preserve">
<sodipodi:namedview  borderopacity="1.0" guidetolerance="10" inkscape:zoom="0.74999999" inkscape:cy="646.08493" showguides="true" id="base" gridtolerance="10000" bordercolor="#666666" objecttolerance="10" inkscape:cx="126.79097" pagecolor="#ffffff" inkscape:pageopacity="0.0" inkscape:pageshadow="2" inkscape:document-units="px" inkscape:current-layer="layer1" inkscape:window-width="1280" inkscape:window-height="968" inkscape:window-y="-4" inkscape:window-x="-4" inkscape:guide-bbox="true">
	<sodipodi:guide  orientation="vertical" position="1116" id="guide22942"></sodipodi:guide>
	<sodipodi:guide  orientation="vertical" position="1147" id="guide22944"></sodipodi:guide>
</sodipodi:namedview>
<g>
	<g>
		<path fill="#100808" d="M7.537,22.377c-0.271,0-0.491-0.231-0.491-0.52c0-0.091,0.024-0.182,0.067-0.261l7.463-13.712
			C14.662,7.723,14.825,7.623,15,7.623s0.338,0.1,0.424,0.261l7.465,13.712c0.041,0.079,0.065,0.17,0.065,0.261
			c0,0.286-0.22,0.52-0.493,0.52H7.537z"/>
		<polygon fill="#F7BD42" points="9.233,20.817 20.766,20.817 15,10.224 		"/>
	</g>
	<path d="M12.894,20.142c0.313,0,0.627,0,0.94,0c0-0.858,0-1.721,0-2.58c0.251-0.588,0.503-1.181,0.755-1.771
		c0-0.673,0-1.345,0-2.017c-0.309,0-0.618,0-0.928,0c0,0.631,0,1.262,0,1.894c-0.256,0.603-0.513,1.204-0.769,1.806
		C12.894,18.363,12.894,19.252,12.894,20.142L12.894,20.142z"/>
	<path d="M17.135,20.121c-0.313,0-0.627,0-0.938,0c0-0.858,0-1.721,0-2.58c-0.252-0.588-0.504-1.181-0.757-1.771
		c0-0.673,0-1.345,0-2.017c0.311,0,0.617,0,0.927,0c0,0.631,0,1.262,0,1.894c0.257,0.603,0.515,1.204,0.771,1.806
		C17.135,18.341,17.135,19.23,17.135,20.121L17.135,20.121z"/>
</g>
</svg>
