<?xml version="1.0" encoding="utf-8"?>
<!-- Generator: Adobe Illustrator 17.0.0, SVG Export Plug-In . SVG Version: 6.00 Build 0)  -->
<!DOCTYPE svg PUBLIC "-//W3C//DTD SVG 1.1//EN" "http://www.w3.org/Graphics/SVG/1.1/DTD/svg11.dtd">
<svg version="1.1"
	 id="svg2203" xmlns:rdf="http://www.w3.org/1999/02/22-rdf-syntax-ns#" xmlns:cc="http://web.resource.org/cc/" xmlns:inkscape="http://www.inkscape.org/namespaces/inkscape" xmlns:sodipodi="http://sodipodi.sourceforge.net/DTD/sodipodi-0.dtd" xmlns:dc="http://purl.org/dc/elements/1.1/" xmlns:svg="http://www.w3.org/2000/svg" sodipodi:version="0.32" inkscape:version="0.45.1" sodipodi:docname="闂傚倸鍊搁崐宄懊归崶鏃堟偐閸欏鍠愮紓浣戒含閸嬬偟鎹㈠┑瀣＜婵犲﹤鎳愰敍婊冣攽閳╁啳纭€缂備胶濮靛畝绋垮ú绠归柣鎰絻婵洖鈹戦敍鍕哗婵″閹偓鎼达絿鐓撻柣鐘叉川閸嬫挸螞閸愭槬闁逞勭厵闁艰崵妫" sodipodi:docbase="D:\SVG\闂傚倸鍊搁崐鎼佸磹妞嬪海鐭嗗〒姘ｅ亾妤犵偞鐗犲璇测槈濞嗘劕鍔呴梺闈涚箳婵攱绂掗懖鈺冪＝濞达絼绮欓崫娲煙閸涘﹥鍊愰柡" inkscape:output_extension="org.inkscape.output.svg.inkscape"
	 xmlns="http://www.w3.org/2000/svg" xmlns:xlink="http://www.w3.org/1999/xlink" x="0px" y="0px" width="30px" height="30px"
	 viewBox="0 0 30 30" enable-background="new 0 0 30 30" xml:space="preserve">
<sodipodi:namedview  borderopacity="1.0" guidetolerance="10" inkscape:zoom="0.74999999" inkscape:cy="646.08493" showguides="true" id="base" gridtolerance="10000" bordercolor="#666666" objecttolerance="10" inkscape:cx="126.79097" pagecolor="#ffffff" inkscape:pageopacity="0.0" inkscape:pageshadow="2" inkscape:document-units="px" inkscape:current-layer="layer1" inkscape:window-width="1280" inkscape:window-height="968" inkscape:window-y="-4" inkscape:window-x="-4" inkscape:guide-bbox="true">
	<sodipodi:guide  orientation="vertical" position="1116" id="guide22942"></sodipodi:guide>
	<sodipodi:guide  orientation="vertical" position="1147" id="guide22944"></sodipodi:guide>
</sodipodi:namedview>
<g>
	<g>
		<path fill="#100808" d="M7.536,22.377c-0.271,0-0.49-0.231-0.49-0.52c0-0.091,0.024-0.182,0.066-0.261l7.463-13.712
			c0.087-0.161,0.25-0.261,0.425-0.261s0.337,0.1,0.424,0.261l7.465,13.712c0.04,0.079,0.065,0.17,0.065,0.261
			c0,0.286-0.22,0.52-0.493,0.52H7.536z"/>
		<polygon fill="#F7BD42" points="9.233,20.817 20.766,20.817 15,10.224 		"/>
	</g>
	<path d="M12.673,16.346c0.052,0.03,0.104,0.131,0.22,0.152c0.283,0.048,0.735,0.167,0.944,0.198
		c0.331,0.049,2.558-0.032,3.899-0.002c0.168,0.004,0.299,0.146,0.295,0.287c-0.004,0.154-0.031,1.403-0.021,2.224
		c0.001,0.114,0.151,0.047,0.047,0.385c-0.015,0.05-0.191-0.144-0.189-0.199c-0.006-0.028,0.021-0.083,0.016-0.11
		c-0.01-0.063-0.025-0.021-0.022-0.092c0-0.386,0.019-1.84,0.019-1.84c0.003-0.111-0.163-0.115-0.161-0.004
		c0.021,1.092,0.008,2.176-0.043,3.266c0,0.028-0.029,0.039-0.057,0.034c-0.162-0.017-0.356,0.021-0.356-0.034
		c0-0.078,0.088-0.221,0.143-0.342c0.069-0.166,0.063-0.354,0.065-0.551c0.001-0.033-0.143-0.579-0.397-0.645
		c-0.117-0.031-0.277,0-0.418-0.053c-0.183-0.065-0.256-0.267-0.449-0.269c-0.006,0-1.029,0.011-1.516,0.005
		c-0.399-0.005-0.272,0.811-0.337,1.186c-0.007,0.039-0.066,0.086-0.067,0.113c-0.088,0.167,0.158,0.414,0.042,0.547
		c-0.049,0.055-0.317,0.039-0.316-0.017c0.002-0.099,0.063-0.261,0.078-0.362c0.047-0.305,0.047-0.587-0.051-0.883
		c-0.107-0.227-0.103-0.484-0.294-0.602c-0.193-0.116-0.33-0.26-0.438-0.43c-0.025-0.057-0.028-0.133-0.08-0.169
		c-0.273-0.21-0.473-0.438-0.706-0.667c-0.146-0.141-0.448-0.023-0.617,0.059c-0.091,0.033-0.306-0.125-0.257-0.236
		c0.063-0.141,0.425-0.792,0.409-0.775c0.035-0.044,0.061-0.109,0.032-0.166c-0.027-0.086-0.156-0.074-0.148-0.138
		C11.95,16.127,12.438,16.211,12.673,16.346z"/>
</g>
</svg>
