<?xml version="1.0" encoding="utf-8"?>
<!-- Generator: Adobe Illustrator 17.0.0, SVG Export Plug-In . SVG Version: 6.00 Build 0)  -->
<!DOCTYPE svg PUBLIC "-//W3C//DTD SVG 1.1//EN" "http://www.w3.org/Graphics/SVG/1.1/DTD/svg11.dtd">
<svg version="1.1"
	 id="svg2203" xmlns:rdf="http://www.w3.org/1999/02/22-rdf-syntax-ns#" xmlns:cc="http://web.resource.org/cc/" xmlns:inkscape="http://www.inkscape.org/namespaces/inkscape" xmlns:sodipodi="http://sodipodi.sourceforge.net/DTD/sodipodi-0.dtd" xmlns:dc="http://purl.org/dc/elements/1.1/" xmlns:svg="http://www.w3.org/2000/svg" sodipodi:version="0.32" inkscape:version="0.45.1" sodipodi:docname="闂傚倸鍊搁崐宄懊归崶鏃堟偐閸欏鍠愮紓浣戒含閸嬬偟鎹㈠┑瀣＜婵犲﹤鎳愰敍婊冣攽閳╁啳纭€缂備胶濮靛畝绋垮ú绠归柣鎰絻婵洖鈹戦敍鍕哗婵″閹偓鎼达絿鐓撻柣鐘叉川閸嬫挸螞閸愭槬闁逞勭厵闁艰崵妫" sodipodi:docbase="D:\SVG\闂傚倸鍊搁崐鎼佸磹妞嬪海鐭嗗〒姘ｅ亾妤犵偞鐗犲璇测槈濞嗘劕鍔呴梺闈涚箳婵攱绂掗懖鈺冪＝濞达絼绮欓崫娲煙閸涘﹥鍊愰柡" inkscape:output_extension="org.inkscape.output.svg.inkscape"
	 xmlns="http://www.w3.org/2000/svg" xmlns:xlink="http://www.w3.org/1999/xlink" x="0px" y="0px" width="30px" height="30px"
	 viewBox="0 0 30 30" enable-background="new 0 0 30 30" xml:space="preserve">
<sodipodi:namedview  borderopacity="1.0" guidetolerance="10" inkscape:zoom="0.74999999" inkscape:cy="646.08493" showguides="true" id="base" gridtolerance="10000" bordercolor="#666666" objecttolerance="10" inkscape:cx="126.79097" pagecolor="#ffffff" inkscape:pageopacity="0.0" inkscape:pageshadow="2" inkscape:document-units="px" inkscape:current-layer="layer1" inkscape:window-width="1280" inkscape:window-height="968" inkscape:window-y="-4" inkscape:window-x="-4" inkscape:guide-bbox="true">
	<sodipodi:guide  orientation="vertical" position="1116" id="guide22942"></sodipodi:guide>
	<sodipodi:guide  orientation="vertical" position="1147" id="guide22944"></sodipodi:guide>
</sodipodi:namedview>
<g>
	<g>
		<path fill="#100808" d="M22.463,22.377c0.27,0,0.491-0.231,0.491-0.52c0-0.091-0.025-0.182-0.067-0.261L15.424,7.884
			c-0.087-0.161-0.249-0.261-0.425-0.261c-0.174,0-0.337,0.1-0.424,0.261L7.11,21.596c-0.04,0.079-0.064,0.17-0.064,0.261
			c0,0.286,0.219,0.52,0.492,0.52H22.463z"/>
		<polygon fill="#F7BD42" points="20.767,20.817 9.234,20.817 14.999,10.224 		"/>
	</g>
	<g>
		<g>
			<polygon points="14.11,14.347 14.134,14.468 14.472,14.517 14.712,14.42 14.931,13.914 14.81,13.648 14.64,13.672 14.4,13.455 
				14.036,13.624 14.062,13.793 13.941,14.155 			"/>
			<polygon points="13.337,15.29 13.651,15.193 13.747,15.023 13.675,14.927 13.628,14.831 13.29,14.709 13.071,14.855 
				13.12,15.047 			"/>
			<polygon points="13.29,16.181 13.12,16.496 13.169,16.785 13.386,17.004 13.651,17.027 13.773,16.785 13.917,16.689 
				14.326,16.254 14.23,16.109 14.157,15.748 13.845,15.748 13.724,15.724 			"/>
			<polygon points="12.251,17.943 12.251,18.136 12.444,18.209 12.661,18.281 12.903,18.064 13.241,17.798 13.265,17.582 
				13.362,17.388 13.265,17.244 13.097,17.172 12.952,17.123 12.661,17.195 12.468,17.099 12.228,17.244 12.107,17.316 
				12.132,17.703 			"/>
		</g>
		<path d="M16.042,13.171l-0.122,0.188l-0.556,0.531c0,0-0.266,0.265-0.266,0.36c0,0.097,0.024,0.338-0.023,0.435
			c-0.048,0.098-0.072,0.361-0.146,0.436c-0.072,0.072-0.17,0.266-0.193,0.41c-0.024,0.144-0.071,0.604-0.098,0.748
			c-0.022,0.145,0.023,0.361,0.169,0.459c0.146,0.096,0.364,0.338,0.388,0.434s0.12,0.338,0.071,0.434
			c-0.048,0.099-0.265,0.58-0.313,0.701c-0.048,0.121-0.218,0.435-0.218,0.531s0.12,0.119,0.146,0.217
			c0.023,0.096,0.023,0.313-0.024,0.41c-0.048,0.096-0.384,0.686-0.396,0.688h-1.763l0.409-0.41l-0.021-0.218l0.049-0.338
			l-0.193-0.219l-0.387-0.096l-0.36,0.096l-0.41-0.022l-0.459,0.53l0.17,0.459l0.217,0.049l0.168,0.169H9.728l-0.231,0.379h10.796
			L16.042,13.171z"/>
	</g>
</g>
</svg>
