<?xml version="1.0" encoding="utf-8"?>
<!-- Generator: Adobe Illustrator 17.0.0, SVG Export Plug-In . SVG Version: 6.00 Build 0)  -->
<!DOCTYPE svg PUBLIC "-//W3C//DTD SVG 1.1//EN" "http://www.w3.org/Graphics/SVG/1.1/DTD/svg11.dtd">
<svg version="1.1"
	 id="svg2203" xmlns:rdf="http://www.w3.org/1999/02/22-rdf-syntax-ns#" xmlns:cc="http://web.resource.org/cc/" xmlns:inkscape="http://www.inkscape.org/namespaces/inkscape" xmlns:sodipodi="http://sodipodi.sourceforge.net/DTD/sodipodi-0.dtd" xmlns:dc="http://purl.org/dc/elements/1.1/" xmlns:svg="http://www.w3.org/2000/svg" sodipodi:version="0.32" inkscape:version="0.45.1" sodipodi:docname="闂傚倸鍊搁崐宄懊归崶鏃堟偐閸欏鍠愮紓浣戒含閸嬬偟鎹㈠┑瀣＜婵犲﹤鎳愰敍婊冣攽閳╁啳纭€缂備胶濮靛畝绋垮ú绠归柣鎰絻婵洖鈹戦敍鍕哗婵″閹偓鎼达絿鐓撻柣鐘叉川閸嬫挸螞閸愭槬闁逞勭厵闁艰崵妫" sodipodi:docbase="D:\SVG\闂傚倸鍊搁崐鎼佸磹妞嬪海鐭嗗〒姘ｅ亾妤犵偞鐗犲璇测槈濞嗘劕鍔呴梺闈涚箳婵攱绂掗懖鈺冪＝濞达絼绮欓崫娲煙閸涘﹥鍊愰柡" inkscape:output_extension="org.inkscape.output.svg.inkscape"
	 xmlns="http://www.w3.org/2000/svg" xmlns:xlink="http://www.w3.org/1999/xlink" x="0px" y="0px" width="30px" height="30px"
	 viewBox="0 0 30 30" enable-background="new 0 0 30 30" xml:space="preserve">
<sodipodi:namedview  borderopacity="1.0" guidetolerance="10" inkscape:zoom="0.74999999" inkscape:cy="646.08493" showguides="true" id="base" gridtolerance="10000" bordercolor="#666666" objecttolerance="10" inkscape:cx="126.79097" pagecolor="#ffffff" inkscape:pageopacity="0.0" inkscape:pageshadow="2" inkscape:document-units="px" inkscape:current-layer="layer1" inkscape:window-width="1280" inkscape:window-height="968" inkscape:window-y="-4" inkscape:window-x="-4" inkscape:guide-bbox="true">
	<sodipodi:guide  orientation="vertical" position="1116" id="guide22942"></sodipodi:guide>
	<sodipodi:guide  orientation="vertical" position="1147" id="guide22944"></sodipodi:guide>
</sodipodi:namedview>
<g>
	<g>
		<path fill="#100808" d="M7.537,22.377c-0.271,0-0.491-0.231-0.491-0.52c0-0.091,0.025-0.182,0.067-0.261l7.463-13.712
			c0.087-0.161,0.249-0.261,0.425-0.261c0.174,0,0.337,0.1,0.424,0.261l7.465,13.712c0.04,0.079,0.064,0.17,0.064,0.261
			c0,0.286-0.219,0.52-0.492,0.52H7.537z"/>
		<polygon fill="#F7BD42" points="9.234,20.817 20.766,20.817 15.001,10.224 		"/>
	</g>
	<g>
		<g>
			<polygon points="15.89,14.347 15.866,14.468 15.528,14.517 15.288,14.42 15.069,13.914 15.191,13.648 15.36,13.672 
				15.601,13.455 15.964,13.624 15.939,13.793 16.06,14.155 			"/>
			<polygon points="16.663,15.29 16.349,15.193 16.253,15.023 16.325,14.927 16.372,14.831 16.71,14.709 16.929,14.855 
				16.88,15.047 			"/>
			<polygon points="16.71,16.181 16.88,16.496 16.831,16.785 16.614,17.004 16.349,17.027 16.228,16.785 16.083,16.689 
				15.674,16.254 15.771,16.109 15.843,15.748 16.155,15.748 16.276,15.724 			"/>
			<polygon points="17.749,17.943 17.749,18.136 17.556,18.209 17.339,18.281 17.097,18.064 16.759,17.798 16.735,17.582 
				16.638,17.388 16.735,17.244 16.903,17.172 17.048,17.123 17.339,17.195 17.532,17.099 17.773,17.244 17.894,17.316 
				17.868,17.703 			"/>
		</g>
		<path d="M13.958,13.171l0.122,0.188l0.556,0.531c0,0,0.265,0.265,0.265,0.36c0,0.097-0.023,0.338,0.024,0.435
			c0.048,0.098,0.072,0.361,0.146,0.436c0.071,0.072,0.17,0.266,0.193,0.41c0.024,0.144,0.071,0.604,0.098,0.748
			c0.022,0.145-0.023,0.361-0.17,0.459c-0.146,0.096-0.363,0.338-0.387,0.434s-0.121,0.338-0.072,0.434
			c0.049,0.099,0.266,0.58,0.313,0.701c0.048,0.121,0.218,0.435,0.218,0.531s-0.121,0.119-0.146,0.217
			c-0.023,0.096-0.023,0.313,0.023,0.41c0.048,0.096,0.385,0.686,0.396,0.688H17.3l-0.41-0.41l0.022-0.218l-0.049-0.338l0.192-0.219
			l0.388-0.096l0.36,0.096l0.41-0.022l0.459,0.53l-0.17,0.459l-0.217,0.049l-0.168,0.169h2.152l0.232,0.379H9.709L13.958,13.171z"/>
	</g>
</g>
</svg>
