<?xml version="1.0" encoding="utf-8"?>
<!-- Generator: Adobe Illustrator 17.0.0, SVG Export Plug-In . SVG Version: 6.00 Build 0)  -->
<!DOCTYPE svg PUBLIC "-//W3C//DTD SVG 1.1//EN" "http://www.w3.org/Graphics/SVG/1.1/DTD/svg11.dtd">
<svg version="1.1"
	 id="svg2203" xmlns:rdf="http://www.w3.org/1999/02/22-rdf-syntax-ns#" xmlns:cc="http://web.resource.org/cc/" xmlns:inkscape="http://www.inkscape.org/namespaces/inkscape" xmlns:sodipodi="http://sodipodi.sourceforge.net/DTD/sodipodi-0.dtd" xmlns:dc="http://purl.org/dc/elements/1.1/" xmlns:svg="http://www.w3.org/2000/svg" sodipodi:version="0.32" inkscape:version="0.45.1" sodipodi:docname="闂傚倸鍊搁崐宄懊归崶鏃堟偐閸欏鍠愮紓浣戒含閸嬬偟鎹㈠┑瀣＜婵犲﹤鎳愰敍婊冣攽閳╁啳纭€缂備胶濮靛畝绋垮ú绠归柣鎰絻婵洖鈹戦敍鍕哗婵″閹偓鎼达絿鐓撻柣鐘叉川閸嬫挸螞閸愭槬闁逞勭厵闁艰崵妫" sodipodi:docbase="D:\SVG\闂傚倸鍊搁崐鎼佸磹妞嬪海鐭嗗〒姘ｅ亾妤犵偞鐗犲璇测槈濞嗘劕鍔呴梺闈涚箳婵攱绂掗懖鈺冪＝濞达絼绮欓崫娲煙閸涘﹥鍊愰柡" inkscape:output_extension="org.inkscape.output.svg.inkscape"
	 xmlns="http://www.w3.org/2000/svg" xmlns:xlink="http://www.w3.org/1999/xlink" x="0px" y="0px" width="30px" height="30px"
	 viewBox="0 0 30 30" enable-background="new 0 0 30 30" xml:space="preserve">
<sodipodi:namedview  borderopacity="1.0" guidetolerance="10" inkscape:zoom="0.74999999" inkscape:cy="646.08493" showguides="true" id="base" gridtolerance="10000" bordercolor="#666666" objecttolerance="10" inkscape:cx="126.79097" pagecolor="#ffffff" inkscape:pageopacity="0.0" inkscape:pageshadow="2" inkscape:document-units="px" inkscape:current-layer="layer1" inkscape:window-width="1280" inkscape:window-height="968" inkscape:window-y="-4" inkscape:window-x="-4" inkscape:guide-bbox="true">
	<sodipodi:guide  orientation="vertical" position="1116" id="guide22942"></sodipodi:guide>
	<sodipodi:guide  orientation="vertical" position="1147" id="guide22944"></sodipodi:guide>
</sodipodi:namedview>
<g>
	<g>
		<path fill="#100808" d="M22.464,22.377c0.27,0,0.491-0.231,0.491-0.52c0-0.091-0.025-0.182-0.067-0.261L15.425,7.884
			C15.338,7.723,15.176,7.623,15,7.623c-0.174,0-0.337,0.1-0.424,0.261L7.11,21.596c-0.04,0.079-0.065,0.17-0.065,0.261
			c0,0.286,0.219,0.52,0.493,0.52H22.464z"/>
		<polygon fill="#F7BD42" points="20.768,20.817 9.235,20.817 15,10.224 		"/>
	</g>
	<g>
		<path fill="#231815" d="M16.552,16.159l-0.101,0.679c-0.011,0.063-0.07,0.108-0.136,0.101l-0.213-0.032
			c-0.063-0.011-0.106-0.069-0.1-0.134l0.1-0.664l-2.56-0.38l-0.098,0.666c-0.011,0.064-0.069,0.109-0.134,0.102l-0.213-0.034
			c-0.063-0.009-0.108-0.069-0.101-0.133l0.099-0.665c-0.121-0.025-0.207-0.122-0.192-0.221l0.14-0.938
			c0.017-0.1,0.129-0.168,0.256-0.154l0.354-0.703c0.075-0.152,0.141-0.293,0.259-0.274l2.48,0.365
			c0.115,0.018,0.143,0.17,0.168,0.337l0.119,0.775c0.113,0.03,0.19,0.123,0.178,0.217l-0.139,0.938
			C16.709,16.083,16.641,16.141,16.552,16.159L16.552,16.159z"/>
		<path fill="#F7BD42" d="M14.059,13.553l2.125,0.313c0.102,0.016,0.123,0.132,0.146,0.262l0.133,0.706
			c0.023,0.129-0.347,0.173-0.445,0.157l-2.123-0.313c-0.102-0.015-0.463-0.167-0.398-0.283l0.348-0.636
			C13.906,13.645,13.959,13.54,14.059,13.553L14.059,13.553z"/>
		<path fill="#231815" stroke="#231815" stroke-width="0.0037" stroke-miterlimit="2.6131" d="M13.012,16.535
			c-0.121,0.3-1.363,0.981-1.06,1.616c0.306,0.639,3.004,1.438,1.812,2.428l1.038-0.003c1.001-1.28-1.978-1.742-2.439-2.411
			c-0.466-0.667,0.798-1.273,0.959-1.572L13.012,16.535L13.012,16.535z"/>
		<path fill="#231815" stroke="#231815" stroke-width="0.0037" stroke-miterlimit="2.6131" d="M16.026,16.951
			c-0.109,0.274-1.186,0.856-0.903,1.44c0.278,0.582,3.245,1.289,2.151,2.193l1.125,0.005c0.916-1.172-2.479-1.575-2.903-2.188
			c-0.424-0.61,0.682-1.115,0.828-1.39L16.026,16.951L16.026,16.951z"/>
	</g>
</g>
</svg>
