<?xml version="1.0" encoding="utf-8"?>
<!-- Generator: Adobe Illustrator 17.0.0, SVG Export Plug-In . SVG Version: 6.00 Build 0)  -->
<!DOCTYPE svg PUBLIC "-//W3C//DTD SVG 1.1//EN" "http://www.w3.org/Graphics/SVG/1.1/DTD/svg11.dtd">
<svg version="1.1"
	 id="svg2203" xmlns:rdf="http://www.w3.org/1999/02/22-rdf-syntax-ns#" xmlns:cc="http://web.resource.org/cc/" xmlns:inkscape="http://www.inkscape.org/namespaces/inkscape" xmlns:sodipodi="http://sodipodi.sourceforge.net/DTD/sodipodi-0.dtd" xmlns:dc="http://purl.org/dc/elements/1.1/" xmlns:svg="http://www.w3.org/2000/svg" sodipodi:version="0.32" inkscape:version="0.45.1" sodipodi:docname="闂傚倸鍊搁崐宄懊归崶鏃堟偐閸欏鍠愮紓浣戒含閸嬬偟鎹㈠┑瀣＜婵犲﹤鎳愰敍婊冣攽閳╁啳纭€缂備胶濮靛畝绋垮ú绠归柣鎰絻婵洖鈹戦敍鍕哗婵″閹偓鎼达絿鐓撻柣鐘叉川閸嬫挸螞閸愭槬闁逞勭厵闁艰崵妫" sodipodi:docbase="D:\SVG\闂傚倸鍊搁崐鎼佸磹妞嬪海鐭嗗〒姘ｅ亾妤犵偞鐗犲璇测槈濞嗘劕鍔呴梺闈涚箳婵攱绂掗懖鈺冪＝濞达絼绮欓崫娲煙閸涘﹥鍊愰柡" inkscape:output_extension="org.inkscape.output.svg.inkscape"
	 xmlns="http://www.w3.org/2000/svg" xmlns:xlink="http://www.w3.org/1999/xlink" x="0px" y="0px" width="30px" height="30px"
	 viewBox="0 0 30 30" enable-background="new 0 0 30 30" xml:space="preserve">
<sodipodi:namedview  borderopacity="1.0" guidetolerance="10" inkscape:zoom="0.74999999" inkscape:cy="646.08493" showguides="true" id="base" gridtolerance="10000" bordercolor="#666666" objecttolerance="10" inkscape:cx="126.79097" pagecolor="#ffffff" inkscape:pageopacity="0.0" inkscape:pageshadow="2" inkscape:document-units="px" inkscape:current-layer="layer1" inkscape:window-width="1280" inkscape:window-height="968" inkscape:window-y="-4" inkscape:window-x="-4" inkscape:guide-bbox="true">
	<sodipodi:guide  orientation="vertical" position="1116" id="guide22942"></sodipodi:guide>
	<sodipodi:guide  orientation="vertical" position="1147" id="guide22944"></sodipodi:guide>
</sodipodi:namedview>
<g>
	<path fill="#100808" d="M22.463,22.377c0.27,0,0.491-0.231,0.491-0.52c0-0.091-0.025-0.182-0.067-0.261L15.424,7.884
		c-0.087-0.161-0.249-0.261-0.425-0.261c-0.174,0-0.337,0.1-0.424,0.261L7.11,21.596c-0.04,0.079-0.064,0.17-0.064,0.261
		c0,0.286,0.219,0.52,0.492,0.52H22.463z"/>
	<polygon fill="#F7BD42" points="20.767,20.817 9.233,20.817 14.999,10.224 	"/>
	<polygon points="10.183,20.324 11.839,17.541 14.814,17.493 14.814,20.331 	"/>
	<path d="M19.257,18.41l0.143,0.373c-0.014,0.012-0.024,0.021-0.038,0.031c-0.099,0.082-0.185,0.156-0.31,0.156l0,0l0,0l0,0l0,0
		c-0.123,0-0.207-0.074-0.307-0.156c-0.107-0.09-0.229-0.188-0.396-0.188s-0.289,0.098-0.397,0.188
		c-0.101,0.082-0.184,0.154-0.307,0.154c-0.124,0-0.208-0.072-0.305-0.154c-0.106-0.09-0.229-0.188-0.396-0.188
		c-0.166,0-0.289,0.099-0.396,0.188c-0.102,0.082-0.19,0.154-0.313,0.154c-0.125,0-0.212-0.072-0.313-0.154
		c-0.108-0.09-0.233-0.188-0.399-0.188c-0.169,0-0.291,0.099-0.396,0.188c-0.099,0.082-0.186,0.156-0.31,0.156v-0.49
		c0.124,0,0.21-0.07,0.31-0.152c0.105-0.089,0.229-0.188,0.396-0.188c0.166,0,0.291,0.099,0.399,0.188
		c0.103,0.082,0.188,0.152,0.313,0.152c0.122,0,0.212-0.07,0.313-0.152c0.107-0.089,0.23-0.188,0.396-0.188
		c0.168,0,0.29,0.102,0.396,0.188c0.097,0.082,0.181,0.152,0.305,0.152c0.123,0,0.206-0.07,0.307-0.152
		c0.105-0.086,0.228-0.188,0.396-0.188c0.167,0,0.289,0.099,0.396,0.188c0.1,0.082,0.184,0.152,0.307,0.152
		C19.132,18.48,19.194,18.453,19.257,18.41z"/>
	<path d="M19.55,19.569l0.162,0.418c-0.145,0.014-0.25,0.104-0.352,0.18c-0.099,0.078-0.185,0.151-0.31,0.151
		c-0.124,0-0.209-0.073-0.309-0.151c-0.107-0.085-0.229-0.182-0.396-0.182s-0.289,0.097-0.396,0.182
		c-0.101,0.08-0.184,0.146-0.307,0.146c-0.124,0-0.208-0.065-0.305-0.146c-0.107-0.085-0.229-0.182-0.398-0.182
		c-0.166,0-0.287,0.097-0.396,0.182c-0.102,0.079-0.19,0.146-0.313,0.146c-0.125,0-0.211-0.066-0.313-0.146
		c-0.108-0.085-0.233-0.182-0.399-0.182c-0.169,0-0.291,0.097-0.396,0.182c-0.1,0.078-0.186,0.151-0.311,0.151v-0.473
		c0.125,0,0.21-0.067,0.311-0.147c0.105-0.087,0.229-0.183,0.396-0.183c0.166,0,0.291,0.096,0.399,0.182
		c0.103,0.081,0.188,0.148,0.313,0.148c0.123,0,0.213-0.067,0.313-0.148c0.107-0.086,0.229-0.182,0.396-0.182
		c0.17,0,0.291,0.096,0.398,0.183c0.097,0.08,0.181,0.147,0.305,0.147c0.123,0,0.206-0.067,0.307-0.147
		c0.105-0.087,0.228-0.183,0.396-0.183c0.167,0,0.289,0.096,0.396,0.183c0.1,0.08,0.185,0.147,0.309,0.147
		c0.125,0,0.211-0.067,0.31-0.147C19.419,19.654,19.48,19.607,19.55,19.569z"/>
	<path d="M15.294,13.765c-0.049-0.01-0.109,0.037-0.117,0.084L15.14,14.05l-0.401-0.074c-0.205-0.037-0.332,0.047-0.418,0.182
		c-0.061,0.093-0.438,0.684-0.438,0.684c-0.173,0.014-0.321,0.145-0.353,0.324l-0.168,0.914l0.297,0.055
		c0,0-0.047,0.234-0.063,0.313c-0.025,0.138,0.065,0.272,0.203,0.296c0.137,0.025,0.27-0.066,0.294-0.207l0.058-0.313l1.848,0.336
		l-0.058,0.314c-0.024,0.139,0.066,0.273,0.204,0.299c0.139,0.023,0.268-0.068,0.293-0.209c0.016-0.076,0.055-0.313,0.055-0.313
		l0.299,0.053l0.166-0.913c0.033-0.18-0.062-0.354-0.215-0.427c0,0-0.148-0.688-0.172-0.796c-0.033-0.156-0.121-0.279-0.324-0.316
		l-0.405-0.073l0.036-0.203c0.01-0.045-0.031-0.111-0.08-0.121L15.294,13.765z"/>
	<path fill="#F7BD42" d="M16.183,14.515c0.083,0.015,0.125,0.058,0.146,0.158c0.021,0.105,0.131,0.618,0.131,0.618l-2.295-0.418
		c0,0,0.285-0.44,0.344-0.532c0.056-0.086,0.109-0.111,0.191-0.097L16.183,14.515z"/>
</g>
</svg>
