<?xml version="1.0" encoding="utf-8"?>
<!-- Generator: Adobe Illustrator 17.0.0, SVG Export Plug-In . SVG Version: 6.00 Build 0)  -->
<!DOCTYPE svg PUBLIC "-//W3C//DTD SVG 1.1//EN" "http://www.w3.org/Graphics/SVG/1.1/DTD/svg11.dtd">
<svg version="1.1"
	 id="svg2203" xmlns:rdf="http://www.w3.org/1999/02/22-rdf-syntax-ns#" xmlns:cc="http://web.resource.org/cc/" xmlns:inkscape="http://www.inkscape.org/namespaces/inkscape" xmlns:sodipodi="http://sodipodi.sourceforge.net/DTD/sodipodi-0.dtd" xmlns:dc="http://purl.org/dc/elements/1.1/" xmlns:svg="http://www.w3.org/2000/svg" sodipodi:version="0.32" inkscape:version="0.45.1" sodipodi:docname="闂傚倸鍊搁崐宄懊归崶鏃堟偐閸欏鍠愮紓浣戒含閸嬬偟鎹㈠┑瀣＜婵犲﹤鎳愰敍婊冣攽閳╁啳纭€缂備胶濮靛畝绋垮ú绠归柣鎰絻婵洖鈹戦敍鍕哗婵″閹偓鎼达絿鐓撻柣鐘叉川閸嬫挸螞閸愭槬闁逞勭厵闁艰崵妫" sodipodi:docbase="D:\SVG\闂傚倸鍊搁崐鎼佸磹妞嬪海鐭嗗〒姘ｅ亾妤犵偞鐗犲璇测槈濞嗘劕鍔呴梺闈涚箳婵攱绂掗懖鈺冪＝濞达絼绮欓崫娲煙閸涘﹥鍊愰柡" inkscape:output_extension="org.inkscape.output.svg.inkscape"
	 xmlns="http://www.w3.org/2000/svg" xmlns:xlink="http://www.w3.org/1999/xlink" x="0px" y="0px" width="30px" height="30px"
	 viewBox="0 0 30 30" enable-background="new 0 0 30 30" xml:space="preserve">
<sodipodi:namedview  borderopacity="1.0" guidetolerance="10" inkscape:zoom="0.74999999" inkscape:cy="646.08493" showguides="true" id="base" gridtolerance="10000" bordercolor="#666666" objecttolerance="10" inkscape:cx="126.79097" pagecolor="#ffffff" inkscape:pageopacity="0.0" inkscape:pageshadow="2" inkscape:document-units="px" inkscape:current-layer="layer1" inkscape:window-width="1280" inkscape:window-height="968" inkscape:window-y="-4" inkscape:window-x="-4" inkscape:guide-bbox="true">
	<sodipodi:guide  orientation="vertical" position="1116" id="guide22942"></sodipodi:guide>
	<sodipodi:guide  orientation="vertical" position="1147" id="guide22944"></sodipodi:guide>
</sodipodi:namedview>
<g>
	<path fill="#100808" d="M7.537,22.377c-0.271,0-0.491-0.231-0.491-0.52c0-0.091,0.025-0.182,0.067-0.261l7.463-13.712
		c0.087-0.161,0.249-0.261,0.425-0.261c0.174,0,0.337,0.1,0.424,0.261l7.465,13.712c0.04,0.079,0.064,0.17,0.064,0.261
		c0,0.286-0.219,0.52-0.492,0.52H7.537z"/>
	<polygon fill="#F7BD42" points="9.233,20.817 20.767,20.817 15.001,10.224 	"/>
	<polygon points="19.817,20.324 18.161,17.541 15.187,17.493 15.187,20.331 	"/>
	<path d="M10.743,18.41l-0.144,0.373c0.015,0.012,0.025,0.021,0.039,0.031c0.099,0.082,0.185,0.156,0.31,0.156l0,0l0,0l0,0l0,0
		c0.123,0,0.207-0.074,0.307-0.156c0.107-0.09,0.229-0.188,0.396-0.188s0.288,0.099,0.396,0.188c0.1,0.082,0.183,0.154,0.306,0.154
		c0.124,0,0.208-0.072,0.306-0.154c0.106-0.09,0.229-0.188,0.396-0.188c0.166,0,0.289,0.099,0.396,0.188
		c0.102,0.082,0.189,0.154,0.313,0.154c0.125,0,0.211-0.072,0.313-0.154c0.107-0.09,0.232-0.188,0.398-0.188
		c0.169,0,0.291,0.099,0.397,0.188c0.099,0.082,0.185,0.156,0.309,0.156v-0.49c-0.124,0-0.209-0.07-0.309-0.152
		c-0.106-0.089-0.229-0.188-0.397-0.188c-0.166,0-0.291,0.099-0.398,0.188c-0.104,0.082-0.188,0.152-0.313,0.152
		c-0.123,0-0.212-0.07-0.313-0.152c-0.107-0.089-0.23-0.188-0.396-0.188c-0.168,0-0.29,0.102-0.396,0.188
		c-0.098,0.082-0.182,0.152-0.306,0.152c-0.123,0-0.206-0.07-0.306-0.152c-0.106-0.086-0.228-0.188-0.396-0.188
		c-0.167,0-0.289,0.099-0.396,0.188c-0.1,0.082-0.184,0.152-0.307,0.152C10.868,18.48,10.806,18.453,10.743,18.41z"/>
	<path d="M10.45,19.569l-0.162,0.418c0.145,0.014,0.25,0.104,0.352,0.18c0.099,0.078,0.185,0.151,0.31,0.151
		c0.124,0,0.209-0.073,0.309-0.151c0.107-0.085,0.229-0.182,0.396-0.182s0.289,0.097,0.396,0.182c0.1,0.08,0.183,0.146,0.306,0.146
		c0.124,0,0.208-0.065,0.306-0.146c0.106-0.085,0.229-0.182,0.397-0.182c0.166,0,0.288,0.097,0.396,0.182
		c0.102,0.079,0.189,0.146,0.313,0.146c0.125,0,0.211-0.066,0.313-0.146c0.107-0.085,0.232-0.182,0.398-0.182
		c0.169,0,0.291,0.097,0.397,0.182c0.099,0.078,0.185,0.151,0.31,0.151v-0.473c-0.125,0-0.21-0.067-0.31-0.147
		c-0.106-0.087-0.229-0.183-0.397-0.183c-0.166,0-0.291,0.096-0.398,0.182c-0.104,0.081-0.188,0.148-0.313,0.148
		c-0.123,0-0.212-0.067-0.313-0.148c-0.107-0.086-0.229-0.182-0.396-0.182c-0.169,0-0.291,0.096-0.397,0.183
		c-0.098,0.08-0.182,0.147-0.306,0.147c-0.123,0-0.206-0.067-0.306-0.147c-0.105-0.087-0.228-0.183-0.396-0.183
		c-0.167,0-0.289,0.096-0.396,0.183c-0.1,0.08-0.185,0.147-0.309,0.147c-0.125,0-0.211-0.067-0.31-0.147
		C10.581,19.654,10.521,19.607,10.45,19.569z"/>
	<path d="M14.204,13.855c-0.049,0.01-0.09,0.076-0.08,0.121l0.036,0.203l-0.405,0.073c-0.203,0.037-0.291,0.16-0.324,0.316
		c-0.022,0.108-0.172,0.796-0.172,0.796c-0.154,0.072-0.248,0.247-0.215,0.427l0.166,0.913l0.299-0.053c0,0,0.039,0.236,0.054,0.313
		c0.026,0.141,0.155,0.232,0.293,0.209c0.139-0.025,0.229-0.16,0.204-0.299l-0.057-0.314l1.848-0.336l0.058,0.313
		c0.024,0.141,0.156,0.232,0.294,0.207c0.138-0.023,0.229-0.158,0.203-0.296c-0.016-0.079-0.063-0.313-0.063-0.313l0.297-0.055
		l-0.168-0.914c-0.03-0.18-0.18-0.311-0.353-0.324c0,0-0.379-0.591-0.438-0.684c-0.086-0.135-0.213-0.219-0.418-0.182l-0.401,0.074
		l-0.037-0.201c-0.009-0.047-0.068-0.094-0.117-0.084L14.204,13.855z"/>
	<path fill="#F7BD42" d="M15.3,14.245c0.082-0.015,0.136,0.011,0.191,0.097c0.059,0.092,0.344,0.532,0.344,0.532l-2.295,0.418
		c0,0,0.108-0.513,0.131-0.618c0.021-0.101,0.063-0.144,0.146-0.158L15.3,14.245z"/>
</g>
</svg>
