<?xml version="1.0" encoding="utf-8"?>
<!-- Generator: Adobe Illustrator 17.0.0, SVG Export Plug-In . SVG Version: 6.00 Build 0)  -->
<!DOCTYPE svg PUBLIC "-//W3C//DTD SVG 1.1//EN" "http://www.w3.org/Graphics/SVG/1.1/DTD/svg11.dtd">
<svg version="1.1"
	 id="svg2203" xmlns:rdf="http://www.w3.org/1999/02/22-rdf-syntax-ns#" xmlns:cc="http://web.resource.org/cc/" xmlns:inkscape="http://www.inkscape.org/namespaces/inkscape" xmlns:sodipodi="http://sodipodi.sourceforge.net/DTD/sodipodi-0.dtd" xmlns:dc="http://purl.org/dc/elements/1.1/" xmlns:svg="http://www.w3.org/2000/svg" sodipodi:version="0.32" inkscape:version="0.45.1" sodipodi:docname="闂傚倸鍊搁崐鎼佸磹閹间礁纾归柟闂寸绾惧湱鈧懓瀚崳纾嬨亹閹烘垹鍊為梺鍝勫暙閻楀﹪宕戦幇鐗堢厱婵炲棗绻樺畷浼村箛绾捐棄霉閿濆棗鐏婇柛姘厱閻庯絼鎴烽梺鐟扮畭閸ㄥ綊鍩為幋鐘亾閿濆繒搴婂┑鐘垫暩婵挳鏁冮妶澶婄疇闁规壆澧楅弲绻濇繝鍌氭殜闁衡偓娴犲鐓冮柍杞扮閺嗐垻鐥崑鎾剁磽閸屾艾鈧兘鎳楅懜鍨弿闂傚牊绋撻弳鍡欑磼鐎ｄ虎閻撱倗绱掗悩鑼Ш闁哄矉缍侀獮鍥╁緤鐠囨祴鏀芥繛鍙夌墵閸╃偤骞嬮敂鑺ユ珫闂佸憡娲栭幗瀣節绾版ǚ鍋撻幎鑺ョ厵闁稿鎹囬獮鏍ㄦ綇閸撗勫仹闂佺粯鎸婚幑鍥蓟閿濆鍋愰柛娆忕粣娑㈡⒑缁嬪潡骞愬宀€浜遍梻浣告啞閸旀牕危濮婃椽鏌呴悙鎻掗柛妯兼暬濮婃椽鎳濋弶鍨優濠" sodipodi:docbase="D:\SVG\闂傚倸鍊搁崐鎼佸磹閹间礁纾归柟闂寸绾惧綊鏌熼梻瀵哥痪鍓ф嚀閻庯絾宕抽梺缁橀柕鍡樺笒闁挎繂鎳嶆竟鏇熶繆閵堝洤啸闁稿鍋ら幃褔鎮╅懠瀚氭繛鏉戞繝鐢靛仜濡瑩宕濋弴銏犵闁告稑鐡ㄩ埛鎴︽⒒閸喓銆掔紒鐘插暱閳规垿寮ㄦ潏鈺冪焿闁圭儤閸ゅ啴鏌嶉崫鍕殶闁挎稒绻冪换娑欐綇閸撗冪紓浣烘噰鐎规毝娲偂濞嗘挻鐓曟繛鎴烇公閺€濠氭煕婵犲啫濮嶉柡" inkscape:output_extension="org.inkscape.output.svg.inkscape"
	 xmlns="http://www.w3.org/2000/svg" xmlns:xlink="http://www.w3.org/1999/xlink" x="0px" y="0px" width="30px" height="30px"
	 viewBox="0 0 30 30" enable-background="new 0 0 30 30" xml:space="preserve">
<sodipodi:namedview  borderopacity="1.0" guidetolerance="10" inkscape:zoom="0.74999999" inkscape:cy="646.08493" showguides="true" id="base" gridtolerance="10000" bordercolor="#666666" objecttolerance="10" inkscape:cx="126.79097" pagecolor="#ffffff" inkscape:pageopacity="0.0" inkscape:pageshadow="2" inkscape:document-units="px" inkscape:current-layer="layer1" inkscape:window-width="1280" inkscape:window-height="968" inkscape:window-y="-4" inkscape:window-x="-4" inkscape:guide-bbox="true">
	<sodipodi:guide  orientation="vertical" position="1116" id="guide22942"></sodipodi:guide>
	<sodipodi:guide  orientation="vertical" position="1147" id="guide22944"></sodipodi:guide>
</sodipodi:namedview>
<g>
	<path fill="#100808" d="M7.535,22.378c-0.27,0-0.491-0.229-0.491-0.52c0-0.091,0.025-0.182,0.067-0.261l7.463-13.712
		c0.087-0.161,0.25-0.264,0.425-0.264c0.174,0,0.337,0.103,0.424,0.264l7.469,13.712c0.04,0.079,0.063,0.17,0.063,0.261
		c0,0.286-0.219,0.52-0.493,0.52H7.535z"/>
	<polygon fill="#F7BD42" points="9.232,20.819 20.764,20.819 14.999,10.226 	"/>
	<polygon points="18.715,17.52 18.418,16.527 17.528,16.527 16.817,15.948 14.713,15.948 13.816,16.594 12.608,16.736 
		11.986,16.898 11.867,17.722 17.855,17.757 18.091,17.49 	"/>
	<polygon fill="#F5AB28" points="17.055,16.661 16.58,16.097 15.81,16.097 15.81,16.661 	"/>
	<polygon fill="#F5AB28" points="15.542,16.661 15.542,16.097 14.861,16.097 14.298,16.661 	"/>
	<circle cx="17.391" cy="17.737" r="0.538"/>
	<circle fill="#F5AB28" cx="17.392" cy="17.737" r="0.361"/>
	<circle cx="13.009" cy="17.737" r="0.538"/>
	<circle fill="#F5AB28" cx="13.009" cy="17.737" r="0.361"/>
	<path d="M10.722,17.923h1.364l0.183,0.3h6.969l-0.682,1.214h-0.949l0.067,0.166c0,0,0.766,0.052,0.981,0
		c0.215-0.052,0.898-0.215,0.898-0.215v0.215l-1.048,0.316c0,0-0.465,0.1-1.098,0c-0.632-0.1-0.599-0.299-0.599-0.299h-1.596
		l-1.048-0.499l-0.216,0.033l0.549,0.432c0,0-0.383-0.107-0.731-0.158c-0.351-0.049-0.783,0.225-1.281,0.308
		c-0.5,0.083-0.882-0.066-0.882-0.066l-1.264-0.433v-0.2l0.715-0.116l-0.034-0.167L10.722,17.923z"/>
	<path d="M10.938,19.687h0.266c0,0,0.33,0.166,0.549,0.277s0.848-0.012,0.915,0c0.066,0.011,0.532-0.277,0.765-0.277
		s0.533,0.277,0.533,0.277v0.222c0,0-0.283-0.233-0.5-0.222c-0.216,0.011-0.732,0.305-0.732,0.305s-0.714,0.1-1.047,0
		c-0.332-0.099-0.748-0.465-0.748-0.465"/>
	<path d="M15.412,20.458c0,0,0.416-0.366,0.749-0.465c0.333-0.1,1.047,0,1.047,0s0.517,0.293,0.732,0.305
		c0.216,0.011,0.499-0.222,0.499-0.222v0.222c0,0-0.299,0.277-0.532,0.277s-0.699-0.289-0.766-0.277s-0.695-0.111-0.915,0
		c-0.219,0.111-0.549,0.277-0.549,0.277h-0.265"/>
</g>
</svg>
