<?xml version="1.0" encoding="utf-8"?>
<!-- Generator: Adobe Illustrator 17.0.0, SVG Export Plug-In . SVG Version: 6.00 Build 0)  -->
<!DOCTYPE svg PUBLIC "-//W3C//DTD SVG 1.1//EN" "http://www.w3.org/Graphics/SVG/1.1/DTD/svg11.dtd">
<svg version="1.1"
	 id="svg2203" xmlns:rdf="http://www.w3.org/1999/02/22-rdf-syntax-ns#" xmlns:cc="http://web.resource.org/cc/" xmlns:inkscape="http://www.inkscape.org/namespaces/inkscape" xmlns:sodipodi="http://sodipodi.sourceforge.net/DTD/sodipodi-0.dtd" xmlns:dc="http://purl.org/dc/elements/1.1/" xmlns:svg="http://www.w3.org/2000/svg" sodipodi:version="0.32" inkscape:version="0.45.1" sodipodi:docname="闂傚倸鍊搁崐宄懊归崶鏃堟偐閸欏鍠愮紓浣戒含閸嬬偟鎹㈠┑瀣＜婵犲﹤鎳愰敍婊冣攽閳╁啳纭€缂備胶濮靛畝绋垮ú绠归柣鎰絻婵洖鈹戦敍鍕哗婵″閹偓鎼达絿鐓撻柣鐘叉川閸嬫挸螞閸愭槬闁逞勭厵闁艰崵妫" sodipodi:docbase="D:\SVG\闂傚倸鍊搁崐鎼佸磹妞嬪海鐭嗗〒姘ｅ亾妤犵偞鐗犲璇测槈濞嗘劕鍔呴梺闈涚箳婵攱绂掗懖鈺冪＝濞达絼绮欓崫娲煙閸涘﹥鍊愰柡" inkscape:output_extension="org.inkscape.output.svg.inkscape"
	 xmlns="http://www.w3.org/2000/svg" xmlns:xlink="http://www.w3.org/1999/xlink" x="0px" y="0px" width="30px" height="30px"
	 viewBox="0 0 30 30" enable-background="new 0 0 30 30" xml:space="preserve">
<sodipodi:namedview  borderopacity="1.0" guidetolerance="10" inkscape:zoom="0.74999999" inkscape:cy="646.08493" showguides="true" id="base" gridtolerance="10000" bordercolor="#666666" objecttolerance="10" inkscape:cx="126.79097" pagecolor="#ffffff" inkscape:pageopacity="0.0" inkscape:pageshadow="2" inkscape:document-units="px" inkscape:current-layer="layer1" inkscape:window-width="1280" inkscape:window-height="968" inkscape:window-y="-4" inkscape:window-x="-4" inkscape:guide-bbox="true">
	<sodipodi:guide  orientation="vertical" position="1116" id="guide22942"></sodipodi:guide>
	<sodipodi:guide  orientation="vertical" position="1147" id="guide22944"></sodipodi:guide>
</sodipodi:namedview>
<g>
	<g>
		<path fill="#100808" d="M7.536,22.377c-0.271,0-0.49-0.231-0.49-0.52c0-0.091,0.024-0.182,0.066-0.261l7.463-13.712
			c0.087-0.161,0.25-0.261,0.425-0.261s0.337,0.1,0.424,0.261l7.465,13.712c0.04,0.079,0.065,0.17,0.065,0.261
			c0,0.286-0.22,0.52-0.493,0.52H7.536z"/>
		<polygon fill="#F7BD42" points="9.233,20.817 20.766,20.817 15,10.224 		"/>
	</g>
	<path stroke="#231815" stroke-width="0.0037" stroke-miterlimit="2.6131" d="M17.162,17.657l-0.004,0.745
		c0,0.071-0.061,0.129-0.129,0.128h-0.234c-0.07-0.001-0.127-0.06-0.127-0.129l0.004-0.73l-2.81-0.014l-0.003,0.731
		c0,0.069-0.058,0.128-0.128,0.128L13.5,18.512c-0.071-0.001-0.128-0.059-0.129-0.125l0.004-0.732
		c-0.135-0.009-0.24-0.099-0.24-0.206l0.005-1.03c0.001-0.109,0.112-0.201,0.251-0.205l0.271-0.813
		c0.06-0.176,0.104-0.337,0.234-0.335l2.727,0.013c0.127,0,0.174,0.16,0.229,0.336l0.246,0.818c0.126,0.016,0.226,0.102,0.226,0.205
		l-0.005,1.03C17.32,17.551,17.254,17.626,17.162,17.657L17.162,17.657z"/>
	<path fill="#F7D65A" stroke="#231815" stroke-width="0.0037" stroke-miterlimit="2.6131" d="M14.085,15.236l2.331,0.011
		c0.107,0.002,0.148,0.125,0.196,0.258l0.253,0.74c0.045,0.135-0.348,0.238-0.457,0.237l-2.328-0.01
		c-0.11,0-0.522-0.108-0.474-0.245l0.275-0.734C13.935,15.358,13.976,15.236,14.085,15.236L14.085,15.236z"/>
	<circle fill="#F7D65A" stroke="#231815" stroke-width="0.0037" stroke-miterlimit="2.6131" cx="13.496" cy="16.711" r="0.22"/>
	<circle fill="#F7D65A" stroke="#231815" stroke-width="0.0037" stroke-miterlimit="2.6131" cx="17.022" cy="16.813" r="0.221"/>
	<path d="M11.036,18.259c0,0,0.763-2.761,2.523,0.513C13.561,18.772,12.344,17.115,11.036,18.259z"/>
	<path d="M17.07,18.551c0,0,1.057-1.666,1.824,0.048l0.412,0.096C19.308,18.695,18.539,15.505,17.07,18.551z"/>
	<path d="M10.828,18.792h8.424l0.582,1.193h-9.669L10.828,18.792z"/>
</g>
</svg>
