<?xml version="1.0" encoding="utf-8"?>
<!-- Generator: Adobe Illustrator 17.0.0, SVG Export Plug-In . SVG Version: 6.00 Build 0)  -->
<!DOCTYPE svg PUBLIC "-//W3C//DTD SVG 1.1//EN" "http://www.w3.org/Graphics/SVG/1.1/DTD/svg11.dtd">
<svg version="1.1"
	 id="svg2203" xmlns:rdf="http://www.w3.org/1999/02/22-rdf-syntax-ns#" xmlns:cc="http://web.resource.org/cc/" xmlns:inkscape="http://www.inkscape.org/namespaces/inkscape" xmlns:sodipodi="http://sodipodi.sourceforge.net/DTD/sodipodi-0.dtd" xmlns:dc="http://purl.org/dc/elements/1.1/" xmlns:svg="http://www.w3.org/2000/svg" sodipodi:version="0.32" inkscape:version="0.45.1" sodipodi:docname="闂傚倸鍊搁崐宄懊归崶鏃堟偐閸欏鍠愮紓浣戒含閸嬬偟鎹㈠┑瀣＜婵犲﹤鎳愰敍婊冣攽閳╁啳纭€缂備胶濮靛畝绋垮ú绠归柣鎰絻婵洖鈹戦敍鍕哗婵″閹偓鎼达絿鐓撻柣鐘叉川閸嬫挸螞閸愭槬闁逞勭厵闁艰崵妫" sodipodi:docbase="D:\SVG\闂傚倸鍊搁崐鎼佸磹妞嬪海鐭嗗〒姘ｅ亾妤犵偞鐗犲璇测槈濞嗘劕鍔呴梺闈涚箳婵攱绂掗懖鈺冪＝濞达絼绮欓崫娲煙閸涘﹥鍊愰柡" inkscape:output_extension="org.inkscape.output.svg.inkscape"
	 xmlns="http://www.w3.org/2000/svg" xmlns:xlink="http://www.w3.org/1999/xlink" x="0px" y="0px" width="30px" height="30px"
	 viewBox="0 0 30 30" enable-background="new 0 0 30 30" xml:space="preserve">
<sodipodi:namedview  borderopacity="1.0" guidetolerance="10" inkscape:zoom="0.74999999" inkscape:cy="646.08493" showguides="true" id="base" gridtolerance="10000" bordercolor="#666666" objecttolerance="10" inkscape:cx="126.79097" pagecolor="#ffffff" inkscape:pageopacity="0.0" inkscape:pageshadow="2" inkscape:document-units="px" inkscape:current-layer="layer1" inkscape:window-width="1280" inkscape:window-height="968" inkscape:window-y="-4" inkscape:window-x="-4" inkscape:guide-bbox="true">
	<sodipodi:guide  orientation="vertical" position="1116" id="guide22942"></sodipodi:guide>
	<sodipodi:guide  orientation="vertical" position="1147" id="guide22944"></sodipodi:guide>
</sodipodi:namedview>
<g>
	<path fill="#100808" d="M22.464,22.377c0.27,0,0.491-0.231,0.491-0.52c0-0.091-0.025-0.182-0.067-0.261L15.425,7.884
		C15.338,7.723,15.175,7.623,15,7.623c-0.174,0-0.337,0.1-0.424,0.261L7.11,21.596c-0.04,0.079-0.065,0.17-0.065,0.261
		c0,0.286,0.219,0.52,0.493,0.52H22.464z"/>
	<polygon fill="#F7BD42" points="20.767,20.817 9.235,20.817 15,10.224 	"/>
	<polygon points="12.122,16.219 12.389,16.219 12.67,15.703 12.969,16.182 14.68,16.182 14.99,15.703 15.293,16.219 17.032,16.219 
		17.312,15.703 17.611,16.219 17.879,16.219 17.879,16.832 17.611,16.832 17.611,18.737 17.879,18.737 17.879,19.353 17.611,19.353 
		17.611,19.73 17.032,19.73 17.032,19.353 15.291,19.353 15.291,19.73 14.709,19.73 14.709,19.353 12.968,19.353 12.968,19.73 
		12.388,19.73 12.388,19.364 12.122,19.364 12.122,18.737 12.389,18.737 12.389,16.834 12.122,16.834 	"/>
	<polygon fill="#F7BD42" points="14.642,16.631 12.999,16.631 12.999,18.834 14.644,18.834 14.644,16.631 	"/>
	<rect x="15.358" y="16.631" fill="#F7BD42" width="1.646" height="2.203"/>
</g>
</svg>
