<?xml version="1.0" encoding="utf-8"?>
<!-- Generator: Adobe Illustrator 17.0.0, SVG Export Plug-In . SVG Version: 6.00 Build 0)  -->
<!DOCTYPE svg PUBLIC "-//W3C//DTD SVG 1.1//EN" "http://www.w3.org/Graphics/SVG/1.1/DTD/svg11.dtd">
<svg version="1.1"
	 id="svg2203" xmlns:rdf="http://www.w3.org/1999/02/22-rdf-syntax-ns#" xmlns:cc="http://web.resource.org/cc/" xmlns:inkscape="http://www.inkscape.org/namespaces/inkscape" xmlns:sodipodi="http://sodipodi.sourceforge.net/DTD/sodipodi-0.dtd" xmlns:dc="http://purl.org/dc/elements/1.1/" xmlns:svg="http://www.w3.org/2000/svg" sodipodi:version="0.32" inkscape:version="0.45.1" sodipodi:docname="闂傚倸鍊搁崐宄懊归崶鏃堟偐閸欏鍠愮紓浣戒含閸嬬偟鎹㈠┑瀣＜婵犲﹤鎳愰敍婊冣攽閳╁啳纭€缂備胶濮靛畝绋垮ú绠归柣鎰絻婵洖鈹戦敍鍕哗婵″閹偓鎼达絿鐓撻柣鐘叉川閸嬫挸螞閸愭槬闁逞勭厵闁艰崵妫" sodipodi:docbase="D:\SVG\闂傚倸鍊搁崐鎼佸磹妞嬪海鐭嗗〒姘ｅ亾妤犵偞鐗犲璇测槈濞嗘劕鍔呴梺闈涚箳婵攱绂掗懖鈺冪＝濞达絼绮欓崫娲煙閸涘﹥鍊愰柡" inkscape:output_extension="org.inkscape.output.svg.inkscape"
	 xmlns="http://www.w3.org/2000/svg" xmlns:xlink="http://www.w3.org/1999/xlink" x="0px" y="0px" width="30px" height="30px"
	 viewBox="0 0 30 30" enable-background="new 0 0 30 30" xml:space="preserve">
<sodipodi:namedview  borderopacity="1.0" guidetolerance="10" inkscape:zoom="0.74999999" inkscape:cy="646.08493" showguides="true" id="base" gridtolerance="10000" bordercolor="#666666" objecttolerance="10" inkscape:cx="126.79097" pagecolor="#ffffff" inkscape:pageopacity="0.0" inkscape:pageshadow="2" inkscape:document-units="px" inkscape:current-layer="layer1" inkscape:window-width="1280" inkscape:window-height="968" inkscape:window-y="-4" inkscape:window-x="-4" inkscape:guide-bbox="true">
	<sodipodi:guide  orientation="vertical" position="1116" id="guide22942"></sodipodi:guide>
	<sodipodi:guide  orientation="vertical" position="1147" id="guide22944"></sodipodi:guide>
</sodipodi:namedview>
<g>
	<g>
		<path fill="#100808" d="M22.464,22.377c0.27,0,0.491-0.231,0.491-0.52c0-0.091-0.025-0.182-0.067-0.261L15.425,7.884
			C15.338,7.723,15.176,7.623,15,7.623c-0.174,0-0.337,0.1-0.424,0.261L7.11,21.596c-0.04,0.079-0.065,0.17-0.065,0.261
			c0,0.286,0.219,0.52,0.493,0.52H22.464z"/>
		<polygon fill="#F7BD42" points="20.768,20.817 9.235,20.817 15,10.224 		"/>
	</g>
	<circle cx="13.266" cy="19.47" r="0.431"/>
	<circle cx="14.806" cy="19.47" r="0.431"/>
	<circle cx="16.428" cy="19.47" r="0.431"/>
	<path d="M16.098,13.796c-0.104,0-0.204,0.02-0.295,0.055c-0.122-0.207-0.347-0.348-0.604-0.348c-0.267,0-0.496,0.148-0.615,0.367
		c-0.067-0.014-0.137-0.021-0.209-0.021c-0.594,0-1.075,0.482-1.075,1.076c0,0.143,0.026,0.276,0.077,0.4
		c-0.047-0.014-0.094-0.022-0.146-0.022c-0.257,0-0.466,0.208-0.466,0.466c0,0.039,0.005,0.076,0.016,0.111
		c-0.142,0.043-0.244,0.172-0.244,0.327c0,0.188,0.152,0.34,0.342,0.34c0.179,0,0.324-0.137,0.339-0.313
		c0.005,0,0.009,0.002,0.014,0.002c0.147,0,0.278-0.068,0.364-0.176c0.074,0.185,0.253,0.315,0.462,0.315
		c0.235,0,0.436-0.167,0.483-0.388c0.455-0.069,0.813-0.426,0.894-0.877c0.15,0.203,0.394,0.336,0.664,0.336
		c0.456,0,0.825-0.369,0.825-0.824C16.923,14.166,16.554,13.796,16.098,13.796z"/>
	<g>
		<path d="M12.16,17.304c0,0-0.086,0.472-0.086,0.861s0.1,0.864,0.1,0.864h-0.137v0.287h0.715v-0.373h4.196v0.373h1.148v-0.405
			h-0.16v-1.699h0.16v-0.244h-1.771v0.336h-0.422c0-0.059,0-0.1,0-0.102c0-0.134-0.105-0.24-0.238-0.24s-0.239,0.106-0.239,0.24
			v0.102h-0.603c0-0.133-0.107-0.237-0.24-0.237c-0.131,0-0.238,0.104-0.238,0.237h-1.332v-0.538h-0.564v0.538"/>
		<path d="M16.948,18.944L16.948,18.944L16.948,18.944L16.948,18.944L16.948,18.944L16.948,18.944L16.948,18.944L16.948,18.944
			L16.948,18.944L16.948,18.944L16.948,18.944L16.948,18.944L16.948,18.944L16.948,18.944L16.948,18.944L16.948,18.944
			L16.948,18.944L16.948,18.944L16.948,18.944L16.948,18.944z M16.948,18.944L16.948,18.944L16.948,18.944L16.948,18.944
			L16.948,18.944L16.948,18.944L16.948,18.944L16.948,18.944L16.948,18.944L16.948,18.944L16.948,18.944z M16.948,18.944
			L16.948,18.944L16.948,18.944L16.948,18.944L16.948,18.944L16.948,18.944L16.948,18.944z M16.948,18.944L16.948,18.944
			L16.948,18.944L16.948,18.944L16.948,18.944z M16.948,18.944L16.948,18.944L16.948,18.944L16.948,18.944L16.948,18.944z"/>
	</g>
</g>
</svg>
