<?xml version="1.0" encoding="utf-8"?>
<!-- Generator: Adobe Illustrator 17.0.0, SVG Export Plug-In . SVG Version: 6.00 Build 0)  -->
<!DOCTYPE svg PUBLIC "-//W3C//DTD SVG 1.1//EN" "http://www.w3.org/Graphics/SVG/1.1/DTD/svg11.dtd">
<svg version="1.1"
	 id="svg2203" xmlns:rdf="http://www.w3.org/1999/02/22-rdf-syntax-ns#" xmlns:cc="http://web.resource.org/cc/" xmlns:inkscape="http://www.inkscape.org/namespaces/inkscape" xmlns:sodipodi="http://sodipodi.sourceforge.net/DTD/sodipodi-0.dtd" xmlns:dc="http://purl.org/dc/elements/1.1/" xmlns:svg="http://www.w3.org/2000/svg" sodipodi:version="0.32" inkscape:version="0.45.1" sodipodi:docname="闂傚倸鍊搁崐鎼佸磹瀹勬噴褰掑炊閺冨牊鍋愰柛娆忛崰鎰磽娴ｆ垝鍚柛瀣仧閹广垹鈹戠€ｏ紲濠电姴锕ら幊鎰版晬濠婂啠鏀介柍鈺佸暢绾偓缂傚倷鑳舵慨闈涚暆缁嬪灝煤缁犲綊鏌ｉ幇绲诲┑娲栭埞鎴︽晬閸曞摋濠碘€抽柟鍋撻幖杈剧悼閻撴捇鏌ｉ悩鍙夊窛闁稿鎸歌灋闁告劖妲梺閫炲嫮鍘甸梺鑹板吹濡" sodipodi:docbase="D:\SVG\闂傚倸鍊搁崐鎼佸磹閹间礁纾瑰瀣捣閻棗銆掑锝呬壕濡ょ姷鍋為悧鐘茬拠娴嬫婵炲棙鍔曢崝鍛存⒑闂堟稓绠冲┑鏀辩粋鎺楁嚃閳哄啰锛濇繛杈剧导缁瑩宕ú鐓欓柛娑橈攻閸婃劙鏌" inkscape:output_extension="org.inkscape.output.svg.inkscape"
	 xmlns="http://www.w3.org/2000/svg" xmlns:xlink="http://www.w3.org/1999/xlink" x="0px" y="0px" width="30px" height="30px"
	 viewBox="0 0 30 30" enable-background="new 0 0 30 30" xml:space="preserve">
<sodipodi:namedview  borderopacity="1.0" guidetolerance="10" inkscape:zoom="0.74999999" inkscape:cy="646.08493" showguides="true" id="base" gridtolerance="10000" bordercolor="#666666" objecttolerance="10" inkscape:cx="126.79097" pagecolor="#ffffff" inkscape:pageopacity="0.0" inkscape:pageshadow="2" inkscape:document-units="px" inkscape:current-layer="layer1" inkscape:window-width="1280" inkscape:window-height="968" inkscape:window-y="-4" inkscape:window-x="-4" inkscape:guide-bbox="true">
	<sodipodi:guide  orientation="vertical" position="1116" id="guide22942"></sodipodi:guide>
	<sodipodi:guide  orientation="vertical" position="1147" id="guide22944"></sodipodi:guide>
</sodipodi:namedview>
<g>
	<polygon fill="#D11323" points="8.079,20.336 6.683,19.463 7.206,17.893 14.976,15.277 22.794,17.806 23.317,19.463 21.805,20.336 
		14.976,18.097 	"/>
	<polygon fill="#D11323" points="6.683,16.178 8.137,17.078 15,14.772 21.921,17.078 23.317,16.293 22.794,14.637 19.072,13.358 
		22.794,12.141 23.317,10.595 21.95,9.664 15.116,12.082 8.224,9.664 6.683,10.595 7.206,12.141 10.9,13.372 7.265,14.637 	"/>
	<path fill="#FFFFFF" d="M7.294,15.974l0.756,0.349L15,14.056l7.008,2.268l0.669-0.408c0,0-0.175-0.727-0.262-0.727
		s-5.409-1.818-5.409-1.818l5.409-1.845l0.262-0.728l-0.728-0.437l-6.95,2.578l-6.921-2.578l-0.785,0.465l0.32,0.699l5.568,1.845
		l-5.598,1.905L7.294,15.974z"/>
	<polygon fill="#FFFFFF" points="7.294,19.172 8.079,19.639 14.976,17.369 21.921,19.639 22.677,19.172 22.386,18.504 15,16.003 
		7.614,18.445 	"/>
</g>
</svg>
