<?xml version="1.0" encoding="utf-8"?>
<!-- Generator: Adobe Illustrator 17.0.0, SVG Export Plug-In . SVG Version: 6.00 Build 0)  -->
<!DOCTYPE svg PUBLIC "-//W3C//DTD SVG 1.1//EN" "http://www.w3.org/Graphics/SVG/1.1/DTD/svg11.dtd">
<svg version="1.1"
	 id="svg2203" xmlns:rdf="http://www.w3.org/1999/02/22-rdf-syntax-ns#" xmlns:cc="http://web.resource.org/cc/" xmlns:inkscape="http://www.inkscape.org/namespaces/inkscape" xmlns:sodipodi="http://sodipodi.sourceforge.net/DTD/sodipodi-0.dtd" xmlns:dc="http://purl.org/dc/elements/1.1/" xmlns:svg="http://www.w3.org/2000/svg" sodipodi:version="0.32" inkscape:version="0.45.1" sodipodi:docname="闂傚倸鍊搁崐鎼佸磹瀹勬噴褰掑炊閺冨牊鍋愰柛娆忛崰鎰磽娴ｆ垝鍚柛瀣仧閹广垹鈹戠€ｏ紲濠电姴锕ら幊鎰版晬濠婂啠鏀介柍鈺佸暢绾偓缂傚倷鑳舵慨闈涚暆缁嬪灝煤缁犲綊鏌ｉ幇绲诲┑娲栭埞鎴︽晬閸曞摋濠碘€抽柟鍋撻幖杈剧悼閻撴捇鏌ｉ悩鍙夊窛闁稿鎸歌灋闁告劖妲梺閫炲嫮鍘甸梺鑹板吹濡" sodipodi:docbase="D:\SVG\闂傚倸鍊搁崐鎼佸磹閹间礁纾瑰瀣捣閻棗銆掑锝呬壕濡ょ姷鍋為悧鐘茬拠娴嬫婵炲棙鍔曢崝鍛存⒑闂堟稓绠冲┑鏀辩粋鎺楁嚃閳哄啰锛濇繛杈剧导缁瑩宕ú鐓欓柛娑橈攻閸婃劙鏌" inkscape:output_extension="org.inkscape.output.svg.inkscape"
	 xmlns="http://www.w3.org/2000/svg" xmlns:xlink="http://www.w3.org/1999/xlink" x="0px" y="0px" width="30px" height="30px"
	 viewBox="0 0 30 30" enable-background="new 0 0 30 30" xml:space="preserve">
<sodipodi:namedview  borderopacity="1.0" guidetolerance="10" inkscape:zoom="0.74999999" inkscape:cy="646.08493" showguides="true" id="base" gridtolerance="10000" bordercolor="#666666" objecttolerance="10" inkscape:cx="126.79097" pagecolor="#ffffff" inkscape:pageopacity="0.0" inkscape:pageshadow="2" inkscape:document-units="px" inkscape:current-layer="layer1" inkscape:window-width="1280" inkscape:window-height="968" inkscape:window-y="-4" inkscape:window-x="-4" inkscape:guide-bbox="true">
	<sodipodi:guide  orientation="vertical" position="1116" id="guide22942"></sodipodi:guide>
	<sodipodi:guide  orientation="vertical" position="1147" id="guide22944"></sodipodi:guide>
</sodipodi:namedview>
<g>
	<g>
		<path fill="#100808" d="M22.464,16.711c0.27,0,0.491-0.231,0.491-0.521c0-0.091-0.025-0.182-0.067-0.261L15.425,2.216
			C15.338,2.055,15.176,1.955,15,1.955c-0.174,0-0.337,0.1-0.424,0.261L7.11,15.928c-0.04,0.079-0.065,0.17-0.065,0.261
			c0,0.286,0.219,0.521,0.493,0.521H22.464z"/>
		<polygon fill="#F7BD42" points="20.768,15.151 9.235,15.151 15,4.558 		"/>
	</g>
	<circle cx="13.266" cy="13.804" r="0.431"/>
	<circle cx="14.806" cy="13.804" r="0.431"/>
	<circle cx="16.428" cy="13.804" r="0.431"/>
	<path d="M16.098,8.13c-0.104,0-0.204,0.02-0.295,0.055c-0.122-0.207-0.347-0.348-0.604-0.348c-0.268,0-0.496,0.147-0.615,0.367
		c-0.067-0.015-0.137-0.021-0.209-0.021c-0.594,0-1.075,0.482-1.075,1.076c0,0.143,0.026,0.275,0.077,0.399
		c-0.047-0.014-0.094-0.021-0.146-0.021c-0.257,0-0.466,0.208-0.466,0.466c0,0.039,0.005,0.076,0.017,0.111
		c-0.143,0.043-0.244,0.172-0.244,0.327c0,0.188,0.151,0.34,0.342,0.34c0.179,0,0.324-0.138,0.339-0.313
		c0.005,0,0.009,0.002,0.014,0.002c0.147,0,0.278-0.067,0.364-0.176c0.074,0.185,0.253,0.315,0.462,0.315
		c0.235,0,0.437-0.167,0.483-0.389c0.455-0.068,0.813-0.426,0.894-0.877c0.15,0.203,0.395,0.336,0.664,0.336
		c0.456,0,0.825-0.369,0.825-0.823C16.923,8.5,16.554,8.13,16.098,8.13z"/>
	<g>
		<path d="M12.16,11.638c0,0-0.086,0.472-0.086,0.861s0.1,0.863,0.1,0.863h-0.137v0.287h0.715v-0.373h4.196v0.373h1.147v-0.405
			h-0.16v-1.698h0.16v-0.244h-1.771v0.336h-0.421c0-0.059,0-0.1,0-0.103c0-0.134-0.105-0.239-0.238-0.239s-0.239,0.105-0.239,0.239
			v0.103h-0.603c0-0.133-0.107-0.237-0.24-0.237c-0.131,0-0.238,0.104-0.238,0.237h-1.332V11.1H12.45v0.538"/>
		<path d="M16.948,13.278L16.948,13.278L16.948,13.278L16.948,13.278L16.948,13.278L16.948,13.278L16.948,13.278L16.948,13.278
			L16.948,13.278L16.948,13.278L16.948,13.278L16.948,13.278L16.948,13.278L16.948,13.278L16.948,13.278L16.948,13.278
			L16.948,13.278L16.948,13.278L16.948,13.278L16.948,13.278z M16.948,13.278L16.948,13.278L16.948,13.278L16.948,13.278
			L16.948,13.278L16.948,13.278L16.948,13.278L16.948,13.278L16.948,13.278L16.948,13.278L16.948,13.278z M16.948,13.278
			L16.948,13.278L16.948,13.278L16.948,13.278L16.948,13.278L16.948,13.278L16.948,13.278z M16.948,13.278L16.948,13.278
			L16.948,13.278L16.948,13.278L16.948,13.278z M16.948,13.278L16.948,13.278L16.948,13.278L16.948,13.278L16.948,13.278z"/>
	</g>
	<rect x="12.07" y="16.711" fill="#231815" width="6.272" height="11.334"/>
	<rect x="12.276" y="16.902" fill="#FFFFFF" width="5.861" height="10.954"/>
	<polygon fill="#D1141C" points="12.211,22.652 12.211,24.517 18.16,22.134 18.16,20.14 	"/>
</g>
</svg>
