<?xml version="1.0" encoding="utf-8"?>
<!-- Generator: Adobe Illustrator 17.0.0, SVG Export Plug-In . SVG Version: 6.00 Build 0)  -->
<!DOCTYPE svg PUBLIC "-//W3C//DTD SVG 1.1//EN" "http://www.w3.org/Graphics/SVG/1.1/DTD/svg11.dtd">
<svg version="1.1"
	 id="svg2203" xmlns:rdf="http://www.w3.org/1999/02/22-rdf-syntax-ns#" xmlns:cc="http://web.resource.org/cc/" xmlns:inkscape="http://www.inkscape.org/namespaces/inkscape" xmlns:sodipodi="http://sodipodi.sourceforge.net/DTD/sodipodi-0.dtd" xmlns:dc="http://purl.org/dc/elements/1.1/" xmlns:svg="http://www.w3.org/2000/svg" sodipodi:version="0.32" inkscape:version="0.45.1" sodipodi:docname="闂傚倸鍊搁崐宄懊归崶鏃堟偐閸欏鍠愮紓浣戒含閸嬬偟鎹㈠┑瀣＜婵犲﹤鎳愰敍婊冣攽閳╁啳纭€缂備胶濮靛畝绋垮ú绠归柣鎰絻婵洖鈹戦敍鍕哗婵″閹偓鎼达絿鐓撻柣鐘叉川閸嬫挸螞閸愭槬闁逞勭厵闁艰崵妫" sodipodi:docbase="D:\SVG\闂傚倸鍊搁崐鎼佸磹妞嬪海鐭嗗〒姘ｅ亾妤犵偞鐗犲璇测槈濞嗘劕鍔呴梺闈涚箳婵攱绂掗懖鈺冪＝濞达絼绮欓崫娲煙閸涘﹥鍊愰柡" inkscape:output_extension="org.inkscape.output.svg.inkscape"
	 xmlns="http://www.w3.org/2000/svg" xmlns:xlink="http://www.w3.org/1999/xlink" x="0px" y="0px" width="30px" height="30px"
	 viewBox="0 0 30 30" enable-background="new 0 0 30 30" xml:space="preserve">
<sodipodi:namedview  borderopacity="1.0" guidetolerance="10" inkscape:zoom="0.74999999" inkscape:cy="646.08493" showguides="true" id="base" gridtolerance="10000" bordercolor="#666666" objecttolerance="10" inkscape:cx="126.79097" pagecolor="#ffffff" inkscape:pageopacity="0.0" inkscape:pageshadow="2" inkscape:document-units="px" inkscape:current-layer="layer1" inkscape:window-width="1280" inkscape:window-height="968" inkscape:window-y="-4" inkscape:window-x="-4" inkscape:guide-bbox="true">
	<sodipodi:guide  orientation="vertical" position="1116" id="guide22942"></sodipodi:guide>
	<sodipodi:guide  orientation="vertical" position="1147" id="guide22944"></sodipodi:guide>
</sodipodi:namedview>
<g>
	<path fill="#100808" d="M22.463,22.377c0.27,0,0.491-0.231,0.491-0.52c0-0.091-0.025-0.182-0.067-0.261L15.424,7.884
		c-0.087-0.161-0.249-0.261-0.425-0.261c-0.174,0-0.337,0.1-0.424,0.261L7.11,21.596c-0.04,0.079-0.064,0.17-0.064,0.261
		c0,0.286,0.219,0.52,0.492,0.52H22.463z"/>
	<polygon fill="#EF9421" points="20.767,20.817 9.233,20.817 14.999,10.224 	"/>
	<path d="M14.958,14.729c0,0-0.568-2.552-0.066-2.552S15.271,13.464,14.958,14.729z"/>
	<path d="M14.972,14.896c0.188,0,0.344,0.154,0.344,0.343s-0.154,0.344-0.344,0.344c-0.188,0-0.344-0.154-0.344-0.344
		C14.628,15.05,14.781,14.896,14.972,14.896z"/>
	<path d="M12.129,16.268h0.608v1.087h-1.201L12.129,16.268z"/>
	<path d="M13.028,16.241h1.62v1.084h-1.649L13.028,16.241z"/>
	<path d="M11.334,17.602h3.302v1.49h-1.158c0,0-0.854-1.649-2.157-0.071h-0.739L11.334,17.602z"/>
	<path d="M12.392,18.558c0.513,0,0.927,0.414,0.927,0.926c0,0.513-0.416,0.927-0.927,0.927c-0.512,0-0.929-0.416-0.929-0.927
		S11.879,18.558,12.392,18.558z"/>
	<path fill="#FFFFFF" d="M12.419,19.122c0.208,0,0.378,0.17,0.378,0.377s-0.169,0.377-0.378,0.377c-0.208,0-0.376-0.17-0.376-0.377
		S12.211,19.122,12.419,19.122z"/>
	<path d="M15,19.462l-0.425,0.154l-0.101,0.568l0.715-0.082c0,0,0.164-0.798,0.859-0.263l1.893-0.354c0,0,0.326-0.742,0.845-0.173
		l0.887-0.198l-0.271-0.408l-0.914-0.034l-0.479-0.408l-1.689,0.291L15,19.462z"/>
	<path fill="#FFFFFF" d="M16.396,18.745l0.309-0.054l0.063,0.326l-0.705,0.138L16.396,18.745z"/>
	<path fill="#FFFFFF" d="M16.884,18.682l0.588-0.107l0.01,0.316l-0.562,0.081L16.884,18.682z"/>
	<path fill="#FFFFFF" d="M17.636,18.556l0.426-0.063l0.263,0.254l-0.679,0.127L17.636,18.556z"/>
	<path d="M15.651,19.786c0.187,0,0.336,0.149,0.336,0.336c0,0.188-0.149,0.334-0.336,0.334s-0.334-0.147-0.334-0.334
		C15.317,19.935,15.468,19.786,15.651,19.786z"/>
	<path fill="#FFFFFF" d="M15.646,19.985c0.067,0,0.125,0.059,0.125,0.129c0,0.067-0.058,0.127-0.125,0.127
		c-0.068,0-0.127-0.06-0.127-0.127C15.517,20.044,15.574,19.985,15.646,19.985z"/>
	<path d="M18.423,19.263c0.204,0,0.37,0.165,0.37,0.369c0,0.206-0.166,0.372-0.37,0.372c-0.206,0-0.372-0.166-0.372-0.372
		C18.051,19.428,18.217,19.263,18.423,19.263z"/>
	<path fill="#FFFFFF" d="M18.403,19.479c0.063,0,0.118,0.053,0.118,0.118s-0.056,0.117-0.118,0.117
		c-0.063,0-0.117-0.052-0.117-0.117S18.34,19.479,18.403,19.479z"/>
	<path fill="#FFFFFF" d="M14.978,18.441c0,0-0.463,0.089-0.203,0.695c0,0-0.145,0.334,0.306,0.334c0,0,0.261,0.435,0.507,0.014
		c0,0,0.999,0.03,0.507-0.593c0,0,0.377-0.711-0.203-0.782C15.89,18.109,15.036,17.587,14.978,18.441z"/>
</g>
</svg>
