<?xml version="1.0" encoding="utf-8"?>
<!-- Generator: Adobe Illustrator 17.0.0, SVG Export Plug-In . SVG Version: 6.00 Build 0)  -->
<!DOCTYPE svg PUBLIC "-//W3C//DTD SVG 1.1//EN" "http://www.w3.org/Graphics/SVG/1.1/DTD/svg11.dtd">
<svg version="1.1"
	 id="svg2203" xmlns:rdf="http://www.w3.org/1999/02/22-rdf-syntax-ns#" xmlns:cc="http://web.resource.org/cc/" xmlns:inkscape="http://www.inkscape.org/namespaces/inkscape" xmlns:sodipodi="http://sodipodi.sourceforge.net/DTD/sodipodi-0.dtd" xmlns:dc="http://purl.org/dc/elements/1.1/" xmlns:svg="http://www.w3.org/2000/svg" sodipodi:version="0.32" inkscape:version="0.45.1" sodipodi:docname="闂傚倸鍊搁崐鎼佸磹瀹勬噴褰掑炊閺冨牊鍋愰柛娆忛崰鎰磽娴ｆ垝鍚柛瀣仧閹广垹鈹戠€ｏ紲濠电姴锕ら幊鎰版晬濠婂啠鏀介柍鈺佸暢绾偓缂傚倷鑳舵慨闈涚暆缁嬪灝煤缁犲綊鏌ｉ幇绲诲┑娲栭埞鎴︽晬閸曞摋濠碘€抽柟鍋撻幖杈剧悼閻撴捇鏌ｉ悩鍙夊窛闁稿鎸歌灋闁告劖妲梺閫炲嫮鍘甸梺鑹板吹濡" sodipodi:docbase="D:\SVG\闂傚倸鍊搁崐鎼佸磹閹间礁纾瑰瀣捣閻棗銆掑锝呬壕濡ょ姷鍋為悧鐘茬拠娴嬫婵炲棙鍔曢崝鍛存⒑闂堟稓绠冲┑鏀辩粋鎺楁嚃閳哄啰锛濇繛杈剧导缁瑩宕ú鐓欓柛娑橈攻閸婃劙鏌" inkscape:output_extension="org.inkscape.output.svg.inkscape"
	 xmlns="http://www.w3.org/2000/svg" xmlns:xlink="http://www.w3.org/1999/xlink" x="0px" y="0px" width="30px" height="30px"
	 viewBox="0 0 30 30" enable-background="new 0 0 30 30" xml:space="preserve">
<sodipodi:namedview  borderopacity="1.0" guidetolerance="10" inkscape:zoom="0.74999999" inkscape:cy="646.08493" showguides="true" id="base" gridtolerance="10000" bordercolor="#666666" objecttolerance="10" inkscape:cx="126.79097" pagecolor="#ffffff" inkscape:pageopacity="0.0" inkscape:pageshadow="2" inkscape:document-units="px" inkscape:current-layer="layer1" inkscape:window-width="1280" inkscape:window-height="968" inkscape:window-y="-4" inkscape:window-x="-4" inkscape:guide-bbox="true">
	<sodipodi:guide  orientation="vertical" position="1116" id="guide22942"></sodipodi:guide>
	<sodipodi:guide  orientation="vertical" position="1147" id="guide22944"></sodipodi:guide>
</sodipodi:namedview>
<g>
	<g>
		<path fill="#100808" d="M7.5,18.525c-0.27,0-0.491-0.23-0.491-0.52c0-0.091,0.025-0.182,0.067-0.261L14.54,4.033
			c0.087-0.161,0.25-0.262,0.425-0.262c0.174,0,0.337,0.101,0.424,0.262l7.467,13.712c0.04,0.079,0.063,0.17,0.063,0.261
			c0,0.286-0.219,0.52-0.493,0.52H7.5z"/>
		<polygon fill="#F7BD42" points="9.197,16.965 20.73,16.965 14.964,6.373 		"/>
	</g>
	<path d="M16.06,10.635l-0.667-0.708l-2.787,1.371l1.787,2.462l-0.198-1.681c0.355,0.162,2.739,0.771,2.174,1.344
		c-1.334,1.356-2.828,2.762-2.828,2.762l0.617,0.612c2.346-2.342,2.54-2.514,3.069-3.147c0.111-0.134,0.553-0.947-0.702-1.506
		c-0.984-0.439-1.319-0.563-1.991-0.736L16.06,10.635z"/>
	<path fill="#EFB945" d="M23.131,24.535c0,1.45-1.17,1.695-2.614,1.695H9.483c-1.444,0-2.614-0.245-2.614-1.695v-3.941
		c0-1.451,1.17-1.695,2.614-1.695h11.035c1.444,0,2.614,0.244,2.614,1.695V24.535z"/>
	<path fill="#231815" d="M22.788,24.382c0,1.338-1.121,1.563-2.503,1.563H9.717c-1.382,0-2.503-0.226-2.503-1.563v-3.635
		c0-1.338,1.121-1.563,2.503-1.563h10.567c1.382,0,2.503,0.226,2.503,1.563L22.788,24.382L22.788,24.382z"/>
	<path fill="#EFB945" d="M22.527,24.215c0,1.215-1.083,1.42-2.419,1.42H9.893c-1.335,0-2.418-0.205-2.418-1.42v-3.303
		c0-1.215,1.083-1.419,2.418-1.419h10.214c1.335,0,2.419,0.205,2.419,1.419V24.215z"/>
	<polygon points="11.74,23.118 10.429,23.118 10.429,22.828 11.808,20.835 12.065,20.835 12.065,22.828 12.473,22.828 
		12.473,23.118 12.065,23.118 12.065,23.766 11.74,23.766 	"/>
	<polygon fill="#EFB945" points="11.74,22.828 11.74,21.481 10.787,22.828 	"/>
	<path d="M12.711,22.139c0.011-0.302,0.054-0.541,0.128-0.716c0.074-0.176,0.179-0.321,0.315-0.435s0.304-0.171,0.502-0.171
		s0.372,0.083,0.52,0.247c0.147,0.165,0.244,0.372,0.289,0.622c0.046,0.25,0.06,0.537,0.043,0.861
		c-0.017,0.323-0.075,0.588-0.171,0.792s-0.242,0.347-0.434,0.426c-0.193,0.08-0.387,0.071-0.58-0.025
		c-0.193-0.097-0.33-0.225-0.409-0.383c-0.079-0.159-0.136-0.327-0.17-0.503C12.711,22.677,12.7,22.439,12.711,22.139z"/>
	<path fill="#EFB945" d="M13.069,22.035c-0.034,0.313-0.023,0.591,0.034,0.834c0.057,0.245,0.15,0.418,0.281,0.521
		c0.131,0.102,0.264,0.122,0.4,0.059c0.137-0.062,0.236-0.188,0.298-0.375s0.094-0.392,0.094-0.613c0-0.222-0.009-0.423-0.025-0.605
		c-0.018-0.182-0.068-0.346-0.154-0.494c-0.085-0.147-0.199-0.224-0.341-0.23c-0.142-0.006-0.267,0.065-0.375,0.213
		C13.176,21.493,13.103,21.724,13.069,22.035z"/>
	<path d="M16.136,23.808h-0.274l-0.429-0.728l-0.275,0.262v0.465h-0.238v-2.04h0.238v1.3l0.597-0.597h0.298l-0.466,0.453
		L16.136,23.808z"/>
	<path d="M17.722,23.808h-0.239v-0.966c0-0.048-0.007-0.087-0.023-0.119s-0.047-0.048-0.096-0.048c-0.055,0-0.107,0.03-0.155,0.09
		s-0.072,0.137-0.072,0.232v0.811H16.9v-0.966c0-0.048-0.008-0.087-0.024-0.119s-0.047-0.048-0.095-0.048
		c-0.056,0-0.107,0.03-0.155,0.09c-0.047,0.06-0.071,0.137-0.071,0.232v0.811h-0.239v-1.336h0.239v0.179
		c0.04-0.063,0.087-0.113,0.143-0.149s0.115-0.054,0.179-0.054s0.117,0.019,0.161,0.054c0.043,0.036,0.073,0.085,0.09,0.149
		c0.04-0.063,0.085-0.113,0.137-0.149s0.109-0.054,0.173-0.054c0.096,0,0.167,0.027,0.215,0.078
		c0.047,0.052,0.071,0.125,0.071,0.221L17.722,23.808L17.722,23.808z"/>
	<path d="M19.225,21.697l-1.265,2.254l-0.119-0.071l1.265-2.254L19.225,21.697z"/>
	<path d="M20.656,23.808h-0.239v-0.859c0-0.096-0.023-0.171-0.072-0.227c-0.047-0.056-0.111-0.083-0.19-0.083
		c-0.103,0-0.201,0.054-0.292,0.162c-0.092,0.107-0.137,0.24-0.137,0.399v0.608h-0.239v-2.04h0.239v0.954
		c0.063-0.088,0.132-0.155,0.208-0.203c0.075-0.048,0.173-0.072,0.292-0.072c0.144,0,0.25,0.04,0.322,0.12s0.107,0.179,0.107,0.298
		L20.656,23.808L20.656,23.808z"/>
</g>
</svg>
