<?xml version="1.0" encoding="utf-8"?>
<!-- Generator: Adobe Illustrator 17.0.0, SVG Export Plug-In . SVG Version: 6.00 Build 0)  -->
<!DOCTYPE svg PUBLIC "-//W3C//DTD SVG 1.1//EN" "http://www.w3.org/Graphics/SVG/1.1/DTD/svg11.dtd">
<svg version="1.1"
	 id="svg2203" xmlns:rdf="http://www.w3.org/1999/02/22-rdf-syntax-ns#" xmlns:cc="http://web.resource.org/cc/" xmlns:inkscape="http://www.inkscape.org/namespaces/inkscape" xmlns:sodipodi="http://sodipodi.sourceforge.net/DTD/sodipodi-0.dtd" xmlns:dc="http://purl.org/dc/elements/1.1/" xmlns:svg="http://www.w3.org/2000/svg" sodipodi:version="0.32" inkscape:version="0.45.1" sodipodi:docname="闂傚倸鍊搁崐鎼佸磹閹间礁纾归柟闂寸绾惧湱鈧懓瀚崳纾嬨亹閹烘垹鍊為梺鍝勫暙閻楀﹪宕戦幇鐗堢厱婵炲棗绻樺畷浼村箛绾捐棄霉閿濆棗鐏婇柛姘厱閻庯絼鎴烽梺鐟扮畭閸ㄥ綊鍩為幋鐘亾閿濆繒搴婂┑鐘垫暩婵挳鏁冮妶澶婄疇闁规壆澧楅弲绻濇繝鍌氭殜闁衡偓娴犲鐓冮柍杞扮閺嗐垻鐥崑鎾剁磽閸屾艾鈧兘鎳楅懜鍨弿闂傚牊绋撻弳鍡欑磼鐎ｄ虎閻撱倗绱掗悩鑼Ш闁哄矉缍侀獮鍥╁緤鐠囨祴鏀芥繛鍙夌墵閸╃偤骞嬮敂鑺ユ珫闂佸憡娲栭幗瀣節绾版ǚ鍋撻幎鑺ョ厵闁稿鎹囬獮鏍ㄦ綇閸撗勫仹闂佺粯鎸婚幑鍥蓟閿濆鍋愰柛娆忕粣娑㈡⒑缁嬪潡骞愬宀€浜遍梻浣告啞閸旀牕危濮婃椽鏌呴悙鎻掗柛妯兼暬濮婃椽鎳濋弶鍨優濠" sodipodi:docbase="D:\SVG\闂傚倸鍊搁崐鎼佸磹閹间礁纾归柟闂寸绾惧綊鏌熼梻瀵哥痪鍓ф嚀閻庯絾宕抽梺缁橀柕鍡樺笒闁挎繂鎳嶆竟鏇熶繆閵堝洤啸闁稿鍋ら幃褔鎮╅懠瀚氭繛鏉戞繝鐢靛仜濡瑩宕濋弴銏犵闁告稑鐡ㄩ埛鎴︽⒒閸喓銆掔紒鐘插暱閳规垿寮ㄦ潏鈺冪焿闁圭儤閸ゅ啴鏌嶉崫鍕殶闁挎稒绻冪换娑欐綇閸撗冪紓浣烘噰鐎规毝娲偂濞嗘挻鐓曟繛鎴烇公閺€濠氭煕婵犲啫濮嶉柡" inkscape:output_extension="org.inkscape.output.svg.inkscape"
	 xmlns="http://www.w3.org/2000/svg" xmlns:xlink="http://www.w3.org/1999/xlink" x="0px" y="0px" width="30px" height="30px"
	 viewBox="0 0 30 30" enable-background="new 0 0 30 30" xml:space="preserve">
<sodipodi:namedview  borderopacity="1.0" guidetolerance="10" inkscape:zoom="0.74999999" inkscape:cy="646.08493" showguides="true" id="base" gridtolerance="10000" bordercolor="#666666" objecttolerance="10" inkscape:cx="126.79097" pagecolor="#ffffff" inkscape:pageopacity="0.0" inkscape:pageshadow="2" inkscape:document-units="px" inkscape:current-layer="layer1" inkscape:window-width="1280" inkscape:window-height="968" inkscape:window-y="-4" inkscape:window-x="-4" inkscape:guide-bbox="true">
	<sodipodi:guide  orientation="vertical" position="1116" id="guide22942"></sodipodi:guide>
	<sodipodi:guide  orientation="vertical" position="1147" id="guide22944"></sodipodi:guide>
</sodipodi:namedview>
<g>
	<path fill="#100808" d="M7.535,22.378c-0.27,0-0.491-0.229-0.491-0.52c0-0.091,0.025-0.182,0.067-0.261l7.463-13.712
		c0.087-0.161,0.25-0.264,0.425-0.264c0.174,0,0.337,0.103,0.424,0.264l7.469,13.712c0.04,0.079,0.063,0.17,0.063,0.261
		c0,0.286-0.219,0.52-0.493,0.52H7.535z"/>
	<polygon fill="#F7BD42" points="9.232,20.819 20.764,20.819 14.999,10.226 	"/>
	<g>
		<path d="M14.202,20.597V17.22c0,0,0.282-1.252,1.409-1.504c1.128-0.253,1.395,0,1.395,0s1.083,0.431,1.262,1.335
			c0.178,0.905,0,3.547,0,3.547H14.202z"/>
		<path fill="#F18D1A" d="M14.686,20.597v-3.27c0,0,0.218-0.971,1.093-1.166c0.875-0.196,1.082,0,1.082,0s0.914,0.474,0.978,1.187
			c0.055,0.611,0,3.249,0,3.249H14.686z"/>
		<path d="M14.869,20.597v-3.115c0,0,0.193-0.859,0.967-1.032c0.773-0.173,0.957,0,0.957,0s0.809,0.42,0.865,1.051
			c0.048,0.54,0,3.097,0,3.097h-2.789V20.597z"/>
		<path fill="#F39B29" d="M15.685,19.067v-1.374c0,0,0.252-0.47,0.601-0.476c0.349-0.005,0.578,0.473,0.578,0.473v1.377H15.685z"/>
		<polygon fill="#F39718" points="14.88,20.597 15.696,19.053 16.874,19.053 17.668,20.597 		"/>
		<polygon points="15.101,20.597 15.88,19.056 16.684,19.056 17.447,20.597 		"/>
	</g>
	<polygon fill="none" points="13.971,20.042 17.649,18.703 17.649,20.55 	"/>
	<polygon points="9.937,20.194 10.107,19.625 10.615,19.625 11.022,19.295 12.225,19.295 12.738,19.665 13.428,19.745 
		13.784,19.839 13.852,20.308 10.428,20.33 10.293,20.177 	"/>
	<polygon fill="#F5AB28" points="10.886,19.703 11.157,19.381 11.598,19.381 11.598,19.703 	"/>
	<polygon fill="#F5AB28" points="11.751,19.703 11.751,19.381 12.14,19.381 12.462,19.703 	"/>
	<circle cx="10.694" cy="20.319" r="0.308"/>
	<circle fill="#F5AB28" cx="10.693" cy="20.319" r="0.206"/>
	<circle cx="13.199" cy="20.319" r="0.308"/>
	<circle fill="#F5AB28" cx="13.199" cy="20.319" r="0.206"/>
	<polygon fill="#F5A429" points="14.01,20.042 17.687,18.703 17.687,20.626 	"/>
</g>
</svg>
