<?xml version="1.0" encoding="utf-8"?>
<!-- Generator: Adobe Illustrator 17.0.0, SVG Export Plug-In . SVG Version: 6.00 Build 0)  -->
<!DOCTYPE svg PUBLIC "-//W3C//DTD SVG 1.1//EN" "http://www.w3.org/Graphics/SVG/1.1/DTD/svg11.dtd">
<svg version="1.1"
	 id="svg2203" xmlns:rdf="http://www.w3.org/1999/02/22-rdf-syntax-ns#" xmlns:cc="http://web.resource.org/cc/" xmlns:inkscape="http://www.inkscape.org/namespaces/inkscape" xmlns:sodipodi="http://sodipodi.sourceforge.net/DTD/sodipodi-0.dtd" xmlns:dc="http://purl.org/dc/elements/1.1/" xmlns:svg="http://www.w3.org/2000/svg" sodipodi:version="0.32" inkscape:version="0.45.1" sodipodi:docname="闂傚倸鍊搁崐鎼佸磹閹间礁纾圭€瑰嫭鍣磋ぐ鎺戠倞闁哄啫鐗婇崑鎰版煕濞嗗繘宕伴幇纾藉ù锝嗗灊閸氭煕鐎ｄ户闁瑰箍鍨归埞鎴犫偓锝忕床婵犵數濮撮敃銈夊箠閹扮増鏅繝濠傚暊閺€浠嬫煃閳轰礁鏆㈢痪鍋撶紓鍌氬€烽懗鑸垫叏闂堟稓鏆嗙紒瀣仢鐓ょ紒鐘茬秺閺岋綁骞囩徊璇测攽濞叉牠鍩為幋锔芥櫖闁告洖鎽嬫繝纰樷偓鎶芥煙閸嬫捇骞栨潏鍓ф偧闁绘挻鎹囬弻锝夋偐閸欏绐涢梺绋块幐姝岀亱闂佸憡鍔栧Σ姊洪柅鐐插閸樼敻姊洪懝鏉垮惞婵" sodipodi:docbase="D:\SVG\闂傚倸鍊搁崐鎼佸磹閹间礁纾归柟闂寸绾剧懓鐎ｆ崳闁绘閵嗘帒閿濆懍澹曟俊銈囧Х閸嬬偤鎮ч悩鑼嫚濞村濠电偛妫欓崝鏇㈠礉閸涘瓨鈷戦梻鍫熺〒缁犲啿鈹戦弨杈╃矉閹烘鍤冮柍鍝勫暟閿涙繃绻涙潏鍓у缂佺懇瀹暶洪悡娆撴煕濞戞﹫鏀婚柛濠冨姍閺" inkscape:output_extension="org.inkscape.output.svg.inkscape"
	 xmlns="http://www.w3.org/2000/svg" xmlns:xlink="http://www.w3.org/1999/xlink" x="0px" y="0px" width="30px" height="30px"
	 viewBox="0 0 30 30" enable-background="new 0 0 30 30" xml:space="preserve">
<sodipodi:namedview  borderopacity="1.0" guidetolerance="10" inkscape:zoom="0.74999999" inkscape:cy="646.08493" showguides="true" id="base" gridtolerance="10000" bordercolor="#666666" objecttolerance="10" inkscape:cx="126.79097" pagecolor="#ffffff" inkscape:pageopacity="0.0" inkscape:pageshadow="2" inkscape:document-units="px" inkscape:current-layer="layer1" inkscape:window-width="1280" inkscape:window-height="968" inkscape:window-y="-4" inkscape:window-x="-4" inkscape:guide-bbox="true">
	<sodipodi:guide  orientation="vertical" position="1116" id="guide22942"></sodipodi:guide>
	<sodipodi:guide  orientation="vertical" position="1147" id="guide22944"></sodipodi:guide>
</sodipodi:namedview>
<g>
	<path fill="#EFB945" d="M22.187,23.702c0,1.072-0.29,1.206-1.268,1.206H9.164c-0.977,0-1.351-0.134-1.351-1.206V6.16
		c0-1.072,0.457-1.068,1.434-1.068h11.631c0.978,0,1.31-0.003,1.31,1.068V23.702L22.187,23.702z"/>
	<path fill="#231815" d="M21.996,23.446c0,1.041-0.282,1.172-1.232,1.172H9.319c-0.951,0-1.314-0.131-1.314-1.172V6.421
		c0-1.04,0.445-1.038,1.396-1.038h11.32c0.951,0,1.273-0.002,1.273,1.038L21.996,23.446L21.996,23.446z"/>
	<path fill="#EFB945" d="M21.772,23.215c0,1.013-0.273,1.14-1.194,1.14H9.5c-0.92,0-1.272-0.128-1.272-1.14V6.655
		c0-1.012,0.431-1.01,1.352-1.01h10.959c0.921,0,1.233-0.002,1.233,1.01V23.215L21.772,23.215z"/>
	<path fill="#231815" d="M16.018,17.905h2.25c0,0-0.768-3.545-0.939-3.728l-0.024-3.448h0.717l-0.025-4.155h-2.474v4.132
		l0.842,0.023l-0.024,1.336l-0.272-0.073c0,0-2.844-3.688-3.933-4.244l-1.361,1.325C10.772,9.073,15.448,13.773,16.018,17.905z"/>
	<g>
		<rect x="15.927" y="6.84" fill="#D11323" width="0.493" height="0.792"/>
		<rect x="15.927" y="7.898" fill="#D11323" width="0.493" height="0.792"/>
		<rect x="15.927" y="8.999" fill="#D11323" width="0.493" height="0.791"/>
		<rect x="15.927" y="10.03" fill="#D11323" width="0.493" height="0.792"/>
		<rect x="17.13" y="6.84" fill="#D11323" width="0.495" height="0.792"/>
		<rect x="17.13" y="7.898" fill="#D11323" width="0.495" height="0.792"/>
		<rect x="17.13" y="8.999" fill="#D11323" width="0.495" height="0.791"/>
		<rect x="17.13" y="10.03" fill="#D11323" width="0.495" height="0.792"/>
		<rect x="16.519" y="7.461" fill="#D11323" width="0.495" height="0.664"/>
		<rect x="16.519" y="8.5" fill="#D11323" width="0.495" height="0.663"/>
		<rect x="16.519" y="9.589" fill="#D11323" width="0.495" height="0.663"/>
	</g>
	<path d="M10.353,20.063v0.417c0.063-0.104,0.111-0.227,0.146-0.365c0.042-0.16,0.064-0.332,0.067-0.518
		c0.004-0.185,0.002-0.409-0.004-0.673h0.699c-0.008,0.111-0.011,0.233-0.011,0.365c0,0.125,0.003,0.25,0.011,0.376H10.75
		c-0.008,0.104-0.017,0.198-0.03,0.281h0.563c-0.007,0.14-0.01,0.274-0.01,0.407c0,0.132,0.003,0.271,0.01,0.417h-0.605
		c0.007-0.168,0.011-0.39,0.011-0.668c-0.042,0.188-0.112,0.387-0.209,0.596c-0.049-0.063-0.091-0.111-0.125-0.146v0.157
		c0.209,0.18,0.539,0.271,0.991,0.271c0.453,0,0.796-0.011,1.032-0.031c-0.042,0.076-0.065,0.152-0.072,0.229
		c-0.308,0-0.618-0.003-0.936-0.01c-0.315-0.007-0.536-0.035-0.658-0.084c-0.12-0.049-0.221-0.099-0.297-0.146
		c-0.077-0.049-0.138-0.043-0.183,0.016s-0.104,0.135-0.172,0.225c-0.049-0.042-0.111-0.083-0.188-0.125
		c0.104-0.09,0.205-0.191,0.303-0.302v-0.867c-0.098,0-0.195,0.005-0.292,0.011v-0.209c0.098,0.008,0.261,0.012,0.49,0.012
		C10.36,19.842,10.353,19.965,10.353,20.063z"/>
	<path d="M10.394,19.322c-0.057,0.027-0.122,0.063-0.199,0.104c-0.063-0.16-0.139-0.303-0.229-0.428
		c0.068-0.042,0.132-0.076,0.188-0.104C10.266,19.067,10.346,19.211,10.394,19.322z"/>
	<rect x="10.76" y="19.103" fill="#EFB945" width="0.313" height="0.387"/>
	<rect x="10.875" y="20.115" fill="#EFB945" width="0.22" height="0.479"/>
	<path d="M12.138,19.478l-0.083,0.262c0.077,0,0.155-0.004,0.239-0.011v0.208c-0.125-0.007-0.254-0.011-0.386-0.011v0.324
		c0.111,0,0.224-0.003,0.334-0.011v0.178c-0.11-0.007-0.223-0.012-0.334-0.012v0.491h-0.209c0.007-0.16,0.01-0.323,0.01-0.491
		c-0.125,0-0.239,0.008-0.344,0.021v-0.188c0.104,0.008,0.219,0.011,0.344,0.011v-0.324c-0.11,0-0.232,0.004-0.364,0.011v-0.208
		c0.125,0.007,0.235,0.011,0.334,0.011h0.197c0.042-0.167,0.07-0.32,0.083-0.459c0.077,0.027,0.16,0.049,0.25,0.063
		C12.182,19.377,12.158,19.423,12.138,19.478z"/>
	<path d="M11.908,19.061c0.125,0,0.236-0.003,0.334-0.01v0.198c-0.125-0.007-0.274-0.01-0.449-0.01c-0.167,0-0.313,0.003-0.438,0.01
		V19.05c0.104,0.006,0.216,0.01,0.333,0.01c-0.007-0.063-0.024-0.148-0.052-0.26c0.09-0.015,0.167-0.028,0.229-0.042
		C11.88,18.869,11.894,18.97,11.908,19.061z"/>
	<path d="M11.782,19.634c-0.063,0.028-0.122,0.06-0.177,0.094c-0.042-0.11-0.102-0.227-0.177-0.345
		c0.068-0.028,0.125-0.055,0.167-0.083C11.671,19.433,11.735,19.544,11.782,19.634z"/>
	<path d="M13.307,19.3c-0.042,0.153-0.091,0.31-0.146,0.47c0.098,0.14,0.162,0.26,0.193,0.36c0.032,0.101,0.047,0.196,0.047,0.287
		c0,0.09-0.035,0.16-0.104,0.208c-0.069,0.049-0.153,0.084-0.25,0.104c-0.021-0.083-0.053-0.156-0.095-0.22
		c0.131,0,0.207-0.024,0.225-0.073c0.017-0.049,0.017-0.122,0-0.22c-0.019-0.097-0.085-0.232-0.204-0.406
		c0.104-0.328,0.17-0.566,0.197-0.72h-0.292v2.14h-0.197c0.006-0.182,0.01-0.348,0.01-0.501v-1.336c0-0.139-0.004-0.295-0.01-0.469
		h0.751C13.39,19.022,13.348,19.147,13.307,19.3z"/>
	<path d="M14.225,18.925c0.125,0.215,0.249,0.374,0.371,0.475c0.122,0.102,0.272,0.196,0.454,0.286
		c-0.07,0.049-0.122,0.111-0.157,0.188c-0.111-0.057-0.23-0.135-0.355-0.24v0.178c-0.083-0.007-0.171-0.011-0.261-0.011h-0.282
		c-0.111,0-0.216,0.003-0.313,0.011v-0.114c-0.076,0.083-0.156,0.167-0.24,0.25c-0.042-0.069-0.101-0.125-0.177-0.167
		c0.118-0.069,0.251-0.194,0.396-0.375c0.146-0.182,0.262-0.394,0.346-0.638c0.097,0.042,0.188,0.073,0.271,0.095L14.225,18.925z"/>
	<path d="M14.611,20.433c-0.056,0.164-0.108,0.336-0.157,0.518c0.182,0,0.346-0.003,0.49-0.011v0.188
		c-0.118-0.007-0.236-0.011-0.354-0.011h-0.835c-0.175,0-0.313,0.003-0.418,0.011v-0.188c0.125,0.008,0.269,0.011,0.429,0.011h0.501
		c0.076-0.236,0.13-0.427,0.162-0.568c0.03-0.143,0.05-0.267,0.057-0.371c0.076,0.028,0.167,0.053,0.271,0.073
		C14.715,20.153,14.667,20.27,14.611,20.433z"/>
	<path d="M13.86,20.741c-0.063,0.007-0.122,0.024-0.177,0.053c-0.028-0.16-0.083-0.373-0.167-0.637
		c0.063-0.021,0.122-0.042,0.177-0.063C13.741,20.274,13.797,20.49,13.86,20.741z"/>
	<path fill="#EFB945" d="M14.528,19.624c-0.139-0.132-0.278-0.319-0.417-0.563c-0.111,0.202-0.236,0.391-0.375,0.563H14.528z"/>
	<path d="M14.247,20.636c-0.063,0-0.129,0.007-0.197,0.021c-0.05-0.286-0.092-0.483-0.126-0.596
		c0.069-0.007,0.132-0.021,0.188-0.042C14.158,20.195,14.205,20.4,14.247,20.636z"/>
	<path d="M15.508,19.906c0.09-0.035,0.183-0.11,0.276-0.225c0.094-0.115,0.171-0.225,0.234-0.329c-0.258,0-0.466,0.003-0.626,0.011
		v-0.208c0.146,0.007,0.39,0.01,0.73,0.01c0.083-0.167,0.14-0.303,0.167-0.407c0.083,0.042,0.163,0.076,0.24,0.104
		c-0.07,0.098-0.133,0.197-0.188,0.303h0.71c0.083,0,0.212-0.003,0.386-0.01v0.208c-0.139-0.008-0.269-0.011-0.386-0.011h-0.805
		c-0.075,0.119-0.208,0.299-0.396,0.542h0.584c0-0.132-0.003-0.268-0.01-0.406h0.229c-0.007,0.117-0.011,0.254-0.011,0.406h0.354
		c0.141,0,0.275-0.003,0.407-0.011v0.209c-0.132-0.006-0.268-0.01-0.407-0.01h-0.354v0.396h0.584c0.132,0,0.278-0.003,0.438-0.011
		v0.22c-0.159-0.008-0.307-0.011-0.438-0.011h-0.584c0,0.223,0.003,0.4,0.011,0.533h-0.226c0.007-0.139,0.01-0.316,0.01-0.533h-0.72
		c-0.153,0-0.3,0.003-0.438,0.011v-0.22c0.139,0.007,0.285,0.011,0.438,0.011h0.72v-0.396c-0.25,0-0.424,0.004-0.522,0.01
		c-0.097,0.007-0.202,0.024-0.313,0.053C15.569,20.049,15.536,19.968,15.508,19.906z"/>
	<path d="M17.93,19.78c0.11,0.008,0.209,0.011,0.292,0.011h0.219c-0.006,0.11-0.01,0.229-0.01,0.354v0.584
		c0.181,0.167,0.486,0.25,0.918,0.25c0.438,0,0.771-0.018,1.002-0.052c-0.035,0.083-0.063,0.167-0.083,0.25
		c-0.272,0.007-0.507,0.009-0.705,0.006c-0.199-0.004-0.364-0.013-0.496-0.025c-0.132-0.015-0.24-0.037-0.324-0.068
		s-0.168-0.077-0.255-0.136c-0.087-0.06-0.158-0.061-0.214-0.005c-0.057,0.056-0.122,0.136-0.199,0.24
		c-0.063-0.063-0.125-0.114-0.188-0.156c0.104-0.069,0.219-0.167,0.345-0.292v-0.783c-0.104,0-0.206,0.003-0.303,0.011L17.93,19.78
		L17.93,19.78z"/>
	<path d="M18.097,18.956c0.083-0.015,0.156-0.035,0.219-0.063c0.048,0.14,0.094,0.292,0.136,0.459
		c-0.069,0.015-0.143,0.039-0.219,0.073C18.206,19.3,18.159,19.144,18.097,18.956z"/>
	<path d="M18.63,19.155c0.104,0.007,0.421,0.01,0.949,0.01c0.057-0.132,0.108-0.269,0.157-0.407c0.09,0.035,0.167,0.063,0.229,0.083
		c-0.05,0.049-0.112,0.156-0.188,0.323c0.271,0,0.466-0.003,0.584-0.01v0.188c-0.118-0.007-0.383-0.011-0.793-0.011l-0.053,0.208
		h0.604c-0.007,0.167-0.01,0.386-0.01,0.658c0,0.265,0.003,0.463,0.01,0.595h-1.302c0.014-0.153,0.021-0.353,0.021-0.595
		c0-0.243-0.003-0.463-0.011-0.658h0.471l0.052-0.208c-0.376,0-0.616,0.003-0.721,0.011L18.63,19.155L18.63,19.155z"/>
	<path d="M19.288,19.039c-0.056,0.035-0.11,0.074-0.167,0.115c-0.048-0.083-0.118-0.178-0.208-0.282
		c0.049-0.035,0.102-0.073,0.157-0.115C19.158,18.869,19.232,18.963,19.288,19.039z"/>
	<rect x="19.047" y="19.708" fill="#EFB945" width="0.865" height="0.198"/>
	<rect x="19.047" y="20.063" fill="#EFB945" width="0.865" height="0.198"/>
	<rect x="19.047" y="20.418" fill="#EFB945" width="0.865" height="0.208"/>
	<polygon fill="#231815" points="17.811,23.667 18.354,24.211 19.569,22.994 19.569,23.923 20.306,23.218 20.306,21.619 
		18.803,21.619 18.034,22.44 19.058,22.516 	"/>
</g>
</svg>
