<?xml version="1.0" encoding="utf-8"?>
<!-- Generator: Adobe Illustrator 17.0.0, SVG Export Plug-In . SVG Version: 6.00 Build 0)  -->
<!DOCTYPE svg PUBLIC "-//W3C//DTD SVG 1.1//EN" "http://www.w3.org/Graphics/SVG/1.1/DTD/svg11.dtd">
<svg version="1.1"
	 id="svg2203" xmlns:rdf="http://www.w3.org/1999/02/22-rdf-syntax-ns#" xmlns:cc="http://web.resource.org/cc/" xmlns:inkscape="http://www.inkscape.org/namespaces/inkscape" xmlns:sodipodi="http://sodipodi.sourceforge.net/DTD/sodipodi-0.dtd" xmlns:dc="http://purl.org/dc/elements/1.1/" xmlns:svg="http://www.w3.org/2000/svg" sodipodi:version="0.32" inkscape:version="0.45.1" sodipodi:docname="闂傚倸鍊搁崐鎼佸磹瀹勬噴褰掑炊閺冨牊鍋愰柛娆忛崰鎰磽娴ｆ垝鍚柛瀣仧閹广垹鈹戠€ｏ紲濠电姴锕ら幊鎰版晬濠婂啠鏀介柍鈺佸暢绾偓缂傚倷鑳舵慨闈涚暆缁嬪灝煤缁犲綊鏌ｉ幇绲诲┑娲栭埞鎴︽晬閸曞摋濠碘€抽柟鍋撻幖杈剧悼閻撴捇鏌ｉ悩鍙夊窛闁稿鎸歌灋闁告劖妲梺閫炲嫮鍘甸梺鑹板吹濡" sodipodi:docbase="D:\SVG\闂傚倸鍊搁崐鎼佸磹閹间礁纾瑰瀣捣閻棗銆掑锝呬壕濡ょ姷鍋為悧鐘茬拠娴嬫婵炲棙鍔曢崝鍛存⒑闂堟稓绠冲┑鏀辩粋鎺楁嚃閳哄啰锛濇繛杈剧导缁瑩宕ú鐓欓柛娑橈攻閸婃劙鏌" inkscape:output_extension="org.inkscape.output.svg.inkscape"
	 xmlns="http://www.w3.org/2000/svg" xmlns:xlink="http://www.w3.org/1999/xlink" x="0px" y="0px" width="30px" height="30px"
	 viewBox="0 0 30 30" enable-background="new 0 0 30 30" xml:space="preserve">
<sodipodi:namedview  borderopacity="1.0" guidetolerance="10" inkscape:zoom="0.74999999" inkscape:cy="646.08493" showguides="true" id="base" gridtolerance="10000" bordercolor="#666666" objecttolerance="10" inkscape:cx="126.79097" pagecolor="#ffffff" inkscape:pageopacity="0.0" inkscape:pageshadow="2" inkscape:document-units="px" inkscape:current-layer="layer1" inkscape:window-width="1280" inkscape:window-height="968" inkscape:window-y="-4" inkscape:window-x="-4" inkscape:guide-bbox="true">
	<sodipodi:guide  orientation="vertical" position="1116" id="guide22942"></sodipodi:guide>
	<sodipodi:guide  orientation="vertical" position="1147" id="guide22944"></sodipodi:guide>
</sodipodi:namedview>
<g>
	<path fill="#EFB945" d="M22.187,22.953c0,0.979-0.29,1.103-1.267,1.103H9.164c-0.977,0-1.351-0.123-1.351-1.103V6.921
		c0-0.979,0.457-0.977,1.434-0.977h11.631c0.977,0,1.309-0.003,1.309,0.977L22.187,22.953L22.187,22.953z"/>
	<path fill="#231815" d="M21.996,22.717c0,0.951-0.282,1.071-1.233,1.071H9.319c-0.951,0-1.314-0.12-1.314-1.071V7.159
		c0-0.951,0.445-0.948,1.396-0.948h11.32c0.951,0,1.274-0.002,1.274,0.948V22.717z"/>
	<path fill="#EFB945" d="M21.772,22.507c0,0.925-0.273,1.042-1.194,1.042H9.5c-0.92,0-1.273-0.117-1.273-1.042V7.372
		c0-0.925,0.431-0.923,1.352-0.923h10.959c0.921,0,1.233-0.002,1.233,0.923L21.772,22.507L21.772,22.507z"/>
	<g>
		<path fill="#231815" d="M16.018,18.757h2.25c0,0-0.767-3.544-0.939-3.727l-0.025-3.448h0.717l-0.025-4.156h-2.474v4.132
			l0.842,0.024l-0.025,1.336l-0.272-0.074c0,0-2.844-3.688-3.933-4.244l-1.361,1.325C10.772,9.925,15.448,14.626,16.018,18.757z"/>
		<g>
			<rect x="15.927" y="7.692" fill="#D11323" width="0.494" height="0.792"/>
			<rect x="15.927" y="8.751" fill="#D11323" width="0.494" height="0.792"/>
			<rect x="15.927" y="9.851" fill="#D11323" width="0.494" height="0.791"/>
			<rect x="15.927" y="10.882" fill="#D11323" width="0.494" height="0.792"/>
			<rect x="17.13" y="7.692" fill="#D11323" width="0.495" height="0.792"/>
			<rect x="17.13" y="8.751" fill="#D11323" width="0.495" height="0.792"/>
			<rect x="17.13" y="9.851" fill="#D11323" width="0.495" height="0.791"/>
			<rect x="17.13" y="10.882" fill="#D11323" width="0.495" height="0.792"/>
			<rect x="16.519" y="8.313" fill="#D11323" width="0.495" height="0.664"/>
			<rect x="16.519" y="9.352" fill="#D11323" width="0.495" height="0.663"/>
			<rect x="16.519" y="10.441" fill="#D11323" width="0.495" height="0.663"/>
		</g>
	</g>
	<g>
		<path d="M10.353,20.915v0.417c0.063-0.104,0.111-0.227,0.146-0.366c0.042-0.16,0.064-0.332,0.067-0.517
			c0.004-0.185,0.002-0.409-0.004-0.673h0.699c-0.007,0.111-0.01,0.233-0.01,0.365c0,0.125,0.003,0.25,0.01,0.376H10.75
			c-0.008,0.104-0.017,0.198-0.031,0.281h0.563c-0.007,0.14-0.01,0.275-0.01,0.408c0,0.132,0.003,0.271,0.01,0.417h-0.605
			c0.007-0.168,0.011-0.39,0.011-0.668c-0.042,0.188-0.112,0.386-0.209,0.595c-0.049-0.063-0.091-0.111-0.125-0.146v0.157
			c0.209,0.18,0.539,0.271,0.991,0.271c0.453,0,0.796-0.011,1.033-0.032c-0.042,0.077-0.066,0.153-0.073,0.229
			c-0.307,0-0.618-0.003-0.935-0.01c-0.316-0.007-0.536-0.035-0.658-0.084c-0.121-0.049-0.221-0.098-0.297-0.146
			c-0.077-0.049-0.138-0.043-0.183,0.015c-0.045,0.059-0.103,0.135-0.172,0.225c-0.049-0.042-0.111-0.083-0.188-0.125
			c0.104-0.09,0.205-0.191,0.302-0.302v-0.867c-0.097,0-0.195,0.005-0.292,0.011v-0.209c0.098,0.008,0.261,0.011,0.491,0.011
			C10.36,20.695,10.353,20.818,10.353,20.915z"/>
		<path d="M10.394,20.174c-0.056,0.028-0.122,0.063-0.199,0.104c-0.063-0.16-0.139-0.303-0.229-0.428
			c0.069-0.042,0.132-0.076,0.188-0.104C10.266,19.92,10.346,20.063,10.394,20.174z"/>
		<rect x="10.76" y="19.955" fill="#EFB945" width="0.313" height="0.386"/>
		<rect x="10.875" y="20.967" fill="#EFB945" width="0.219" height="0.48"/>
		<path d="M12.138,20.33l-0.083,0.261c0.077,0,0.156-0.003,0.24-0.01v0.208c-0.125-0.007-0.254-0.011-0.386-0.011v0.324
			c0.111,0,0.223-0.003,0.334-0.011v0.178c-0.111-0.007-0.223-0.012-0.334-0.012v0.492h-0.209c0.007-0.16,0.01-0.324,0.01-0.492
			c-0.125,0-0.24,0.008-0.344,0.021V21.09c0.104,0.008,0.219,0.011,0.344,0.011v-0.324c-0.111,0-0.233,0.004-0.365,0.011V20.58
			c0.125,0.007,0.236,0.01,0.334,0.01h0.198c0.042-0.167,0.07-0.32,0.083-0.459c0.077,0.028,0.16,0.049,0.25,0.063
			C12.182,20.229,12.158,20.275,12.138,20.33z"/>
		<path d="M11.908,19.913c0.125,0,0.236-0.003,0.334-0.01v0.198c-0.125-0.007-0.275-0.01-0.449-0.01
			c-0.167,0-0.313,0.003-0.438,0.01v-0.198c0.104,0.006,0.216,0.01,0.333,0.01c-0.007-0.063-0.024-0.149-0.052-0.26
			c0.09-0.015,0.167-0.028,0.229-0.042C11.88,19.722,11.894,19.823,11.908,19.913z"/>
		<path d="M11.782,20.487c-0.063,0.028-0.122,0.06-0.177,0.094c-0.042-0.111-0.101-0.227-0.177-0.345
			c0.069-0.028,0.125-0.055,0.167-0.083C11.671,20.285,11.735,20.396,11.782,20.487z"/>
		<path d="M13.307,20.153c-0.042,0.153-0.091,0.31-0.146,0.47c0.097,0.139,0.162,0.259,0.193,0.36
			c0.032,0.101,0.047,0.196,0.047,0.287c0,0.09-0.035,0.16-0.104,0.208c-0.069,0.049-0.153,0.084-0.25,0.104
			c-0.021-0.083-0.052-0.157-0.094-0.22c0.131,0,0.207-0.024,0.224-0.073c0.017-0.049,0.017-0.122,0-0.22
			c-0.018-0.097-0.085-0.232-0.204-0.406c0.104-0.328,0.17-0.567,0.198-0.72h-0.292v2.14h-0.198c0.006-0.182,0.01-0.348,0.01-0.501
			v-1.336c0-0.139-0.004-0.295-0.01-0.469h0.751C13.39,19.875,13.348,20,13.307,20.153z"/>
		<path d="M14.225,19.778c0.125,0.215,0.249,0.374,0.371,0.475s0.273,0.196,0.454,0.286c-0.07,0.049-0.122,0.111-0.157,0.188
			c-0.111-0.056-0.23-0.135-0.355-0.24v0.178c-0.083-0.007-0.171-0.011-0.261-0.011h-0.282c-0.112,0-0.216,0.003-0.313,0.011V20.55
			c-0.076,0.083-0.156,0.167-0.24,0.25c-0.042-0.069-0.101-0.125-0.177-0.167c0.118-0.069,0.251-0.194,0.396-0.375
			c0.146-0.181,0.261-0.393,0.345-0.637c0.097,0.042,0.188,0.073,0.271,0.094L14.225,19.778z"/>
		<path d="M14.611,21.285c-0.056,0.164-0.108,0.336-0.157,0.517c0.181,0,0.345-0.003,0.49-0.01v0.188
			c-0.118-0.007-0.236-0.011-0.354-0.011h-0.835c-0.174,0-0.313,0.003-0.417,0.011v-0.188c0.125,0.007,0.268,0.01,0.428,0.01h0.501
			c0.076-0.236,0.13-0.426,0.162-0.568c0.031-0.143,0.05-0.267,0.057-0.371c0.076,0.028,0.167,0.053,0.271,0.073
			C14.715,21.005,14.667,21.122,14.611,21.285z"/>
		<path d="M13.86,21.593c-0.063,0.007-0.122,0.025-0.177,0.053c-0.028-0.16-0.083-0.373-0.167-0.637
			c0.063-0.021,0.122-0.042,0.177-0.063C13.741,21.127,13.797,21.342,13.86,21.593z"/>
		<path fill="#EFB945" d="M14.528,20.476c-0.139-0.132-0.278-0.319-0.417-0.563c-0.111,0.202-0.236,0.39-0.375,0.563H14.528z"/>
		<path d="M14.247,21.489c-0.063,0-0.129,0.007-0.198,0.021c-0.049-0.286-0.091-0.483-0.126-0.595
			c0.07-0.007,0.132-0.021,0.188-0.042C14.158,21.047,14.205,21.253,14.247,21.489z"/>
		<path d="M15.508,20.758c0.09-0.035,0.183-0.11,0.277-0.224c0.094-0.115,0.171-0.225,0.234-0.329c-0.258,0-0.466,0.003-0.626,0.01
			v-0.208c0.146,0.007,0.39,0.01,0.731,0.01c0.083-0.167,0.139-0.303,0.167-0.407c0.083,0.042,0.163,0.076,0.24,0.104
			c-0.07,0.098-0.133,0.198-0.188,0.303h0.71c0.083,0,0.212-0.003,0.386-0.01v0.208c-0.139-0.007-0.268-0.01-0.386-0.01h-0.804
			c-0.076,0.119-0.208,0.299-0.396,0.542h0.584c0-0.132-0.003-0.268-0.01-0.407h0.229c-0.007,0.118-0.011,0.254-0.011,0.407h0.354
			c0.14,0,0.275-0.003,0.407-0.011v0.209c-0.132-0.006-0.268-0.01-0.407-0.01h-0.354v0.397h0.584c0.132,0,0.278-0.003,0.438-0.011
			v0.22c-0.16-0.008-0.307-0.011-0.438-0.011h-0.584c0,0.223,0.003,0.4,0.011,0.533h-0.229c0.007-0.139,0.01-0.316,0.01-0.533h-0.72
			c-0.153,0-0.299,0.003-0.438,0.011v-0.22c0.139,0.007,0.285,0.011,0.438,0.011h0.72v-0.397c-0.25,0-0.424,0.004-0.522,0.01
			c-0.097,0.007-0.202,0.024-0.313,0.053C15.569,20.902,15.536,20.821,15.508,20.758z"/>
		<path d="M17.93,20.632c0.111,0.008,0.209,0.011,0.292,0.011h0.219c-0.006,0.111-0.01,0.229-0.01,0.355v0.584
			c0.181,0.167,0.487,0.25,0.918,0.25c0.438,0,0.772-0.018,1.002-0.052c-0.035,0.083-0.063,0.167-0.083,0.25
			c-0.272,0.007-0.507,0.009-0.705,0.006c-0.199-0.004-0.364-0.013-0.496-0.026c-0.132-0.014-0.24-0.037-0.324-0.068
			s-0.168-0.077-0.255-0.136s-0.158-0.06-0.214-0.005c-0.057,0.056-0.122,0.136-0.199,0.241c-0.063-0.063-0.125-0.115-0.188-0.157
			c0.104-0.069,0.219-0.167,0.345-0.292V20.81c-0.104,0-0.206,0.003-0.303,0.011L17.93,20.632L17.93,20.632z"/>
		<path d="M18.097,19.809c0.083-0.014,0.157-0.035,0.219-0.063c0.048,0.139,0.094,0.292,0.136,0.459
			c-0.07,0.014-0.143,0.039-0.219,0.073C18.206,20.153,18.159,19.996,18.097,19.809z"/>
		<path d="M18.63,20.007c0.104,0.007,0.42,0.01,0.949,0.01c0.056-0.132,0.108-0.268,0.157-0.407c0.09,0.035,0.167,0.063,0.229,0.083
			c-0.049,0.049-0.112,0.156-0.188,0.323c0.271,0,0.466-0.003,0.584-0.01v0.188c-0.118-0.007-0.383-0.011-0.793-0.011l-0.053,0.208
			h0.605c-0.007,0.167-0.01,0.386-0.01,0.658c0,0.265,0.003,0.463,0.01,0.595h-1.303c0.014-0.153,0.021-0.352,0.021-0.595
			c0-0.243-0.003-0.462-0.011-0.658h0.47l0.052-0.208c-0.376,0-0.616,0.003-0.72,0.011L18.63,20.007L18.63,20.007z"/>
		<path d="M19.288,19.892c-0.056,0.035-0.111,0.074-0.167,0.115c-0.048-0.083-0.118-0.177-0.208-0.282
			c0.049-0.035,0.101-0.073,0.157-0.115C19.158,19.722,19.232,19.815,19.288,19.892z"/>
		<rect x="19.047" y="20.56" fill="#EFB945" width="0.866" height="0.198"/>
		<rect x="19.047" y="20.915" fill="#EFB945" width="0.866" height="0.198"/>
		<rect x="19.047" y="21.27" fill="#EFB945" width="0.866" height="0.208"/>
	</g>
</g>
</svg>
