<?xml version="1.0" encoding="utf-8"?>
<!-- Generator: Adobe Illustrator 17.0.0, SVG Export Plug-In . SVG Version: 6.00 Build 0)  -->
<!DOCTYPE svg PUBLIC "-//W3C//DTD SVG 1.1//EN" "http://www.w3.org/Graphics/SVG/1.1/DTD/svg11.dtd">
<svg version="1.1"
	 id="svg2203" xmlns:rdf="http://www.w3.org/1999/02/22-rdf-syntax-ns#" xmlns:cc="http://web.resource.org/cc/" xmlns:inkscape="http://www.inkscape.org/namespaces/inkscape" xmlns:sodipodi="http://sodipodi.sourceforge.net/DTD/sodipodi-0.dtd" xmlns:dc="http://purl.org/dc/elements/1.1/" xmlns:svg="http://www.w3.org/2000/svg" sodipodi:version="0.32" inkscape:version="0.45.1" sodipodi:docname="闂傚倸鍊搁崐鎼佸磹瀹勬噴褰掑炊閺冨牊鍋愰柛娆忛崰鎰磽娴ｆ垝鍚柛瀣仧閹广垹鈹戠€ｏ紲濠电姴锕ら幊鎰版晬濠婂啠鏀介柍鈺佸暢绾偓缂傚倷鑳舵慨闈涚暆缁嬪灝煤缁犲綊鏌ｉ幇绲诲┑娲栭埞鎴︽晬閸曞摋濠碘€抽柟鍋撻幖杈剧悼閻撴捇鏌ｉ悩鍙夊窛闁稿鎸歌灋闁告劖妲梺閫炲嫮鍘甸梺鑹板吹濡" sodipodi:docbase="D:\SVG\闂傚倸鍊搁崐鎼佸磹閹间礁纾瑰瀣捣閻棗銆掑锝呬壕濡ょ姷鍋為悧鐘茬拠娴嬫婵炲棙鍔曢崝鍛存⒑闂堟稓绠冲┑鏀辩粋鎺楁嚃閳哄啰锛濇繛杈剧导缁瑩宕ú鐓欓柛娑橈攻閸婃劙鏌" inkscape:output_extension="org.inkscape.output.svg.inkscape"
	 xmlns="http://www.w3.org/2000/svg" xmlns:xlink="http://www.w3.org/1999/xlink" x="0px" y="0px" width="30px" height="30px"
	 viewBox="0 0 30 30" enable-background="new 0 0 30 30" xml:space="preserve">
<sodipodi:namedview  borderopacity="1.0" guidetolerance="10" inkscape:zoom="0.74999999" inkscape:cy="646.08493" showguides="true" id="base" gridtolerance="10000" bordercolor="#666666" objecttolerance="10" inkscape:cx="126.79097" pagecolor="#ffffff" inkscape:pageopacity="0.0" inkscape:pageshadow="2" inkscape:document-units="px" inkscape:current-layer="layer1" inkscape:window-width="1280" inkscape:window-height="968" inkscape:window-y="-4" inkscape:window-x="-4" inkscape:guide-bbox="true">
	<sodipodi:guide  orientation="vertical" position="1116" id="guide22942"></sodipodi:guide>
	<sodipodi:guide  orientation="vertical" position="1147" id="guide22944"></sodipodi:guide>
</sodipodi:namedview>
<g>
	<path fill="#EFB945" d="M22.187,23.377c0,1.032-0.29,1.161-1.267,1.161H9.164c-0.977,0-1.351-0.129-1.351-1.161V6.49
		c0-1.032,0.457-1.028,1.434-1.028h11.631c0.977,0,1.309-0.003,1.309,1.028L22.187,23.377L22.187,23.377z"/>
	<path fill="#231815" d="M21.996,23.129c0,1.002-0.282,1.128-1.233,1.128H9.319c-0.951,0-1.314-0.126-1.314-1.128V6.741
		c0-1.001,0.445-0.999,1.396-0.999h11.32c0.951,0,1.274-0.002,1.274,0.999V23.129z"/>
	<path fill="#EFB945" d="M21.772,22.908c0,0.975-0.273,1.097-1.194,1.097H9.5c-0.92,0-1.273-0.123-1.273-1.097V6.966
		c0-0.974,0.431-0.972,1.352-0.972h10.959c0.921,0,1.233-0.002,1.233,0.972L21.772,22.908L21.772,22.908z"/>
	<path fill="#231815" d="M16.018,18.275h2.25c0,0-0.767-3.544-0.939-3.727L17.304,11.1h0.717l-0.025-4.156h-2.474v4.132l0.842,0.024
		l-0.025,1.336l-0.272-0.074c0,0-2.844-3.688-3.933-4.244l-1.361,1.325C10.772,9.443,15.448,14.144,16.018,18.275z"/>
	<g>
		<rect x="15.927" y="7.21" fill="#D11323" width="0.494" height="0.792"/>
		<rect x="15.927" y="8.269" fill="#D11323" width="0.494" height="0.792"/>
		<rect x="15.927" y="9.369" fill="#D11323" width="0.494" height="0.791"/>
		<rect x="15.927" y="10.4" fill="#D11323" width="0.494" height="0.792"/>
		<rect x="17.13" y="7.21" fill="#D11323" width="0.495" height="0.792"/>
		<rect x="17.13" y="8.269" fill="#D11323" width="0.495" height="0.792"/>
		<rect x="17.13" y="9.369" fill="#D11323" width="0.495" height="0.791"/>
		<rect x="17.13" y="10.4" fill="#D11323" width="0.495" height="0.792"/>
		<rect x="16.519" y="7.831" fill="#D11323" width="0.495" height="0.664"/>
		<rect x="16.519" y="8.87" fill="#D11323" width="0.495" height="0.663"/>
		<rect x="16.519" y="9.959" fill="#D11323" width="0.495" height="0.663"/>
	</g>
	<path d="M10.353,20.433v0.417c0.063-0.104,0.111-0.227,0.146-0.366c0.042-0.16,0.064-0.332,0.067-0.517
		c0.004-0.185,0.002-0.409-0.004-0.673h0.699c-0.007,0.111-0.01,0.233-0.01,0.365c0,0.125,0.003,0.25,0.01,0.376H10.75
		c-0.008,0.104-0.017,0.198-0.031,0.281h0.563c-0.007,0.14-0.01,0.275-0.01,0.408c0,0.132,0.003,0.271,0.01,0.417h-0.605
		c0.007-0.168,0.011-0.39,0.011-0.668c-0.042,0.188-0.112,0.386-0.209,0.595c-0.049-0.063-0.091-0.111-0.125-0.146v0.157
		c0.209,0.18,0.539,0.271,0.991,0.271c0.453,0,0.796-0.011,1.033-0.032c-0.042,0.077-0.066,0.153-0.073,0.229
		c-0.307,0-0.618-0.003-0.935-0.01c-0.316-0.007-0.536-0.035-0.658-0.084c-0.121-0.049-0.221-0.098-0.297-0.146
		c-0.077-0.049-0.138-0.043-0.183,0.015c-0.045,0.059-0.103,0.135-0.172,0.225c-0.049-0.042-0.111-0.083-0.188-0.125
		c0.104-0.09,0.205-0.191,0.302-0.302v-0.867c-0.097,0-0.195,0.005-0.292,0.011v-0.209c0.098,0.008,0.261,0.011,0.491,0.011
		C10.36,20.213,10.353,20.336,10.353,20.433z"/>
	<path d="M10.394,19.692c-0.056,0.028-0.122,0.063-0.199,0.104c-0.063-0.16-0.139-0.303-0.229-0.428
		c0.069-0.042,0.132-0.076,0.188-0.104C10.266,19.438,10.346,19.581,10.394,19.692z"/>
	<rect x="10.76" y="19.473" fill="#EFB945" width="0.313" height="0.386"/>
	<rect x="10.875" y="20.485" fill="#EFB945" width="0.219" height="0.48"/>
	<path d="M12.138,19.848l-0.083,0.261c0.077,0,0.156-0.003,0.24-0.01v0.208c-0.125-0.007-0.254-0.011-0.386-0.011v0.324
		c0.111,0,0.223-0.003,0.334-0.011v0.178c-0.111-0.007-0.223-0.012-0.334-0.012v0.492h-0.209c0.007-0.16,0.01-0.324,0.01-0.492
		c-0.125,0-0.24,0.008-0.344,0.021v-0.188c0.104,0.008,0.219,0.011,0.344,0.011v-0.324c-0.111,0-0.233,0.004-0.365,0.011v-0.208
		c0.125,0.007,0.236,0.01,0.334,0.01h0.198c0.042-0.167,0.07-0.32,0.083-0.459c0.077,0.028,0.16,0.049,0.25,0.063
		C12.182,19.747,12.158,19.793,12.138,19.848z"/>
	<path d="M11.908,19.431c0.125,0,0.236-0.003,0.334-0.01v0.198c-0.125-0.007-0.275-0.01-0.449-0.01c-0.167,0-0.313,0.003-0.438,0.01
		v-0.198c0.104,0.006,0.216,0.01,0.333,0.01c-0.007-0.063-0.024-0.149-0.052-0.26c0.09-0.015,0.167-0.028,0.229-0.042
		C11.88,19.24,11.894,19.341,11.908,19.431z"/>
	<path d="M11.782,20.005c-0.063,0.028-0.122,0.06-0.177,0.094c-0.042-0.111-0.101-0.227-0.177-0.345
		c0.069-0.028,0.125-0.055,0.167-0.083C11.671,19.803,11.735,19.914,11.782,20.005z"/>
	<path d="M13.307,19.671c-0.042,0.153-0.091,0.31-0.146,0.47c0.097,0.139,0.162,0.259,0.193,0.36
		c0.032,0.101,0.047,0.196,0.047,0.287c0,0.09-0.035,0.16-0.104,0.208c-0.069,0.049-0.153,0.084-0.25,0.104
		c-0.021-0.083-0.052-0.157-0.094-0.22c0.131,0,0.207-0.024,0.224-0.073c0.017-0.049,0.017-0.122,0-0.22
		c-0.018-0.097-0.085-0.232-0.204-0.406c0.104-0.328,0.17-0.567,0.198-0.72h-0.292v2.14h-0.198c0.006-0.182,0.01-0.348,0.01-0.501
		v-1.336c0-0.139-0.004-0.295-0.01-0.469h0.751C13.39,19.393,13.348,19.518,13.307,19.671z"/>
	<path d="M14.225,19.296c0.125,0.215,0.249,0.374,0.371,0.475s0.273,0.196,0.454,0.286c-0.07,0.049-0.122,0.111-0.157,0.188
		c-0.111-0.056-0.23-0.135-0.355-0.24v0.178c-0.083-0.007-0.171-0.011-0.261-0.011h-0.282c-0.112,0-0.216,0.003-0.313,0.011v-0.115
		c-0.076,0.083-0.156,0.167-0.24,0.25c-0.042-0.069-0.101-0.125-0.177-0.167c0.118-0.069,0.251-0.194,0.396-0.375
		c0.146-0.181,0.261-0.393,0.345-0.637c0.097,0.042,0.188,0.073,0.271,0.094L14.225,19.296z"/>
	<path d="M14.611,20.803c-0.056,0.164-0.108,0.336-0.157,0.517c0.181,0,0.345-0.003,0.49-0.01v0.188
		c-0.118-0.007-0.236-0.011-0.354-0.011h-0.835c-0.174,0-0.313,0.003-0.417,0.011V21.31c0.125,0.007,0.268,0.01,0.428,0.01h0.501
		c0.076-0.236,0.13-0.426,0.162-0.568c0.031-0.143,0.05-0.267,0.057-0.371c0.076,0.028,0.167,0.053,0.271,0.073
		C14.715,20.523,14.667,20.64,14.611,20.803z"/>
	<path d="M13.86,21.111c-0.063,0.007-0.122,0.025-0.177,0.053c-0.028-0.16-0.083-0.373-0.167-0.637
		c0.063-0.021,0.122-0.042,0.177-0.063C13.741,20.645,13.797,20.86,13.86,21.111z"/>
	<path fill="#EFB945" d="M14.528,19.994c-0.139-0.132-0.278-0.319-0.417-0.563c-0.111,0.202-0.236,0.39-0.375,0.563H14.528z"/>
	<path d="M14.247,21.007c-0.063,0-0.129,0.007-0.198,0.021c-0.049-0.286-0.091-0.483-0.126-0.595
		c0.07-0.007,0.132-0.021,0.188-0.042C14.158,20.565,14.205,20.771,14.247,21.007z"/>
	<path d="M15.508,20.276c0.09-0.035,0.183-0.11,0.277-0.224c0.094-0.115,0.171-0.225,0.234-0.329c-0.258,0-0.466,0.003-0.626,0.01
		v-0.208c0.146,0.007,0.39,0.01,0.731,0.01c0.083-0.167,0.139-0.303,0.167-0.407c0.083,0.042,0.163,0.076,0.24,0.104
		c-0.07,0.098-0.133,0.198-0.188,0.303h0.71c0.083,0,0.212-0.003,0.386-0.01v0.208c-0.139-0.007-0.268-0.01-0.386-0.01h-0.804
		c-0.076,0.119-0.208,0.299-0.396,0.542h0.584c0-0.132-0.003-0.268-0.01-0.407h0.229c-0.007,0.118-0.011,0.254-0.011,0.407h0.354
		c0.14,0,0.275-0.003,0.407-0.011v0.209c-0.132-0.006-0.268-0.01-0.407-0.01h-0.354v0.397h0.584c0.132,0,0.278-0.003,0.438-0.011
		v0.22c-0.16-0.008-0.307-0.011-0.438-0.011h-0.584c0,0.223,0.003,0.4,0.011,0.533h-0.229c0.007-0.139,0.01-0.316,0.01-0.533h-0.72
		c-0.153,0-0.299,0.003-0.438,0.011v-0.22c0.139,0.007,0.285,0.011,0.438,0.011h0.72v-0.397c-0.25,0-0.424,0.004-0.522,0.01
		c-0.097,0.007-0.202,0.024-0.313,0.053C15.569,20.42,15.536,20.339,15.508,20.276z"/>
	<path d="M17.93,20.15c0.111,0.008,0.209,0.011,0.292,0.011h0.219c-0.006,0.111-0.01,0.229-0.01,0.355V21.1
		c0.181,0.167,0.487,0.25,0.918,0.25c0.438,0,0.772-0.018,1.002-0.052c-0.035,0.083-0.063,0.167-0.083,0.25
		c-0.272,0.007-0.507,0.009-0.705,0.006c-0.199-0.004-0.364-0.013-0.496-0.026c-0.132-0.014-0.24-0.037-0.324-0.068
		s-0.168-0.077-0.255-0.136s-0.158-0.06-0.214-0.005c-0.057,0.056-0.122,0.136-0.199,0.241c-0.063-0.063-0.125-0.115-0.188-0.157
		c0.104-0.069,0.219-0.167,0.345-0.292v-0.783c-0.104,0-0.206,0.003-0.303,0.011L17.93,20.15L17.93,20.15z"/>
	<path d="M18.097,19.327c0.083-0.014,0.157-0.035,0.219-0.063c0.048,0.139,0.094,0.292,0.136,0.459
		c-0.07,0.014-0.143,0.039-0.219,0.073C18.206,19.671,18.159,19.514,18.097,19.327z"/>
	<path d="M18.63,19.525c0.104,0.007,0.42,0.01,0.949,0.01c0.056-0.132,0.108-0.268,0.157-0.407c0.09,0.035,0.167,0.063,0.229,0.083
		c-0.049,0.049-0.112,0.156-0.188,0.323c0.271,0,0.466-0.003,0.584-0.01v0.188c-0.118-0.007-0.383-0.011-0.793-0.011l-0.053,0.208
		h0.605c-0.007,0.167-0.01,0.386-0.01,0.658c0,0.265,0.003,0.463,0.01,0.595h-1.303c0.014-0.153,0.021-0.352,0.021-0.595
		c0-0.243-0.003-0.462-0.011-0.658h0.47l0.052-0.208c-0.376,0-0.616,0.003-0.72,0.011L18.63,19.525L18.63,19.525z"/>
	<path d="M19.288,19.41c-0.056,0.035-0.111,0.074-0.167,0.115c-0.048-0.083-0.118-0.177-0.208-0.282
		c0.049-0.035,0.101-0.073,0.157-0.115C19.158,19.24,19.232,19.333,19.288,19.41z"/>
	<rect x="19.047" y="20.078" fill="#EFB945" width="0.866" height="0.198"/>
	<rect x="19.047" y="20.433" fill="#EFB945" width="0.866" height="0.198"/>
	<rect x="19.047" y="20.788" fill="#EFB945" width="0.866" height="0.208"/>
	<path d="M15.306,22.335c-0.021,0.034-0.044,0.073-0.07,0.119h0.231c0.053,0,0.111-0.002,0.175-0.006v0.107
		c-0.061-0.007-0.126-0.011-0.198-0.011h-0.893c-0.098,0-0.181,0.004-0.249,0.011v-0.107c0.079,0.004,0.162,0.006,0.249,0.006h0.57
		c0.064-0.121,0.1-0.202,0.107-0.243c0.042,0.023,0.086,0.04,0.136,0.051C15.346,22.276,15.326,22.3,15.306,22.335z"/>
	<path d="M14.819,23.427c0.021-0.001,0.031-0.016,0.031-0.042V23.21h-0.305v0.345h-0.119c0.008-0.068,0.011-0.143,0.011-0.226
		v-0.452c0-0.075-0.002-0.146-0.005-0.214h0.531c-0.003,0.064-0.005,0.134-0.005,0.209v0.57c0,0.038-0.015,0.063-0.045,0.074
		s-0.081,0.022-0.152,0.034c-0.011-0.042-0.026-0.081-0.045-0.119C14.764,23.43,14.798,23.429,14.819,23.427z"/>
	<rect x="14.545" y="22.747" fill="#EFB945" width="0.305" height="0.153"/>
	<rect x="14.545" y="22.984" fill="#EFB945" width="0.305" height="0.142"/>
	<path d="M14.641,22.267c0.042-0.019,0.075-0.038,0.102-0.057c0.053,0.068,0.092,0.125,0.119,0.169
		c-0.034,0.015-0.072,0.034-0.113,0.057C14.735,22.395,14.698,22.338,14.641,22.267z"/>
	<path d="M15.099,23.278c0.004-0.057,0.006-0.105,0.006-0.147v-0.26c0-0.06-0.002-0.113-0.006-0.158h0.119
		c-0.004,0.045-0.006,0.098-0.006,0.158v0.254c0,0.056,0.002,0.107,0.006,0.152h-0.119V23.278z"/>
	<path d="M15.361,23.425c0.017-0.004,0.025-0.021,0.025-0.051v-0.588c0-0.045-0.002-0.094-0.006-0.146H15.5
		c-0.003,0.049-0.005,0.098-0.005,0.146v0.627c0,0.049-0.012,0.081-0.037,0.096s-0.082,0.026-0.172,0.034
		c-0.008-0.049-0.025-0.089-0.051-0.119C15.303,23.428,15.345,23.428,15.361,23.425z"/>
	<path d="M15.789,22.509c0.06,0.004,0.126,0.006,0.198,0.006h0.841c0.091,0,0.164-0.002,0.221-0.006v0.113
		c-0.049-0.004-0.117-0.006-0.204-0.006h-0.582c0,0.042-0.001,0.117-0.005,0.226h0.633c-0.008,0.049-0.015,0.121-0.023,0.215
		l-0.034,0.311c-0.008,0.068-0.04,0.112-0.096,0.133s-0.139,0.037-0.249,0.048c-0.004-0.049-0.019-0.092-0.045-0.13
		c0.086,0.004,0.152,0,0.198-0.011c0.045-0.011,0.073-0.043,0.084-0.096l0.034-0.367H16.25c-0.015,0.105-0.039,0.194-0.07,0.266
		c-0.032,0.072-0.076,0.138-0.133,0.198s-0.113,0.113-0.169,0.158c-0.015-0.022-0.049-0.049-0.102-0.079
		c0.049-0.026,0.101-0.068,0.155-0.125c0.054-0.056,0.1-0.12,0.135-0.192c0.036-0.071,0.059-0.15,0.068-0.237
		c0.009-0.086,0.014-0.192,0.014-0.316h-0.158c-0.083,0-0.15,0.002-0.203,0.006L15.789,22.509L15.789,22.509z M16.275,22.278
		c0.034-0.019,0.067-0.04,0.102-0.062c0.042,0.064,0.083,0.134,0.124,0.209c-0.038,0.015-0.075,0.036-0.113,0.062
		C16.353,22.412,16.316,22.342,16.275,22.278z"/>
	<path d="M18.298,22.283c-0.068,0.068-0.154,0.133-0.258,0.195V22.33c0.13-0.088,0.237-0.193,0.32-0.313h0.094v1.344h-0.156V22.283z
		"/>
	<path d="M19.522,23.379h-0.13l-0.204-0.345l-0.13,0.125v0.22h-0.113v-0.966h0.113v0.616l0.282-0.283h0.142l-0.221,0.215
		L19.522,23.379z"/>
	<path d="M20.274,23.379h-0.113v-0.458c0-0.022-0.004-0.042-0.011-0.057c-0.008-0.015-0.022-0.022-0.045-0.022
		c-0.026,0-0.051,0.014-0.073,0.042s-0.034,0.065-0.034,0.11v0.384h-0.113V22.92c0-0.022-0.004-0.042-0.011-0.057
		c-0.008-0.015-0.022-0.022-0.045-0.022c-0.026,0-0.051,0.014-0.073,0.042s-0.034,0.065-0.034,0.11v0.384h-0.114v-0.633h0.113v0.085
		c0.019-0.03,0.041-0.054,0.067-0.071s0.055-0.025,0.085-0.025s0.056,0.009,0.076,0.025c0.021,0.017,0.035,0.041,0.042,0.071
		c0.019-0.03,0.041-0.054,0.065-0.071s0.052-0.025,0.082-0.025c0.045,0,0.079,0.012,0.102,0.037c0.022,0.025,0.034,0.06,0.034,0.104
		C20.274,22.874,20.274,23.379,20.274,23.379z"/>
</g>
</svg>
