<?xml version="1.0" encoding="utf-8"?>
<!-- Generator: Adobe Illustrator 17.0.0, SVG Export Plug-In . SVG Version: 6.00 Build 0)  -->
<!DOCTYPE svg PUBLIC "-//W3C//DTD SVG 1.1//EN" "http://www.w3.org/Graphics/SVG/1.1/DTD/svg11.dtd">
<svg version="1.1"
	 id="svg2203" xmlns:rdf="http://www.w3.org/1999/02/22-rdf-syntax-ns#" xmlns:cc="http://web.resource.org/cc/" xmlns:inkscape="http://www.inkscape.org/namespaces/inkscape" xmlns:sodipodi="http://sodipodi.sourceforge.net/DTD/sodipodi-0.dtd" xmlns:dc="http://purl.org/dc/elements/1.1/" xmlns:svg="http://www.w3.org/2000/svg" sodipodi:version="0.32" inkscape:version="0.45.1" sodipodi:docname="闂傚倸鍊搁崐鎼佸磹閹间礁纾归柟闂寸绾惧綊鏌熼梻瀵哥痪鎯х秺閺岀喖姊荤€靛摜鐥幆褎璐￠柍褎鍤€閻庢艾闂痪鎯ф禍褰掓煙閻戞ê鐏╅柛濠勫仱濮婃椽宕崟娈梺缁橀敃鐣烽幋锕€绠涢柣妤€鐗忛崢鍗炩攽閻愬弶缂佺粯锚閻ｉ攱瀵奸弶鎴犵杸缂佺偓宕樺Λ鍕箒闂佹寧绻傚Λ妤呮倶婵犲洦鐓曟慨妯哄箞闂佽鍑界徊濂稿箣閻戣姤鈷戦柣鐔稿閻ｆ煕閵娿儳绉洪柛鈺冨仱楠炲鎮╂禍楣冩煥濠靛棛绠抽幖鏉戯工閳规垿鎮╅崹姣勬繝鍨唉闁轰礁鍟存俊鑸靛緞婵犲嫮鏋冮梻浣芥竟鍡樻櫠濡ゅ懎鐤剧紒缁樼箖缁绘繈宕掑鐤侀梻浣姐€€閸嬫挸霉閻樻煡鎮￠崘鐓冮弶鐐村闂佸搫妫庨崹濠氭儉瀹曟垿骞橀崜浣猴紳闂佺鏈懝楣冨焵閸忔﹢骞婂Δ鍛殝闁搞劌浼庨梻鍌氬€搁悧濠勭矙閹捐姹查柛鈩冪懅绾惧ジ鎮楅敐鍕闂佺粯鎸堕崐妤冩閹烘鍋愰柤澶广劑姊洪崫鍕効缂傚秳绶氶悰宕堕埡浣虹瓘闁荤姴娲︾粊鎾绩閼恒儳绠鹃柛娆忔晶鐢告煕閳哄啫浠辨鐐查弫鍌炴嚍閵夛妇褰ㄩ梻鍌欑閹测€趁洪弽绠洪悗锝囩槇缂佸墽澧楄彜闁稿鎹囬獮搴ㄦ嚍閵壯冨箥闂備胶闁圭懓娲悰寮介妸锔剧Ф闂佸憡鎸嗛崟杩橀梻鍌欒兌缁箰婵犳艾绠查柛銉ㄦ憰闂佹寧绻傞柛瀣姍閺屾稑鈻庤箛鏇犵幓婵炴垯鍨洪埛鎴犵磼鐎ｅ仴妤犵偞鍔曠€光偓閳х闁秵鈷掑ù锝呮啞閸熺偤鏌涢弮鈧悧鏇炲祫濠碉攻濡炰粙寮婚崨瀛樺€烽柟缁樺浮閺屾稑螣閸忓吋姣堝┑锕ュ浠嬪箠濠靛绾ч柛銊ュ姃濠" sodipodi:docbase="D:\SVG\闂傚倸鍊搁崐鎼佸磹閹间礁纾归柟闂寸绾惧綊鏌熼梻瀵哥痪鎯х秺閺岀喖姊荤€靛摜鐥幆褏绉洪柡宀€鍠栧鑽も偓闈涙憸閻ュ礈瑜庨崵鈧梺璇插嚱缁叉儳鐣烽幎鑺モ拺缂備焦锕㈤弻鏇㈠幢濡櫣鐟ㄩ梻浣瑰缁诲倿骞婂鍡欑彾闁哄洨鍠嶇换鍡涙煏閸繃鎼愰崯鎼佹⒑缁嬪潡宕戦妶澶婄畺鐟滄棃骞冮埡鍛殤閻庢碍纰嶇换娑㈠级閹寸偟绡€闁汇垽娼ф禒婊勪繆閻熲晛鐣峰┑瀣嵆闁靛繒濮烽梻浣告啞缁嬫垿鎮洪妸鈺佺厱闁硅揪闄勯埛鎺楁煕閸犳捇濡撮幒鏃傜＜闁绘ɑ褰冮弳閬嶆煃鐟欏嫬鐏寸€靛妽濞煎繘鍩￠崘鍔归梻浣告贡閸庛倝鏌涢妶鍛殻闁哄苯绉瑰畷宕熷▓鍫曟⒑閹稿海鈯曠紒璇插暟閹广垹鈽夊▎鎰Ф闂佸憡鎸嗛崘纾藉ù锝囧劋閸ｄ即鎮楃憴鍕樈婵炴彃浜楀┑鐐叉閹稿鎮￠弴鐔虹闁瑰鍎戦崗鏌￠埀绻濆鍘辨繝鐢靛Т閸熸叏瀹ュ鐓" inkscape:output_extension="org.inkscape.output.svg.inkscape"
	 xmlns="http://www.w3.org/2000/svg" xmlns:xlink="http://www.w3.org/1999/xlink" x="0px" y="0px" width="30px" height="30px"
	 viewBox="0 0 30 30" enable-background="new 0 0 30 30" xml:space="preserve">
<sodipodi:namedview  borderopacity="1.0" guidetolerance="10" inkscape:zoom="0.74999999" inkscape:cy="646.08493" showguides="true" id="base" gridtolerance="10000" bordercolor="#666666" objecttolerance="10" inkscape:cx="126.79097" pagecolor="#ffffff" inkscape:pageopacity="0.0" inkscape:pageshadow="2" inkscape:document-units="px" inkscape:current-layer="layer1" inkscape:window-width="1280" inkscape:window-height="968" inkscape:window-y="-4" inkscape:window-x="-4" inkscape:guide-bbox="true">
	<sodipodi:guide  orientation="vertical" position="1116" id="guide22942"></sodipodi:guide>
	<sodipodi:guide  orientation="vertical" position="1147" id="guide22944"></sodipodi:guide>
</sodipodi:namedview>
<g>
	<path fill="#EFB945" d="M7.534,22.379c-0.27,0-0.491-0.229-0.491-0.52c0-0.091,0.025-0.182,0.067-0.261l7.463-13.712
		c0.087-0.161,0.25-0.266,0.425-0.266c0.174,0,0.337,0.104,0.424,0.266l7.471,13.712c0.04,0.079,0.063,0.17,0.063,0.261
		c0,0.286-0.219,0.52-0.493,0.52H7.534z"/>
	<polygon points="9.231,20.819 20.763,20.819 14.998,10.227 	"/>
	<polygon fill="#EFB945" points="13.231,19.56 12.696,19.452 12.781,18.966 12.15,18.966 12.211,18.515 12.453,18.236 
		12.004,18.164 12.004,17.75 13.171,18.017 13.826,17.666 13.656,17.337 13.122,17.022 12.441,17.239 12.004,17.277 12.004,16.815 
		12.381,16.694 12.162,16.427 12.126,15.988 12.781,15.988 12.806,15.417 13.171,15.417 13.28,15.976 13.45,16.487 14.629,17.119 
		14.629,15.891 13.936,15.261 13.911,14.896 14.13,14.834 14.629,15.016 14.846,14.556 15.015,14.446 15.272,14.556 15.429,15.042 
		15.855,14.822 16.122,14.931 16.122,15.248 15.394,15.916 15.394,17.132 16.62,16.415 16.925,15.455 17.216,15.467 17.216,15.953 
		17.86,16.013 17.86,16.403 17.702,16.668 17.993,16.925 17.993,17.277 17.751,17.41 16.985,17.003 16.171,17.458 16.196,17.593 
		16.901,17.884 17.41,17.8 17.993,17.725 17.933,18.236 17.654,18.333 17.945,18.638 17.872,19.063 17.228,19.086 17.119,19.56 
		16.779,19.513 16.596,18.662 15.345,17.812 15.369,19.038 16.122,19.889 16.098,20.143 15.71,20.229 15.467,19.901 15.248,20.435 
		14.835,20.544 14.616,20.046 14.459,19.938 14.191,20.218 13.839,20.132 13.863,19.731 14.58,19.038 14.616,17.812 13.487,18.491 
		13.328,19.001 	"/>
</g>
</svg>
