<?xml version="1.0" encoding="utf-8"?>
<!-- Generator: Adobe Illustrator 21.0.0, SVG Export Plug-In . SVG Version: 6.00 Build 0)  -->
<svg version="1.1" id="Layer_1" xmlns="http://www.w3.org/2000/svg" xmlns:xlink="http://www.w3.org/1999/xlink" x="0px" y="0px"
	 width="30px" height="30px" viewBox="0 0 30 30" enable-background="new 0 0 30 30" xml:space="preserve">
<g id="XMLID_2498_">
	<g id="XMLID_3853_">
		<path id="XMLID_3866_" fill="#FFFFFF" d="M15,29.3c-8,0-14.5-6.5-14.5-14.5S7,0.3,15,0.3s14.5,6.5,14.5,14.5S23,29.3,15,29.3z"/>
		<g id="XMLID_3854_">
			<path id="XMLID_3856_" fill="#305FA0" d="M15,1c7.7,0,14,6.3,14,14s-6.3,14-14,14S1,22.7,1,15S7.3,1,15,1 M15,0C6.7,0,0,6.7,0,15
				s6.7,15,15,15s15-6.7,15-15S23.3,0,15,0L15,0z"/>
		</g>
	</g>
	<g id="XMLID_3662_">
		<polygon id="XMLID_3787_" fill="#305FA0" points="19.8,4.3 24.3,5.9 17,25 13.9,26.5 13.5,22.9 		"/>
		<path id="XMLID_3762_" fill="none" stroke="#305FA0" stroke-linecap="round" stroke-linejoin="round" stroke-miterlimit="10" d="
			M4.8,10.5c0,0,2.1,0.3,3,1.2c0,0,1.6,1.1,0.7,4.3c0,0-0.3,1.3-1.2,3.4c0,0-0.4,1.2-0.4,2.4c0,0,0,1.5,0.9,2.7c0,0,0.5,0.8,1.6,1.3
			c0,0,1,0.5,2.2,0.5c0,0,0.9,0.1,2.1-0.2"/>
	</g>
</g>
</svg>
