<?xml version="1.0" encoding="utf-8"?>
<!-- Generator: Adobe Illustrator 17.0.0, SVG Export Plug-In . SVG Version: 6.00 Build 0)  -->
<!DOCTYPE svg PUBLIC "-//W3C//DTD SVG 1.1//EN" "http://www.w3.org/Graphics/SVG/1.1/DTD/svg11.dtd">
<svg version="1.1" id="图层_1" xmlns="http://www.w3.org/2000/svg" xmlns:xlink="http://www.w3.org/1999/xlink" x="0px" y="0px"
	 width="30px" height="30px" viewBox="0 0 30 30" style="enable-background:new 0 0 30 30;" xml:space="preserve">
<style type="text/css">
	.st0{fill-rule:evenodd;clip-rule:evenodd;fill:#272536;}
</style>
<g>
	<path class="st0" d="M20.5,22.9v-2.4H30v2.4H20.5L20.5,22.9z M18.9,22.9h-3.1c-0.5,0-0.9-0.3-1.1-0.7c-0.1-0.1-0.3-0.1-0.4-0.3
		L13,19.6v4.7H4.1V16c0-1.3,1.1-2.4,2.4-2.4h4.1c1,0,1.9,0.6,2.3,1.5c0.1,0.1,0.2,0.1,0.3,0.2l2.9,4.9c0.1,0.1,0.1,0.2,0.2,0.3h2.7
		c0.7,0,1.2,0.5,1.2,1.2C20.1,22.3,19.5,22.9,18.9,22.9L18.9,22.9z M12.2,9.5c0,1.8-1.5,3.3-3.2,3.3c-1.8,0-3.2-1.5-3.2-3.3
		c0-1.8,1.5-3.3,3.2-3.3C10.7,6.2,12.2,7.7,12.2,9.5L12.2,9.5z M14.9,1.7H1.7v26.6h13.2v-4.1h1.7V30H0V0h16.5v5.9h-1.7V1.7L14.9,1.7
		z M28.4,13.9c0-0.3-0.2-0.6-0.6-0.6h-3.7v-1.7h3.7c0.4,0,0.5-0.3,0.5-0.5l0-0.5c0-0.3-0.1-0.7-0.5-0.7h-1.6l0.6-2.2
		c0.1-0.4-0.1-0.9-0.6-1L26,6.6c-0.4-0.1-0.9,0.1-1,0.6l-0.7,2.7h-2l-0.7-2.7c-0.1-0.4-0.5-0.7-1-0.6l-0.3,0.1
		c-0.4,0.1-0.7,0.5-0.6,1l0.6,2.2h-1.8c-0.4,0-0.4,0.4-0.4,0.8v0.3c0,0.4-0.1,0.8,0.4,0.8h3.8v1.7h-3.8c-0.4,0-0.4,0.4-0.4,0.8v0.3
		c0,0.4-0.1,0.8,0.4,0.8h3.8v3.2c0,0.4,0.8,0.3,1.2,0.3h0.3c0.4,0,0.4-0.4,0.4-0.8v-2.7h3.7c0.4,0,0.6-0.3,0.6-0.6"/>
</g>
<g>
</g>
<g>
</g>
<g>
</g>
<g>
</g>
<g>
</g>
<g>
</g>
<g>
</g>
<g>
</g>
<g>
</g>
<g>
</g>
<g>
</g>
<g>
</g>
<g>
</g>
<g>
</g>
<g>
</g>
</svg>
