<?xml version="1.0" encoding="utf-8"?>
<!-- Generator: Adobe Illustrator 21.0.0, SVG Export Plug-In . SVG Version: 6.00 Build 0)  -->
<svg version="1.1" id="Layer_1" xmlns="http://www.w3.org/2000/svg" xmlns:xlink="http://www.w3.org/1999/xlink" x="0px" y="0px"
	 width="30px" height="30px" viewBox="0 0 30 30" enable-background="new 0 0 30 30" xml:space="preserve">
<g>
	<path id="XMLID_822_" d="M17.6,14.8"/>
	<rect x="25.1" y="7.1" fill="#DB915A" width="1" height="1.7"/>
	<rect x="25.1" y="9.9" fill="#DB915A" width="1" height="1.7"/>
	<rect x="25.1" y="12.6" fill="#DB915A" width="1" height="1.7"/>
	<rect x="25.1" y="15.6" fill="#DB915A" width="1" height="1.7"/>
	<rect x="25.1" y="18.4" fill="#DB915A" width="1" height="1.7"/>
	<rect x="25.1" y="21.2" fill="#DB915A" width="1" height="1.7"/>
	<rect x="3.2" y="7.1" fill="#DB915A" width="1" height="1.7"/>
	<rect x="3.2" y="9.9" fill="#DB915A" width="1" height="1.7"/>
	<rect x="3.2" y="12.6" fill="#DB915A" width="1" height="1.7"/>
	<rect x="3.2" y="15.6" fill="#DB915A" width="1" height="1.7"/>
	<rect x="3.2" y="18.4" fill="#DB915A" width="1" height="1.7"/>
	<rect x="3.2" y="21.2" fill="#DB915A" width="1" height="1.7"/>
	<g id="XMLID_2800_">
		<path fill="#DB915A" d="M15,1c7.72,0,14,6.28,14,14s-6.28,14-14,14S1,22.72,1,15S7.28,1,15,1 M15,0C6.716,0,0,6.716,0,15
			s6.716,15,15,15s15-6.716,15-15S23.284,0,15,0L15,0z"/>
	</g>
	<path fill="#E47200" d="M8.1,11.6H6v-0.1c0-1.3,0.8-2.2,2.1-2.7V11.6z M12.6,11.6H8.7V8.7h3.9V11.6z M17.2,11.6h-3.9V8.7h3.9V11.6
		L17.2,11.6z M22.7,11.6h-4.9V8.7h2.4c0.6,0.1,1.2,0.5,1.5,0.8C22.5,10.1,22.7,10.7,22.7,11.6L22.7,11.6z M18.9,18.5
		c-0.5,0-0.7-0.3-0.7-0.8s0.3-0.8,0.7-0.8c0.3,0,0.7,0.3,0.7,0.8C19.7,18,19.2,18.5,18.9,18.5z M18.9,15.8c0.9,0,1.6,0.8,1.6,1.9
		s-0.7,1.9-1.6,1.9s-1.6-0.8-1.6-1.9S18.1,15.8,18.9,15.8z M9.4,18.5c-0.5,0-0.7-0.3-0.7-0.8s0.3-0.8,0.7-0.8c0.3,0,0.7,0.3,0.7,0.8
		C9.9,18,9.7,18.5,9.4,18.5z M9.4,15.8c0.9,0,1.6,0.8,1.6,1.9s-0.7,1.9-1.6,1.9c-0.9,0-1.6-0.8-1.6-1.9S8.3,15.8,9.4,15.8z
		 M22.7,8.4c-0.8-0.7-2-1.3-3.1-1.3H9.4C7,7.1,4.9,9,4.9,11.4v5.7c0,0.7,0.5,1.2,1,1.2h0.8c0.3,0,0.7-0.3,0.7-0.7
		c0-1.3,0.9-2.2,2.1-2.2s2.1,0.9,2.1,2.2c0,0.5,0.3,0.7,0.7,0.7h4.1c0.3,0,0.7-0.3,0.7-0.7c0-1.3,0.9-2.2,2.1-2.2s2.1,0.9,2.1,2.2
		c0,0.5,0.3,0.7,0.7,0.7h1.3c0.2,0,0.5-0.1,0.7-0.2c0.2-0.2,0.3-0.5,0.3-0.8v-5.7C24,10.3,23.5,9.2,22.7,8.4z"/>
</g>
</svg>
