<?xml version="1.0" encoding="utf-8"?>
<!-- Generator: Adobe Illustrator 21.0.0, SVG Export Plug-In . SVG Version: 6.00 Build 0)  -->
<svg version="1.1" id="Layer_1" xmlns="http://www.w3.org/2000/svg" xmlns:xlink="http://www.w3.org/1999/xlink" x="0px" y="0px"
	 width="30px" height="30px" viewBox="0 0 30 30" enable-background="new 0 0 30 30" xml:space="preserve">
<g>
	<g id="XMLID_2942_">
		<path fill="#FFFFFF" d="M15.042,29.467c-4.211,0-8.212-1.811-10.978-4.967c-2.761-3.15-3.975-7.194-3.419-11.384
			c0.674-6.351,5.918-11.59,12.471-12.47c0.608-0.074,1.229-0.113,1.841-0.113c4.212,0,8.214,1.811,10.979,4.967
			c2.761,3.151,3.975,7.194,3.418,11.385c-0.771,6.457-6.012,11.698-12.463,12.469C16.275,29.429,15.654,29.467,15.042,29.467z"/>
		<path fill="#E47200" d="M14.958,1.033L14.958,1.033c4.067,0,7.931,1.748,10.601,4.796c2.665,3.041,3.836,6.944,3.298,11.002
			c-0.743,6.225-5.801,11.282-12.029,12.026c-0.594,0.073-1.195,0.11-1.786,0.11c-4.067,0-7.931-1.748-10.602-4.796
			c-2.664-3.041-3.836-6.944-3.296-11.016C1.793,7.044,6.856,1.991,13.172,1.143C13.765,1.07,14.366,1.033,14.958,1.033
			 M14.957,0.033c-0.628,0-1.264,0.038-1.907,0.117c-6.7,0.9-12.2,6.3-12.9,12.9c-1.215,9.157,5.952,16.917,14.893,16.917
			c0.628,0,1.264-0.038,1.907-0.117c6.7-0.8,12.1-6.2,12.9-12.9C31.065,7.793,23.898,0.033,14.957,0.033L14.957,0.033z"/>
	</g>
	<path fill="#E47200" d="M26.75,9.45l-2.6-2.5c-6.2,2.6-9.1,7.7-9.1,7.7V3.05h-4.7v24.1h4.3C14.85,18.55,26.75,9.45,26.75,9.45z"/>
	<rect x="11.85" y="5.55" fill="#FFFFFF" width="1.2" height="4.1"/>
	<rect x="11.85" y="13.35" fill="#FFFFFF" width="1.2" height="4"/>
	<rect x="11.85" y="20.65" fill="#FFFFFF" width="1.2" height="4.1"/>
	
		<rect x="21.047" y="9.708" transform="matrix(0.7767 -0.6299 0.6299 0.7767 -1.3632 16.4702)" fill="#FFFFFF" width="3" height="0.9"/>
	
		<rect x="16.484" y="14.241" transform="matrix(0.6064 -0.7952 0.7952 0.6064 -4.6025 20.0833)" fill="#FFFFFF" width="3" height="0.9"/>
</g>
</svg>
