<?xml version="1.0" encoding="utf-8"?>
<!-- Generator: Adobe Illustrator 21.0.0, SVG Export Plug-In . SVG Version: 6.00 Build 0)  -->
<svg version="1.1" id="Layer_1" xmlns="http://www.w3.org/2000/svg" xmlns:xlink="http://www.w3.org/1999/xlink" x="0px" y="0px"
	 width="30px" height="30px" viewBox="0 0 30 30" enable-background="new 0 0 30 30" xml:space="preserve">
<g>
	<g id="XMLID_2943_">
		<path fill="#FFFFFF" d="M15.042,29.467c-4.211,0-8.212-1.811-10.978-4.967c-2.761-3.15-3.975-7.194-3.419-11.384
			c0.675-6.364,5.919-11.603,12.47-12.47c0.609-0.074,1.23-0.113,1.842-0.113c4.212,0,8.214,1.811,10.979,4.967
			c2.761,3.151,3.975,7.194,3.418,11.385c-0.771,6.457-6.012,11.698-12.463,12.469C16.275,29.429,15.654,29.467,15.042,29.467z"/>
		<path fill="#E47200" d="M14.958,1.033L14.958,1.033c4.067,0,7.931,1.748,10.601,4.796c2.665,3.041,3.836,6.944,3.298,11.002
			c-0.743,6.225-5.801,11.282-12.029,12.026c-0.594,0.073-1.195,0.11-1.786,0.11c-4.067,0-7.931-1.748-10.602-4.796
			c-2.664-3.041-3.836-6.944-3.296-11.016C1.794,7.031,6.856,1.979,13.172,1.143C13.765,1.07,14.366,1.033,14.958,1.033
			 M14.957,0.033c-0.628,0-1.264,0.038-1.907,0.117c-6.8,0.9-12.2,6.3-12.9,12.9c-1.215,9.157,5.952,16.917,14.893,16.917
			c0.628,0,1.264-0.038,1.907-0.117c6.7-0.8,12.1-6.2,12.9-12.9C31.065,7.793,23.898,0.033,14.957,0.033L14.957,0.033z"/>
	</g>
	<path fill="#E47200" d="M14.25,2.65h-4.3v24.1h4.7v-11.6c0,0,2.9,5.1,9.1,7.7l2.6-2.5C26.35,20.45,14.55,11.25,14.25,2.65z"/>
	<rect x="11.55" y="20.25" fill="#FFFFFF" width="1.2" height="4.1"/>
	<rect x="11.55" y="12.55" fill="#FFFFFF" width="1.2" height="4"/>
	<rect x="11.55" y="5.15" fill="#FFFFFF" width="1.2" height="4.1"/>
	
		<rect x="21.76" y="18.219" transform="matrix(0.6299 -0.7767 0.7767 0.6299 -7.0953 24.5489)" fill="#FFFFFF" width="0.9" height="3"/>
	
		<rect x="17.201" y="13.714" transform="matrix(0.7952 -0.6064 0.6064 0.7952 -5.6098 13.8195)" fill="#FFFFFF" width="0.9" height="3"/>
</g>
</svg>
