<?xml version="1.0" encoding="utf-8"?>
<!-- Generator: Adobe Illustrator 21.0.0, SVG Export Plug-In . SVG Version: 6.00 Build 0)  -->
<svg version="1.1" id="Layer_1" xmlns="http://www.w3.org/2000/svg" xmlns:xlink="http://www.w3.org/1999/xlink" x="0px" y="0px"
	 width="30px" height="30px" viewBox="0 0 30 30" enable-background="new 0 0 30 30" xml:space="preserve">
<g id="XMLID_3114_">
	<path id="XMLID_3119_" fill="#FFFFFF" d="M15,29.5C7,29.5,0.5,23,0.5,15S7,0.5,15,0.5S29.5,7,29.5,15S23,29.5,15,29.5z"/>
	<path id="XMLID_3118_" fill="#FFFFFF" d="M15,29.5C7,29.5,0.5,23,0.5,15S7,0.5,15,0.5S29.5,7,29.5,15S23,29.5,15,29.5z"/>
	<g id="XMLID_3116_">
		<path id="XMLID_3117_" fill="#305FA0" d="M15,1c7.7,0,14,6.3,14,14s-6.3,14-14,14C7.3,29,1,22.7,1,15S7.4,1,15,1 M15,0
			C6.7,0,0,6.7,0,15s6.7,15,15,15c8.3,0,15-6.7,15-15C30,6.7,23.4,0,15,0L15,0z"/>
	</g>
	<path id="XMLID_3115_" fill="#305FA0" d="M7.2,13.6c0.9-0.4,1.7-1.4,2.4-2.1c0.6-0.6,1.1-1.2,1.7-1.7c1.1-0.9,3-1.7,4.5-1.5
		c1.6,0.2,2.6,1,3.9,2c0.6,0.5,1.2,1.1,1.7,1.7c0.3,0.3,0.5,0.5,0.8,0.8c0.2,0.2,0.5,0.5,0.7,0.7c0.7,0.5,1.5,0.3,2.3,0.3
		c0.9,0,1.9,0,2.8,0c0,0.4,0,0.8,0,1.1c0,0.5,0,1.1,0,1.6c0,0.4,0,0.8,0,1.2c0,0.3-0.1,0.4-0.4,0.4c-3.1,0-6.3,0-9.4,0
		c-0.3,0-0.4-0.1-0.4-0.4c0-0.7-0.1-1.4-0.1-2.1c0-0.3,0-0.7,0-1c0-0.4,0-0.7-0.1-1.1c0-0.2-0.1-0.4-0.2-0.5
		c-0.6-0.9-1.5-1.3-2.5-1.2c-0.3,0-0.6,0.1-0.9,0.2c-0.3,0.1-0.5,0.2-0.7,0.4s-0.4,0.4-0.5,0.7c-0.2,0.4-0.3,0.7-0.3,1.2
		c0,0.4,0,0.8,0,1.2c0,0.8,0,1.6,0,2.4c-0.1,0.3-0.3,0.2-0.5,0.2c-3.2,0-6.4,0-9.7,0c-0.3,0-0.4-0.1-0.4-0.4c0-1.3,0-2.5,0-3.8
		C1.9,13.8,6.2,14.1,7.2,13.6L7.2,13.6z"/>
</g>
</svg>
