<?xml version="1.0" encoding="utf-8"?>
<!-- Generator: Adobe Illustrator 21.1.0, SVG Export Plug-In . SVG Version: 6.00 Build 0)  -->
<svg version="1.1" id="Layer_1" xmlns="http://www.w3.org/2000/svg" xmlns:xlink="http://www.w3.org/1999/xlink" x="0px" y="0px"
	 width="30px" height="30px" viewBox="0 0 30 30" enable-background="new 0 0 30 30" xml:space="preserve">
<g id="XMLID_2196_">
	<g>
		<g id="XMLID_3921_" enable-background="new    ">
			<g id="XMLID_3923_">
				<path id="XMLID_3925_" fill="#305FA0" d="M1.148,19.215c1.385,1.108,2.771,1.662,4.571,1.662c0.97,0,1.662-0.139,2.216-0.554
					c0.416-0.277,0.693-0.693,0.693-1.247c0-0.416-0.139-0.831-0.554-1.247c-0.416-0.416-1.385-0.97-3.048-1.662
					c-2.632-1.108-3.879-2.632-3.879-4.71c0-1.524,0.554-2.771,1.801-3.602C4.057,7.025,5.719,6.609,7.52,6.609
					c1.662,0,2.909,0.277,4.017,0.693v3.325c-1.108-0.693-2.355-1.108-3.879-1.108c-0.831,0-1.524,0.139-2.078,0.416
					c-0.554,0.277-0.831,0.693-0.831,1.247c0,0.416,0.139,0.831,0.554,1.108c0.416,0.416,1.247,0.831,2.632,1.385
					c1.662,0.693,2.771,1.385,3.325,2.216s0.97,1.662,0.97,2.771c0,1.524-0.554,2.771-1.662,3.602
					c-1.108,0.831-2.771,1.247-4.71,1.247s-3.463-0.277-4.571-0.97L1.148,19.215L1.148,19.215z"/>
				<path id="XMLID_3924_" fill="#305FA0" d="M29.269,23.371H25.39l-1.247-3.74h-5.957l-1.247,3.74H13.2l5.957-16.485h4.156
					L29.269,23.371z M23.312,16.86l-1.801-5.68c-0.139-0.416-0.139-0.831-0.277-1.385h-0.139c0,0.416-0.139,0.97-0.277,1.385
					l-1.939,5.68H23.312L23.312,16.86z"/>
			</g>
			
				<text id="XMLID_3922_" transform="matrix(1 0 0 1 0 23.334)" fill="#305FA0" font-family="'MicrosoftYaHei-Bold'" font-size="22.1645px">SA</text>
		</g>
	</g>
</g>
</svg>
