<?xml version="1.0" encoding="utf-8"?>
<!-- Generator: Adobe Illustrator 17.0.0, SVG Export Plug-In . SVG Version: 6.00 Build 0)  -->
<!DOCTYPE svg PUBLIC "-//W3C//DTD SVG 1.1//EN" "http://www.w3.org/Graphics/SVG/1.1/DTD/svg11.dtd">
<svg version="1.1"
	 id="svg2203" xmlns:sodipodi="http://sodipodi.sourceforge.net/DTD/sodipodi-0.dtd" xmlns:cc="http://web.resource.org/cc/" xmlns:dc="http://purl.org/dc/elements/1.1/" xmlns:inkscape="http://www.inkscape.org/namespaces/inkscape" xmlns:rdf="http://www.w3.org/1999/02/22-rdf-syntax-ns#" xmlns:svg="http://www.w3.org/2000/svg" sodipodi:version="0.32" sodipodi:docname="闂傚倷娴囧Δ鐘叉憸缁辩偞绻濋崒婊呯＜婵℃贡缁犳岸姊洪幖鐐插姕婵＄偠妫勯悾椋庣矙鐠囩偓妫冮崺鈧柟鑻痝" sodipodi:docbase="D:\SVG\闂傚倸鍊风粈渚€骞栭弻娑欐償閵忕姷浠肩紓浣介哺閹告悂鏌" inkscape:version="0.45.1" inkscape:output_extension="org.inkscape.output.svg.inkscape"
	 xmlns="http://www.w3.org/2000/svg" xmlns:xlink="http://www.w3.org/1999/xlink" x="0px" y="0px" width="30px" height="30px"
	 viewBox="0 0 30 30" enable-background="new 0 0 30 30" xml:space="preserve">
<sodipodi:namedview  inkscape:cy="646.08493" showguides="true" inkscape:zoom="0.74999999" bordercolor="#666666" objecttolerance="10" borderopacity="1.0" inkscape:cx="126.79097" guidetolerance="10" id="base" pagecolor="#ffffff" gridtolerance="10000" inkscape:window-height="968" inkscape:window-y="-4" inkscape:window-x="-4" inkscape:window-width="1280" inkscape:current-layer="layer1" inkscape:document-units="px" inkscape:pageopacity="0.0" inkscape:guide-bbox="true" inkscape:pageshadow="2">
	<sodipodi:guide  orientation="vertical" position="1116" id="guide22942"></sodipodi:guide>
	<sodipodi:guide  orientation="vertical" position="1147" id="guide22944"></sodipodi:guide>
</sodipodi:namedview>
<ellipse fill="#0000FF" cx="12.695" cy="7.716" rx="1.729" ry="1.766"/>
<path fill="#0000FF" d="M11.243,9.625c0,0-3.043-0.659-4.195,0.848S5.25,13.91,5.25,13.91s-0.184,1.177,0.83,0.753
	s1.291-3.437,2.997-3.579c0,0-2.397,3.437-2.72,5.132s-1.752,7.157-1.752,7.157s0.599,1.224,1.475,0.377L8.2,16.766
	c0,0,2.305,2.606,2.351,3.689c0.046,1.083,0.323,2.465,0.323,2.465s0.231,1.679,1.66,0.878c0,0,0.009-2.592-0.184-3.626
	c-0.17-0.911-0.635-2.188-1.614-3.437c-0.599-0.765,0.415-3.061,0.922-3.014l0.692,2.707c0,0,0.64,0.353,0.864,0.035
	c0.225-0.318-0.402-6.485-0.402-6.485L11.243,9.625z"/>
<polygon fill="#0000FF" points="17.97,19.538 5.987,14.072 6.177,13.642 18.159,19.108 "/>
<path fill="#0000FF" d="M14.424,23.657c0,0,0.323-3.72,1.798-3.673c1.475,0.047,1.844,0.848,1.844,0.848s0.922-5.839,2.628-5.839
	c1.706,0,4.702,5.368,4.702,8.428v0.235H14.424z"/>
</svg>
