<?xml version="1.0" encoding="utf-8"?>
<!-- Generator: Adobe Illustrator 21.0.0, SVG Export Plug-In . SVG Version: 6.00 Build 0)  -->
<svg version="1.1" id="Layer_1" xmlns="http://www.w3.org/2000/svg" xmlns:xlink="http://www.w3.org/1999/xlink" x="0px" y="0px"
	 width="30px" height="30px" viewBox="0 0 30 30" enable-background="new 0 0 30 30" xml:space="preserve">
<g id="XMLID_3013_">
	<g id="XMLID_3017_">
		<path id="XMLID_3020_" fill="#FFFFFF" d="M14.8,29.207c-8,0-14.5-6.5-14.5-14.5s6.5-14.5,14.5-14.5s14.5,6.5,14.5,14.5
			S22.8,29.207,14.8,29.207z"/>
		<g id="XMLID_3018_">
			<path id="XMLID_3019_" fill="#305FA0" d="M15,0.907c7.7,0,14,6.3,14,14s-6.3,14-14,14s-14-6.3-14-14S7.3,0.907,15,0.907
				 M15-0.093c-8.3,0-15,6.7-15,15s6.7,15,15,15s15-6.7,15-15S23.3-0.093,15-0.093L15-0.093z"/>
		</g>
	</g>
	
		<text id="XMLID_3016_" transform="matrix(1 0 0 1 5.3757 13.0622)" fill="#305FA0" font-family="'MicrosoftYaHei-Bold'" font-size="12px">O</text>
	
		<text id="XMLID_3015_" transform="matrix(1 0 0 1 14.6778 26.4296)" fill="#305FA0" font-family="'MicrosoftYaHei-Bold'" font-size="14px">T</text>
	
		<rect id="XMLID_3014_" x="-0.129" y="13.115" transform="matrix(0.7071 -0.7071 0.7071 0.7071 -5.662 13.9603)" fill="#305FA0" width="28.3" height="1.4"/>
</g>
</svg>
