<?xml version="1.0" encoding="utf-8"?>
<!-- Generator: Adobe Illustrator 21.0.0, SVG Export Plug-In . SVG Version: 6.00 Build 0)  -->
<svg version="1.1" id="Layer_1" xmlns="http://www.w3.org/2000/svg" xmlns:xlink="http://www.w3.org/1999/xlink" x="0px" y="0px"
	 width="30px" height="30px" viewBox="0 0 30 30" enable-background="new 0 0 30 30" xml:space="preserve">
<g id="XMLID_2928_">
	<g id="XMLID_2938_">
		<path id="XMLID_2941_" fill="#FFFFFF" d="M15,29.3c-8,0-14.5-6.5-14.5-14.5S7,0.3,15,0.3s14.5,6.5,14.5,14.5S23,29.3,15,29.3z"/>
		<g id="XMLID_2939_">
			<path id="XMLID_2940_" fill="#305FA0" d="M15,1c7.7,0,14,6.3,14,14s-6.3,14-14,14S1,22.7,1,15S7.3,1,15,1 M15,0C6.7,0,0,6.7,0,15
				s6.7,15,15,15s15-6.7,15-15S23.3,0,15,0L15,0z"/>
		</g>
	</g>
	<g id="XMLID_2929_">
		<polygon id="XMLID_2937_" fill="#305FA0" points="18.1,1.9 17.6,2.1 23.8,24 25,24 		"/>
		<polygon id="XMLID_2936_" fill="#305FA0" points="5,24 6.3,24 12.5,2.1 12,1.9 		"/>
		<polygon id="XMLID_2935_" fill="#305FA0" points="12.8,2.1 6.8,24 10.8,24 13.3,12 17,12 19.6,24 23.1,24 17.3,2.1 16,2.1 
			17.8,9.1 12.3,9.1 13.8,2.1 		"/>
		<polyline id="XMLID_2934_" fill="#305FA0" points="14.3,3.3 14.3,8.1 13.3,8.1 		"/>
		<polyline id="XMLID_2933_" fill="#305FA0" points="14.6,12.7 14.6,23.4 12,23.4 13.6,15 14,12.7 		"/>
		<polyline id="XMLID_2932_" fill="#305FA0" points="15.3,12.7 15.3,23.4 18.6,23.4 16.5,14.4 16,12.7 		"/>
		<polyline id="XMLID_2931_" fill="#305FA0" points="15.3,3.2 15.3,8 16.5,8 		"/>
		<line id="XMLID_2930_" fill="none" x1="14.3" y1="8.1" x2="13.3" y2="8.1"/>
	</g>
</g>
</svg>
