<?xml version="1.0" encoding="utf-8"?>
<!-- Generator: Adobe Illustrator 17.0.0, SVG Export Plug-In . SVG Version: 6.00 Build 0)  -->
<!DOCTYPE svg PUBLIC "-//W3C//DTD SVG 1.1//EN" "http://www.w3.org/Graphics/SVG/1.1/DTD/svg11.dtd">
<svg version="1.1" id="图层_1" xmlns="http://www.w3.org/2000/svg" xmlns:xlink="http://www.w3.org/1999/xlink" x="0px" y="0px"
	 width="30px" height="30px" viewBox="0 0 30 30" enable-background="new 0 0 30 30" xml:space="preserve">
<g>
	<polygon fill="#040000" points="18.155,11.336 15.586,18.5 19.266,18.5 21.835,11.336 	"/>
	<polygon fill="#040000" points="2.275,11.336 2.275,18.5 4.406,18.5 6.976,11.336 	"/>
	<polygon fill="#040000" points="27.917,11.336 25.604,11.336 23.035,18.5 27.917,18.5 	"/>
	<polygon fill="#040000" points="10.745,11.336 8.176,18.5 11.816,18.5 14.385,11.336 	"/>
	<polygon fill="#EADA29" points="6.976,11.336 4.406,18.5 8.176,18.5 10.745,11.336 	"/>
	<polygon fill="#EADA29" points="14.385,11.336 11.816,18.5 15.586,18.5 18.155,11.336 	"/>
	<polygon fill="#EADA29" points="21.835,11.336 19.266,18.5 23.035,18.5 25.604,11.336 	"/>
</g>
</svg>
