<?xml version="1.0" encoding="utf-8"?>
<!-- Generator: Adobe Illustrator 21.0.0, SVG Export Plug-In . SVG Version: 6.00 Build 0)  -->
<svg version="1.1" id="Layer_1" xmlns="http://www.w3.org/2000/svg" xmlns:xlink="http://www.w3.org/1999/xlink" x="0px" y="0px"
	 width="30px" height="30px" viewBox="0 0 30 30" enable-background="new 0 0 30 30" xml:space="preserve">
<g>
	<rect id="XMLID_1523_" x="19.8" y="10.9" fill="#305FA0" width="2.6" height="14.9"/>
	<polygon id="XMLID_1516_" fill="#305FA0" points="17.1,11.3 21.3,4.2 25.2,11.3 	"/>
	<path fill="#305FA0" stroke="#305FA0" stroke-width="0.2" stroke-miterlimit="10" d="M7.3,24.9C7.3,25,7.3,25,7.3,24.9l3.8,0.1
		c0,0,0.1,0,0.1-0.1c0,0,0-0.1-0.1-0.1L7.3,24.9C7.3,24.8,7.3,24.9,7.3,24.9z M6.9,24.9c0-0.3,0.2-0.5,0.5-0.5h3.8
		c0.2,0,0.5,0.2,0.5,0.5s-0.2,0.5-0.5,0.5H7.4C7.1,25.4,6.9,25.2,6.9,24.9z M8.9,22.6v2.1h0.6v-2.1C9.6,22.6,8.9,22.6,8.9,22.6z
		 M8.5,11.8c-0.1,0-0.3,0.1-0.5,0.3c-0.3,0.2-0.5,0.6-0.5,1.1c0,0.2,0,0.4,0,0.6v0.6c0,0.1,0.1,0.2,0.2,0.2s0.2-0.1,0.2-0.2v-0.3
		v-0.3c0-0.2,0-0.4,0-0.6c0-0.4,0.2-0.6,0.4-0.8c0.1-0.1,0.2-0.1,0.2-0.1h0.1c0.1,0,0.2-0.1,0.1-0.2C8.7,11.8,8.6,11.7,8.5,11.8z
		 M7.5,15.2v0.4c0,0.1,0.1,0.2,0.2,0.2s0.2-0.1,0.2-0.2l0,0v-0.4c0-0.1-0.1-0.2-0.2-0.2S7.5,15.1,7.5,15.2z M5.4,18.6
		c0,2.1,1.7,3.9,3.7,3.9c2.1,0,3.7-1.7,3.7-3.9v-1.3c0,0,0-0.2,0.2-0.2s0.2,0.2,0.2,0.2v1.3c0,2.4-1.9,4.3-4.2,4.3S4.8,21,4.8,18.6
		v-1.3c0,0,0-0.2,0.2-0.2s0.2,0.2,0.2,0.2L5.4,18.6L5.4,18.6z M5.4,18.6c0,2.1,1.7,3.9,3.7,3.9c2.1,0,3.7-1.7,3.7-3.9v-1.3h0.4v1.3
		c0,2.4-1.9,4.3-4.2,4.3S4.8,21,4.8,18.6v-1.3h0.4v1.3H5.4z M6.9,13.3v5.8c0,1.2,1,2.2,2.1,2.2c1.2,0,2.1-1,2.1-2.2v-5.8
		c0-1.2-1-2.2-2.1-2.2S6.9,12.1,6.9,13.3z M6.6,13.3c0-1.4,1.1-2.6,2.5-2.6s2.5,1.1,2.5,2.6v5.8c0,1.4-1.1,2.6-2.5,2.6
		s-2.5-1.1-2.5-2.6C6.6,19,6.6,13.3,6.6,13.3z"/>
	<path fill="#305FA0" d="M14.9,14.5c-0.1,0.1-0.4,0.1-0.5,0s-0.1-0.4,0-0.5c1.3-1.2,1.3-3.3,0-4.5c-0.1-0.1-0.1-0.4,0-0.5
		s0.4-0.1,0.5,0C16.5,10.5,16.5,13,14.9,14.5z"/>
	<path fill="#305FA0" d="M13.9,13.7c-0.1,0.1-0.4,0.1-0.5,0s-0.1-0.4,0-0.5c0.8-0.8,0.8-2.2,0-3c-0.1-0.1-0.1-0.4,0-0.5
		s0.4-0.1,0.5,0C15,10.8,15,12.6,13.9,13.7z"/>
	<path fill="#305FA0" d="M13,13c-0.1,0.1-0.4,0.1-0.5,0s-0.1-0.4,0-0.5c0,0,0.1-0.1,0.1-0.2c0.2-0.4,0.2-0.8,0-1.2
		c0-0.1-0.1-0.1-0.1-0.2c-0.1-0.1-0.1-0.4,0-0.5s0.4-0.1,0.5,0C13.7,11.2,13.7,12.3,13,13z"/>
</g>
</svg>
