<?xml version="1.0" encoding="utf-8"?>
<!-- Generator: Adobe Illustrator 21.0.0, SVG Export Plug-In . SVG Version: 6.00 Build 0)  -->
<svg version="1.1" id="Layer_1" xmlns="http://www.w3.org/2000/svg" xmlns:xlink="http://www.w3.org/1999/xlink" x="0px" y="0px"
	 width="30px" height="30px" viewBox="0 0 30 30" enable-background="new 0 0 30 30" xml:space="preserve">
<g>
	<g id="XMLID_3292_">
		<path fill="#FFFFFF" d="M15,29.5C7.005,29.5,0.5,22.995,0.5,15S7.005,0.5,15,0.5S29.5,7.005,29.5,15S22.995,29.5,15,29.5z"/>
		<path fill="#DB915A" d="M15,1c7.72,0,14,6.28,14,14s-6.28,14-14,14S1,22.72,1,15S7.28,1,15,1 M15,0C6.716,0,0,6.716,0,15
			s6.716,15,15,15s15-6.716,15-15S23.284,0,15,0L15,0z"/>
	</g>
	<path id="XMLID_3291_" fill="#EDEDED" d="M23.9,25.3H6L8.2,3.2h13.5L23.9,25.3z"/>
	<path id="XMLID_3290_" fill="#E47200" d="M6,25.6L6,25.6c-0.2,0-0.3-0.2-0.3-0.4L7.9,3.1c0-0.2,0.2-0.3,0.3-0.3S8.5,3,8.5,3.2
		L6.3,25.3C6.4,25.5,6.2,25.6,6,25.6z"/>
	<path id="XMLID_3289_" fill="#E47200" d="M24,25.6c-0.2,0-0.3-0.1-0.3-0.3L21.5,3.2c0-0.2,0.1-0.3,0.3-0.4s0.3,0.1,0.3,0.3
		l2.2,22.1C24.4,25.4,24.2,25.6,24,25.6L24,25.6z"/>
	<path id="XMLID_3288_" fill="#E47200" d="M14.9,2.4c-0.2,0-0.3,0-0.3-0.1V0.9c0,0,0.1-0.1,0.3-0.1s0.3,0,0.3,0.1v1.4
		C15.2,2.4,15.2,2.4,14.9,2.4z"/>
	<path id="XMLID_3287_" fill="#E47200" d="M14.9,6c-0.2,0-0.3,0-0.3-0.1V4.5c0,0,0.1-0.1,0.3-0.1s0.3,0,0.3,0.1v1.4
		C15.2,6,15.2,6,14.9,6z"/>
	<path id="XMLID_3286_" fill="#E47200" d="M14.9,28.4c-0.2,0-0.3,0-0.3-0.1v-1.5c0,0,0.1-0.1,0.3-0.1s0.3,0,0.3,0.1v1.5
		C15.2,28.4,15.2,28.4,14.9,28.4z"/>
	<path id="XMLID_3285_" fill="#E47200" d="M14.9,24.6c-0.2,0-0.3,0-0.3-0.1V23c0,0,0.1-0.1,0.3-0.1s0.3,0,0.3,0.1v1.5
		C15.2,24.6,15.2,24.6,14.9,24.6z"/>
	<g id="XMLID_3282_">
		<g id="XMLID_3283_">
			
				<text id="XMLID_3284_" transform="matrix(1 0 0 1 8.4567 18.3285)" fill="#E47200" font-family="'MicrosoftYaHei-Bold'" font-size="12.7911px">特</text>
		</g>
	</g>
</g>
</svg>
