<?xml version="1.0" encoding="utf-8"?>
<!-- Generator: Adobe Illustrator 19.0.0, SVG Export Plug-In . SVG Version: 6.00 Build 0)  -->
<svg version="1.1" id="图层_1" xmlns="http://www.w3.org/2000/svg" xmlns:xlink="http://www.w3.org/1999/xlink" x="0px" y="0px"
	 width="30px" height="30px" viewBox="0 0 30 30" enable-background="new 0 0 30 30" xml:space="preserve">
<g id="XMLID_1_">
	<g id="XMLID_2191_">
		<g id="XMLID_2192_">
			<path id="XMLID_2193_" fill="#FFFFFF" stroke="#FF001F" stroke-miterlimit="10" d="M15,0.5C7,0.5,0.5,7,0.5,15S7,29.5,15,29.5
				S29.5,23,29.5,15S23,0.5,15,0.5L15,0.5z"/>
		</g>
	</g>
	<path id="XMLID_2190_" fill="#232323" d="M23.5,23.09998v-1.20001c0-0.79999-0.69995-1.5-1.5-1.5h-8.80005
		c-1.19995,0-1.80005,0.59998-1.80005,1.40002V23.5c0,0.90002,0.59998,1.29999,1.80005,1.29999h8.90002
		C22.80005,24.79999,23.5,24.29999,23.5,23.09998z M21.59998,23.29999h-8.69995c-0.09998,0-0.09998,0-0.09998-0.09998v-1
		c0-0.09998,0-0.09998,0.09998-0.09998h8.69995c0.09998,0,0.09998,0,0.09998,0.09998L21.59998,23.29999
		C21.80005,23.09998,21.80005,23.29999,21.59998,23.29999z"/>
	<path id="XMLID_2189_" fill="#232323" d="M19.80005,16.29999h-3.5h-0.09998L7.80005,4.59998c0,0-0.09998-0.09998-0.19995,0
		l-1.69995,1c-0.09998,0-0.09998,0.09998,0,0.20001l0.5,0.90002c0,0,0,0,0,0.09998v5.09998c0,0.09998,0,0.09998-0.09998,0.09998
		H6.00012c-0.09998,0-0.09998,0.09998-0.09998,0.09998l0.40002,2.59998c0,0.09998,0.09998,0.09998,0.09998,0.09998h0.09998l0,0
		v0.79999c0,0,0,0.09998-0.09998,0.09998c-0.30005,0.20001-0.69995,0.5-0.69995,1.09998c0,0.40002,0.09998,0.70001,0.30005,0.90002
		c0,0,0,0.09998,0,0.20001l-1.90002,1.59998c-0.09998,0.09998,0,0.20001,0.09998,0.20001h0.30005h0.09998l1.90002-1.59998h0.09998
		c0.19995,0.09998,0.30005,0.09998,0.5,0.09998s0.30005,0,0.5-0.09998H7.7002l2,1.59998c0,0,0,0,0.09998,0h0.19995
		c0.09998,0,0.19995-0.20001,0.09998-0.20001L8.00012,17.7998c0,0-0.09998-0.09998,0-0.20001
		c0.09998-0.20001,0.19995-0.40002,0.19995-0.70001c0-0.20001-0.19995-0.40002-0.40002-0.40002
		c-0.19995,0-0.40002,0.20001-0.40002,0.40002c0,0.09998,0,0.09998,0,0.09998c0,0.09998-0.09998,0.09998-0.19995,0.09998l0,0
		c-0.09998-0.09998-0.19995-0.09998-0.30005,0l-0.09998,0.09998H6.70007c-0.09998-0.09998-0.19995-0.20001-0.19995-0.40002
		c0-0.40002,0.40002-0.5,0.40002-0.5c0.19995,0,0.30005-0.20001,0.30005-0.40002v-1c0-0.09998,0-0.09998,0.09998-0.09998h0.19995
		H7.6001c0.09998,0,0.09998,0,0.09998-0.09998l0.5-2.59998c0-0.09998,0-0.09998-0.09998-0.09998H7.80005H7.70007
		c-0.09998,0-0.09998,0-0.09998-0.09998V9.49976c0-0.09998,0.19995-0.20001,0.19995-0.09998l4.59998,8.90002c0,0,0,0,0,0.09998l0,0
		v0.09998v0.20001c0,0.09998,0,0.09998,0.09998,0.09998h1.40002c0.09998,0,0.09998,0,0.09998,0.09998v0.59998
		c0,0.09998,0,0.09998,0.09998,0.09998h5.59998l0,0 M13,13.09998L13,13.09998L11.69995,14C11.59998,14.09998,11.5,14,11.5,13.90002
		l0.59998-1.70001c0-0.09998,0.09998-0.09998,0.19995,0L13,13.09998z M7.20007,11.69995
		C7.20007,11.79999,7.20007,11.79999,7.20007,11.69995l-0.19995,0.09998H6.90015c-0.09998,0-0.09998,0-0.09998-0.09998V7.79993
		c0-0.09998,0.19995-0.20001,0.19995-0.09998l0.19995,0.29999c0,0,0,0,0,0.09998V11.69995L7.20007,11.69995z M7.30005,7.39996
		l-0.5-0.90002c0-0.09998,0-0.09998,0-0.20001l0.80005-0.5c0.09998-0.09998,0.19995,0,0.19995,0.09998L7.5,7.3999
		C7.5,7.5,7.5,7.5,7.30005,7.39996z M8.59998,6.79999l0.59998,1c0,0.09998,0,0.09998,0,0.20001L8.29993,8.59998
		c-0.09998,0.09998-0.19995,0-0.19995-0.09998L8.5,6.90002C8.5,6.69995,8.5,6.69995,8.59998,6.79999z M8.80005,9.39996
		l0.90002-0.59998c0.09998-0.09998,0.19995,0,0.19995,0.09998l-0.30005,1.5c0,0.09998-0.19995,0.09998-0.19995,0L8.80005,9.39996
		C8.59998,9.5,8.59998,9.39996,8.80005,9.39996z M10.5,9.59998l0.69995,1c0,0.09998,0,0.09998,0,0.20001l-1,0.59998
		C10.09998,11.49994,10,11.39996,10,11.29999l0.30005-1.59998C10.30005,9.5,10.30005,9.5,10.5,9.59998z M10.30005,12.39996
		l1.09998-0.70001c0.09998-0.09998,0.19995,0,0.19995,0.09998L11,13.3999c0,0.09998-0.19995,0.09998-0.19995,0L10.30005,12.39996
		C10.20007,12.5,10.30005,12.39996,10.30005,12.39996z M12.30005,16.09998l-0.5-1c0,0,0-0.09998,0-0.20001l1.30005-1
		c0.09998-0.09998,0.19995,0,0.19995,0.09998L12.5,15.89996C12.30005,16.29999,12.30005,16.29999,12.30005,16.09998z M13,16.79999
		l1-2.09998c0-0.09998,0.09998-0.09998,0.19995,0L15,15.79999c0,0.09998,0,0.09998,0,0.20001l-1.69995,1
		C13,17,13,16.89996,13,16.79999z"/>
	<path id="XMLID_2188_" fill="#232323" d="M4.20007,22H3.90002c-0.09998,0-0.09998,0-0.09998,0.09998v0.59998
		c0,0.09998,0,0.09998,0.09998,0.09998h6.30005c0.09998,0,0.09998,0,0.09998-0.09998v-0.59998c0-0.09998,0-0.09998-0.09998-0.09998
		H9.6001c-0.09998,0-0.09998,0-0.09998-0.09998v-0.70001v-0.29999c0-0.09998,0-0.09998,0.09998-0.09998h0.59998
		c0.09998,0,0.09998,0,0.09998-0.09998V20.1001c0-0.09998,0-0.09998-0.09998-0.09998H3.90002c-0.09998,0-0.09998,0-0.09998,0.09998
		v0.59998c0,0.09998,0,0.09998,0.09998,0.09998H4.5c0.09998,0,0.09998,0,0.09998,0.09998v1C4.59998,22,4.59998,22,4.5,22H4.20007z"
		/>
	<path id="XMLID_2187_" fill="#232323" d="M10.80005,13.5L10.80005,13.5L10.80005,13.5z"/>
	<g id="XMLID_2_">
		<path id="XMLID_5_" fill="#FFFFFF" stroke="#FF0000" stroke-miterlimit="10" d="M18.67606,4.08252
			c2.57178,0,4.67606,2.10422,4.67606,4.67606s-2.10428,4.67606-4.67606,4.67606S14,11.33041,14,8.75858
			S15.98741,4.08252,18.67606,4.08252"/>
		<rect id="XMLID_4_" x="17.97468" y="5.83604" fill="#FF0000" width="1.16901" height="3.50704"/>
		<rect id="XMLID_3_" x="18.55918" y="8.17407" fill="#FF0000" width="3.50704" height="1.16901"/>
	</g>
</g>
</svg>
