<?xml version="1.0" encoding="utf-8"?>
<!-- Generator: Adobe Illustrator 21.0.0, SVG Export Plug-In . SVG Version: 6.00 Build 0)  -->
<svg version="1.1" id="Layer_1" xmlns="http://www.w3.org/2000/svg" xmlns:xlink="http://www.w3.org/1999/xlink" x="0px" y="0px"
	 width="30px" height="30px" viewBox="0 0 30 30" enable-background="new 0 0 30 30" xml:space="preserve">
<g>
	<g id="XMLID_3232_">
		<path fill="#305FA0" d="M15,1c7.72,0,14,6.28,14,14s-6.28,14-14,14S1,22.72,1,15S7.28,1,15,1 M15,0C6.716,0,0,6.716,0,15
			s6.716,15,15,15s15-6.716,15-15S23.284,0,15,0L15,0z"/>
	</g>
	<rect id="XMLID_3231_" x="17" y="5.3" fill="#AFAFAF" width="8.2" height="19"/>
	<rect id="XMLID_3230_" x="16.9" y="5.3" fill="#7F7F7F" width="0.5" height="19"/>
	<rect id="XMLID_3229_" x="24.8" y="5.3" fill="#7F7F7F" width="0.5" height="19"/>
	<g id="XMLID_3224_">
		<g id="XMLID_3225_">
			<line id="XMLID_3228_" fill="none" stroke="#FFFFFF" stroke-miterlimit="10" x1="21.1" y1="5.5" x2="21.1" y2="7"/>
			
				<line id="XMLID_3227_" fill="none" stroke="#FFFFFF" stroke-miterlimit="10" stroke-dasharray="3.1688,3.1688,3.1688,3.1688" x1="21.1" y1="10.2" x2="21.1" y2="21.3"/>
			<line id="XMLID_3226_" fill="none" stroke="#FFFFFF" stroke-miterlimit="10" x1="21.1" y1="22.9" x2="21.1" y2="24.4"/>
		</g>
	</g>
	<path id="XMLID_3223_" fill="#305FA0" d="M18.1,18.6v-1.2h4.2v1.3L18.1,18.6L18.1,18.6z M16.4,18.6h-3.1c-0.3,0-0.4-0.1-0.5-0.2
		c-0.1-0.1-0.1-0.1-0.2-0.2l-1.1-0.8v1.8H6.6v-3.6c0-0.8,0.2-1.2,1.1-1.2h2.6c0.7,0,1.2,0.4,1.4,0.9c0,0,0.1,0.1,0.2,0.2l1.8,1.7
		c0.1,0.1,0.1,0.1,0.1,0.1h2.3c0.4,0,0.7,0.3,0.7,0.6C16.9,18.2,16.6,18.6,16.4,18.6L16.4,18.6z M11.3,12c0,1.1-0.9,2-2.1,2
		s-2.1-0.9-2.1-2s0.9-2,2.1-2C10.3,10,11.3,10.8,11.3,12L11.3,12z M13.3,7.7H4.8v13.9h8.5v-2.4h0.6v3.1H3.6V7.1h10.3v3.6h-0.6V8.1
		V7.7L13.3,7.7z"/>
</g>
</svg>
