<?xml version="1.0" encoding="utf-8"?>
<!-- Generator: Adobe Illustrator 21.0.0, SVG Export Plug-In . SVG Version: 6.00 Build 0)  -->
<svg version="1.1" id="Layer_1" xmlns="http://www.w3.org/2000/svg" xmlns:xlink="http://www.w3.org/1999/xlink" x="0px" y="0px"
	 width="30px" height="30px" viewBox="0 0 30 30" enable-background="new 0 0 30 30" xml:space="preserve">
<g id="XMLID_3868_">
	<g id="XMLID_3887_">
		<path id="XMLID_3892_" fill="#FFFFFF" d="M14.9,29.3c-8,0-14.5-6.5-14.5-14.5S6.9,0.3,14.9,0.3s14.5,6.5,14.5,14.5
			S22.9,29.3,14.9,29.3z"/>
		<g id="XMLID_3888_">
			<path id="XMLID_3891_" fill="#305FA0" d="M15,1c7.7,0,14,6.3,14,14s-6.3,14-14,14S1,22.7,1,15S7.4,1,15,1 M15,0C6.7,0,0,6.7,0,15
				s6.7,15,15,15s15-6.7,15-15S23.4,0,15,0L15,0z"/>
		</g>
	</g>
	<g id="XMLID_3884_">
		<rect id="XMLID_3886_" x="14" y="9" fill="#305FA0" width="2.3" height="18.7"/>
		<polygon id="XMLID_3885_" fill="#305FA0" points="11,9.4 15.3,2.3 19.1,9.4 		"/>
	</g>
	<rect id="XMLID_3883_" x="3.5" y="12.4" fill="#305FA0" width="23.3" height="8.4"/>
	<g id="XMLID_3872_">
		<g id="XMLID_3881_">
			<g enable-background="new    ">
				<path fill="#FFFFFF" d="M11.7,18.7l-0.3,0.8c-0.8,0-1.5,0-2.1,0H7.9c-0.2,0-0.5-0.1-0.7-0.2s-0.5-0.2-0.6-0.4l-0.7,0.8l-0.4-1
					l0.6-0.5v-1.7H5.5v-0.8h1.3v2.6c0.3,0.4,0.7,0.5,1.4,0.5C9.7,18.7,10.8,18.7,11.7,18.7z M6.3,13.4c0.4,0.5,0.7,0.9,0.9,1.1
					c-0.3,0.2-0.5,0.4-0.7,0.5c-0.3-0.5-0.6-0.9-0.8-1.2L6.3,13.4z M7.5,15.1h1.3l0.1-0.4H7.3V14h0.9l-0.4-0.5l0.8-0.2L9,14h0.7
					c0.1-0.2,0.2-0.5,0.3-0.7l0.9,0.2c-0.1,0.2-0.2,0.3-0.4,0.5h1v0.7H9.7l-0.1,0.4h1.7v3.3H7.5V15.1z M10.5,15.7H8.2V16h2.3V15.7z
					 M8.2,16.9h2.3v-0.3H8.2V16.9z M10.5,17.7v-0.4H8.2v0.4H10.5z"/>
				<path fill="#FFFFFF" d="M12.2,13.8h2.2v1.1c0.4-0.4,0.7-0.9,1-1.4l0.9,0.1c-0.1,0.2-0.2,0.4-0.3,0.5h1.9v0.7
					c-0.2,0.5-0.5,0.9-0.9,1.2c0.3,0.1,0.7,0.2,1.2,0.3c-0.1,0.2-0.2,0.5-0.2,0.8c-0.6-0.1-1.2-0.3-1.7-0.6c-0.5,0.3-1,0.4-1.7,0.6
					c-0.1-0.2-0.2-0.5-0.3-0.7c0.5-0.1,0.9-0.2,1.3-0.4c-0.2-0.2-0.4-0.4-0.5-0.6c-0.1,0.1-0.2,0.2-0.3,0.3
					c-0.1-0.1-0.2-0.2-0.3-0.4V16h-0.6v0.8h0.5v0.7h-0.5v0.9l0.7-0.1c0,0.1,0,0.4,0,0.8l-2.5,0.4L12,18.6h0.2v-2.2h0.6v2.1h0.4V16
					h-0.9v-2.2H12.2z M13,15.2h0.6v-0.7H13V15.2z M14.8,19.6V17h2.9v2.6h-0.8v-0.3h-1.4v0.3H14.8z M16.2,15.6
					c0.3-0.2,0.5-0.5,0.7-0.8h-1.4C15.7,15.1,15.9,15.3,16.2,15.6z M16.9,17.8h-1.4v0.7h1.4V17.8z"/>
				<path fill="#FFFFFF" d="M19.4,19.6v-2.1c-0.2,0.1-0.4,0.1-0.7,0.2c-0.1-0.2-0.2-0.5-0.4-0.8c0.9-0.2,1.6-0.4,2.3-0.7
					c-0.3-0.2-0.6-0.4-0.8-0.5l0.6-0.6c0.3,0.2,0.7,0.4,1,0.7c0.5-0.3,0.9-0.6,1.3-0.9h-2.5c-0.4,0.4-0.8,0.8-1.3,1.1
					c-0.1-0.2-0.3-0.4-0.6-0.6c0.8-0.5,1.4-1.2,1.9-1.9l1,0.1c-0.1,0.2-0.2,0.4-0.3,0.6H24V15c-0.6,0.7-1.5,1.3-2.6,1.9H24v2.9h-0.9
					v-0.3h-2.9v0.3h-0.8V19.6z M23.1,17.5h-2.9v1h2.9V17.5z"/>
			</g>
		</g>
	</g>
</g>
</svg>
