<?xml version="1.0" encoding="utf-8"?>
<!-- Generator: Adobe Illustrator 21.0.0, SVG Export Plug-In . SVG Version: 6.00 Build 0)  -->
<svg version="1.1" id="Layer_1" xmlns="http://www.w3.org/2000/svg" xmlns:xlink="http://www.w3.org/1999/xlink" x="0px" y="0px"
	 width="30px" height="30px" viewBox="0 0 30 30" enable-background="new 0 0 30 30" xml:space="preserve">
<g>
	<g id="XMLID_3414_">
		<path id="XMLID_3417_" fill="#FFFFFF" d="M15,29.8c-8,0-14.5-6.5-14.5-14.5S7,0.8,15,0.8s14.5,6.5,14.5,14.5S23,29.8,15,29.8z"/>
		<g id="XMLID_3415_">
			<path id="XMLID_3416_" fill="#305FA0" d="M15,1c7.7,0,14,6.3,14,14s-6.3,14-14,14S1,22.7,1,15S7.3,1,15,1 M15,0C6.7,0,0,6.7,0,15
				s6.7,15,15,15s15-6.7,15-15S23.3,0,15,0L15,0z"/>
		</g>
	</g>
	<g>
		<polygon fill="#305FA0" points="23,9 24.1,7.1 25.3,9 25.3,9.2 26.3,9.2 26.3,11.6 25.3,11.6 25.3,19 26.3,19 26.3,21.5 
			25.3,21.5 25.3,22.9 23,22.9 23,21.5 20.7,21.5 20.7,22.9 18.4,22.9 18.4,21.5 16.2,21.5 16.2,22.9 13.9,22.9 13.9,21.5 
			11.6,21.5 11.6,22.9 9.3,22.9 9.3,21.5 7.1,21.5 7.1,22.9 4.8,22.9 4.8,21.5 3.8,21.5 3.8,19 4.8,19 4.8,11.6 3.8,11.6 3.8,9.2 
			4.8,9.2 4.8,9 5.9,7.1 7.1,9 7.1,9.2 9.4,9.2 9.4,9 10.4,7.1 11.6,9 11.6,9.2 13.9,9.2 13.9,9 15,7.1 16.2,9 16.2,9.2 18.5,9.2 
			18.5,9 19.6,7.1 20.7,9 20.7,9.2 23,9.2 		"/>
		<polygon fill="#FFFFFF" points="23,19 23,11.6 20.7,11.6 20.7,19 		"/>
		<polygon fill="#FFFFFF" points="18.4,19 18.4,11.6 16.2,11.6 16.2,19 		"/>
		<polygon fill="#FFFFFF" points="13.9,19 13.9,11.6 11.6,11.6 11.6,19 		"/>
		<polygon fill="#FFFFFF" points="9.3,19 9.3,11.6 7.1,11.6 7.1,19 		"/>
	</g>
</g>
</svg>
