<?xml version="1.0" encoding="utf-8"?>
<!-- Generator: Adobe Illustrator 21.0.0, SVG Export Plug-In . SVG Version: 6.00 Build 0)  -->
<svg version="1.1" id="Layer_1" xmlns="http://www.w3.org/2000/svg" xmlns:xlink="http://www.w3.org/1999/xlink" x="0px" y="0px"
	 width="30px" height="30px" viewBox="0 0 30 30" enable-background="new 0 0 30 30" xml:space="preserve">
<g>
	<g id="XMLID_1600_">
		<path fill="#FFFFFF" d="M15,29.5C7.005,29.5,0.5,22.995,0.5,15S7.005,0.5,15,0.5S29.5,7.005,29.5,15S22.995,29.5,15,29.5z"/>
		<path fill="#DB915A" d="M15,1c7.72,0,14,6.28,14,14s-6.28,14-14,14S1,22.72,1,15S7.28,1,15,1 M15,0C6.716,0,0,6.716,0,15
			s6.716,15,15,15s15-6.716,15-15S23.284,0,15,0L15,0z"/>
	</g>
	<g id="XMLID_1049_">
		<g id="XMLID_1437_">
			<g enable-background="new    ">
				<path fill="#E47200" d="M16.9,9.4c1.8,0.7,3.4,1.3,5,1.9l-0.7,1.2H23v1.8h-8.4v1h7.1v1.8h-7.1v1h7.6v1.8h-7.6v2.4h-2.2v-8H12
					c-1.1,1.3-2.4,2.4-3.9,3.4c-0.3-0.5-0.8-1.1-1.4-1.9c1.9-1,3.4-2.2,4.5-3.6c-0.8,0.3-1.6,0.6-2.4,1c-0.3-0.5-0.6-1.1-1-1.8
					c2.2-0.6,3.9-1.3,5.3-2l1.1,1.5c-0.6,0.3-1.2,0.5-1.8,0.8h1.5c-0.2,0.3-0.4,0.6-0.6,0.8h6.5c-1.1-0.5-2.5-1-4-1.6L16.9,9.4z
					 M15.9,5.9c0.2,0.5,0.4,1,0.5,1.5h6.5v3.5h-2.1V9.3H9.5v1.6H7.4V7.4H14c-0.1-0.4-0.3-0.8-0.4-1.2L15.9,5.9z"/>
			</g>
		</g>
	</g>
</g>
</svg>
