<?xml version="1.0" encoding="utf-8"?>
<!-- Generator: Adobe Illustrator 17.0.0, SVG Export Plug-In . SVG Version: 6.00 Build 0)  -->
<!DOCTYPE svg PUBLIC "-//W3C//DTD SVG 1.1//EN" "http://www.w3.org/Graphics/SVG/1.1/DTD/svg11.dtd">
<svg version="1.1"
	 id="svg2203" inkscape:output_extension="org.inkscape.output.svg.inkscape" sodipodi:version="0.32" sodipodi:docbase="D:\SVG\闂傚倸鍊搁崐鎼佸磹閹间礁纾归柟闂寸绾惧綊鏌熼梻瀵哥痪鎯х秺閺岀喖姊荤€靛摜鐥幆褏绉洪柡宀€鍠栧鑽も偓闈涙憸閻ュ箚瑜忕粔娲煛瀹€鈧崰鏍ч懡銈傚亾闂堟稒鎲搁柣銉ョ畾鐟滃繒绮斿ú鐓涚€光偓閳у窗閺嵮囨嚒閵堝倸浜鹃梻鍫熺⊕閹叉悂鏌ｉ妷銉х暰閻熸粌绻掔划鏂棵洪悡娑氣偓鍏夊亾闁逞冪獥闁哄诞鍥ㄥ殥闁靛牆鍊告禍楣冩⒒閸喓鈯曢柟鍙夋倐閺岋綁濡烽妷褔鎮峰鍐弰鐎规洜鏁婚崺鈧慨濠呮閹风娀骞撻幒鎴炵槪缂傚倷绀佸鍫曞磿閹惰姤鍋╅柣鎴ｆ缁犳煠閹帒鍔楅柟鐤缁辨捇宕掑▎鎴濆闂佹寧娲忛崹钘夋繝姘嵆闁靛繒濮撮懓鍨攽閳╁啴鏌ｉ悢鏉戝婵﹦绮幏鍛存偡閹电＜閻犲洦褰冮埀娼￠悰绻濋崒鐐插耿婵炲棙鍨垫鍕⒒娴ｅ憡鎯堟繛灞傚姂瀹曟澘閸ャ劌搴婇梺绯曞墲缁嬫帡鎮¤箛娑欑厱缂佽鍟撮獮鏍箛閺夎法鏌堥梺褰掓？閻掞箓鍩涢幋鐘电＜閻庯絽浠撮悗瑙勬礃閸ㄦ寧淇婇懜闈涚窞濠电姴瀚弳鏌ｉ悢鍝ョ煁婵″暣閻涘礃閻撴盯鏌涘☉娆撴⒑鐠囨彃缁炬澘绉堕崰濠傞崶銊ュ簥濠电偞鍨崹鍦棯瑜旈弻鐔衡偓鐢垫禒褏绱掗埦鈧崑鎾绘⒒娴ｅ湱婀介柛銊ㄦ鐟滃海绮嬮幒鎴﹀礋缁犳岸姊洪懡銈呮毐闁哄懏鐩幃鎯х暋閹佃櫕鏂€闁诲函绲界粊姊绘笟鈧褏鎹㈤幒鎾村弿闁绘垼濮ら埛鎺懨归敐鍛暈闁哥喓鍋熺槐鎺斺偓锝囦紝闂佽銇濆┑鈩冩倐閸┾剝鎷呴崫鍕疄闂傚倷鑳堕柟缁樷挃闁告洜鍘遍梺鍦劋闁绘挻娲熼弻娑㈡偐閾忕３婵犵鍓濋幐鎶界嵁閹烘绫嶉柛灞剧玻缁辨煡姊绘担铏瑰笡閽冭京鎲搁弶鍨殻鐎靛▕閺屽棗閸℃瑥甯楅梺鑽ゅ枑閻熴儳鈧碍鍊堕悗鐢电《閸嬫捇妫冨☉妯衡攽閻愰潧甯剁紒缁橈耿瀹曟椽鏁撻悩鑼梺鍛婃煥缂嶅﹤缂佹ɑ濯撮柛娑橈龚绾偓闂備胶缁ㄦ椽宕愬┑瀣摕婵炴垯鍨瑰洿闂佸憡绋掗梻鍌欑閹兼嚐缁棃鎮烽幍娈鹃悗瑙勬礈閸犲酣鍩㈤幘璇查唶闁哄洨鍟块幏娲⒑閸γ归悜钘夌厐闁哄洨濮风壕濂告偣閸ャ劌绲婚柡鍡欏枛閺岀喖鐛崹浠奸梺瀹犳闁宠閰ｉ獮鍥€撮梻鍌氬€风粈渚€骞夐敓鐘茬闁糕剝绋戠粈鍐棯閹规劖闂囧鏌ㄥ┑鍡樻悙闁告柨閺屾盯鏁愰崟绁梺褰掑箟閹剧婵＄墕閳规垿鎮欓弶鎴犵シ婵炲瓨绮嶉柍瑙勫灴閹瑩宕ｆ径鎰厵缂佸娼￠獮鍐晸閻樻彃宓嗛梺缁樻濞咃綁姊绘担鐑樺殌闂佺瀛╅崹鍨暦濡ゅ懎钃熼柨鐔哄Т閻掔數绱掔紒妯肩畵闂佸憡妞村摜鎹㈠┑瀣仺闂傚牊鍒€閵忋倖鐓曢柣鏃傚鍧楁倵楠炲灝鍔氶梺" sodipodi:docname="闂傚倸鍊搁崐鎼佸磹閹间礁纾归柟闂寸绾惧綊鏌熼梻瀵哥痪鎯х秺閺岀喖姊荤€靛摜鐥幆褏绉洪柡宀€鍠栧鑽も偓闈涙憸閻ュ箚瑜忕粔娲煛瀹€鈧崰鏍ч懡銈傚亾闂堟稒鎲搁柣銉ョ畾鐟滃繒绮斿ú鐓涚€光偓閳у窗閺嵮囨嚒閵堝倸浜鹃梻鍫熺⊕閹叉悂鏌ｉ妷銉х暰閻熸粌娴烽幏褰掓晸閻樺磭鍘撻悷婊冮叄瀹曠敻鍩€閺岋絾鎯旈姀锝呴梻鍌氬€诲Λ鏌熼崟鎲搁悧鍫濈瑲闁绘挻鐟╅弻锝夊箣閻忕粯鍊堕柍鍝勬噺閻撴洖鈹戦悩鎻掑ù鐘洪哺閹便劍绻濋崘鈹夸虎閻庤娲栫粈瀣箾閸啿鎷虹紓鍌欑劍閿曘垽寮崘鍋╅柣鎴ｆ缁狅綁鏌ㄩ弴妤€浜剧紓浣哄У閻╁蓟閿濆憘鏃堝焵閹嗙疀濞戞ê鍋嶉梺鍛婇崑鎰板绩娴犲鐓熼柟鎵獓缂傚倸鍊烽懗鍓佸垝閺佸姊烘导娆戠М闁衡偓鏉堚斁鍋撻棃娑栧仮鐎电埣楠炲鎮╅崹绶紓鍌氬€烽懗鍫曞磻閹惧磭鏆︽俊缍嶅☉銏犵缂佺姵甯″缁樻媴閻熸壆绱掔拠鎻掆偓姝岀亱濠德板€曢幊蹇涘磹鐠鸿　鏀介柣妯哄级婢跺嫰鏌ｉ幘瀛樼闁逛究鍔岃灒闁告繂瀚悿鍕⒒閸屾瑦绁伴梺鍛婂灩閺呮繝鍐檮缂佸娉曢梻浣虹帛閸ㄥ吋鎱ㄩ妶澶婄厱闁硅揪闄勯悡鐔兼煟閺冨倿姊烘导娆戠ɑ闁绘挻娲熼弻鏇熺箾閸ㄥБ缂備礁濡炰粙寮诲☉銏犵厸闁告劑鍔嬪Σ鎰旈悩闈涗粶闂佽娅嗙紒鍌氱У閵堬綁宕橀埡鍐ㄥ汲婵犵數濞€濞佳兾涘☉姘变笉闁规儼妫勭粻褰掓煛婢跺鐓€鐎规悶鍎甸弻宥囨喆閸曚紝闂佽娅婄€规洜鎳撹闁告洜鐦堥梺鎼炲妼閺€姊绘担鑺ャ€冪紒鈧笟鈧畷鈧稒眉缁诲棝鏌ら幖浣规锭缂佸墎鍋涢埞鎴︽偐閹绘帡鏌＄€ｆ殻婵﹦绮幏鍛存嚍閵壯呭骄闂佺硶鍓濊摫婵炲懐濮垫穱濠囧Χ閸涙闂佹眹鍊曟晶鐣屾閹烘梻纾兼俊鍋愰悾铏圭磽娴ｈ櫣甯涚紒璇茬墕閻ｇ兘骞掗幋锔藉仾濞撴埃鍋撴慨濠勭帛閹峰懏鎱ㄩ幇銊ヤ壕闁逞勭厱閻庯絽纰嶉梻鍥ч弻锝呂熼懡銈呭绩闂佸湱绡€鐎规洘锕㈤幃锟犲礃缁狙囨煟閹扮稇闂傚倸鍊风粈渚€骞栬灋閹兼番鍔岄崹鍌氣攽閻樺磭闁稿骸閳уú姗€宕归崸妤冨祦婵せ鍋撶€规洘绮嶉幏鍛存偖鐎垫悂妫烽梻鍌氬€烽懗鍫曟煛閸喎娈炴俊銈忕到閸熸倿閻㈠憡鐓曢煫鍥ㄦ閼版寧閻愯宸ラ摶鏍煕濞戞瑧鏉洪梻鍌欑劍閹爼宕濈仦鎯ч幖娣妽閳锋帡鏌涚仦鎹愬闁逞勫€愰柟鍕瘈闁告洜鍘梻浣藉畷妯绘叏鐟欏嫮鍙€闁哄本鐩崺鍕礃閸ｇ磼閻愬姢闁靛牊鎮傞獮鍐ㄎ旈崨娅滈梺鍛婃礋濮婄粯鎷呴搹鐟扮闂佸湱閻栫厧鐣烽幇鏃堝礃閳哄懏鐓欓柣鎴烇耿瀹曟垿骞囬悧鍫㈠幘婵犮垼娉涚粻宥夊礉閹存繂煤娴肩娀鏌涢弴鐐残紓鍌氬€搁崐鍝ョ矓瀹曞洦婵鍩栭崑妯尖偓瑙勬礀閻栧ジ宕洪埄鍐╁闁惧繐婀遍幗宀勬⒒娴ｈ棄鍚瑰┑娼欑叅闁挎柨澧介惌鍫ユ煙閸撗冩憢闂備礁鍚嬫禍浠嬪磿瀹曞洨涓嶅Δ锝呭暞閻撴洘绻涢崱妤冪闁哄懎鐖奸幃浠嬪川婵犲嫬骞堥梻浣稿暱閹煎疮缁傛帗娼忛妸鈺傚€烽柡灞诲劚閺嬩線鏌涘畝鈧崑鐐哄吹瀹ュ鐓忓鑸电☉閻熸粏鍩囬崝鎴濇繝姘＜婵炲棙鍨块弻鐔访圭€Ｑ冧壕閻℃帊鐒﹀钘夐悾宀€涓嶆繛鎻掆偓鐢告煥濠靛棙宸濇俊鎻掓川缁辨挻鎷呯粙搴撴寖婵犫拃鍕亹濠婂牊鈷戠紒瀣健楠炴垿宕跺畵渚€骞栧ǎ濡介柛銈呯Ч閺屾洘绔熼崯绮婚妷鈺傗拻闁稿本鐟ㄩ崗宀勬⒒娴ｅ憡璐￠柟铏尭鐓ら柟婢樺ù鐘叉儫闂佹寧鏌ㄦ晶鍊熷€撮梻鍌氬€风粈渚€骞夐敓鐘茬闁糕剝绋戠粈瀣级閳哄偊鑰挎慨濠傚畷鎺戔枎閹烘垵甯紓鍌欒兌濠电姷鏁告慨鐢告嚌閸撗呬笉闁哄被鍎查悡鏇㈡煏婢跺牆濡介柟韫嵆濮婄粯鎷呴悷鎵磼鐠囨彃鈧潡寮诲☉姘ｅ亾閿濆懘姊洪崫鍕拱缂佸鍨块崺銏℃償閵堝洨鏉搁梺鍝勬川婵兘鐛幘鏂ユ斀闁绘劖娼欓悘鐔兼煕閵婏附銇濋柛鈺傜洴楠炲鎮╅悽纰夌床闂佽鍑界徊鑺ョ閺夋嚦鏃堟偐闂堟稐娌梺鍛婃⒐濞叉粓鍩€閸樻粓宕戦幘缁樼厓鐟滃繘姊绘担鐩掞綁鏌嶉柨瀣瑨闂囧鏌ㄥ┑鍡樺櫤闁哥喓鍋ら弻娑㈡偄閸濆嫪妲愰梺鍝勬湰閻╅崺鈧柟鍥у嵆闁绘劘灏欓妶鈹戦悩鐢稿绩缂佹ü绻嗛柣鎰閻瑧鈧潧鐣烽妸褉鍋撳☉娅焵閸忔﹢寮婚悢铏圭＜婵″劋鐠囩偤姊洪崫鍕拱缂佸鍨奸悘鎺楁⒑缁嬭法绠伴柛姘闁哥妇閺€浠嬫煥閺囨ê鍔氭繛瀵稿Т缂佺姷濮电换婵嬫濞戞氨妫憸鏃堝蓟濞戙垹惟闁靛鍎辨繝" inkscape:version="0.45.1" xmlns:sodipodi="http://sodipodi.sourceforge.net/DTD/sodipodi-0.dtd" xmlns:dc="http://purl.org/dc/elements/1.1/" xmlns:cc="http://web.resource.org/cc/" xmlns:inkscape="http://www.inkscape.org/namespaces/inkscape" xmlns:rdf="http://www.w3.org/1999/02/22-rdf-syntax-ns#" xmlns:svg="http://www.w3.org/2000/svg"
	 xmlns="http://www.w3.org/2000/svg" xmlns:xlink="http://www.w3.org/1999/xlink" x="0px" y="0px" width="30px" height="30px"
	 viewBox="0 0 30 30" enable-background="new 0 0 30 30" xml:space="preserve">
<sodipodi:namedview  inkscape:pageopacity="0.0" inkscape:pageshadow="2" inkscape:document-units="px" inkscape:window-x="-4" inkscape:window-y="-4" inkscape:window-width="1280" inkscape:window-height="968" inkscape:guide-bbox="true" inkscape:current-layer="layer1" showguides="true" bordercolor="#666666" inkscape:cy="646.08493" gridtolerance="10000" id="base" borderopacity="1.0" objecttolerance="10" pagecolor="#ffffff" inkscape:cx="126.79097" inkscape:zoom="0.74999999" guidetolerance="10">
	<sodipodi:guide  position="1116" orientation="vertical" id="guide22942"></sodipodi:guide>
	<sodipodi:guide  position="1147" orientation="vertical" id="guide22944"></sodipodi:guide>
</sodipodi:namedview>
<g>
	<g id="layer1" inkscape:label="Layer 1" inkscape:groupmode="layer">
		<g id="g6098" transform="translate(-129.98917,-73.944573)">
			<path id="rect4132" d="M138.889,80.048h0.333c1.526,0,2.763,1.238,2.763,2.766v12.263c0,1.527-1.237,2.764-2.763,2.764h-0.333
				c-1.528,0-2.764-1.235-2.764-2.764V82.814C136.124,81.285,137.363,80.048,138.889,80.048z"/>
			
				<path id="path5105" sodipodi:cx="205.63222" sodipodi:cy="109.8391" sodipodi:type="arc" sodipodi:ry="14.399307" sodipodi:rx="14.399307" fill="#EA3121" d="
				M141.405,82.999c0,1.31-1.062,2.369-2.369,2.369c-1.31,0-2.371-1.061-2.371-2.369s1.061-2.37,2.371-2.37
				C140.343,80.629,141.405,81.691,141.405,82.999z"/>
			
				<path id="path5107" sodipodi:cx="205.63222" sodipodi:cy="109.8391" sodipodi:type="arc" sodipodi:ry="14.399307" sodipodi:rx="14.399307" fill="#F2B847" d="
				M141.405,88.959c0,1.31-1.062,2.369-2.369,2.369c-1.31,0-2.371-1.061-2.371-2.369s1.061-2.37,2.371-2.37
				C140.343,86.589,141.405,87.65,141.405,88.959z"/>
			
				<path id="path5109" sodipodi:cx="205.63222" sodipodi:cy="109.8391" sodipodi:type="arc" sodipodi:ry="14.399307" sodipodi:rx="14.399307" fill="#7EC559" d="
				M141.405,94.918c0,1.31-1.062,2.368-2.369,2.368c-1.31,0-2.371-1.06-2.371-2.368s1.061-2.371,2.371-2.371
				C140.343,92.55,141.405,93.611,141.405,94.918z"/>
		</g>
	</g>
	<path d="M13.74,11.495h3.744c0.26-0.594,0.503-1.207,0.728-1.84l0.854,0.316c-0.204,0.522-0.415,1.031-0.633,1.522h5.432v0.892
		h-5.838c-0.404,0.854-0.833,1.668-1.287,2.438h6.175v6.353h-0.844v-1.008h-5.379v1.008h-0.844v-4.935
		c-0.531,0.789-1.09,1.527-1.677,2.216c-0.134-0.173-0.352-0.406-0.654-0.703c1.403-1.57,2.589-3.359,3.56-5.367h-3.338
		L13.74,11.495L13.74,11.495z"/>
	<rect x="16.693" y="15.713" fill="#FFFFFF" width="5.379" height="3.586"/>
</g>
</svg>
