<?xml version="1.0" encoding="utf-8"?>
<!-- Generator: Adobe Illustrator 21.0.0, SVG Export Plug-In . SVG Version: 6.00 Build 0)  -->
<svg version="1.1" id="Layer_1" xmlns="http://www.w3.org/2000/svg" xmlns:xlink="http://www.w3.org/1999/xlink" x="0px" y="0px"
	 width="30px" height="30px" viewBox="0 0 30 30" enable-background="new 0 0 30 30" xml:space="preserve">
<g id="XMLID_2870_">
	<g id="XMLID_2876_">
		<path id="XMLID_2879_" fill="#FFFFFF" d="M15,29.3c-8,0-14.5-6.5-14.5-14.5S7,0.3,15,0.3s14.5,6.5,14.5,14.5S23,29.3,15,29.3z"/>
		<g id="XMLID_2877_">
			<path id="XMLID_2878_" fill="#305FA0" d="M15,1c7.7,0,14,6.3,14,14s-6.3,14-14,14S1,22.7,1,15S7.3,1,15,1 M15,0C6.7,0,0,6.7,0,15
				s6.7,15,15,15s15-6.7,15-15S23.3,0,15,0L15,0z"/>
		</g>
	</g>
	<rect id="XMLID_2875_" x="14.1" y="2.2" fill="#305FA0" width="1.5" height="25.9"/>
	<polygon id="XMLID_2874_" fill="#305FA0" points="12.3,7.5 12.3,13.8 23.3,13.8 26.5,10.7 23.1,7.5 	"/>
	
		<line id="XMLID_2873_" fill="none" stroke="#FFFFFF" stroke-miterlimit="10" stroke-dasharray="3,3,3,3,3,3" x1="13.3" y1="10.6" x2="25.3" y2="10.6"/>
	<polygon id="XMLID_2872_" fill="#FFFFFF" stroke="#305FA0" stroke-miterlimit="10" points="17.6,15.7 17.6,22 6.3,22 3.3,18.9 
		6.6,15.7 	"/>
	
		<line id="XMLID_2871_" fill="none" stroke="#305FA0" stroke-miterlimit="10" stroke-dasharray="3,3,3,3,3,3" x1="16.3" y1="18.8" x2="4.6" y2="18.8"/>
</g>
</svg>
