<?xml version="1.0" encoding="utf-8"?>
<!-- Generator: Adobe Illustrator 19.0.0, SVG Export Plug-In . SVG Version: 6.00 Build 0)  -->
<svg version="1.1" id="图层_1" xmlns="http://www.w3.org/2000/svg" xmlns:xlink="http://www.w3.org/1999/xlink" x="0px" y="0px"
	 width="30px" height="30px" viewBox="0 0 30 30" enable-background="new 0 0 30 30" xml:space="preserve">
<g id="XMLID_2_">
	<g id="XMLID_4_">
		<path id="XMLID_8_" fill="#305FA0" d="M29.945,15.287c0.008-0.217-0.068-0.436-0.232-0.6l-3.882-3.872
			c-0.316-0.315-0.832-0.315-1.149,0c-0.316,0.316-0.316,0.831,0,1.146l2.573,2.567h-6.749c-0.435,0-0.787,0.351-0.787,0.784
			c0,0.434,0.352,0.784,0.787,0.784h6.86l-2.593,2.586c-0.308,0.307-0.308,0.803,0,1.111c0.308,0.307,0.804,0.307,1.112,0
			l3.761-3.752c0.099-0.099,0.154-0.22,0.19-0.346c0.067-0.116,0.115-0.242,0.115-0.383C29.95,15.302,29.946,15.295,29.945,15.287z"
			/>
		<path id="XMLID_7_" fill="#305FA0" d="M9.495,14.502h-6.86l2.593-2.586c0.308-0.306,0.308-0.802,0-1.11
			c-0.308-0.308-0.804-0.308-1.112,0l-3.761,3.752c-0.099,0.099-0.154,0.22-0.19,0.346c-0.067,0.115-0.115,0.24-0.115,0.382
			c0,0.009,0.005,0.016,0.006,0.024c-0.008,0.217,0.068,0.436,0.232,0.602l3.882,3.871c0.316,0.316,0.832,0.316,1.149,0
			c0.316-0.316,0.316-0.829,0-1.146L2.745,16.07h6.749c0.435,0,0.787-0.351,0.787-0.784S9.93,14.502,9.495,14.502z"/>
		<path id="XMLID_6_" fill="#305FA0" d="M15.715,0.672c-0.09-0.09-0.199-0.146-0.312-0.183c-0.118-0.07-0.247-0.121-0.395-0.121
			c-0.015,0-0.024,0.007-0.039,0.009c-0.22-0.012-0.444,0.061-0.612,0.229L10.474,4.49c-0.315,0.315-0.315,0.833,0,1.148
			c0.317,0.317,0.833,0.317,1.149,0l2.599-2.599v6.774c0,0.436,0.352,0.787,0.788,0.787c0.435,0,0.788-0.351,0.788-0.787V2.979
			l2.567,2.567c0.307,0.308,0.804,0.307,1.112-0.001c0.308-0.308,0.308-0.805,0-1.113L15.715,0.672z"/>
		<path id="XMLID_5_" fill="#305FA0" d="M18.365,24.311l-2.593,2.593v-6.859c0-0.435-0.353-0.787-0.788-0.787
			c-0.436,0-0.788,0.352-0.788,0.787v6.75l-2.573-2.573c-0.316-0.317-0.832-0.317-1.149-0.001c-0.316,0.316-0.316,0.833,0,1.148
			l3.882,3.883c0.167,0.166,0.385,0.24,0.602,0.232c0.009,0,0.016,0.006,0.025,0.006c0.143,0,0.268-0.049,0.384-0.116
			c0.127-0.035,0.248-0.09,0.349-0.19l3.76-3.76c0.308-0.308,0.308-0.805,0-1.113C19.168,24.002,18.671,24.004,18.365,24.311z"/>
	</g>
	<circle id="XMLID_3_" fill="#305FA0" cx="15" cy="14.929" r="3.348"/>
</g>
</svg>
