<?xml version="1.0" encoding="utf-8"?>
<!-- Generator: Adobe Illustrator 21.0.0, SVG Export Plug-In . SVG Version: 6.00 Build 0)  -->
<svg version="1.1" id="Layer_1" xmlns="http://www.w3.org/2000/svg" xmlns:xlink="http://www.w3.org/1999/xlink" x="0px" y="0px"
	 width="30px" height="30px" viewBox="0 0 30 30" enable-background="new 0 0 30 30" xml:space="preserve">
<g id="XMLID_2123_">
	<g id="XMLID_2372_">
		<path id="XMLID_2408_" fill="#FFFFFF" d="M15,29.5C7,29.5,0.5,23,0.5,15S7,0.5,15,0.5S29.5,7,29.5,15S23,29.5,15,29.5z"/>
		<g id="XMLID_2373_">
			<path id="XMLID_2374_" fill="#305FA0" d="M15,1c7.7,0,14,6.3,14,14s-6.3,14-14,14S1,22.7,1,15S7.3,1,15,1 M15,0C6.7,0,0,6.7,0,15
				s6.7,15,15,15s15-6.7,15-15S23.3,0,15,0L15,0z"/>
		</g>
	</g>
	<g id="XMLID_2504_">
		<path id="XMLID_2512_" fill="#305FA0" d="M7.3,10.2V7.5c0-0.5,0.4-1,0.9-1h6.2v2.3c0.2,0,0.4,0,0.7,0c0.2,0,0.4,0,0.7,0V6.5h5.7
			c0.5,0,0.9,0.4,0.9,1V10c0.4,0.1,0.7,0.3,1,0.4v-4c0-0.5-0.4-1-0.9-1H7.3c-0.5,0-0.9,0.4-0.9,1v4.2C6.7,10.5,7,10.4,7.3,10.2z"/>
		<path id="XMLID_2511_" fill="#305FA0" d="M5.3,23.3c0,0,1.6,0.1,2.4-1.5c0,0,1.9,3,4.8,0c0,0,2.5,3.5,4.9,0c0,0,1.7,3,4.8,0
			c0,0,0.4,1.8,2.5,1.5v1.1c0,0-1.3,0.5-2.5-0.6c0,0-3,1.4-4.7-0.2c0,0-2.7,2.3-5-0.2c0,0-2.7,2.2-4.7,0c0,0-1.1,1.2-2.5,1.1
			L5.3,23.3L5.3,23.3z"/>
		<g id="XMLID_2508_">
			<path id="XMLID_2510_" fill="#305FA0" d="M11,22c0.5-0.2,0.9-0.5,1.5-1.1c0,0,1,1.4,2.4,1.5V9.8c-5.3,0-9.6,1.8-9.6,3.8
				C5.3,15.1,7.5,19.7,11,22z"/>
			<path id="XMLID_2509_" fill="#305FA0" d="M12.2,22.7c0.3,0.2,0.7,0.3,1,0.4c-0.2-0.2-0.5-0.4-0.7-0.6
				C12.5,22.5,12.3,22.6,12.2,22.7z"/>
		</g>
		<g id="XMLID_2505_">
			<path id="XMLID_2507_" fill="#305FA0" d="M17.3,20.9c0,0,0.6,1,1.6,1.2c3.5-2.3,6-7,6-8.6c0-2-4.3-3.6-9.6-3.7v12.5
				C16,22.3,16.5,21.9,17.3,20.9z"/>
			<path id="XMLID_2506_" fill="#305FA0" d="M17.7,22.8c-0.1,0-0.1-0.1-0.2-0.1c0,0-0.2,0.2-0.7,0.4C17.2,23.1,17.3,23,17.7,22.8z"
				/>
		</g>
	</g>
</g>
</svg>
