<?xml version="1.0" encoding="utf-8"?>
<!-- Generator: Adobe Illustrator 21.0.0, SVG Export Plug-In . SVG Version: 6.00 Build 0)  -->
<svg version="1.1" id="Layer_1" xmlns="http://www.w3.org/2000/svg" xmlns:xlink="http://www.w3.org/1999/xlink" x="0px" y="0px"
	 width="30px" height="30px" viewBox="0 0 30 30" enable-background="new 0 0 30 30" xml:space="preserve">
<g>
	<path id="XMLID_1918_" d="M5.267,10.899h19.3c3.9,4.2-0.1,8.3,0,8.2h-19.3C0.466,15.599,5.267,10.899,5.267,10.899z"/>
	<path id="XMLID_1917_" fill="#F4E311" d="M23.267,10.899h2.2c3.2,3.9-0.1,8.2,0,8.2h-2.2
		C22.267,15.799,23.267,10.899,23.267,10.899z"/>
	<path id="XMLID_1916_" fill="#F4E311" d="M6.867,10.899c0,0-1.2,3.9,0,8.2h3.7c0.8-3,0-8.2,0-8.2H6.867z"/>
	<path id="XMLID_1915_" fill="#F4E311" d="M14.867,10.899c0,0-1.2,3.9,0,8.2h3.7c0.8-3,0-8.2,0-8.2H14.867z"/>
</g>
</svg>
