<?xml version="1.0" encoding="utf-8"?>
<!-- Generator: Adobe Illustrator 21.0.0, SVG Export Plug-In . SVG Version: 6.00 Build 0)  -->
<svg version="1.1" id="Layer_1" xmlns="http://www.w3.org/2000/svg" xmlns:xlink="http://www.w3.org/1999/xlink" x="0px" y="0px"
	 width="30px" height="30px" viewBox="0 0 30 30" enable-background="new 0 0 30 30" xml:space="preserve">
<g>
	<path id="XMLID_1913_" d="M2.044,13.35h19.3c3.9,4.2-0.1,8.3,0,8.2h-19.3C-2.656,18.05,2.044,13.35,2.044,13.35z"/>
	<path id="XMLID_1912_" fill="#F4E311" d="M20.144,13.35h2.2c3.1,4.2-0.1,8.2,0,8.2h-2.2C19.144,18.25,20.144,13.35,20.144,13.35z"
		/>
	<path id="XMLID_1911_" fill="#F4E311" d="M3.644,13.35c0,0-1.2,3.9,0,8.2h3.7c0.8-3,0-8.2,0-8.2H3.644z"/>
	<path id="XMLID_1910_" fill="#F4E311" d="M11.644,13.35c0,0-1.2,3.9,0,8.2h3.7c0.8-3,0-8.2,0-8.2H11.644z"/>
	<polygon id="XMLID_1909_" points="27.344,22.95 27.344,11.95 30.044,11.95 26.744,7.05 23.044,11.95 26.044,11.95 26.044,22.95 	
		"/>
</g>
</svg>
