<?xml version="1.0" standalone="no"?><!DOCTYPE svg PUBLIC "-//W3C//DTD SVG 1.1//EN" "http://www.w3.org/Graphics/SVG/1.1/DTD/svg11.dtd"><svg t="1483927053687" class="icon" style="" viewBox="0 0 1024 1024" version="1.1" xmlns="http://www.w3.org/2000/svg" p-id="8403" xmlns:xlink="http://www.w3.org/1999/xlink" width="22" height="22"><defs><style type="text/css"></style></defs><path d="M847.36 237.056l0 251.392L972.8 363.008 847.36 237.056zM176.64 237.056 51.2 363.008l125.44 125.44 0 0 251.392 0L428.032 237.056 176.64 237.056 176.64 237.056zM847.36 237.056l-251.392 0 0 251.392 251.392 0L847.36 237.056zM470.016 865.28l83.968 0L553.984 111.616 470.016 111.616 470.016 865.28zM784.384 530.432c-103.936 0-188.416 84.48-188.416 188.416s84.48 188.416 188.416 188.416c103.936 0 188.416-84.48 188.416-188.416S888.32 530.432 784.384 530.432zM888.832 739.84l-83.968 0 0 83.968-41.984 0 0-83.968-83.968 0 0-41.984 83.968 0L762.88 614.4l41.984 0 0 83.968 83.968 0L888.832 739.84z" p-id="8404" fill="#636ef5"></path></svg>