<?xml version="1.0" encoding="utf-8"?>
<!-- Generator: Adobe Illustrator 21.0.0, SVG Export Plug-In . SVG Version: 6.00 Build 0)  -->
<svg version="1.1" id="Layer_1" xmlns="http://www.w3.org/2000/svg" xmlns:xlink="http://www.w3.org/1999/xlink" x="0px" y="0px"
	 width="30px" height="30px" viewBox="0 0 30 30" enable-background="new 0 0 30 30" xml:space="preserve">
<g id="XMLID_3241_">
	<path id="XMLID_3250_" fill="#FFFFFF" d="M15,29.5C7,29.5,0.5,23,0.5,15S7,0.5,15,0.5S29.5,7,29.5,15S23,29.5,15,29.5z"/>
	<g id="XMLID_3248_">
		<path id="XMLID_3249_" fill="#305FA0" d="M15,1c7.7,0,14,6.3,14,14s-6.3,14-14,14S1,22.7,1,15S7.2,1,15,1 M15,0C6.7,0,0,6.7,0,15
			s6.7,15,15,15s15-6.7,15-15C30,6.7,23.2,0,15,0L15,0z"/>
	</g>
	<g id="XMLID_3242_">
		<path id="XMLID_3247_" fill="#305FA0" d="M17.4,17.8c-0.3,0.2-0.5,0.3-0.7,0.4c-0.7,0.5-1.3,0.9-2,1.3c-0.4,0.3-0.8,0.3-1.2-0.1
			c-0.3-0.4-0.2-0.8,0.1-1.2c0.1-0.1,0.2-0.2,0.4-0.3c0.9-0.7,1.8-1.4,2.7-2.1c0.6-0.4,0.6-0.5,0.1-1.1c-0.4-0.5-0.9-0.9-1.3-1.4
			c-0.1-0.2-0.3-0.4-0.3-0.6c0-1.8-0.1-3.6,0-5.3c0-1,1-1.7,2-1.6c1,0.1,1.7,0.7,1.6,1.8c0,0.6,0.1,1.1,0.5,1.7
			c0.6,0.8,1.1,1.7,1.7,2.6c0.3,0.4,0.6,0.8,0.7,1.2c0.1,0.2,0,0.6-0.2,0.8c-0.3,0.3-0.6,0.2-0.9-0.1c-0.2-0.2-0.3-0.4-0.5-0.6
			c-0.4-0.5-0.7-1-1.1-1.5h-0.2v0.9v10.5c0,0.8-0.3,1.2-0.8,1.2c-0.6,0-0.9-0.4-0.9-1.2c0-1,0-2.1,0-3.1L17.4,17.8L17.4,17.8z
			 M19,3.5c0,0.9-0.7,1.7-1.7,1.7l0,0c-0.9,0-1.7-0.8-1.7-1.7l0,0c0-0.9,0.7-1.7,1.7-1.7C18.1,1.8,19,2.5,19,3.5L19,3.5z M3.9,19.4
			l14.8,7v0.8h-4.1L3.9,19.4z"/>
		<path id="XMLID_3246_" fill="#305FA0" d="M21.1,27.1h-4.6v-1.7h4.6V27.1z"/>
		<path id="XMLID_3245_" fill="#305FA0" d="M16.7,25.5h-4.3v-3.1h4.3V25.5z"/>
		<path id="XMLID_3244_" fill="#305FA0" d="M8.1,19.4h4.5v4.2l-4.5-1.1V19.4z"/>
		<path id="XMLID_3243_" fill="#305FA0" d="M3.9,16.3h4.5v5.4l-4.5-2.3V16.3z"/>
	</g>
</g>
</svg>
