<?xml version="1.0" encoding="utf-8"?>
<!-- Generator: Adobe Illustrator 21.0.0, SVG Export Plug-In . SVG Version: 6.00 Build 0)  -->
<svg version="1.1" id="Layer_1" xmlns="http://www.w3.org/2000/svg" xmlns:xlink="http://www.w3.org/1999/xlink" x="0px" y="0px"
	 width="30px" height="30px" viewBox="0 0 30 30" enable-background="new 0 0 30 30" xml:space="preserve">
<g id="XMLID_2611_">
	<g id="XMLID_2667_">
		<path id="XMLID_2675_" fill="#FFFFFF" d="M0.5,15C0.5,7,7,0.5,15,0.5S29.5,7,29.5,15S23,29.5,15,29.5S0.5,23,0.5,15z"/>
		<g id="XMLID_2669_">
			<path id="XMLID_2672_" fill="#305FA0" d="M15,1c7.8,0,14,6.3,14,14s-6.3,14-14,14S1,22.7,1,15S7.3,1,15,1 M15,0C6.8,0,0,6.7,0,15
				s6.7,15,15,15s15-6.7,15-15S23.3,0,15,0L15,0z"/>
		</g>
	</g>
	<rect id="XMLID_2655_" x="21" y="9.8" fill="#305FA0" width="2" height="16.1"/>
	<polygon id="XMLID_2652_" fill="#305FA0" points="18.7,10.1 22,4 25.7,10.1 	"/>
	<rect id="XMLID_2633_" x="7.3" y="4.7" fill="#305FA0" width="2" height="15.8"/>
	<polygon id="XMLID_2630_" fill="#305FA0" points="11.8,20.1 8.3,26.2 4.8,20.1 	"/>
	<path id="XMLID_2619_" d="M6.2,5.5"/>
	<rect id="XMLID_2616_" x="13.7" y="1" fill="#305FA0" width="1.5" height="6.1"/>
	<rect id="XMLID_2614_" x="13.7" y="10.6" fill="#305FA0" width="1.5" height="7.9"/>
	<rect id="XMLID_2613_" x="13.7" y="23.5" fill="#305FA0" width="1.5" height="6"/>
</g>
</svg>
