<?xml version="1.0" encoding="utf-8"?>
<!-- Generator: Adobe Illustrator 21.0.0, SVG Export Plug-In . SVG Version: 6.00 Build 0)  -->
<svg version="1.1" id="Layer_1" xmlns="http://www.w3.org/2000/svg" xmlns:xlink="http://www.w3.org/1999/xlink" x="0px" y="0px"
	 width="30px" height="30px" viewBox="0 0 30 30" enable-background="new 0 0 30 30" xml:space="preserve">
<g>
	<g id="XMLID_1084_">
		<path id="XMLID_1087_" fill="#FFFFFF" d="M15,29.5C7,29.5,0.5,23,0.5,15S7,0.5,15,0.5S29.5,7,29.5,15S23,29.5,15,29.5z"/>
		<g id="XMLID_1085_">
			<path id="XMLID_1086_" fill="#305FA0" d="M15,1c7.7,0,14,6.3,14,14s-6.3,14-14,14S1,22.7,1,15S7.3,1,15,1 M15,0C6.7,0,0,6.7,0,15
				s6.7,15,15,15s15-6.7,15-15C30,6.7,23.3,0,15,0L15,0z"/>
		</g>
	</g>
	<path id="XMLID_1083_" fill="#305FA0" d="M21.7,6.7c-1.4,0.5-0.6,1.1-0.6,1.1s0.5,0.3,1,1.8c0.4,1.1-0.1,3-0.4,3.2
		c-0.3,0.3-0.4-3.2-1.4-3.7c-1-0.4-0.1,0-0.4,1.1c-0.3,1.1-0.1,2.3-1.4,3.2c-1.3,0.9,0.5-1.6,0-3.2c-0.5-1.6-2.1,0.1-2.4,3.2
		c-0.1,1.9-0.3,3.1-0.3,3.7l3.6,3.9H8.2l5-6.5l0.5,0.5c0.4-1.1,1.1-3.4,1.5-4.2c0.6-1.1,1-1.5,1-1.5s1.1-1.2-0.6-1.1
		c-1.6,0.1-3.4,1.5-3.4,1.5s0.9-2.6,2.4-3c1.3-0.3,1.6,0,1.6,0s-1.1-1.6-2.4-1.1c-2.3,1.1,0.8-1.6,2-1.1C17.3,5,17.4,6,17.4,6
		s0.1-3-0.4-3.2c-0.4-0.3,1.9,0.9,2,2.6c0.1,0.7,1.4-0.8,3.8,0C24.3,6.1,24.3,5.7,21.7,6.7L21.7,6.7z M12,9
		c-0.6-0.3-1.1,0.5-1.1,0.5s0.3-0.1,0.9,0c0.8,0.1,1.1,1.5,1.1,1.5s-0.9-0.7-1.6-0.8c-0.9,0-0.4,0.5-0.4,0.5s0.1,0.3,0.5,0.7
		c0.5,0.5,0.8,3.1,0.8,3.1l-1,1.4c0,0,0-1.8-0.1-3.2c0-1.5-0.9-2.4-1.1-1.6c-0.3,0.8,0.5,2.2,0,1.6c-0.6-0.5-0.5-1.1-0.6-1.6
		s0.4-0.7-0.1-0.5c-0.5,0.1-0.6,1.9-0.8,1.8c-0.1-0.1-0.4-1.1-0.3-1.6C8.3,10.1,9.1,10,9.1,10s0.5-0.3-0.5-0.5
		C7.2,9.1,7.1,9.1,7.7,9C9,8.9,9.5,9.4,9.6,9c0.1-0.8,1.3-1.4,1-1.2c-0.3,0.1-0.3,1.6-0.3,1.6s0.1-0.4,0.9-0.7C11.6,8.2,13,9.6,12,9
		L12,9z M10.4,17l-3.8,4.3H2.8l4.6-10.6L10.4,17L10.4,17z"/>
	<g>
		<polyline id="XMLID_1081_" fill="#305FA0" points="25.7,10.5 12.7,24.4 25,24.4 25.7,10.5 		"/>
		
			<rect id="XMLID_1080_" x="22.524" y="14.112" transform="matrix(0.6754 -0.7374 0.7374 0.6754 -2.9691 22.279)" fill="#FFFFFF" width="2.6" height="0.8"/>
		
			<rect id="XMLID_1078_" x="20.129" y="16.769" transform="matrix(0.6754 -0.7374 0.7374 0.6754 -5.7055 21.3747)" fill="#FFFFFF" width="2.6" height="0.8"/>
		
			<rect id="XMLID_1077_" x="17.534" y="19.47" transform="matrix(0.6754 -0.7374 0.7374 0.6754 -8.5397 20.3376)" fill="#FFFFFF" width="2.6" height="0.8"/>
		
			<rect id="XMLID_1063_" x="14.777" y="22.478" transform="matrix(0.6754 -0.7374 0.7374 0.6754 -11.6528 19.2809)" fill="#FFFFFF" width="2.6" height="0.8"/>
		
			<rect id="XMLID_1053_" x="21.261" y="20.594" transform="matrix(0.6754 -0.7374 0.7374 0.6754 -8.321 23.0824)" fill="#FFFFFF" width="1.6" height="0.8"/>
		
			<rect id="XMLID_1052_" x="23.198" y="18.779" transform="matrix(0.6754 -0.7374 0.7374 0.6754 -6.3536 23.9217)" fill="#FFFFFF" width="1.6" height="0.8"/>
		
			<rect id="XMLID_1050_" x="19.201" y="22.557" transform="matrix(0.6754 -0.7374 0.7374 0.6754 -10.3722 22.3476)" fill="#FFFFFF" width="2" height="0.8"/>
	</g>
</g>
</svg>
