<?xml version="1.0" encoding="utf-8"?>
<!-- Generator: Adobe Illustrator 21.0.0, SVG Export Plug-In . SVG Version: 6.00 Build 0)  -->
<svg version="1.1" id="Layer_1" xmlns="http://www.w3.org/2000/svg" xmlns:xlink="http://www.w3.org/1999/xlink" x="0px" y="0px"
	 width="30px" height="30px" viewBox="0 0 30 30" enable-background="new 0 0 30 30" xml:space="preserve">
<g>
	<g id="XMLID_3491_">
		<path id="XMLID_3495_" fill="#FFFFFF" d="M14.8,29.3c-8,0-14.5-6.5-14.5-14.5S6.8,0.3,14.8,0.3s14.5,6.5,14.5,14.5
			S22.8,29.3,14.8,29.3z"/>
		<g id="XMLID_3493_">
			<path id="XMLID_3494_" fill="#305FA0" d="M15,1c7.7,0,14,6.3,14,14s-6.3,14-14,14S1,22.7,1,15S7.3,1,15,1 M15,0C6.7,0,0,6.7,0,15
				s6.7,15,15,15s15-6.7,15-15S23.3,0,15,0L15,0z"/>
		</g>
	</g>
	<polygon fill="#305FA0" points="15,4.2 18.8,11.1 25.8,15 18.8,18.8 15,25.8 11.2,18.8 4.2,15 11.2,11.1 	"/>
</g>
</svg>
