<?xml version="1.0" encoding="utf-8"?>
<!-- Generator: Adobe Illustrator 21.0.0, SVG Export Plug-In . SVG Version: 6.00 Build 0)  -->
<svg version="1.1" id="Layer_1" xmlns="http://www.w3.org/2000/svg" xmlns:xlink="http://www.w3.org/1999/xlink" x="0px" y="0px"
	 width="30px" height="30px" viewBox="0 0 30 30" enable-background="new 0 0 30 30" xml:space="preserve">
<g id="XMLID_3451_">
	<g id="XMLID_3462_">
		<path id="XMLID_3467_" fill="#FFFFFF" d="M14.8,29.3c-8,0-14.5-6.5-14.5-14.5S6.8,0.3,14.8,0.3s14.5,6.5,14.5,14.5
			S22.8,29.3,14.8,29.3z"/>
		<g id="XMLID_3463_">
			<path id="XMLID_3466_" fill="#305FA0" d="M15,1c7.7,0,14,6.3,14,14s-6.3,14-14,14S1,22.7,1,15S7.3,1,15,1 M15,0C6.7,0,0,6.7,0,15
				s6.7,15,15,15s15-6.7,15-15S23.3,0,15,0L15,0z"/>
		</g>
	</g>
	<rect id="XMLID_3461_" x="11.9" y="2.4" fill="#305FA0" width="3.1" height="25.5"/>
	<rect id="XMLID_3454_" x="2.1" y="14.6" fill="#305FA0" width="9.1" height="3.1"/>
	<path id="XMLID_3453_" fill="none" stroke="#305FA0" stroke-width="2" stroke-miterlimit="10" d="M13.4,20.6c0,0,9-5.4,13.8-3.4"/>
	<path id="XMLID_3452_" fill="none" stroke="#305FA0" stroke-width="2" stroke-miterlimit="10" d="M14.2,6.8
		c2.5-0.6,5.5,0.1,6.2,2.8c0.3,1.3,0,2.7-0.8,3.7s-2.5,1.6-3.9,1.6"/>
</g>
</svg>
