<?xml version="1.0" encoding="utf-8"?>
<!-- Generator: Adobe Illustrator 21.0.0, SVG Export Plug-In . SVG Version: 6.00 Build 0)  -->
<svg version="1.1" id="Layer_1" xmlns="http://www.w3.org/2000/svg" xmlns:xlink="http://www.w3.org/1999/xlink" x="0px" y="0px"
	 width="30px" height="30px" viewBox="0 0 30 30" enable-background="new 0 0 30 30" xml:space="preserve">
<g id="XMLID_3449_">
	<path id="XMLID_3457_" fill="#305FA0" d="M9,4.5L6.5,7.9L6,11.5l1.1,2.3l0.4,3.5l2.6,4l1.9,2.4l1.4,1.5c0,0,0.7,1.1,1,1.1
		s1.3,0,1.3,0l6.6-9.5l1.8-7l-1.6-4.4l-6.1-2.9h-4.3"/>
	<path id="XMLID_3456_" fill="#305FA0" d="M15,28.5c-1.7,0-10.1-12.6-10.1-16.9C4.9,6,9.4,1.5,15,1.5S25.1,6,25.1,11.6
		C25.2,15.8,16.7,28.5,15,28.5z M15,3.2c-4.7,0-8.4,3.8-8.4,8.4c0,3.5,7,14.4,8.4,14.3c1.4,0,8.4-10.9,8.4-14.3
		C23.5,7,19.7,3.2,15,3.2z M15,15.9c-2.8,0-5-2.8-3.9-5.7c0.4-1.1,1.3-2,2.4-2.4c2.9-1.1,5.7,1.1,5.7,3.9C19.2,14,17.4,15.9,15,15.9
		z M15,9.1c-1.5,0-2.6,1.2-2.5,2.8c0.1,1.1,1.1,2.1,2.2,2.2c1.5,0.2,2.8-1,2.8-2.5C17.6,10.3,16.4,9.1,15,9.1z"/>
	<path id="XMLID_3455_" fill="#FFFFFF" stroke="#305FA0" stroke-miterlimit="10" d="M14.3,7.4c2.8-0.4,5.2,2,4.8,4.8
		c-0.3,1.8-1.7,3.2-3.5,3.5c-2.8,0.4-5.2-2-4.8-4.8C11.1,9.1,12.6,7.7,14.3,7.4z"/>
</g>
</svg>
