<?xml version="1.0" encoding="utf-8"?>
<!-- Generator: Adobe Illustrator 21.0.0, SVG Export Plug-In . SVG Version: 6.00 Build 0)  -->
<svg version="1.1" id="Layer_1" xmlns="http://www.w3.org/2000/svg" xmlns:xlink="http://www.w3.org/1999/xlink" x="0px" y="0px"
	 width="30px" height="30px" viewBox="0 0 30 30" enable-background="new 0 0 30 30" xml:space="preserve">
<g>
	<g id="XMLID_3105_">
		<path fill="#FFFFFF" d="M15.042,29.467c-4.211,0-8.212-1.811-10.978-4.967c-2.761-3.15-3.975-7.194-3.419-11.384
			C1.528,6.642,6.657,1.513,13.116,0.646c0.608-0.074,1.229-0.113,1.841-0.113c4.212,0,8.214,1.811,10.979,4.967
			c2.761,3.151,3.975,7.194,3.418,11.385c-0.771,6.457-6.012,11.698-12.463,12.469C16.275,29.429,15.654,29.467,15.042,29.467z"/>
		<path fill="#305FA0" d="M14.958,1.033L14.958,1.033c4.067,0,7.931,1.748,10.601,4.796c2.665,3.041,3.836,6.944,3.298,11.002
			c-0.743,6.225-5.801,11.282-12.029,12.026c-0.594,0.073-1.195,0.11-1.786,0.11c-4.067,0-7.931-1.748-10.602-4.796
			c-2.664-3.041-3.836-6.944-3.3-10.986C1.994,6.932,6.945,1.979,13.172,1.143C13.765,1.07,14.366,1.033,14.958,1.033 M14.957,0.033
			c-0.628,0-1.264,0.038-1.907,0.117c-6.7,0.9-12,6.3-12.9,12.9c-1.215,9.157,5.952,16.917,14.893,16.917
			c0.628,0,1.264-0.038,1.907-0.117c6.7-0.8,12.1-6.2,12.9-12.9C31.065,7.793,23.898,0.033,14.957,0.033L14.957,0.033z"/>
	</g>
	<polygon fill="#305FA0" points="13.25,2.35 13.25,8.45 9.85,8.45 11.05,2.45 	"/>
	<polygon fill="#305FA0" points="15.85,2.35 15.85,8.45 19.05,8.45 17.85,2.45 	"/>
	<polygon fill="#305FA0" points="2.75,10.55 27.35,10.55 27.35,14.05 25.75,14.05 25.75,17.65 23.25,17.65 23.25,14.45 7.35,14.45 
		7.35,17.65 4.85,17.65 4.85,13.95 2.85,13.95 	"/>
	<polygon fill="#305FA0" points="10.05,17.35 13.35,17.35 13.35,26.75 7.85,26.75 	"/>
	<polygon fill="#305FA0" points="19.35,17.35 16.05,17.35 16.05,26.75 21.55,26.75 	"/>
</g>
</svg>
