<?xml version="1.0" encoding="utf-8"?>
<!-- Generator: Adobe Illustrator 21.0.0, SVG Export Plug-In . SVG Version: 6.00 Build 0)  -->
<svg version="1.1" xmlns="http://www.w3.org/2000/svg" xmlns:xlink="http://www.w3.org/1999/xlink" x="0px" y="0px" width="30px"
	 height="30px" viewBox="0 0 30 30" style="enable-background:new 0 0 30 30;" xml:space="preserve">
<style type="text/css">
	.st0{display:none;}
	.st1{display:inline;}
	.st2{display:inline;fill:#FFFFFF;}
	.st3{font-family:'MicrosoftYaHei';}
	.st4{font-size:12px;}
</style>
<g id="svg2203" inkscape:output_extension="org.inkscape.output.svg.inkscape" inkscape:version="0.45.1" sodipodi:docbase="D:\SVG\搁宕妞搴ｇ濞姘ｅ妤 寸 瀵璇测濞绻婵绂测纾藉ù锝绮娲濠" sodipodi:docname="搁宄懊归ユ╅澶缂浣戒含垫㈠┑瀣纾兼濠婊╁纭缂浣哄У瀹绋垮ú绠归绘褰婵浠╂俊瀚伴达荤叉川澄ラ逞艰ゆ" sodipodi:version="0.32" xmlns:cc="http://web.resource.org/cc/" xmlns:dc="http://purl.org/dc/elements/1.1/" xmlns:inkscape="http://www.inkscape.org/namespaces/inkscape" xmlns:rdf="http://www.w3.org/1999/02/22-rdf-syntax-ns#" xmlns:sodipodi="http://sodipodi.sourceforge.net/DTD/sodipodi-0.dtd" xmlns:svg="http://www.w3.org/2000/svg" class="st0">
	
		<sodipodi:namedview  bordercolor="#666666" borderopacity="1.0" gridtolerance="10000" guidetolerance="10" id="base" inkscape:current-layer="layer1" inkscape:cx="126.79097" inkscape:cy="646.08493" inkscape:document-units="px" inkscape:guide-bbox="true" inkscape:pageopacity="0.0" inkscape:pageshadow="2" inkscape:window-height="968" inkscape:window-width="1280" inkscape:window-x="-4" inkscape:window-y="-4" inkscape:zoom="0.74999999" objecttolerance="10" pagecolor="#ffffff" showguides="true">
		<sodipodi:guide  id="guide22942" orientation="vertical" position="1116"></sodipodi:guide>
		<sodipodi:guide  id="guide22944" orientation="vertical" position="1147"></sodipodi:guide>
	</sodipodi:namedview>
	<path class="st1" d="M8.7,18.1c0.2,0.3,0.6,0.5,1,0.6c0.4,0.2,0.8,0.3,1.1,0.3c1.1,0,1.7-0.5,1.7-1.5c0-0.3-0.1-0.5-0.2-0.7
		c-0.1-0.2-0.3-0.4-0.5-0.6c-0.2-0.2-0.6-0.4-1.2-0.8c-0.8-0.5-1.3-0.9-1.6-1.4s-0.4-0.9-0.4-1.4c0-0.8,0.3-1.5,0.8-1.9
		c0.5-0.5,1.2-0.7,2-0.7c0.8,0,1.4,0.1,1.7,0.4v1.4c-0.5-0.4-1.1-0.6-1.8-0.6c-0.5,0-0.9,0.1-1.2,0.4c-0.3,0.3-0.5,0.6-0.5,1.1
		c0,0.4,0.1,0.7,0.3,1s0.7,0.6,1.4,1c0.8,0.5,1.3,0.9,1.6,1.4c0.3,0.5,0.5,1,0.5,1.6c0,0.9-0.2,1.5-0.8,2s-1.2,0.7-2.1,0.7
		c-0.3,0-0.7-0.1-1.1-0.2s-0.7-0.2-0.9-0.4L8.7,18.1L8.7,18.1C8.7,18.1,8.7,18.1,8.7,18.1z"/>
	<polygon class="st1" points="21.3,19.9 20.2,19.9 19.4,17.2 16.1,17.2 15.3,19.9 14.2,19.9 17.2,10.1 18.3,10.1 	"/>
	<path class="st2" d="M19,16.1L17.8,12c0-0.1-0.1-0.4-0.1-0.7h0c0,0.3-0.1,0.5-0.1,0.7l-1.2,4.1H19z"/>
</g>
<g id="图层_2">
	<text transform="matrix(0.9 0 0 1 6.1538 19.5429)" class="st3 st4">JCT</text>
</g>
</svg>
