<?xml version="1.0" encoding="utf-8"?>
<!-- Generator: Adobe Illustrator 21.0.0, SVG Export Plug-In . SVG Version: 6.00 Build 0)  -->
<svg version="1.1" id="Layer_1" xmlns="http://www.w3.org/2000/svg" xmlns:xlink="http://www.w3.org/1999/xlink" x="0px" y="0px"
	 width="30px" height="30px" viewBox="0 0 30 30" enable-background="new 0 0 30 30" xml:space="preserve">
<g>
	<g id="XMLID_3937_">
		<path fill="#FFFFFF" d="M15,29.5C7.005,29.5,0.5,22.995,0.5,15S7.005,0.5,15,0.5S29.5,7.005,29.5,15
			C29.5,23.131,23.131,29.5,15,29.5z"/>
		<path fill="#A19393" d="M15,1c7.72,0,14,6.28,14,14c0,7.85-6.15,14-14,14C7.28,29,1,22.72,1,15S7.28,1,15,1 M15,0
			C6.7,0,0,6.7,0,15s6.7,15,15,15c8.4,0,15-6.7,15-15S23.3,0,15,0L15,0z"/>
	</g>
	<g enable-background="new    ">
		<path fill="#846C6C" d="M7.3,10.6c1,0.7,2,1.6,3.1,2.5l-1.8,2.1c-0.8-0.7-1.7-1.6-2.9-2.7L7.3,10.6z M7.9,16.2
			c0.9,0.4,1.7,0.7,2.4,0.9l-1.9,7.4c-0.9-0.3-1.8-0.6-2.5-0.8C6.7,21.5,7.3,19,7.9,16.2z M10.7,18.5V7.9L8.9,9.8
			C8.1,9,7.1,8.1,6.1,7.2l1.6-1.8c0.9,0.7,1.9,1.5,3,2.4V6.2h7.5v12.2h-2v-10h-3.5v10.1H10.7z M13.6,9.7h1.8v5
			c0,2.2-0.3,3.9-0.8,5.3l1.3-1c1.1,1.1,2.1,2.3,3.1,3.3l-1.9,1.5c-0.8-1.2-1.7-2.3-2.6-3.4c-0.6,1.4-1.6,2.8-3.1,4.1
			c-0.6-0.9-1.2-1.6-1.7-2.1c1.5-1,2.5-2.2,3.1-3.4s0.8-2.8,0.8-4.7L13.6,9.7L13.6,9.7z M22.1,5.5h2.3v16.2c0,0.7-0.1,1.2-0.4,1.6
			s-0.7,0.7-1.2,0.8s-1.5,0.1-3,0.1c-0.1-0.9-0.3-1.8-0.6-2.7c0.7,0.1,1.4,0.1,2.1,0.1c0.6,0,0.9-0.4,0.9-1.1L22.1,5.5L22.1,5.5z
			 M19.2,7h2v13.1h-2V7z"/>
	</g>
</g>
</svg>
