<?xml version="1.0" encoding="utf-8"?>
<!-- Generator: Adobe Illustrator 19.0.0, SVG Export Plug-In . SVG Version: 6.00 Build 0)  -->
<svg version="1.1" id="图层_1" xmlns="http://www.w3.org/2000/svg" xmlns:xlink="http://www.w3.org/1999/xlink" x="0px" y="0px"
	 width="30px" height="30px" viewBox="0 0 30 30" enable-background="new 0 0 30 30" xml:space="preserve">
<g id="XMLID_2_">
	<g id="XMLID_2020_">
		<g id="XMLID_2021_">
			<path id="XMLID_2022_" fill="#FFFFFF" stroke="#FF001F" stroke-miterlimit="10" d="M15,0.478
				c-8.011,0-14.478,6.467-14.478,14.478S6.989,29.433,15,29.433s14.478-6.467,14.478-14.478S23.011,0.478,15,0.478L15,0.478z"/>
		</g>
	</g>
	<path id="XMLID_1930_" fill="#232323" d="M23.457,23.031v-1.202c0-0.848-0.689-1.537-1.537-1.537h-8.801
		c-1.202,0-1.824,0.567-1.824,1.421v1.708c0,0.884,0.598,1.33,1.824,1.33h8.917C22.932,24.751,23.457,24.159,23.457,23.031z
		 M21.719,23.128h-8.685c-0.061,0-0.116-0.049-0.116-0.116v-0.988c0-0.061,0.049-0.116,0.116-0.116l8.685,0
		c0.061,0,0.116,0.049,0.116,0.116v0.988C21.834,23.08,21.786,23.128,21.719,23.128z"/>
	<path id="XMLID_1841_" fill="#232323" d="M20.328,18.664 M19.791,16.253l-3.526-0.01c-0.037,0-0.073-0.018-0.091-0.049L7.794,4.507
		C7.757,4.459,7.69,4.446,7.642,4.477L5.958,5.489C5.903,5.52,5.885,5.593,5.915,5.648l0.494,0.866
		c0.012,0.018,0.012,0.037,0.012,0.055v5.093c0,0.061-0.049,0.116-0.116,0.116H5.958c-0.073,0-0.122,0.061-0.116,0.134l0.372,2.604
		c0.006,0.055,0.055,0.098,0.116,0.098h0.073h0.018v0.787c0,0.043-0.024,0.085-0.061,0.104c-0.348,0.177-0.708,0.531-0.708,1.128
		c0,0.378,0.128,0.665,0.323,0.866c0.043,0.049,0.043,0.122-0.006,0.165l-1.866,1.61c-0.079,0.067-0.03,0.201,0.073,0.201h0.268
		c0.03,0,0.055-0.012,0.073-0.03l1.86-1.604c0.03-0.024,0.073-0.037,0.11-0.024c0.159,0.055,0.323,0.085,0.494,0.085
		c0.165,0,0.329-0.037,0.476-0.11c0.043-0.018,0.085-0.012,0.122,0.012l2.019,1.641c0.018,0.018,0.049,0.024,0.073,0.024H9.91
		c0.122,0,0.177-0.152,0.079-0.232l-2.062-1.671c-0.049-0.037-0.055-0.104-0.024-0.152c0.128-0.189,0.213-0.427,0.213-0.72
		c0-0.226-0.183-0.403-0.403-0.403c-0.226,0-0.403,0.183-0.403,0.403c0,0.055-0.006,0.104-0.018,0.146
		c-0.018,0.079-0.122,0.116-0.183,0.061l0,0c-0.073-0.061-0.183-0.061-0.262,0.006l-0.091,0.079
		c-0.043,0.037-0.104,0.037-0.146,0.006c-0.091-0.067-0.152-0.183-0.152-0.36c0-0.366,0.366-0.457,0.433-0.47
		c0.195-0.037,0.335-0.201,0.335-0.403v-1.037c0-0.061,0.049-0.116,0.116-0.116h0.171h0.073c0.055,0,0.104-0.037,0.116-0.091
		l0.518-2.604c0.012-0.073-0.043-0.14-0.116-0.14H7.837H7.751c-0.061,0-0.116-0.049-0.116-0.116V9.301
		c0-0.122,0.165-0.159,0.22-0.055l4.635,8.917c0.006,0.018,0.012,0.037,0.012,0.055v0.037v0.122v0.171
		c0,0.061,0.049,0.116,0.116,0.116h1.391c0.061,0,0.116,0.049,0.116,0.116v0.579c0,0.061,0.049,0.116,0.116,0.116h5.563l0,0
		 M19.791,15.78 M13.058,13.077l0.006,0.006l-1.354,0.878c-0.091,0.061-0.213-0.037-0.171-0.14l0.64-1.653
		c0.03-0.085,0.146-0.098,0.201-0.024L13.058,13.077z M7.239,11.662c0,0.061-0.049,0.116-0.116,0.116H7.038H6.952
		c-0.061,0-0.116-0.049-0.116-0.116V7.771c0-0.122,0.159-0.159,0.22-0.055l0.177,0.329C7.239,8.063,7.245,8.082,7.245,8.1l0,3.562
		H7.239z M7.44,7.356L6.94,6.41C6.91,6.356,6.928,6.295,6.977,6.258l0.775-0.512c0.085-0.055,0.195,0.018,0.177,0.116L7.648,7.313
		C7.635,7.429,7.489,7.453,7.44,7.356z M8.691,6.685l0.573,0.994c0.03,0.055,0.012,0.122-0.037,0.152L8.3,8.429
		C8.215,8.484,8.105,8.405,8.123,8.307l0.354-1.592C8.502,6.618,8.636,6.593,8.691,6.685z M8.758,9.301l0.86-0.555
		c0.085-0.055,0.195,0.018,0.177,0.122l-0.335,1.525c-0.024,0.104-0.165,0.122-0.213,0.03l-0.525-0.97
		C8.691,9.399,8.703,9.338,8.758,9.301z M10.502,9.503l0.653,0.951c0.037,0.055,0.024,0.128-0.03,0.165l-0.982,0.628
		c-0.085,0.055-0.195-0.018-0.177-0.122l0.329-1.58C10.313,9.448,10.447,9.417,10.502,9.503z M10.301,12.302l1.08-0.738
		c0.091-0.061,0.213,0.03,0.171,0.134l-0.616,1.647c-0.037,0.091-0.165,0.104-0.213,0.012l-0.464-0.909
		C10.234,12.4,10.252,12.333,10.301,12.302z M12.265,16.011l-0.537-0.951c-0.03-0.049-0.012-0.116,0.03-0.152l1.336-0.958
		c0.098-0.067,0.22,0.03,0.171,0.14l-0.799,1.909C12.436,16.084,12.314,16.096,12.265,16.011z M13.088,16.767l0.964-2.074
		c0.037-0.079,0.146-0.091,0.195-0.018l0.781,1.067c0.043,0.055,0.024,0.134-0.037,0.171l-1.744,1.006
		C13.149,16.974,13.039,16.871,13.088,16.767z"/>
	<path id="XMLID_1762_" fill="#232323" d="M4.189,21.915H3.897c-0.061,0-0.116,0.049-0.116,0.116v0.579
		c0,0.061,0.049,0.116,0.116,0.116h6.258c0.061,0,0.116-0.049,0.116-0.116v-0.579c0-0.061-0.049-0.116-0.116-0.116H9.575
		c-0.061,0-0.116-0.049-0.116-0.116v-0.695v-0.293c0-0.061,0.049-0.116,0.116-0.116h0.579c0.061,0,0.116-0.049,0.116-0.116V20
		c0-0.061-0.049-0.116-0.116-0.116l-6.252,0c-0.061,0-0.116,0.049-0.116,0.116v0.579c0,0.061,0.049,0.116,0.116,0.116h0.579
		c0.061,0,0.116,0.049,0.116,0.116v0.988c0,0.061-0.049,0.116-0.116,0.116H4.189z"/>
	<path id="XMLID_1761_" fill="#232323" d="M10.892,13.4L10.892,13.4L10.892,13.4z"/>
	<g id="XMLID_1758_">
		
			<rect id="XMLID_1760_" x="18.392" y="3.577" transform="matrix(0.7211 0.6928 -0.6928 0.7211 12.886 -10.1956)" fill="#FF001F" width="1.43" height="14.662"/>
		
			<rect id="XMLID_1759_" x="18.343" y="3.605" transform="matrix(-0.6928 0.7211 -0.7211 -0.6928 40.1475 4.7689)" fill="#FF001F" width="1.43" height="14.662"/>
	</g>
</g>
</svg>
