<?xml version="1.0" encoding="utf-8"?>
<!-- Generator: Adobe Illustrator 21.0.0, SVG Export Plug-In . SVG Version: 6.00 Build 0)  -->
<svg version="1.1" id="Layer_1" xmlns="http://www.w3.org/2000/svg" xmlns:xlink="http://www.w3.org/1999/xlink" x="0px" y="0px"
	 width="30px" height="30px" viewBox="0 0 30 30" enable-background="new 0 0 30 30" xml:space="preserve">
<g id="XMLID_2994_">
	<g id="XMLID_3001_">
		<path id="XMLID_3004_" fill="#FFFFFF" d="M14.9,29.4c-8,0-14.5-6.5-14.5-14.5S6.9,0.4,14.9,0.4s14.5,6.5,14.5,14.5
			S22.9,29.4,14.9,29.4z"/>
		<g id="XMLID_3002_">
			<path id="XMLID_3003_" fill="#305FA0" d="M15,1c7.7,0,14,6.3,14,14s-6.3,14-14,14S1,22.7,1,15C1,7.3,7.4,1,15,1 M15,0
				C6.7,0,0,6.7,0,15s6.7,15,15,15s15-6.7,15-15S23.4,0,15,0L15,0z"/>
		</g>
	</g>
	<rect id="XMLID_3000_" x="9.7" y="21.2" fill="#305FA0" width="1.1" height="5.6"/>
	<rect id="XMLID_2999_" x="23.4" y="14.1" fill="#305FA0" width="1.1" height="5"/>
	<rect id="XMLID_2998_" x="7.9" y="5.1" fill="#305FA0" width="1.1" height="4.2"/>
	<rect id="XMLID_2997_" x="14.7" y="3.8" fill="#305FA0" width="1.1" height="2.2"/>
	<path id="XMLID_2996_" fill="#305FA0" stroke="#BFBFBF" stroke-width="0.4" stroke-miterlimit="10" d="M5.2,16.6
		c0,0,10.4-2.7,11.4-4.8c0,0,1.3-2.6-2.8-3.7C11.7,7.5,9.6,7,7.5,6.4C6.9,6.2,6.2,5.7,6.4,5.1C6.5,4.8,6.7,4.6,7,4.4
		C7.6,4,8.2,3.8,8.8,3.7c1.3-0.2,2.7-0.1,4-0.1c1.5,0,2.9,0,4.4,0c0,0.2,0,0.4,0,0.6c-1.7,0-3.5,0-5.2,0.2c-0.4,0-0.9,0.1-1.1,0.5
		c-0.1,0.1-0.1,0.3-0.1,0.4c0.1,0.2,0.3,0.3,0.4,0.4c0.5,0.2,1,0.3,1.5,0.4c2.4,0.4,4.9,0.8,7.3,1.4c2,0.5,4.2,1,5.9,2.1
		c0,0,5,2.5-3.8,7.7c0,0-11.5,5.9-15.2,7.2L5.2,16.6z"/>
	
		<path id="XMLID_2995_" fill="none" stroke="#FFFFFF" stroke-width="0.5" stroke-linecap="round" stroke-linejoin="round" stroke-miterlimit="10" stroke-dasharray="2,2,2,2,2,3" d="
		M8,19.9c1.5-0.7,3.4-1.2,4.9-1.9c1.8-0.9,3.6-1.7,5.5-2.6c0.1-0.1,0.2-0.1,0.3-0.2c0.2-0.1,0.3-0.2,0.5-0.3
		c0.3-0.2,0.6-0.5,0.8-0.8c0.5-0.6,0.8-1.3,0.9-2c0.1-0.6,0-1.2-0.3-1.6c-0.3-0.5-0.7-0.8-1.2-1.1c-1.2-0.6-2.4-1.2-3.6-1.7"/>
</g>
</svg>
