<?xml version="1.0" encoding="utf-8"?>
<!-- Generator: Adobe Illustrator 21.0.0, SVG Export Plug-In . SVG Version: 6.00 Build 0)  -->
<svg version="1.1" id="Layer_1" xmlns="http://www.w3.org/2000/svg" xmlns:xlink="http://www.w3.org/1999/xlink" x="0px" y="0px"
	 width="30px" height="30px" viewBox="0 0 30 30" enable-background="new 0 0 30 30" xml:space="preserve">
<g id="XMLID_3128_">
	<path id="XMLID_3132_" fill="#FFFFFF" d="M15,29.5C7,29.5,0.5,23,0.5,15S7,0.5,15,0.5S29.5,7,29.5,15S23,29.5,15,29.5z"/>
	<g id="XMLID_3130_">
		<path id="XMLID_3131_" fill="#305FA0" d="M15,1c7.7,0,14,6.3,14,14s-6.3,14-14,14S1,22.7,1,15S7.4,1,15,1 M15,0C6.7,0,0,6.7,0,15
			s6.7,15,15,15s15-6.7,15-15S23.4,0,15,0L15,0z"/>
	</g>
	<path id="XMLID_3129_" fill="#305FA0" d="M21.8,24V12c0-3.8-3.1-6.9-6.9-6.9S8,8.2,8,12v12H6.3V11.7C6.3,6.9,10.2,3,15,3
		c4.8,0,8.7,3.9,8.7,8.7V24H21.8L21.8,24z M15.2,5.7c5-0.1,6,5.4,6,5.4V24H21l-3.7-6.7v-6c0,0-0.2-1.7-2.2-1.7s-2.4,1.7-2.4,1.7v6
		L8.9,24H8.6V11.1C8.7,11.1,9.5,5.8,15.2,5.7L15.2,5.7z M17,17.3l3.7,6.7H9.2l3.7-6.7H17L17,17.3z"/>
</g>
</svg>
