<?xml version="1.0" encoding="utf-8"?>
<!-- Generator: Adobe Illustrator 21.0.0, SVG Export Plug-In . SVG Version: 6.00 Build 0)  -->
<svg version="1.1" id="Layer_1" xmlns="http://www.w3.org/2000/svg" xmlns:xlink="http://www.w3.org/1999/xlink" x="0px" y="0px"
	 width="30px" height="30px" viewBox="0 0 30 30" enable-background="new 0 0 30 30" xml:space="preserve">
<g>
	<g id="XMLID_3971_">
		<g id="XMLID_3972_">
			<g id="XMLID_3973_">
				<path fill="#FFFFFF" d="M15,29.5C7.005,29.5,0.5,22.995,0.5,15S7.005,0.5,15,0.5c8.131,0,14.5,6.369,14.5,14.5
					C29.5,22.995,22.995,29.5,15,29.5z"/>
				<path fill="#FF001F" d="M15,1c7.85,0,14,6.15,14,14c0,7.72-6.28,14-14,14S1,22.72,1,15S7.28,1,15,1 M15,0C6.7,0,0,6.7,0,15
					s6.7,15,15,15s15-6.7,15-15S23.4,0,15,0L15,0z"/>
			</g>
		</g>
	</g>
	<path id="XMLID_3970_" fill="none" stroke="#000000" stroke-linecap="round" stroke-linejoin="round" stroke-miterlimit="10" d="
		M5.8,6.4c1.8-0.1,3.7-0.4,5.4,0c2.2,0.5,3.2,2.6,2.2,4.7S10,14,8.2,15.2c-1.1,0.7-2.3,1.8-2.4,3.1c-0.1,1.3,1,2.7,2.1,3.3
		c2.6,1.7,6,2.3,9,1.8"/>
	
		<rect id="XMLID_3969_" x="6.726" y="15.908" transform="matrix(0.6928 -0.7211 0.7211 0.6928 -6.9777 17.4355)" fill="#FF001F" width="20.5" height="2"/>
	
		<rect id="XMLID_3968_" x="15.907" y="6.696" transform="matrix(0.6928 -0.7211 0.7211 0.6928 -7.0265 17.3977)" fill="#FF001F" width="2" height="20.5"/>
</g>
</svg>
