<?xml version="1.0" encoding="utf-8"?>
<!-- Generator: Adobe Illustrator 21.0.0, SVG Export Plug-In . SVG Version: 6.00 Build 0)  -->
<svg version="1.1" id="Layer_1" xmlns="http://www.w3.org/2000/svg" xmlns:xlink="http://www.w3.org/1999/xlink" x="0px" y="0px"
	 width="30px" height="30px" viewBox="0 0 30 30" enable-background="new 0 0 30 30" xml:space="preserve">
<g>
	<g id="XMLID_818_">
		<path id="XMLID_821_" fill="#FFFFFF" d="M15,29.5C7,29.5,0.5,23,0.5,15S7,0.5,15,0.5S29.5,7,29.5,15S23,29.5,15,29.5z"/>
		<g id="XMLID_819_">
			<path id="XMLID_820_" fill="#305FA0" d="M15,1c7.7,0,14,6.3,14,14s-6.3,14-14,14S1,22.7,1,15S7.2,1,15,1 M15,0C6.7,0,0,6.7,0,15
				s6.7,15,15,15s15-6.7,15-15S23.2,0,15,0L15,0z"/>
		</g>
	</g>
	<g>
		<path fill="#305FA0" d="M24.2,9.9c0.2,0,0.3,0.1,0.3,0.3V22c0,0.2-0.1,0.3-0.3,0.3H5.9c-0.2,0-0.3-0.1-0.3-0.3V10.2
			c0-0.2,0.1-0.3,0.3-0.3h1h0.3H8h14.1h0.8h0.3H24.2 M15,4.1c-0.5,0-1,0.4-1,1c0,0.1,0,0.2,0.1,0.3L6.9,8.9h-1
			c-0.7,0-1.3,0.6-1.3,1.3V22c0,0.7,0.6,1.3,1.3,1.3h18.3c0.7,0,1.3-0.6,1.3-1.3V10.2c0-0.7-0.6-1.3-1.3-1.3h-1L16,5.4
			c0-0.1,0.1-0.2,0.1-0.3C16,4.6,15.5,4.1,15,4.1L15,4.1L15,4.1z M15,6.1c0.2,0,0.4-0.1,0.5-0.2L22,8.8H7.9l6.5-2.9
			C14.6,6,14.8,6.1,15,6.1L15,6.1L15,6.1z"/>
		<path fill="#305FA0" d="M23.8,21c0,0.4-0.3,0.7-0.7,0.7H6.7C6.3,21.7,6,21.4,6,21v-9.8c0-0.4,0.3-0.7,0.7-0.7h16.4
			c0.4,0,0.7,0.3,0.7,0.7V21L23.8,21z"/>
	</g>
</g>
</svg>
