<?xml version="1.0" encoding="utf-8"?>
<!-- Generator: Adobe Illustrator 21.0.0, SVG Export Plug-In . SVG Version: 6.00 Build 0)  -->
<svg version="1.1" id="Layer_1" xmlns="http://www.w3.org/2000/svg" xmlns:xlink="http://www.w3.org/1999/xlink" x="0px" y="0px"
	 width="30px" height="30px" viewBox="0 0 30 30" enable-background="new 0 0 30 30" xml:space="preserve">
<g>
	<polyline id="XMLID_1858_" points="24.95,9.8 24.95,23.6 5.15,23.5 24.95,9.8 	"/>
	<polygon id="XMLID_1857_" fill="#1ABBFE" points="6.55,23.1 24.25,23.2 24.25,10.9 	"/>
	<g id="XMLID_1852_">
		<g id="XMLID_2502_">
			<g id="XMLID_2503_">
				<g id="XMLID_2513_" enable-background="new    ">
					<path fill="#305FA0" d="M5.45,11.8h5.5v-1.6h-4.8V8.4h4.8v-2h1.9v2h4.9v1.8h-4.9v1.6h5.6v1.8h-5c1.4,1.6,3.1,2.9,5.2,3.7
						c-0.5,0.6-0.9,1.2-1.4,1.8c-1.8-1-3.3-2.3-4.5-4v4.8h-1.9v-4.7c-1.1,1.5-2.6,2.8-4.5,4c-0.4-0.6-0.9-1.2-1.3-1.7
						c2.1-1.1,3.9-2.4,5.2-3.9h-4.9v-1.8H5.45z"/>
				</g>
			</g>
		</g>
	</g>
</g>
</svg>
