<?xml version="1.0" encoding="utf-8"?>
<!-- Generator: Adobe Illustrator 21.0.0, SVG Export Plug-In . SVG Version: 6.00 Build 0)  -->
<svg version="1.1" id="Layer_1" xmlns="http://www.w3.org/2000/svg" xmlns:xlink="http://www.w3.org/1999/xlink" x="0px" y="0px"
	 width="30px" height="30px" viewBox="0 0 30 30" enable-background="new 0 0 30 30" xml:space="preserve">
<g>
	<polyline id="XMLID_1870_" points="26.3,8.75 26.3,24.55 3.7,24.45 26.3,8.75 	"/>
	<polygon id="XMLID_1866_" fill="#1ABBFE" points="5.3,23.95 25.6,24.05 25.6,10.05 	"/>
	<g id="XMLID_1853_">
		<g id="XMLID_2499_">
			<g id="XMLID_2500_">
				<g enable-background="new    ">
					<path fill="#305FA0" d="M3.9,13.25h6.4v-5.7H4.6v-2.1h13.8v2.1h-5.8v5.7h6.5v2.1h-6.5v4.9h-2.4v-4.9H3.8v-2.1H3.9z M4.8,8.95
						l1.6-1.1c1,1.2,2,2.5,3.1,3.9l-1.9,1.2C6.6,11.35,5.6,10.05,4.8,8.95z M18.4,9.05c-1.1,1.3-2.3,2.6-3.5,3.9l-1.6-1.3
						c1.2-1.2,2.3-2.5,3.2-3.9L18.4,9.05z"/>
				</g>
			</g>
		</g>
	</g>
</g>
</svg>
