<?xml version="1.0" encoding="utf-8"?>
<!-- Generator: Adobe Illustrator 21.0.0, SVG Export Plug-In . SVG Version: 6.00 Build 0)  -->
<svg version="1.1" id="Layer_1" xmlns="http://www.w3.org/2000/svg" xmlns:xlink="http://www.w3.org/1999/xlink" x="0px" y="0px"
	 width="30px" height="30px" viewBox="0 0 30 30" enable-background="new 0 0 30 30" xml:space="preserve">
<g>
	<path id="XMLID_1041_" fill="#305FA0" d="M8.998,4.5l-2.5,3.4l-0.5,3.6l1.1,2.3l0.4,3.5l2.6,4l1.9,2.4l1.4,1.5c0,0,0.7,1.1,1,1.1
		s1.3,0,1.3,0l6.6-9.5l1.8-7l-1.6-4.4l-6.1-2.9h-4.3"/>
	<path id="XMLID_1040_" fill="#305FA0" d="M14.998,28.5c-1.7,0-10.1-12.6-10.1-16.9c0-5.6,4.5-10.1,10.1-10.1s10.1,4.5,10.1,10.1
		C25.298,15.8,16.798,28.5,14.998,28.5z M14.998,3.2c-4.7,0-8.4,3.8-8.4,8.4c0,3.5,7,14.4,8.4,14.3c1.4,0,8.4-10.9,8.4-14.3
		C23.598,7,19.798,3.2,14.998,3.2z M14.998,15.9c-2.3,0-4.2-1.9-4.2-4.2s1.9-4.2,4.2-4.2s4.2,1.9,4.2,4.2S17.498,15.9,14.998,15.9z
		 M14.998,9.1c-1.4,0-2.5,1.1-2.5,2.5s1.1,2.5,2.5,2.5s2.5-1.1,2.5-2.5C17.598,10.3,16.498,9.1,14.998,9.1z"/>
	<circle id="XMLID_1038_" fill="#FFFFFF" stroke="#305FA0" stroke-miterlimit="10" cx="14.998" cy="11.5" r="7.4"/>
	<g enable-background="new    ">
		<path fill="#FF7C48" d="M20.598,8.2l-2.1,7.8h-1.8l-1.3-5.1c-0.1-0.3-0.1-0.6-0.1-0.9l0,0c0,0.3-0.1,0.6-0.1,0.9l-1.4,5.1h-1.9
			l-2.1-7.8h1.8l1.2,5.3c0,0.2,0.1,0.5,0.1,0.9l0,0c0-0.3,0.1-0.6,0.2-0.9l1.4-5.3h1.8l1.3,5.3c0.1,0.2,0.1,0.5,0.1,0.8l0,0
			c0-0.3,0.1-0.6,0.1-0.9l1.1-5.3L20.598,8.2L20.598,8.2z"/>
	</g>
</g>
</svg>
