<?xml version="1.0" encoding="utf-8"?>
<!-- Generator: Adobe Illustrator 17.0.0, SVG Export Plug-In . SVG Version: 6.00 Build 0)  -->
<!DOCTYPE svg PUBLIC "-//W3C//DTD SVG 1.1//EN" "http://www.w3.org/Graphics/SVG/1.1/DTD/svg11.dtd">
<svg version="1.1"
	 id="svg2203" xmlns:sodipodi="http://sodipodi.sourceforge.net/DTD/sodipodi-0.dtd" xmlns:cc="http://web.resource.org/cc/" xmlns:dc="http://purl.org/dc/elements/1.1/" xmlns:inkscape="http://www.inkscape.org/namespaces/inkscape" xmlns:rdf="http://www.w3.org/1999/02/22-rdf-syntax-ns#" xmlns:svg="http://www.w3.org/2000/svg" sodipodi:version="0.32" sodipodi:docname="闂傚倸鍊搁崐宄懊归崶鏃堟偐閸欏鍠愮紓浣戒含閸嬬偟鎹㈠┑瀣＜婵犲﹤鎳愰敍婊冣攽閳╁啳纭€缂備胶濮靛畝绋垮ú绠归柣鎰絻婵洖鈹戦敍鍕哗婵″閹偓鎼达絿鐓撻柣鐘叉川閸嬫挸螞閸愭槬闁逞勭厵闁艰崵妫" sodipodi:docbase="D:\SVG\闂傚倸鍊搁崐鎼佸磹妞嬪海鐭嗗〒姘ｅ亾妤犵偞鐗犲璇测槈濞嗘劕鍔呴梺闈涚箳婵攱绂掗懖鈺冪＝濞达絼绮欓崫娲煙閸涘﹥鍊愰柡" inkscape:version="0.45.1" inkscape:output_extension="org.inkscape.output.svg.inkscape"
	 xmlns="http://www.w3.org/2000/svg" xmlns:xlink="http://www.w3.org/1999/xlink" x="0px" y="0px" width="30px" height="30px"
	 viewBox="0 0 30 30" enable-background="new 0 0 30 30" xml:space="preserve">
<sodipodi:namedview  id="base" pagecolor="#ffffff" gridtolerance="10000" guidetolerance="10" inkscape:cx="126.79097" showguides="true" inkscape:cy="646.08493" inkscape:zoom="0.74999999" objecttolerance="10" bordercolor="#666666" borderopacity="1.0" inkscape:pageshadow="2" inkscape:guide-bbox="true" inkscape:window-x="-4" inkscape:window-y="-4" inkscape:window-height="968" inkscape:pageopacity="0.0" inkscape:current-layer="layer1" inkscape:document-units="px" inkscape:window-width="1280">
	<sodipodi:guide  id="guide22942" orientation="vertical" position="1116"></sodipodi:guide>
	<sodipodi:guide  id="guide22944" orientation="vertical" position="1147"></sodipodi:guide>
</sodipodi:namedview>
<g>
	<path fill="#0000FF" d="M8.229,3.951c10.375,0,16.313,5.813-3.75,18.938l8.063,4.938c0,0,12.438-7.125,12.438-18.938
		c0-9.25-16.75-6.25-16.75-6.25L8.229,3.951L8.229,3.951z"/>
	<path fill="#FFFFFF" d="M10.729,3.388c9.188,0,15.313,5.875,0.313,18.75l1.938,1.063c0,0,8.813-6.25,8.813-14.188
		C21.792,1.638,10.729,3.388,10.729,3.388z"/>
	
		<rect x="13.698" y="2.582" transform="matrix(-0.9644 -0.2644 0.2644 -0.9644 29.2603 11.2265)" fill="#0000FF" width="3.375" height="2.125"/>
	
		<rect x="18.91" y="5.471" transform="matrix(-0.524 -0.8517 0.8517 -0.524 24.7956 28.2342)" fill="#0000FF" width="2.754" height="3.435"/>
	
		<rect x="18.534" y="11.486" transform="matrix(-0.8629 -0.5053 0.5053 -0.8629 30.4215 34.6594)" fill="#0000FF" width="2.754" height="3.435"/>
	
		<rect x="14.883" y="17.002" transform="matrix(-0.7548 -0.6559 0.6559 -0.7548 16.2551 43.5157)" fill="#0000FF" width="2.754" height="3.435"/>
	<path fill="#0000FF" d="M5.396,10.201l-2.792,3.667l7.5,4.208c0,0,3.542-2.458,4.625-4.375
		C10.979,12.326,5.396,10.201,5.396,10.201z"/>
	<path fill="#0000FF" d="M23.521,17.201c0,0-1.625,3.375-4.25,5.833l4.25,2.5l3.875-6.814L23.521,17.201z"/>
</g>
</svg>
