<?xml version="1.0" encoding="utf-8"?>
<!-- Generator: Adobe Illustrator 21.0.0, SVG Export Plug-In . SVG Version: 6.00 Build 0)  -->
<svg version="1.1" id="Layer_1" xmlns="http://www.w3.org/2000/svg" xmlns:xlink="http://www.w3.org/1999/xlink" x="0px" y="0px"
	 width="30px" height="30px" viewBox="0 0 30 30" enable-background="new 0 0 30 30" xml:space="preserve">
<g>
	<g id="XMLID_3364_">
		<g id="XMLID_3365_">
			<g id="XMLID_3366_">
				<path fill="#FFFFFF" d="M15,29.5C7.005,29.5,0.5,22.995,0.5,15S7.005,0.5,15,0.5S29.5,7.005,29.5,15S22.995,29.5,15,29.5z"/>
				<path fill="#FF001F" d="M15,1c7.72,0,14,6.28,14,14s-6.28,14-14,14S1,22.72,1,15S7.28,1,15,1 M15,0C6.7,0,0,6.7,0,15
					s6.7,15,15,15s15-6.7,15-15S23.3,0,15,0L15,0z"/>
			</g>
		</g>
	</g>
	
		<rect id="XMLID_3363_" x="0.076" y="14.016" transform="matrix(0.7071 -0.7071 0.7071 0.7071 -6.2024 15.0582)" fill="#FF001F" width="30" height="2"/>
	<g id="XMLID_3356_">
		<rect id="XMLID_3362_" x="13.8" y="12.1" width="2.1" height="13.1"/>
		
			<rect id="XMLID_3361_" x="9.964" y="3.999" transform="matrix(0.7073 -0.7069 0.7069 0.7073 -3.264 10.5138)" width="2.2" height="10.4"/>
		<g id="XMLID_3359_">
			
				<rect id="XMLID_3360_" x="14.011" y="7.973" transform="matrix(0.7073 -0.7069 0.7069 0.7073 -0.7906 16.236)" width="10.4" height="2.2"/>
		</g>
		<rect id="XMLID_3358_" x="6.3" y="17.9" width="17.2" height="2.2"/>
		<rect id="XMLID_3357_" x="6.3" y="12.4" width="17.2" height="2.2"/>
	</g>
</g>
</svg>
